<svg width="152" height="36" viewBox="0 0 152 36" fill="none" xmlns="http://www.w3.org/2000/svg">
<path d="M62.1629 19.4171C61.9153 25.6998 56.972 30.592 50.8179 30.592C44.3273 30.592 39.5039 25.3319 39.5039 18.9833C39.5039 12.5765 44.7296 7.3125 51.0964 7.3125C53.9704 7.3125 56.7824 8.55201 59.1651 10.7793L57.3123 13.0685C55.4905 11.4881 53.2935 10.4074 51.1003 10.4074C46.4316 10.4074 42.6022 14.246 42.6022 18.9794C42.6022 23.7786 46.2188 27.4933 50.8257 27.4933C54.9683 27.4933 58.2136 24.4603 58.8634 20.5598H49.468V17.8057H62.1706V19.4171H62.1629Z" fill="#0A0A0A"/>
<path d="M72.9455 17.9045H71.2126C69.3018 17.9045 67.7507 19.4578 67.7507 21.3713V30.4081H64.6602V14.9336H67.1937V16.2351C68.0292 15.3984 69.356 14.9336 70.8413 14.9336H74.1794L72.9455 17.9045Z" fill="#0A0A0A"/>
<path d="M89.7935 30.406H87.1671V28.4576C85.1364 30.4447 81.9298 31.3976 78.6845 29.9722C76.2786 28.9147 74.4877 26.7185 74.0119 24.1271C73.0913 19.1226 76.9361 14.6836 81.8486 14.6836C83.918 14.6836 85.7746 15.5203 87.1323 16.8799V14.9315H89.7896V30.406H89.7935ZM86.6294 23.7824C87.3605 20.6371 84.9817 17.7785 81.8795 17.7785C79.1912 17.7785 77.0251 19.9747 77.0251 22.6397C77.0251 25.6494 79.667 27.9812 82.7421 27.4544C84.6374 27.129 86.1962 25.6571 86.6294 23.7824Z" fill="#0A0A0A"/>
<path d="M96.0245 14.0643V14.932H100.941V17.655H96.0245V30.4065H92.9648V14.1573C92.9648 10.7525 95.4056 8.74219 98.4652 8.74219H102.175L100.937 11.6512H98.4652C97.1075 11.6512 96.0245 12.7319 96.0245 14.0643Z" fill="#0A0A0A"/>
<path d="M117.313 30.406H114.687V28.4576C112.656 30.4447 109.449 31.3976 106.204 29.9722C103.798 28.9147 102.007 26.7185 101.531 24.1271C100.611 19.1226 104.456 14.6836 109.368 14.6836C111.437 14.6836 113.294 15.5203 114.652 16.8799V14.9315H117.309V30.406H117.313ZM114.153 23.7824C114.884 20.6371 112.505 17.7785 109.403 17.7785C106.715 17.7785 104.549 19.9747 104.549 22.6397C104.549 25.6494 107.19 27.9812 110.265 27.4544C112.161 27.129 113.716 25.6571 114.153 23.7824Z" fill="#0A0A0A"/>
<path d="M133.827 21.2453V30.406H130.737V21.2453C130.737 19.3279 129.159 17.7785 127.275 17.7785C125.329 17.7785 123.782 19.3279 123.782 21.2453V30.406H120.691V14.9315H123.256V16.264C124.37 15.2724 125.851 14.6875 127.399 14.6875C130.984 14.6836 133.827 17.6236 133.827 21.2453Z" fill="#0A0A0A"/>
<path d="M152.001 30.406H149.374V28.4576C147.343 30.4447 144.137 31.3976 140.892 29.9722C138.486 28.9147 136.695 26.7185 136.219 24.1271C135.298 19.1226 139.143 14.6836 144.056 14.6836C146.125 14.6836 147.982 15.5203 149.339 16.8799V14.9315H151.997V30.406H152.001ZM148.84 23.7824C149.571 20.6371 147.193 17.7785 144.09 17.7785C141.402 17.7785 139.236 19.9747 139.236 22.6397C139.236 25.6494 141.878 27.9812 144.953 27.4544C146.848 27.129 148.403 25.6571 148.84 23.7824Z" fill="#0A0A0A"/>
<path d="M33.0446 15.8812C32.9905 15.277 32.886 14.5797 32.6849 13.8089C32.4838 13.042 32.1859 12.2014 31.7566 11.326C31.3195 10.4584 30.7509 9.55197 30.016 8.67657C29.7297 8.33183 29.4164 7.99484 29.076 7.66172C29.5827 5.64751 28.461 3.90445 28.461 3.90445C26.527 3.78438 25.297 4.50484 24.8405 4.83796C24.7632 4.80697 24.6897 4.77211 24.6123 4.74112C24.2835 4.60555 23.9431 4.4816 23.595 4.37314C23.2469 4.26469 22.891 4.16398 22.5274 4.07489C22.1638 3.98967 21.7925 3.91607 21.4173 3.85797C21.3516 3.84635 21.2858 3.83861 21.22 3.83086C20.3768 1.12718 17.9516 0 17.9516 0C15.2517 1.71595 14.7372 4.1175 14.7372 4.1175C14.7372 4.1175 14.7256 4.17172 14.7101 4.26081C14.5593 4.30342 14.4123 4.34603 14.2614 4.39251C14.0526 4.45449 13.8514 4.53196 13.6426 4.60555C13.4376 4.68689 13.2326 4.76436 13.0275 4.85345C12.6214 5.02776 12.2153 5.22531 11.8207 5.44609C11.4378 5.66301 11.0626 5.89929 10.6951 6.15494C10.641 6.1317 10.6023 6.11233 10.6023 6.11233C6.8619 4.68302 3.53925 6.40284 3.53925 6.40284C3.23755 10.3886 5.03231 12.8986 5.38817 13.3518C5.29921 13.5997 5.21798 13.8476 5.14062 14.0994C4.86212 15.0019 4.65712 15.9277 4.52947 16.8883C4.51013 17.0239 4.49466 17.1633 4.47919 17.3028C1.02503 19.011 0 22.5165 0 22.5165C2.88555 25.8399 6.24688 26.0452 6.24688 26.0452C6.25075 26.0413 6.25461 26.0413 6.25461 26.0374C6.68397 26.8005 7.17907 27.5287 7.7322 28.2066C7.96429 28.4893 8.21184 28.7644 8.46326 29.0278C7.41116 32.0374 8.61025 34.5475 8.61025 34.5475C11.8207 34.6675 13.9327 33.1414 14.3736 32.7889C14.6947 32.8974 15.0157 32.9942 15.3445 33.0794C16.3308 33.3351 17.3404 33.4822 18.35 33.5287C18.6014 33.5403 18.8528 33.5442 19.1081 33.5442H19.2319L19.3131 33.5403L19.4717 33.5365L19.6303 33.5287L19.6341 33.5326C21.1466 35.694 23.8078 36 23.8078 36C25.6992 34.0013 25.8075 32.0219 25.8075 31.592C25.8075 31.592 25.8075 31.5765 25.8075 31.5649C25.8075 31.53 25.8075 31.5029 25.8075 31.5029C25.8075 31.4719 25.8037 31.4448 25.8037 31.4099C26.2021 31.1311 26.5811 30.8328 26.937 30.5113C27.6951 29.8257 28.3566 29.0433 28.9058 28.2027C28.9561 28.1252 29.0064 28.0439 29.0567 27.9626C31.1996 28.0865 32.7081 26.634 32.7081 26.634C32.3523 24.399 31.0797 23.3105 30.8166 23.1014C30.8166 23.1014 30.805 23.0936 30.7896 23.082C30.7741 23.0704 30.7664 23.0626 30.7664 23.0626C30.7509 23.0549 30.7354 23.0433 30.7199 23.0316C30.7315 22.8961 30.7432 22.7644 30.7509 22.6288C30.7664 22.3886 30.7741 22.1485 30.7741 21.9083V21.7301V21.6411V21.5946C30.7741 21.5326 30.7741 21.5558 30.7741 21.5326L30.7664 21.3815L30.7548 21.1801C30.7509 21.1104 30.747 21.0484 30.7393 20.9864C30.7354 20.9245 30.7277 20.8625 30.7199 20.8005L30.6967 20.6146L30.6697 20.4287C30.6348 20.1846 30.5846 19.9406 30.5304 19.6966C30.3061 18.7321 29.9309 17.8179 29.4358 16.9968C28.9406 16.1756 28.3218 15.4474 27.6294 14.8354C26.9331 14.2195 26.1557 13.7276 25.3395 13.3596C24.5233 12.9916 23.6646 12.7553 22.8098 12.6469C22.3843 12.5926 21.955 12.5694 21.5334 12.5733L21.3748 12.5771H21.3361C21.3245 12.5771 21.2781 12.5771 21.2819 12.5771L21.2162 12.581L21.0615 12.5926C21.0034 12.5965 20.9415 12.6004 20.8874 12.6081C20.6708 12.6275 20.4542 12.6585 20.2453 12.7011C19.3982 12.8599 18.5975 13.1659 17.8897 13.5881C17.1857 14.0103 16.5707 14.541 16.0717 15.1375C15.5727 15.7379 15.1859 16.4003 14.919 17.0859C14.6521 17.7715 14.5051 18.4803 14.4626 19.1698C14.451 19.3402 14.4471 19.5145 14.451 19.6811C14.451 19.7237 14.451 19.7663 14.4549 19.8089L14.4587 19.9484C14.4665 20.0297 14.4703 20.1149 14.4781 20.1963C14.5129 20.5449 14.5748 20.878 14.6676 21.2034C14.8533 21.8464 15.1511 22.4312 15.5224 22.927C15.8899 23.4229 16.3308 23.8334 16.7989 24.1549C17.2669 24.4764 17.7659 24.705 18.261 24.8483C18.7561 24.9955 19.2473 25.0575 19.7115 25.0575C19.7695 25.0575 19.8276 25.0575 19.8856 25.0536C19.9165 25.0536 19.9475 25.0497 19.9784 25.0497C20.0093 25.0497 20.0403 25.0458 20.0712 25.0458C20.1215 25.042 20.1679 25.0342 20.2182 25.0303C20.2298 25.0303 20.2453 25.0265 20.2608 25.0265L20.3072 25.0187C20.3381 25.0148 20.3652 25.011 20.3962 25.0071C20.458 24.9994 20.5083 24.9877 20.5663 24.9761C20.6205 24.9645 20.6747 24.9567 20.7288 24.9413C20.8371 24.918 20.9377 24.887 21.0382 24.8522C21.2394 24.7863 21.4289 24.705 21.6068 24.6159C21.7848 24.5229 21.9472 24.4222 22.0981 24.3176C22.1406 24.2866 22.1832 24.2556 22.2257 24.2208C22.3882 24.093 22.4153 23.8567 22.2838 23.6979C22.1716 23.5584 21.9743 23.5236 21.8196 23.6088C21.7809 23.6281 21.7422 23.6514 21.7036 23.6708C21.5682 23.7366 21.4289 23.7947 21.2781 23.8451C21.1272 23.8915 20.9725 23.9303 20.81 23.9613C20.7288 23.9729 20.6476 23.9845 20.5625 23.9923C20.5199 23.9961 20.4774 24 20.4387 24C20.3962 24 20.3536 24.0039 20.3149 24.0039C20.2762 24.0039 20.2337 24.0039 20.195 24C20.1447 23.9961 20.0944 23.9961 20.0442 23.9923C20.0442 23.9923 20.0171 23.9923 20.0403 23.9923H20.0248L19.99 23.9884C19.9668 23.9845 19.9436 23.9845 19.9243 23.9806C19.8778 23.9768 19.8353 23.969 19.7889 23.9651C19.4253 23.9148 19.0578 23.8102 18.7058 23.6475C18.35 23.4887 18.0096 23.264 17.704 22.989C17.3984 22.714 17.1315 22.3809 16.9227 22.0052C16.7138 21.6294 16.5668 21.215 16.4972 20.7773C16.4624 20.5604 16.4469 20.3318 16.4546 20.111C16.4585 20.0491 16.4585 19.991 16.4624 19.929C16.4624 19.9445 16.4624 19.9212 16.4624 19.9174V19.8941L16.4662 19.8476C16.4701 19.8167 16.4701 19.7895 16.474 19.7586C16.4856 19.6385 16.5049 19.5184 16.5243 19.3983C16.6906 18.4454 17.1663 17.5158 17.9051 16.8108C18.0908 16.6365 18.2881 16.47 18.5008 16.3267C18.7136 16.1795 18.9379 16.0516 19.17 15.9432C19.4059 15.8347 19.6496 15.7456 19.901 15.6798C20.1525 15.6139 20.4116 15.5675 20.6708 15.5442C20.8023 15.5326 20.9338 15.5287 21.0653 15.5287C21.1001 15.5287 21.1272 15.5287 21.1543 15.5287L21.2626 15.5326L21.3284 15.5365C21.3554 15.5365 21.3284 15.5365 21.34 15.5365H21.367L21.4753 15.5442C21.7577 15.5675 22.0401 15.6062 22.3186 15.672C22.8756 15.796 23.4171 16.0013 23.9238 16.2802C24.9334 16.8418 25.7959 17.7172 26.322 18.7747C26.5889 19.3015 26.7745 19.867 26.8674 20.4519C26.8906 20.5991 26.9061 20.7463 26.9177 20.8935L26.9254 21.0058L26.9293 21.1181C26.9331 21.1569 26.9331 21.1917 26.9331 21.2305C26.9331 21.2692 26.937 21.3079 26.9331 21.3351V21.4319L26.9293 21.5403C26.9254 21.6139 26.9215 21.7301 26.9177 21.8037C26.9061 21.9664 26.8906 22.1252 26.8712 22.2879C26.8519 22.4467 26.8248 22.6056 26.7978 22.7644C26.7668 22.9232 26.732 23.0781 26.6933 23.2331C26.616 23.5429 26.5154 23.8528 26.3955 24.1511C26.1595 24.7515 25.8423 25.3209 25.4633 25.8476C24.7013 26.8974 23.6608 27.7534 22.4772 28.2957C21.8853 28.5629 21.2587 28.7605 20.6205 28.8651C20.2995 28.9193 19.9745 28.9503 19.6496 28.9619L19.5877 28.9658H19.5374H19.433H19.2744H19.1932C19.2357 28.9658 19.1855 28.9658 19.1893 28.9658H19.1584C18.9843 28.9619 18.8103 28.9542 18.6362 28.9387C17.94 28.8883 17.2553 28.7644 16.59 28.5707C15.9247 28.377 15.2787 28.1175 14.6676 27.7921C13.4453 27.1375 12.3545 26.2427 11.4997 25.162C11.0703 24.6236 10.6951 24.0465 10.3857 23.4383C10.0762 22.8302 9.83255 22.1911 9.65075 21.5403C9.47282 20.8857 9.36065 20.2195 9.3181 19.5455L9.31036 19.4177L9.30649 19.3867V19.3596V19.3054L9.30263 19.193V19.1659V19.1272V19.0497L9.29876 18.8948V18.8638C9.29876 18.8677 9.29876 18.8677 9.29876 18.8522V18.7902C9.29876 18.7088 9.30263 18.6275 9.30263 18.5423C9.31423 18.2092 9.34131 17.8683 9.38772 17.5274C9.43027 17.1866 9.48829 16.8418 9.55792 16.501C9.62754 16.1601 9.71264 15.8231 9.80547 15.4939C9.995 14.8315 10.231 14.1885 10.5133 13.5804C11.0742 12.3641 11.8091 11.2912 12.6949 10.4312C12.9154 10.2143 13.1436 10.009 13.3834 9.81924C13.6194 9.62944 13.8669 9.45126 14.1222 9.2847C14.3736 9.11814 14.6366 8.9632 14.9074 8.82376C15.0389 8.75016 15.1782 8.68819 15.3136 8.62234C15.3832 8.59135 15.4528 8.56036 15.5224 8.52937C15.5921 8.49839 15.6617 8.4674 15.7313 8.44028C16.0098 8.32021 16.2999 8.22337 16.59 8.13041C16.6635 8.10717 16.737 8.0878 16.8105 8.06456C16.884 8.04132 16.9575 8.02582 17.031 8.00258C17.1779 7.95997 17.3288 7.92511 17.4758 7.89025C17.5493 7.87088 17.6266 7.85539 17.7001 7.8399C17.7736 7.8244 17.851 7.80891 17.9245 7.79342C18.0018 7.77792 18.0753 7.7663 18.1527 7.75081L18.2649 7.73144L18.377 7.71595C18.4544 7.70433 18.5279 7.6927 18.6053 7.68108C18.6903 7.66559 18.7754 7.66172 18.8605 7.64622C18.9302 7.63848 19.0462 7.62298 19.1158 7.61524C19.17 7.61136 19.2241 7.60362 19.2783 7.59974L19.3866 7.58812L19.4407 7.58425L19.5026 7.58037C19.5877 7.5765 19.6728 7.56875 19.7618 7.56488L19.8894 7.55713C19.8894 7.55713 19.9359 7.55713 19.8972 7.55713H19.9243L19.9784 7.55326C20.0519 7.54939 20.1254 7.54551 20.1989 7.54164C20.489 7.53389 20.7791 7.53389 21.0692 7.54164C21.6455 7.56488 22.2103 7.62686 22.7595 7.73144C23.858 7.93673 24.8908 8.28922 25.8269 8.75403C26.7629 9.2111 27.6023 9.77663 28.3295 10.3886C28.3759 10.4274 28.4185 10.4661 28.4649 10.5048C28.5074 10.5436 28.5538 10.5823 28.5964 10.621C28.6854 10.6985 28.7705 10.7799 28.8555 10.8573C28.9406 10.9348 29.0219 11.0161 29.1031 11.0975C29.1843 11.1788 29.2656 11.2602 29.3391 11.3415C29.6485 11.6708 29.9347 12 30.19 12.3331C30.7083 12.9994 31.1222 13.6733 31.451 14.3086C31.4703 14.3473 31.4935 14.3861 31.5129 14.4287C31.5322 14.4674 31.5516 14.5061 31.5709 14.5487C31.6096 14.6262 31.6483 14.7037 31.6831 14.7811C31.7179 14.8586 31.7566 14.9361 31.7875 15.0097C31.8223 15.0872 31.8533 15.1607 31.8842 15.2343C32.008 15.5326 32.1202 15.8154 32.2091 16.0826C32.36 16.5126 32.4722 16.9038 32.5573 17.2447C32.5921 17.3802 32.7197 17.4693 32.859 17.4577C33.0021 17.4461 33.1143 17.326 33.1181 17.1827C33.0949 16.7954 33.0872 16.3693 33.0446 15.8812Z" fill="url(#paint0_linear)"/>
<defs>
<linearGradient id="paint0_linear" x1="16.5454" y1="44.0885" x2="16.5454" y2="11.2042" gradientUnits="userSpaceOnUse">
<stop stop-color="#FFF100"/>
<stop offset="1" stop-color="#F05A28"/>
</linearGradient>
</defs>
</svg>
