<svg width="60" height="60" viewBox="0 0 60 60" fill="none" xmlns="http://www.w3.org/2000/svg">
<circle cx="30" cy="30" r="30" fill="#7B51FB"/>
<path d="M44.5439 29.6006C42.8239 35.5526 36.2919 39.9996 28.4999 39.9996C27.5769 39.9996 26.6439 39.9196 25.7129 39.7886C27.8589 41.7776 31.0569 42.9996 34.4999 42.9996C35.5979 42.9996 36.6939 42.8736 37.7659 42.6256L42.9999 45.7666V40.0686C44.9389 38.4096 45.9999 36.2706 45.9999 34.0006C45.9999 32.4266 45.4939 30.9246 44.5439 29.6006Z" fill="white"/>
<path d="M17 41.618V33.508C15.062 31.507 14 29.034 14 26.5C14 20.159 20.505 15 28.5 15C36.495 15 43 20.159 43 26.5C43 32.841 36.495 38 28.5 38C27.32 38 26.127 37.88 24.948 37.645L17 41.618Z" fill="white"/>
</svg>
