<svg width="34" height="34" viewBox="0 0 34 34" fill="none" xmlns="http://www.w3.org/2000/svg">
<path fill-rule="evenodd" clip-rule="evenodd" d="M33.3274 29.469C32.9969 30.3084 32.2343 31.4905 31.1528 32.3231C30.5284 32.8039 29.783 33.2636 28.759 33.567C27.6676 33.8904 26.3231 33.9997 24.6498 33.9997H9.35003C7.67686 33.9997 6.33244 33.8904 5.24082 33.567C4.2169 33.2636 3.47159 32.8039 2.84707 32.3231C1.76572 31.4903 1.00298 30.3084 0.672482 29.469C0.00675553 27.7775 0 25.8585 0 24.6498V9.34989C0 8.14126 0.00675553 6.22218 0.672482 4.53077C1.00298 3.69129 1.76559 2.50927 2.84707 1.67668C3.47145 1.19579 4.2169 0.736122 5.24082 0.432782C6.3323 0.10931 7.67673 0 9.35003 0H24.65C26.3231 0 27.6676 0.10931 28.7592 0.432782C29.7831 0.736122 30.5284 1.19593 31.1529 1.67668C32.2343 2.50941 32.997 3.69129 33.3275 4.53077C33.9932 6.22218 34 8.14126 34 9.34989V24.6498C33.9999 25.8583 33.9931 27.7774 33.3274 29.469Z" fill="url(#paint0_linear)"/>
<path d="M19.4652 19.5437C18.955 19.0053 18.0589 18.6603 17.001 18.6603C15.943 18.6603 15.0469 19.0053 14.5367 19.5437C14.2706 19.8246 14.1298 20.1125 14.0854 20.5227C13.9995 21.3171 14.0477 22.001 14.1408 23.0946C14.2295 24.1366 14.3978 25.5261 14.6175 26.9414C14.7739 27.9485 14.9009 28.4921 15.0165 28.8814C15.2041 29.5123 15.9049 30.0639 17.001 30.0639C18.097 30.0639 18.7978 29.5121 18.9854 28.8814C19.101 28.4921 19.228 27.9485 19.3844 26.9414C19.6041 25.5261 19.7724 24.1366 19.8611 23.0946C19.9542 22.0009 20.0024 21.3169 19.9165 20.5227C19.8721 20.1126 19.7313 19.8246 19.4652 19.5437ZM14.2211 14.7506C14.2211 16.2873 15.4669 17.5331 17.0036 17.5331C18.5404 17.5331 19.7862 16.2873 19.7862 14.7506C19.7862 13.2138 18.5404 11.968 17.0036 11.968C15.4669 11.968 14.2211 13.2138 14.2211 14.7506ZM16.9691 3.76958C10.4614 3.78809 5.12901 9.06756 5.04848 15.5748C4.98309 20.8462 8.34806 25.3554 13.0468 27.0081C13.1608 27.0482 13.2766 26.9535 13.2587 26.8339C13.197 26.4247 13.1389 26.0134 13.0856 25.609C13.0667 25.466 12.9756 25.3428 12.8436 25.2851C9.12972 23.6626 6.5364 19.9379 6.57802 15.6235C6.63261 9.9615 11.2561 5.3456 16.9181 5.29979C22.7064 5.25304 27.4302 9.94812 27.4302 15.7258C27.4302 19.997 24.8483 23.676 21.1633 25.2855C21.0313 25.3432 20.9408 25.4668 20.922 25.6096C20.8686 26.0139 20.8105 26.4251 20.7491 26.8339C20.7309 26.9535 20.8467 27.0482 20.9608 27.0082C25.6147 25.3713 28.96 20.9323 28.96 15.7259C28.9598 9.12147 23.5776 3.75066 16.9691 3.76958ZM16.7531 9.25469C20.4422 9.11187 23.4888 12.0715 23.4888 15.7294C23.4888 17.5897 22.7007 19.2692 21.441 20.4521C21.3341 20.5523 21.2767 20.6947 21.2849 20.8411C21.3101 21.286 21.3009 21.7184 21.2713 22.2067C21.2633 22.3368 21.4092 22.4199 21.5169 22.3465C23.6294 20.9029 25.0188 18.4755 25.0188 15.7294C25.0188 11.2078 21.2525 7.54924 16.6924 7.72597C12.4546 7.89027 9.05459 11.3843 9.00028 15.6251C8.96461 18.4142 10.3625 20.8851 12.5021 22.3468C12.6095 22.4202 12.7551 22.337 12.7471 22.207C12.7174 21.7184 12.7083 21.286 12.7333 20.8411C12.7416 20.6949 12.6843 20.5525 12.5777 20.4523C11.2786 19.2328 10.4809 17.485 10.5317 15.5555C10.6212 12.16 13.3588 9.38616 16.7531 9.25469Z" fill="white"/>
<defs>
<linearGradient id="paint0_linear" x1="17" y1="0" x2="17" y2="33.9997" gradientUnits="userSpaceOnUse">
<stop stop-color="#F452FF"/>
<stop offset="1" stop-color="#832BC1"/>
</linearGradient>
</defs>
</svg>
