<svg width="11" height="18" viewBox="0 0 11 18" fill="none" xmlns="http://www.w3.org/2000/svg">
<path d="M10.605 5.3775C10.5703 5.33797 10.5276 5.30619 10.4798 5.28422C10.432 5.26226 10.3801 5.2506 10.3275 5.25H7.5V4.1925C7.5 3.9825 7.545 3.7425 7.8825 3.7425H10.1325C10.1819 3.74461 10.2311 3.73559 10.2766 3.71612C10.322 3.69665 10.3625 3.66722 10.395 3.63C10.4611 3.56142 10.4987 3.47025 10.5 3.375V0.375C10.5 0.275544 10.4605 0.180161 10.3902 0.109835C10.3198 0.0395088 10.2245 0 10.125 0L6.8775 0C3.2775 0 3 3.075 3 4.0125V5.25H1.125C1.02554 5.25 0.930161 5.28951 0.859835 5.35984C0.789509 5.43016 0.75 5.52554 0.75 5.625V8.625C0.75 8.72446 0.789509 8.81984 0.859835 8.89017C0.930161 8.96049 1.02554 9 1.125 9H3V17.625C3 17.7245 3.03951 17.8198 3.10983 17.8902C3.18016 17.9605 3.27554 18 3.375 18H7.125C7.22446 18 7.31984 17.9605 7.39017 17.8902C7.46049 17.8198 7.5 17.7245 7.5 17.625V9H10.0125C10.1058 9.00047 10.1959 8.96615 10.2652 8.90374C10.3346 8.84133 10.3782 8.75532 10.3875 8.6625L10.7025 5.6625C10.7068 5.61084 10.7004 5.55883 10.6836 5.50978C10.6668 5.46073 10.6401 5.41568 10.605 5.3775Z" fill="#1E0D26"/>
</svg>
