<svg width="34" height="34" viewBox="0 0 34 34" fill="none" xmlns="http://www.w3.org/2000/svg">
<path d="M21.605 13.3775C21.5703 13.338 21.5276 13.3062 21.4798 13.2842C21.432 13.2623 21.3801 13.2506 21.3275 13.25H18.5V12.1925C18.5 11.9825 18.545 11.7425 18.8825 11.7425H21.1325C21.1819 11.7446 21.2311 11.7356 21.2766 11.7161C21.322 11.6966 21.3625 11.6672 21.395 11.63C21.4611 11.5614 21.4987 11.4703 21.5 11.375V8.375C21.5 8.27554 21.4605 8.18016 21.3902 8.10983C21.3198 8.03951 21.2245 8 21.125 8H17.8775C14.2775 8 14 11.075 14 12.0125V13.25H12.125C12.0255 13.25 11.9302 13.2895 11.8598 13.3598C11.7895 13.4302 11.75 13.5255 11.75 13.625V16.625C11.75 16.7245 11.7895 16.8198 11.8598 16.8902C11.9302 16.9605 12.0255 17 12.125 17H14V25.625C14 25.7245 14.0395 25.8198 14.1098 25.8902C14.1802 25.9605 14.2755 26 14.375 26H18.125C18.2245 26 18.3198 25.9605 18.3902 25.8902C18.4605 25.8198 18.5 25.7245 18.5 25.625V17H21.0125C21.1058 17.0005 21.1959 16.9661 21.2652 16.9037C21.3346 16.8413 21.3782 16.7553 21.3875 16.6625L21.7025 13.6625C21.7068 13.6108 21.7004 13.5588 21.6836 13.5098C21.6668 13.4607 21.6401 13.4157 21.605 13.3775Z" fill="#1E0D26"/>
</svg>