<svg xmlns="http://www.w3.org/2000/svg" width="32" height="30" viewBox="0 0 32 30" fill="none">
  <g clip-path="url(#github_inline_svg__clip0)">
    <path fill-rule="evenodd" clip-rule="evenodd" d="M16 0C7.442 0 .5 6.887.5 15.377.5 22.17 4.97 27.924 11.055 30c.761.094 1.046-.377 1.046-.755v-2.641c-4.279.943-5.23-2.076-5.23-2.076-.665-1.792-1.711-2.264-1.711-2.264-1.427-.943.095-.943.095-.943 1.521.094 2.377 1.603 2.377 1.603 1.426 2.359 3.613 1.699 4.47 1.321.094-1.038.57-1.698.95-2.075-3.423-.378-7.037-1.698-7.037-7.642 0-1.698.57-3.019 1.617-4.15-.095-.284-.666-1.887.19-3.963 0 0 1.331-.377 4.28 1.604 1.235-.377 2.567-.472 3.898-.472s2.663.189 3.899.472c2.948-1.981 4.279-1.604 4.279-1.604.856 2.076.285 3.68.19 4.057a6.075 6.075 0 011.617 4.15c0 5.944-3.614 7.17-7.037 7.548.57.471 1.046 1.415 1.046 2.83v4.245c0 .378.285.85 1.046.755 6.18-2.076 10.555-7.83 10.555-14.623C31.5 6.887 24.558 0 16 0z" fill="#1E0D26"></path>
  </g>
  <defs>
    <clipPath id="github_inline_svg__clip0">
      <path fill="#fff" transform="translate(.5)" d="M0 0h31v30H0z"></path>
    </clipPath>
  </defs>
</svg>
