<svg width="34" height="34" viewBox="0 0 34 34" fill="none" xmlns="http://www.w3.org/2000/svg">
<path d="M11.36 12.875C12.3872 12.875 13.22 12.0355 13.22 11C13.22 9.96447 12.3872 9.125 11.36 9.125C10.3328 9.125 9.5 9.96447 9.5 11C9.5 12.0355 10.3328 12.875 11.36 12.875Z" fill="#1E0D26"/>
<path d="M12.875 14.375H9.875C9.66789 14.375 9.5 14.5429 9.5 14.75V24.5C9.5 24.7071 9.66789 24.875 9.875 24.875H12.875C13.0821 24.875 13.25 24.7071 13.25 24.5V14.75C13.25 14.5429 13.0821 14.375 12.875 14.375Z" fill="#1E0D26"/>
<path d="M24.1251 24.875H21.8751C21.7756 24.875 21.6802 24.8355 21.6099 24.7652C21.5396 24.6949 21.5001 24.5995 21.5001 24.5V18.875C21.5001 18.3778 21.3025 17.9008 20.9509 17.5492C20.5993 17.1976 20.1223 17 19.6251 17C19.1278 17 18.6509 17.1976 18.2992 17.5492C17.9476 17.9008 17.7501 18.3778 17.7501 18.875V24.5C17.7501 24.5995 17.7106 24.6949 17.6402 24.7652C17.5699 24.8355 17.4745 24.875 17.3751 24.875H15.1251C15.0256 24.875 14.9302 24.8355 14.8599 24.7652C14.7896 24.6949 14.7501 24.5995 14.7501 24.5V14.75C14.7501 14.6506 14.7896 14.5552 14.8599 14.4849C14.9302 14.4145 15.0256 14.375 15.1251 14.375H17.3751C17.4745 14.375 17.5699 14.4145 17.6402 14.4849C17.7106 14.5552 17.7501 14.6506 17.7501 14.75C17.7498 14.8128 17.7688 14.8742 17.8045 14.9259C17.8401 14.9776 17.8908 15.0172 17.9496 15.0392C18.0084 15.0613 18.0726 15.0648 18.1334 15.0493C18.1943 15.0338 18.249 15 18.2901 14.9525C18.5978 14.6365 18.9684 14.3885 19.3779 14.2244C19.7874 14.0603 20.2267 13.9839 20.6676 14C22.9026 14 24.5001 15.3725 24.5001 18.2V24.5C24.5001 24.5995 24.4606 24.6949 24.3902 24.7652C24.3199 24.8355 24.2245 24.875 24.1251 24.875Z" fill="#1E0D26"/>
</svg>
