<svg width="16" height="16" viewBox="0 0 16 16" fill="none" xmlns="http://www.w3.org/2000/svg">
<path d="M2.36 3.875C3.38725 3.875 4.22 3.03553 4.22 2C4.22 0.964466 3.38725 0.125 2.36 0.125C1.33275 0.125 0.5 0.964466 0.5 2C0.5 3.03553 1.33275 3.875 2.36 3.875Z" fill="#1E0D26"/>
<path d="M3.875 5.375H0.875C0.667893 5.375 0.5 5.54289 0.5 5.75V15.5C0.5 15.7071 0.667893 15.875 0.875 15.875H3.875C4.08211 15.875 4.25 15.7071 4.25 15.5V5.75C4.25 5.54289 4.08211 5.375 3.875 5.375Z" fill="#1E0D26"/>
<path d="M15.1251 15.875H12.8751C12.7756 15.875 12.6802 15.8355 12.6099 15.7652C12.5396 15.6949 12.5001 15.5995 12.5001 15.5V9.87503C12.5001 9.37775 12.3025 8.90084 11.9509 8.54921C11.5993 8.19758 11.1223 8.00003 10.6251 8.00003C10.1278 8.00003 9.65087 8.19758 9.29924 8.54921C8.94761 8.90084 8.75006 9.37775 8.75006 9.87503V15.5C8.75006 15.5995 8.71055 15.6949 8.64023 15.7652C8.5699 15.8355 8.47452 15.875 8.37506 15.875H6.12506C6.0256 15.875 5.93022 15.8355 5.8599 15.7652C5.78957 15.6949 5.75006 15.5995 5.75006 15.5V5.75003C5.75006 5.65058 5.78957 5.5552 5.8599 5.48487C5.93022 5.41454 6.0256 5.37503 6.12506 5.37503H8.37506C8.47452 5.37503 8.5699 5.41454 8.64023 5.48487C8.71055 5.5552 8.75006 5.65058 8.75006 5.75003C8.7498 5.81284 8.76879 5.87423 8.80446 5.92593C8.84013 5.97762 8.89078 6.01716 8.94959 6.03921C9.0084 6.06127 9.07255 6.06478 9.13342 6.04929C9.19429 6.03379 9.24895 6.00003 9.29006 5.95253C9.59783 5.6365 9.9684 5.38845 10.3779 5.2244C10.7874 5.06034 11.2267 4.98391 11.6676 5.00003C13.9026 5.00003 15.5001 6.37253 15.5001 9.20003V15.5C15.5001 15.5995 15.4606 15.6949 15.3902 15.7652C15.3199 15.8355 15.2245 15.875 15.1251 15.875Z" fill="#1E0D26"/>
</svg>
