<svg width="34" height="34" viewBox="0 0 34 34" fill="none" xmlns="http://www.w3.org/2000/svg">
<path d="M17.0003 0C7.6115 0 0 7.61129 0 17.0001C0 26.3893 7.6115 34 17.0003 34C26.3901 34 34.0008 26.3893 34.0008 17.0001C34.0008 7.6119 26.3901 0.000812018 17.0001 0.000812018L17.0003 0ZM24.7965 24.519C24.492 25.0184 23.8383 25.1768 23.339 24.8702C19.3475 22.4321 14.3227 21.88 8.40504 23.232C7.8348 23.3619 7.26639 23.0046 7.13646 22.4342C7.00593 21.8637 7.3618 21.2953 7.93346 21.1654C14.4093 19.6859 19.9642 20.3229 24.4453 23.0614C24.9447 23.368 25.1031 24.0196 24.7965 24.519ZM26.8773 19.8901C26.4937 20.5137 25.6776 20.7106 25.0544 20.327C20.4847 17.5182 13.519 16.7047 8.11393 18.3454C7.41296 18.5572 6.67259 18.1621 6.45984 17.4623C6.24872 16.7614 6.64397 16.0224 7.34373 15.8093C13.5177 13.9359 21.1932 14.8434 26.4409 18.0681C27.0641 18.4518 27.261 19.2677 26.8773 19.8901ZM27.056 15.0699C21.5769 11.8155 12.537 11.5163 7.30577 13.104C6.46573 13.3588 5.57738 12.8846 5.32281 12.0445C5.06824 11.2041 5.54206 10.3163 6.3827 10.061C12.3878 8.23797 22.3706 8.59019 28.6788 12.335C29.436 12.7835 29.6837 13.7593 29.2351 14.5139C28.7884 15.2695 27.8099 15.5186 27.0568 15.0699H27.056Z" fill="#1ED760"/>
</svg>