<svg width="18" height="16" viewBox="0 0 18 16" fill="none" xmlns="http://www.w3.org/2000/svg">
<path d="M17.4904 3.83188C17.5438 3.78752 17.5838 3.72922 17.606 3.66347C17.6282 3.59772 17.6317 3.5271 17.6162 3.45947C17.6006 3.39184 17.5666 3.32985 17.5179 3.2804C17.4692 3.23095 17.4078 3.19598 17.3404 3.17938L16.7479 3.02938C16.694 3.01589 16.6438 2.9906 16.6009 2.95535C16.558 2.92009 16.5235 2.87574 16.4998 2.82551C16.4761 2.77528 16.4639 2.72041 16.464 2.66487C16.4641 2.60934 16.4765 2.55452 16.5004 2.50438L16.8304 1.83688C16.8616 1.77219 16.8735 1.69992 16.8648 1.62865C16.8561 1.55737 16.8272 1.49009 16.7813 1.43481C16.7355 1.37952 16.6748 1.33854 16.6064 1.31675C16.538 1.29496 16.4647 1.29327 16.3954 1.31187L14.8954 1.73188C14.8395 1.74818 14.7806 1.75124 14.7233 1.74083C14.666 1.73041 14.612 1.70681 14.5654 1.67188C13.9163 1.18504 13.1268 0.921875 12.3154 0.921875C11.3208 0.921875 10.367 1.31696 9.66375 2.02022C8.96049 2.72349 8.5654 3.67731 8.5654 4.67188V4.94187C8.56573 4.98794 8.54909 5.03251 8.51866 5.0671C8.48823 5.10168 8.44613 5.12385 8.4004 5.12937C6.2929 5.37687 4.2754 4.30437 2.1004 1.79938C2.05315 1.74727 1.99245 1.70919 1.92496 1.68935C1.85748 1.6695 1.78583 1.66864 1.7179 1.68687C1.65669 1.71501 1.6042 1.7591 1.56593 1.81453C1.52765 1.86996 1.50502 1.93468 1.5004 2.00188C1.19999 3.23588 1.32145 4.53494 1.8454 5.69187C1.8609 5.72256 1.86767 5.75692 1.86496 5.79119C1.86225 5.82546 1.85017 5.85833 1.83004 5.8862C1.80992 5.91407 1.78251 5.93587 1.75083 5.94922C1.71914 5.96257 1.6844 5.96694 1.6504 5.96187L0.810397 5.79688C0.750743 5.78728 0.689655 5.79225 0.632334 5.81135C0.575012 5.83045 0.523153 5.86311 0.481173 5.90657C0.439193 5.95002 0.408334 6.00297 0.391223 6.06092C0.374111 6.11886 0.371255 6.18009 0.382897 6.23937C0.447651 6.81496 0.641027 7.36861 0.948711 7.85935C1.2564 8.35009 1.67051 8.76534 2.1604 9.07438C2.1921 9.08973 2.21883 9.1137 2.23754 9.14355C2.25625 9.17339 2.26617 9.2079 2.26617 9.24312C2.26617 9.27835 2.25625 9.31286 2.23754 9.3427C2.21883 9.37255 2.1921 9.39652 2.1604 9.41187L1.7629 9.56938C1.71462 9.58873 1.6709 9.61791 1.63451 9.65507C1.59813 9.69223 1.56986 9.73655 1.55153 9.78522C1.53319 9.83389 1.52517 9.88584 1.52799 9.93777C1.53081 9.9897 1.5444 10.0405 1.5679 10.0869C1.78772 10.5679 2.12091 10.9884 2.53892 11.3123C2.95693 11.6363 3.44727 11.854 3.9679 11.9469C4.00409 11.96 4.03537 11.984 4.05747 12.0155C4.07957 12.047 4.09143 12.0846 4.09143 12.1231C4.09143 12.1616 4.07957 12.1992 4.05747 12.2307C4.03537 12.2623 4.00409 12.2862 3.9679 12.2994C2.94817 12.7211 1.85385 12.9328 0.750397 12.9219C0.650941 12.902 0.547656 12.9224 0.463265 12.9787C0.378873 13.0349 0.320288 13.1224 0.300397 13.2219C0.280506 13.3213 0.300938 13.4246 0.357199 13.509C0.41346 13.5934 0.500941 13.652 0.600397 13.6719C2.51106 14.5781 4.59128 15.0713 6.7054 15.1194C8.56499 15.1477 10.3915 14.6259 11.9554 13.6194C13.2418 12.7607 14.2958 11.597 15.0234 10.2321C15.751 8.86725 16.1295 7.34356 16.1254 5.79688V5.14437C16.1259 5.08992 16.1382 5.03621 16.1615 4.98699C16.1848 4.93778 16.2185 4.89423 16.2604 4.85938L17.4904 3.83188Z" fill="#1E0D26"/>
</svg>
