<svg width="34" height="34" viewBox="0 0 34 34" fill="none" xmlns="http://www.w3.org/2000/svg">
<path d="M25.4904 12.8319C25.5438 12.7875 25.5838 12.7292 25.606 12.6635C25.6282 12.5977 25.6317 12.5271 25.6162 12.4595C25.6006 12.3918 25.5666 12.3298 25.5179 12.2804C25.4692 12.2309 25.4078 12.196 25.3404 12.1794L24.7479 12.0294C24.694 12.0159 24.6438 11.9906 24.6009 11.9553C24.558 11.9201 24.5235 11.8757 24.4998 11.8255C24.4761 11.7753 24.4639 11.7204 24.464 11.6649C24.4641 11.6093 24.4765 11.5545 24.5004 11.5044L24.8304 10.8369C24.8616 10.7722 24.8735 10.6999 24.8648 10.6286C24.8561 10.5574 24.8272 10.4901 24.7813 10.4348C24.7355 10.3795 24.6748 10.3385 24.6064 10.3167C24.538 10.295 24.4647 10.2933 24.3954 10.3119L22.8954 10.7319C22.8395 10.7482 22.7806 10.7512 22.7233 10.7408C22.666 10.7304 22.612 10.7068 22.5654 10.6719C21.9163 10.185 21.1268 9.92188 20.3154 9.92188C19.3208 9.92188 18.367 10.317 17.6637 11.0202C16.9605 11.7235 16.5654 12.6773 16.5654 13.6719V13.9419C16.5657 13.9879 16.5491 14.0325 16.5187 14.0671C16.4882 14.1017 16.4461 14.1238 16.4004 14.1294C14.2929 14.3769 12.2754 13.3044 10.1004 10.7994C10.0531 10.7473 9.99245 10.7092 9.92496 10.6893C9.85748 10.6695 9.78583 10.6686 9.7179 10.6869C9.65669 10.715 9.6042 10.7591 9.56593 10.8145C9.52765 10.87 9.50502 10.9347 9.5004 11.0019C9.19999 12.2359 9.32145 13.5349 9.8454 14.6919C9.8609 14.7226 9.86767 14.7569 9.86496 14.7912C9.86225 14.8255 9.85017 14.8583 9.83004 14.8862C9.80992 14.9141 9.78251 14.9359 9.75083 14.9492C9.71914 14.9626 9.6844 14.9669 9.6504 14.9619L8.8104 14.7969C8.75074 14.7873 8.68966 14.7922 8.63233 14.8113C8.57501 14.8304 8.52315 14.8631 8.48117 14.9066C8.43919 14.95 8.40833 15.003 8.39122 15.0609C8.37411 15.1189 8.37126 15.1801 8.3829 15.2394C8.44765 15.815 8.64103 16.3686 8.94871 16.8594C9.2564 17.3501 9.67051 17.7653 10.1604 18.0744C10.1921 18.0897 10.2188 18.1137 10.2375 18.1435C10.2562 18.1734 10.2662 18.2079 10.2662 18.2431C10.2662 18.2783 10.2562 18.3129 10.2375 18.3427C10.2188 18.3725 10.1921 18.3965 10.1604 18.4119L9.7629 18.5694C9.71462 18.5887 9.6709 18.6179 9.63451 18.6551C9.59813 18.6922 9.56986 18.7365 9.55153 18.7852C9.53319 18.8339 9.52517 18.8858 9.52799 18.9378C9.53081 18.9897 9.5444 19.0405 9.5679 19.0869C9.78772 19.5679 10.1209 19.9884 10.5389 20.3123C10.9569 20.6363 11.4473 20.854 11.9679 20.9469C12.0041 20.96 12.0354 20.984 12.0575 21.0155C12.0796 21.047 12.0914 21.0846 12.0914 21.1231C12.0914 21.1616 12.0796 21.1992 12.0575 21.2307C12.0354 21.2623 12.0041 21.2862 11.9679 21.2994C10.9482 21.7211 9.85385 21.9328 8.7504 21.9219C8.65094 21.902 8.54766 21.9224 8.46326 21.9787C8.37887 22.0349 8.32029 22.1224 8.3004 22.2219C8.28051 22.3213 8.30094 22.4246 8.3572 22.509C8.41346 22.5934 8.50094 22.652 8.6004 22.6719C10.5111 23.5781 12.5913 24.0713 14.7054 24.1194C16.565 24.1477 18.3915 23.6259 19.9554 22.6194C21.2418 21.7607 22.2958 20.597 23.0234 19.2321C23.751 17.8672 24.1295 16.3436 24.1254 14.7969V14.1444C24.1259 14.0899 24.1382 14.0362 24.1615 13.987C24.1848 13.9378 24.2185 13.8942 24.2604 13.8594L25.4904 12.8319Z" fill="#1E0D26"/>
</svg>
