<svg width="130" height="130" viewBox="0 0 130 130" fill="none" xmlns="http://www.w3.org/2000/svg">
<rect width="130" height="130" fill="#F6F3EE"/>
<path d="M129.861 65.6201C129.393 67.1048 127.834 68.499 125.963 68.7887C126.265 69.2504 126.403 69.8208 126.329 70.4545C126.128 72.1746 124.458 73.5597 122.67 73.5778C121.459 73.5869 119.817 73.0709 118.661 71.2693C117.625 69.6669 117.478 67.1229 117.552 66.3534C116.286 67.6299 115.497 68.8702 115.121 69.7302C114.277 71.6767 113.956 74.0486 113.974 75.1622C113.974 75.1622 113.818 75.307 113.672 75.3342C113.204 75.2527 112.8 75.0807 112.498 74.8181C112.131 74.4922 112.048 74.1844 112.048 74.1844C112.608 71.4232 113.497 69.7031 114.827 67.7385C116.616 65.0859 119.377 63.4473 122.651 62.4605C125.018 61.7453 127.476 61.5914 129.164 63.0037C130.072 63.746 130.127 64.8143 129.861 65.6201V65.6201ZM115.919 64.1534C115.359 65.0769 113.828 66.5616 112.617 67.3311C110.095 68.9245 108.278 69.0331 107.37 68.4628C107.26 68.3994 107.169 68.3179 107.086 68.2364C106.38 67.5031 106.499 66.1995 107.325 65.1312C107.728 64.6061 108.251 64.2349 108.755 64.0629C108.361 63.8818 108.095 63.5016 108.04 62.9675C107.93 61.8992 108.746 60.4959 109.874 59.9256C110.865 59.4277 113.002 58.9297 114.571 61.2383C115.185 62.1346 115.735 63.4111 115.919 64.1534V64.1534ZM126.284 54.4484C126.146 53.1176 124.706 52.6287 123.119 53.2986C122.367 53.6155 121.707 54.1496 121.239 54.7562C121.312 54.1496 121.138 53.6155 120.698 53.2986C119.826 52.674 118.24 53.1357 117.157 54.2945C116.781 54.7019 115.552 56.1685 115.488 58.3232C115.46 59.3643 115.928 61.6729 117.469 63.2662C121.578 61.7362 123.789 59.3914 124.633 58.4228C125.605 57.3002 126.018 56.3133 126.192 55.5891C126.32 55.0187 126.302 54.6113 126.284 54.4484V54.4484Z" fill="#22194D"/>
<path fill-rule="evenodd" clip-rule="evenodd" d="M48.5762 58.3595C48.5762 57.6895 49.0256 57.2097 49.7961 57.2097C50.5482 57.2097 50.9977 57.6895 50.9977 58.3595C50.9977 59.0656 50.5482 59.5454 49.7961 59.5454C49.0164 59.5364 48.5762 59.0656 48.5762 58.3595ZM75.7808 65.7559C75.7808 67.141 75.1663 68.8702 73.4602 69.7212C74.9278 70.3368 75.7258 71.4685 75.7074 72.917C75.7074 73.94 75.313 74.8544 74.5701 75.5605C73.6253 76.4659 72.2128 77 70.305 77C67.3331 77 64.9392 75.3252 64.9392 72.6816H67.0488C67.3056 74.7548 69.351 74.9449 70.3141 74.9992C71.4148 75.0626 72.4146 74.7729 72.9833 74.2388C73.3502 73.9038 73.5336 73.4602 73.5336 72.9442C73.5336 71.8125 72.6531 71.55 71.1947 71.1245L69.828 70.699L69.809 70.6928C67.3567 69.898 64.8291 69.0789 64.8291 65.7559C64.8291 63.8366 65.783 62.6416 66.581 61.9716C67.59 61.1297 68.9566 60.6499 70.3233 60.6499C71.0112 60.6499 71.7633 60.7585 72.4788 60.9939L73.4144 59.4458H75.5882L74.1206 61.863C74.2123 61.9354 74.2949 62.0079 74.3774 62.0893C75.3038 62.9856 75.7808 64.2078 75.7808 65.7559ZM71.3414 69.1237C72.1302 68.9517 72.7631 68.3723 73.1208 67.7838C73.451 67.2406 73.662 66.6069 73.662 65.7468C73.662 63.6374 71.9376 62.6416 70.3325 62.6416C68.7181 62.6416 66.9846 63.6193 66.9846 65.7559C66.9846 67.1048 67.59 67.9377 68.8924 68.3813C69.8555 68.7072 71.3414 69.1237 71.3414 69.1237ZM48.7031 60.994H50.8678V71.55H48.7031V60.994ZM5.91612 57.8976H8.16333L14.0794 71.5499H11.7497L10.2454 68.0825H3.83401L2.32976 71.5499H0L5.91612 57.8976ZM7.02597 60.6227L4.61366 66.1995H9.43827L7.02597 60.6227ZM40.303 57.8976H38.0283V71.5499H47.384V69.6668H40.303V57.8976ZM89.2007 63.6556C89.2466 62.5963 89.8795 61.6819 91.0352 61.175C92.998 60.3149 96.2359 60.5865 98.373 61.6457L97.9419 63.4654C96.3001 62.5782 93.5025 62.3066 92.1725 62.714C91.8056 62.8227 91.347 63.1395 91.3195 63.6284C91.2553 64.6695 92.145 64.9139 94.5848 65.3304C96.7312 65.7016 99.0242 66.2267 98.9142 68.6529C98.8683 69.6759 98.2996 70.6356 97.2081 71.1516C96.0891 71.6767 94.539 71.7853 93.0072 71.7129C91.5947 71.6495 90.1088 71.2784 89.1182 70.6446L89.5676 68.843C91.2094 69.848 94.7041 70.2101 96.0799 69.5311C96.456 69.35 96.7128 68.9607 96.7312 68.6529C96.7862 67.639 95.6121 67.3402 93.5667 67.0596C90.9985 66.7065 89.0815 66.1271 89.2007 63.6556ZM58.0598 60.8038C55.6842 60.8038 54.0882 61.1387 53.3452 61.347L53.2627 61.3741V71.5499H55.4549V62.8679C56.1978 62.6959 56.7849 62.6416 57.9497 62.6416C59.7383 62.6416 60.9399 63.0852 60.9399 65.2489V71.5409H63.1045V65.3485C63.0954 62.3428 61.3985 60.8038 58.0598 60.8038ZM82.5132 69.9022C83.6598 69.9022 84.3018 69.8479 85.0081 69.694H84.9989V61.0029H87.1911V71.1877L87.0993 71.2059C86.0262 71.4775 84.632 71.749 82.394 71.749C79.0553 71.749 77.3584 70.219 77.3584 67.2134V61.0029H79.5231V67.313C79.5231 69.4676 80.6696 69.9022 82.5132 69.9022ZM31.4887 60.8038C30.0578 60.8038 28.8654 61.0754 28.0674 61.6367C26.875 62.4696 26.4072 63.728 26.4072 65.3575V71.5499H28.5719V65.258C28.5719 64.4884 28.7278 63.9362 29.003 63.5469C29.4983 62.8317 30.4063 62.6506 31.562 62.6506C32.1032 62.6506 32.7178 62.714 33.3231 62.8317L33.7542 61.0301C33.0755 60.8943 32.3233 60.8038 31.4887 60.8038ZM19.4077 60.8128C22.5172 60.8128 24.2691 62.3337 24.5259 65.2398C24.5442 65.4843 24.5534 65.7378 24.5534 66.0184V67.132H16.491C16.5368 69.4134 18.3896 69.9022 19.9489 69.9022C21.5449 69.9022 22.8657 69.6125 23.572 69.35L23.6729 69.3138L24.1315 71.1063C22.9024 71.5228 21.4623 71.74 19.9489 71.74C16.225 71.74 14.2529 69.9475 14.2529 66.5435V66.0094C14.2529 62.6053 16.0415 60.8128 19.4077 60.8128ZM22.3429 65.2398C22.2328 63.1123 20.701 62.6506 19.4077 62.6506C17.5825 62.6506 16.5827 63.5469 16.5001 65.2398H22.3429Z" fill="#22194D"/>
</svg>
