<svg width="130" height="130" viewBox="0 0 130 130" fill="none" xmlns="http://www.w3.org/2000/svg">
<rect width="130" height="130" fill="#F6F3EE"/>
<path d="M15 82C15 82 72.3657 67.8989 114.869 77.8329L115 77.374C115 77.374 77.9134 66.4158 15.7125 79.7635" fill="#22194D"/>
<path d="M42.4597 54.3286V56.6659C42.6711 56.198 42.9398 55.5636 43.6609 54.963C44.4417 54.2957 45.5827 53.9274 46.6948 53.9274C47.2636 53.9274 47.8344 54.029 48.4036 54.229C50.1752 54.8963 50.686 56.2979 50.896 56.8981C52.2781 54.3289 54.4686 53.9626 55.639 53.9626C57.0791 53.9626 58.3411 54.4975 59.1816 55.3314C60.6822 56.7996 60.7419 58.3996 60.7419 62.4066V71.6181H56.3308V63.4402C56.3308 60.6692 56.2707 60.1018 55.8196 59.3692C55.3396 58.5678 54.6482 58.3992 53.9872 58.3992C52.7875 58.3992 52.1876 59.2672 52.0971 59.4017C51.6157 60.2358 51.6157 61.6713 51.6157 63.0728V71.6174H47.2042V62.9066C47.2042 61.0375 47.2042 60.203 46.7531 59.4345C46.4233 58.8685 45.7623 58.3992 44.9525 58.3992C44.5629 58.3992 44.1716 58.5001 43.8111 58.7016C42.5198 59.4345 42.4905 60.7037 42.4905 63.9751V71.6177H38.0762V54.3286" fill="#22194D"/>
<path d="M78.2917 54.3284H82.7934L78.2917 71.6172H74.1765L71.5643 59.9364L68.9842 71.6172H64.812L60.3086 54.3284H64.812L67.1835 65.1425L69.6148 54.3284H73.5169L75.9202 65.1425" fill="#22194D"/>
<path d="M92.2906 71.6173H96.6147V54.2956H92.3807V56.5314C91.6016 54.863 90.2502 53.8948 88.5387 53.8948C85.5977 53.8948 81.7539 56.4318 81.7539 63.2403C81.7539 68.6472 84.515 71.9853 88.2082 71.9853C90.7299 71.9853 91.7501 70.5167 92.2899 69.7154L92.2906 71.6173ZM92.0637 62.7724C92.0637 64.3423 91.8537 65.8441 90.9227 66.9792C90.1418 67.8791 89.2719 67.9471 89.0011 67.9471C88.1308 67.9471 87.1404 67.4126 86.5388 65.9097C86.1799 65.0427 86.0587 64.0075 86.0587 62.9394C86.0587 61.6045 86.2411 60.2357 86.9898 59.1351C87.5296 58.3663 88.3702 57.8673 89.1821 57.8673C89.8414 57.8673 90.5024 58.199 90.953 58.7339C91.5229 59.3691 92.0637 60.5367 92.0637 62.7724V62.7724Z" fill="#22194D"/>
<path d="M106.805 54.3284H111.291L106.355 71.4838C105.994 72.6857 105.425 74.6557 104.554 75.6232C103.742 76.4913 102.782 76.8925 99.2096 76.8925C98.6988 76.8925 98.4898 76.8576 98.0388 76.8251V72.9863H99.2096C99.6302 72.9863 100.621 72.9863 101.07 72.5533C101.431 72.2517 101.731 71.518 101.731 70.8162C101.731 70.4499 101.55 69.7806 101.401 69.3476L96.5977 54.3284H101.401L104.223 65.9764" fill="#22194D"/>
<path d="M25.4237 48L18.0117 71.6174H23.4562L24.8393 66.5995H31.7906L33.2058 71.6174H38.681L30.9596 48H25.4237ZM28.222 53.1864L30.5908 62.2849H25.979L28.222 53.1864V53.1864Z" fill="#22194D"/>
</svg>
