<svg width="130" height="130" viewBox="0 0 130 130" fill="none" xmlns="http://www.w3.org/2000/svg">
<rect width="130" height="130" fill="#F6F3EE"/>
<path fill-rule="evenodd" clip-rule="evenodd" d="M57.5021 53.5896H62.0315L62.0856 53.6435V73.261L62.0315 73.3144H57.5021C57.448 73.3144 57.448 73.261 57.448 73.261V53.6435C57.448 53.6435 57.448 53.5896 57.5021 53.5896ZM55.9919 53.5896C55.9919 53.5896 56.046 53.6435 55.9919 53.6969L50.0059 63.3714C49.9523 63.4253 49.9523 63.5326 50.0059 63.6399L56.046 73.2071C56.0996 73.2605 56.046 73.3144 56.046 73.3144H50.4377C50.3836 73.3144 50.3295 73.261 50.2759 73.261L46.6626 67.3485C46.6085 67.2951 46.6085 67.2951 46.5544 67.3485L43.1574 73.2075C43.1033 73.261 43.0492 73.3149 42.9956 73.3149H37.7649C37.6573 73.3149 37.6573 73.2615 37.7113 73.2615L43.8586 63.1028C43.9663 62.9955 43.9663 62.8881 43.8586 62.7803L38.4657 53.6969C38.4121 53.6435 38.4657 53.5896 38.4657 53.5896H43.9127C43.9663 53.5896 44.0204 53.6435 44.0204 53.6969L47.3097 59.1791C47.3638 59.233 47.3638 59.233 47.4174 59.1791L50.8149 53.6969C50.8149 53.6435 50.8685 53.5896 50.9225 53.5896H55.9919V53.5896Z" fill="#22194D"/>
<path opacity="0.7" fill-rule="evenodd" clip-rule="evenodd" d="M94.7141 48L111 73.3143H96.8709L91.532 65.0376H90.8859L90.5072 64.4466H84.1445L94.7141 48V48Z" fill="#22194D"/>
<path fill-rule="evenodd" clip-rule="evenodd" d="M92.0697 63.6403L98.3247 73.3142H78.4258L84.6818 63.6403H92.0697Z" fill="#22194D"/>
<path fill-rule="evenodd" clip-rule="evenodd" d="M35.9873 53.5895H31.7809C31.7273 53.5895 31.6732 53.6434 31.6732 53.6968L19 73.2609C19 73.2609 19 73.3143 19.0541 73.3143H24.1771C24.2307 73.3143 24.2848 73.3143 24.2848 73.2609L26.0108 70.5732C26.0644 70.5732 26.0644 70.5198 26.1185 70.5198H31.511C31.5646 70.5198 31.5646 70.5732 31.5646 70.5732V73.2075C31.5646 73.2609 31.5646 73.3148 31.6187 73.3148H36.0409L36.0945 73.2614V53.6968C36.095 53.6434 36.0414 53.5895 35.9873 53.5895V53.5895ZM31.5651 66.6505V66.7039H28.2217C28.1676 66.7039 28.1676 66.7039 28.1676 66.6505L31.7268 61.0066L31.5651 66.6505ZM64.7303 73.3143H70.7158C71.4706 73.2609 72.2254 73.1526 72.9267 72.9379C75.6775 72.0783 77.1335 69.3367 77.1335 67.0264C77.1335 63.3174 74.2214 62.0274 70.7699 60.5763C70.1773 60.3077 69.4225 59.9313 69.4225 59.1251C69.4225 58.3189 70.2314 57.8891 71.0934 57.8891H75.7852C75.8388 57.8891 75.8388 57.8891 75.8388 57.8357V53.5895C75.8388 53.5361 75.8388 53.5361 75.7852 53.5361H70.878C66.7799 53.5361 64.3526 55.9547 64.3526 59.3408C64.3526 62.2965 66.2399 63.7477 68.9897 64.8768C70.9316 65.6291 72.1718 65.9516 72.1718 67.5101C72.1718 68.3163 71.687 69.122 70.6622 69.122H64.7303V73.2609C64.7303 73.3143 64.7839 73.3143 64.7303 73.3143V73.3143ZM79.668 53.4822C78.7509 53.4822 78.0496 54.2345 78.0496 55.148C78.0496 56.0081 78.7509 56.7604 79.668 56.7604C80.5841 56.7604 81.3389 56.0081 81.3389 55.148C81.3367 54.707 81.16 54.2846 80.8471 53.9727C80.5342 53.6608 80.1105 53.4845 79.668 53.4822V53.4822ZM79.668 56.5992C79.4765 56.6 79.2868 56.5631 79.1098 56.4904C78.9327 56.4178 78.7719 56.3109 78.6365 56.176C78.5011 56.0411 78.3939 55.8808 78.321 55.7043C78.2482 55.5279 78.2111 55.3388 78.2119 55.148C78.2119 54.2884 78.8591 53.6434 79.668 53.6434C80.5305 53.6434 81.1776 54.2884 81.1776 55.148C81.1776 55.9547 80.5305 56.5992 79.668 56.5992Z" fill="#22194D"/>
<path fill-rule="evenodd" clip-rule="evenodd" d="M80.4776 56.0621L80.0999 55.2025C80.3158 55.1486 80.4235 54.9339 80.4235 54.7188C80.4235 54.5575 80.3699 54.3963 80.2076 54.289C80.0999 54.1816 79.9386 54.1816 79.7764 54.1816H79.0751V56.0626H79.291V55.2564H79.83L80.2076 56.0626H80.4776V56.0621ZM79.291 55.0408V54.3424H79.7759C79.8836 54.3424 79.9917 54.3424 80.0458 54.4497C80.1535 54.5036 80.2071 54.5575 80.2071 54.7188C80.2071 54.7722 80.1535 54.88 80.0994 54.9334C79.9917 55.0408 79.8836 55.0408 79.7759 55.0408H79.291V55.0408ZM22.9917 80.6236C22.4523 80.8927 22.021 81 21.4279 81C19.8642 81 19.1094 80.0321 19.1094 79.0656C19.1094 78.0443 19.9724 77.0764 21.482 77.0764C22.0751 77.0764 22.5604 77.1837 22.9381 77.3988V78.2594C22.5068 78.0443 22.0751 77.883 21.5897 77.883C20.7272 77.883 20.1337 78.3663 20.1337 79.0652C20.1337 79.7091 20.7272 80.1938 21.5356 80.1938C22.0751 80.1938 22.3987 80.0855 22.9917 79.8174V80.6236V80.6236ZM28.6536 81C27.1976 81 26.3892 80.0321 26.3892 79.0656C26.3892 78.0977 27.1981 77.0764 28.6536 77.0764C30.1638 77.0764 30.9186 78.1511 30.9186 79.0656C30.9186 80.0321 30.1097 81 28.6536 81ZM28.6536 77.8835C27.8988 77.8835 27.4135 78.3668 27.4135 79.0656C27.4135 79.7645 27.8988 80.1943 28.6536 80.1943C29.409 80.1943 29.8938 79.7645 29.8938 79.0656C29.8938 78.3668 29.409 77.8835 28.6536 77.8835V77.8835ZM37.7676 77.1298H38.5766V80.9466H37.6054V78.5809L36.5275 79.764H36.4193L35.3409 78.5809V80.9466H34.3702V77.1298H35.1791L36.4734 78.5809L37.7676 77.1298V77.1298ZM45.8563 77.1298H46.7193V80.9466H45.7486V78.5809L44.6702 79.764H44.5085L43.4296 78.5809V80.9466H42.4594V77.1298H43.3219L44.6162 78.5809L45.8563 77.1298V77.1298ZM54.2691 77.1298V79.3332C54.2691 80.5697 53.352 80.9996 52.2736 80.9996C51.1411 80.9996 50.3322 80.5163 50.3322 79.3332V77.1298H51.3029V79.3332C51.3029 79.8714 51.7342 80.1938 52.2736 80.1938C52.8125 80.1938 53.2979 79.9787 53.2979 79.2798V77.1298H54.2691V77.1298ZM61.8729 80.9466H61.064L58.8526 78.5275V80.9466H57.8819V77.1298H58.799L60.9017 79.4955V77.1298H61.8729V80.9466V80.9466ZM65.6471 80.9466H66.6183V77.1298H65.6471V80.9466ZM73.7373 80.6236C73.1973 80.8927 72.7661 81 72.1725 81C70.6629 81 69.8539 80.0321 69.8539 79.0656C69.8539 78.0443 70.7165 77.0764 72.2261 77.0764C72.8197 77.0764 73.3045 77.1837 73.6822 77.3988V78.2594C73.2509 78.0443 72.8197 77.883 72.3348 77.883C71.4713 77.883 70.8787 78.3663 70.8787 79.0652C70.8787 79.7091 71.4713 80.1938 72.2802 80.1938C72.8201 80.1938 73.1437 80.0855 73.7373 79.8174V80.6236V80.6236ZM80.8012 80.9466H79.7764L79.4528 80.1943H77.6732L77.3496 80.9466H76.3258L77.8895 77.1303H79.0751L80.8012 80.9466ZM78.4816 78.0443L77.9427 79.5489H79.1287L78.4816 78.0443ZM86.5713 77.8286H85.1693V80.9466H84.1445V77.8286H82.7421V77.1298H86.5713V77.8286V77.8286ZM89.5911 80.9466H90.5618V77.1298H89.5911V80.9466ZM95.8461 81C94.39 81 93.5816 80.0321 93.5816 79.0656C93.5816 78.0977 94.3364 77.0764 95.8461 77.0764C97.3021 77.0764 98.1106 78.1511 98.1106 79.0656C98.1111 80.0321 97.2485 81 95.8461 81ZM95.8461 77.8835C95.0913 77.8835 94.6064 78.3668 94.6064 79.0656C94.6064 79.7645 95.0913 80.1943 95.8461 80.1943C96.6009 80.1943 97.0868 79.7645 97.0868 79.0656C97.0868 78.3668 96.6014 77.8835 95.8461 77.8835V77.8835ZM105.014 80.9466H104.205L101.994 78.5275V80.9466H101.023V77.1298H101.94L104.043 79.4955V77.1298H105.014V80.9466V80.9466ZM110.784 78.1511C110.191 77.883 109.868 77.7747 109.49 77.7747C109.166 77.7747 108.95 77.9365 108.95 78.0972C108.95 78.6888 110.946 78.527 110.946 79.8709C110.946 80.5697 110.299 80.9996 109.436 80.9996C108.734 80.9996 108.412 80.8388 107.979 80.6232V79.817C108.573 80.1933 108.896 80.3002 109.328 80.3002C109.705 80.3002 109.921 80.1929 109.921 79.9777C109.921 79.3327 107.925 79.5479 107.925 78.2041C107.925 77.5052 108.519 77.0754 109.436 77.0754C109.867 77.0754 110.245 77.1827 110.783 77.3979V78.1511H110.784V78.1511Z" fill="#22194D"/>
</svg>
