<svg width="130" height="130" viewBox="0 0 130 130" fill="none" xmlns="http://www.w3.org/2000/svg">
<rect width="130" height="130" fill="#F6F3EE"/>
<path d="M12 48H12.5049V62.1738H12V48Z" fill="#22194D"/>
<path d="M16.0957 48H20.3311V62.1738H16.0957V48Z" fill="#22194D"/>
<path d="M23.5566 48H25.6607V62.1738H23.5566V48Z" fill="#22194D"/>
<path d="M72.334 58.7427C69.3058 58.7427 68.1581 60.0083 67.7095 60.4865L67.0066 59.0523H61.4511V62.1738H62.7446V82H67.1188V74.407C68.016 75.2225 69.4479 75.8413 71.2424 75.8413C77.0184 75.8413 79.3775 71.6227 79.3775 66.8983C79.3775 62.0895 76.4876 58.7427 72.334 58.7427V58.7427ZM74.9735 67.0669C74.9735 70.4137 73.3733 72.4102 70.7377 72.4102C68.1581 72.4102 66.9767 70.7791 66.9767 67.2922C66.9767 63.6924 68.1581 62.1457 70.9059 62.1457C73.3733 62.1457 74.9735 64.0859 74.9735 67.0669V67.0669ZM112.531 68.1358V68.417C112.531 70.442 112.082 72.7761 108.744 72.7761C107.117 72.7761 106.108 71.8762 106.108 70.4701C106.108 69.2607 106.583 68.1359 110.12 68.1359L112.531 68.1358V68.1358ZM116.793 72.382V64.114C116.793 60.5147 114.494 58.7427 109.753 58.7427C108.519 58.7427 106.557 58.8833 106.022 58.94V62.202C106.022 62.202 108.325 62.0334 109.641 62.0334C111.578 62.0334 112.501 62.7365 112.501 64.1985V65.2674H109.753C104.426 65.2674 101.73 67.0952 101.73 70.7231C101.73 73.1134 103.248 75.8133 107.536 75.8133C110.905 75.8133 112.277 74.7444 112.699 74.2385L113.316 75.5319L118 75.5036V72.382L116.793 72.382V72.382ZM26.7836 65.4921C26.7836 69.823 28.7751 72.4383 32.0848 72.4383C34.1324 72.4383 35.5628 71.5946 36.4604 69.5701H41.3691C40.4715 72.7197 38.1155 75.9818 31.9727 75.9818C25.6897 75.9818 21.959 72.1291 21.959 65.6326C21.959 62.7363 22.9127 60.0927 24.6234 58.1805C26.4748 56.1556 29.0835 55.0867 32.169 55.0867C39.4337 55.0867 41.4532 60.2332 41.4532 62.1738H36.6006C36.2081 60.3737 35.1422 58.6584 32.1129 58.6584C28.8312 58.6584 26.7836 61.2739 26.7836 65.4921V65.4921ZM53.8506 68.1358V68.417C53.8506 70.442 53.4319 72.7761 50.0934 72.7761C48.4657 72.7761 47.4278 71.8762 47.4278 70.4701C47.4278 69.2607 47.9329 68.1359 51.4393 68.1359L53.8506 68.1358V68.1358ZM58.1425 72.382V64.114C58.1425 60.5147 55.8433 58.7427 51.1028 58.7427C49.8691 58.7427 47.9049 58.8833 47.3717 58.94V62.202C47.3717 62.202 49.671 62.0334 50.9907 62.0334C52.9272 62.0334 53.8506 62.7365 53.8506 64.1985V65.2674H51.1028C45.7728 65.2674 43.0803 67.0952 43.0803 70.7231C43.0803 73.1134 44.5947 75.8133 48.8582 75.8133C52.2505 75.8133 53.6263 74.7444 54.0189 74.2385L54.6657 75.5319L59.3501 75.5036V72.382L58.1425 72.382V72.382ZM96.429 59.0523H99.8796V62.1738H96.429V70.5824C96.429 71.848 96.7094 72.5511 98.2833 72.5511C98.844 72.5511 99.1805 72.5228 99.431 72.4944V75.5035C98.6758 75.7568 97.6066 75.8411 96.429 75.8411C93.3447 75.8411 92.0249 74.4349 92.0249 71.2009V62.1736H90.7651V59.052H92.0249V56.2959H96.429V59.0523V59.0523ZM82.6861 52.1057H87.0602V56.7462H82.6861V52.1057ZM81.5084 59.0523H87.0602V75.5317H82.6861V62.1738H81.5084V59.0523Z" fill="#22194D"/>
</svg>
