<svg width="130" height="130" viewBox="0 0 130 130" fill="none" xmlns="http://www.w3.org/2000/svg">
<rect width="130" height="130" fill="#F6F3EE"/>
<path d="M73.1424 67.7339L79.6839 61.1759H73.2412V58.0878H84.2609V61.2266L77.7186 67.7592H84.3853V70.8473H73.1449L73.1424 67.7339ZM68.4947 53.8911H71.9026V57.0657H68.4947V53.8911ZM68.4487 58.1262H71.8566V70.8858H68.4487V58.1262ZM27.2309 64.4676C27.2445 60.8205 30.135 57.8741 33.69 57.8834C37.245 57.8927 40.1208 60.8543 40.1163 64.5013C40.1118 68.1483 37.2286 71.1024 33.6736 71.1024C31.9598 71.105 30.3159 70.406 29.1064 69.1604C27.8969 67.9148 27.2218 66.2257 27.2309 64.4676V64.4676ZM36.8073 64.4676C36.8073 62.6557 35.4142 61.1479 33.6736 61.1479C31.9075 61.1479 30.5638 62.654 30.5638 64.4676C30.5638 66.2811 31.9075 67.7872 33.6736 67.7872C35.4142 67.7846 36.8081 66.2794 36.8081 64.4676H36.8073ZM55.4951 58.0878H58.8791V59.5169C59.6745 58.4686 60.893 57.8327 62.3108 57.8327C65.2469 57.8327 67.013 59.772 67.013 63.0637V70.8473H63.5549V63.5232C63.5549 61.8136 62.7834 60.8151 61.2668 60.8151C59.9734 60.8151 58.9038 61.7332 58.9038 63.8726V70.8395H55.4977L55.4951 58.0878ZM84.5794 64.4676C84.5794 59.9502 87.8152 57.8283 90.6253 57.8283C92.2432 57.8283 93.5112 58.4398 94.3312 59.3344V58.0878H97.7374V70.8473H94.3312V69.4182C93.5112 70.4132 92.1921 71.1024 90.5759 71.1024C87.9387 71.1024 84.5794 68.9621 84.5794 64.4676V64.4676ZM94.4291 64.4422C94.4291 62.5535 93.0863 61.0221 91.2452 61.0221C89.3548 61.0221 87.9123 62.4767 87.9123 64.4422C87.9123 66.4078 89.3548 67.8868 91.2452 67.8868C93.088 67.8868 94.4308 66.33 94.4308 64.4422H94.4291ZM99.1152 58.0878H102.498V59.5169C103.295 58.4686 104.513 57.8327 105.931 57.8327C108.866 57.8327 110.632 59.772 110.632 63.0637V70.8473H107.174V63.5232C107.174 61.8136 106.408 60.8151 104.886 60.8151C103.593 60.8151 102.523 61.7332 102.523 63.8726V70.8395H99.1169L99.1152 58.0878ZM73.1424 70.8473V67.7339L79.6839 61.1759H73.2412V58.0878H84.2609V61.2266L77.7186 67.7592L73.1424 70.8473ZM23.5957 64.3566L23.5488 64.4579C22.6079 66.4925 20.8775 67.6596 18.8015 67.6596C15.7913 67.6596 13.4368 65.2188 13.4368 62.1036C13.4368 58.9089 15.7751 56.5005 18.8764 56.5005C20.8861 56.5005 22.4129 57.4658 23.4151 59.3711L23.4688 59.4724L26.502 57.4832L26.4509 57.3959C24.8755 54.6432 22.0433 53 18.8764 53C13.8157 53 10 56.9145 10 62.1054C10 67.3818 13.7331 71.2116 18.8764 71.2116C22.1915 71.2116 25.1199 69.3238 26.7106 66.1623L26.7583 66.0671L23.5957 64.3566ZM40.9747 64.4676C40.9747 59.9502 44.2105 57.8283 47.0206 57.8283C48.6385 57.8283 49.9056 58.5176 50.7265 59.461V58.0878H54.1327V70.4927C54.1327 74.091 51.9187 77 47.7146 77C44.5554 77 42.2426 75.3149 41.2429 73.3248L44.2531 71.5899C44.8994 72.9169 46.0413 73.759 47.7104 73.759C49.5514 73.759 50.7197 72.2791 50.7197 70.6202V69.4182C49.8988 70.4132 48.5806 71.1024 46.9644 71.1024C44.3323 71.1024 40.9747 68.9621 40.9747 64.4676V64.4676ZM50.8244 64.4422C50.8244 62.5535 49.4816 61.0221 47.6405 61.0221C45.7501 61.0221 44.3076 62.4767 44.3076 64.4422C44.3076 66.4078 45.7501 67.8868 47.6405 67.8868C49.4816 67.8868 50.8244 66.33 50.8244 64.4422ZM119.025 61.2266V58.0878H116.687V53.8788H113.28V58.0878H111.164V61.2266H113.276V65.3097C113.276 69.4697 114.57 70.8473 118.525 70.8473H119.022V67.581C116.933 67.581 116.684 67.2744 116.684 65.2844V61.2266H119.025ZM119.748 55.4015C119.585 55.5697 119.363 55.6644 119.132 55.6644C118.901 55.6644 118.679 55.5697 118.517 55.4015C118.35 55.2353 118.258 55.0063 118.261 54.7681C118.262 54.3645 118.527 54.0118 118.907 53.908C119.287 53.8043 119.688 53.9754 119.884 54.3252C120.08 54.6751 120.023 55.1165 119.745 55.4015H119.748ZM118.603 54.2265C118.461 54.3691 118.382 54.5657 118.385 54.7699C118.382 54.9747 118.46 55.1721 118.602 55.3167C118.742 55.4616 118.932 55.5431 119.131 55.5431C119.33 55.5431 119.521 55.4616 119.661 55.3167C119.804 55.1728 119.882 54.9751 119.879 54.7699C119.882 54.4582 119.7 54.1761 119.419 54.0567C119.138 53.9373 118.815 54.0045 118.602 54.2265H118.603ZM119.114 54.2763C119.203 54.2716 119.291 54.2835 119.375 54.3113C119.473 54.3511 119.533 54.4521 119.523 54.5594C119.528 54.6364 119.493 54.7103 119.43 54.7533C119.388 54.7784 119.341 54.7944 119.292 54.8005C119.358 54.8072 119.417 54.8421 119.456 54.8966C119.488 54.9401 119.506 54.993 119.508 55.0477V55.1202V55.1927C119.508 55.2099 119.511 55.2269 119.515 55.2434L119.521 55.2556H119.364C119.363 55.2524 119.363 55.2492 119.364 55.246V55.2355V55.2041V55.1263C119.375 55.0403 119.341 54.9545 119.274 54.9018C119.214 54.8763 119.15 54.8655 119.086 54.8703H118.953V55.2556H118.783V54.2763H119.114ZM119.296 54.4301C119.232 54.4015 119.162 54.3892 119.092 54.3942H118.948V54.7489H119.101C119.155 54.7516 119.209 54.7442 119.261 54.7271C119.315 54.702 119.353 54.6494 119.36 54.5887C119.367 54.5279 119.343 54.4677 119.296 54.4301V54.4301Z" fill="#22194D"/>
</svg>
