<svg width="130" height="130" viewBox="0 0 130 130" fill="none" xmlns="http://www.w3.org/2000/svg">
<rect width="130" height="130" fill="#F6F3EE"/>
<path d="M97 97H33V33H97V97Z" fill="#22194D"/>
<path d="M48.3575 66.3992C48.3575 69.4216 49.1637 69.7578 52.6073 69.8866V70.9918H38.9199V69.8866C41.7673 69.7578 42.5749 69.4216 42.5749 66.3992V46.6766C42.5749 43.6542 41.7673 43.3144 39.005 43.1892V42.084H63.1486L63.3205 48.4579H62.1298C61.1102 45.228 60.0035 44.2086 54.35 44.2086H49.9693C48.6549 44.2086 48.3574 44.5055 48.3574 45.6966V54.8389H50.5144C55.0213 54.8389 55.9995 54.027 56.5514 51.0081H57.6566V61.2128H56.5514C55.9577 57.8112 54.2559 56.9635 50.5144 56.9635H48.3574V66.3992H48.3575V66.3992ZM90.4901 42.084H65.1533L64.5652 48.4614H66.0185C66.9459 45.3389 68.3097 44.2086 71.3595 44.2086H74.9307V66.3992C74.9307 69.4216 74.1231 69.7578 70.8509 69.8866V70.9918H84.7943V69.8866C81.5207 69.7578 80.7134 69.4216 80.7134 66.3992V44.2086H84.2829C87.3341 44.2086 88.6993 45.3389 89.6253 48.4614H91.077L90.4901 42.084V42.084Z" fill="#F6F3EE"/>
</svg>
