<svg width="130" height="130" viewBox="0 0 130 130" fill="none" xmlns="http://www.w3.org/2000/svg">
<rect width="130" height="130" fill="#F6F3EE"/>
<path d="M29.9281 80.987C27.2466 80.8812 25.0522 80.1487 23.3367 78.7891C23.0095 78.5295 22.2292 77.7507 21.9676 77.422C21.2718 76.5496 20.7991 75.7 20.4832 74.7578C19.5123 71.8572 20.0125 68.0507 21.9119 63.8729C23.5389 60.2966 26.0493 56.7498 30.4293 51.8371C31.074 51.1142 32.9957 49 33.0076 49C33.0126 49 32.9082 49.1812 32.7762 49.4018C31.6372 51.3044 30.663 53.5462 30.1319 55.4862C29.2793 58.6004 29.3821 61.2719 30.4332 63.3441C31.1582 64.7714 32.4013 66.008 33.7989 66.6915C36.2459 67.8877 39.8284 67.9866 44.2037 66.9809C44.505 66.9114 59.4311 62.9585 77.3733 58.1963C95.315 53.4341 109.998 49.5404 110 49.544C110.005 49.548 68.3154 67.3457 46.6736 76.5784C43.246 78.0401 42.3295 78.4092 40.7187 78.9737C36.5996 80.4165 32.9101 81.1051 29.9281 80.987V80.987Z" fill="#22194D"/>
</svg>
