<svg width="130" height="130" viewBox="0 0 130 130" fill="none" xmlns="http://www.w3.org/2000/svg">
<rect width="130" height="130" fill="#F6F3EE"/>
<g clip-path="url(#clip0)">
<path d="M99.9998 65.0025C99.9998 84.3304 84.3297 99.9991 65 99.9991C45.6698 99.9991 30 84.3304 30 65.0025C30 45.6745 45.6701 30.0059 65 30.0059C84.3297 30.0059 99.9998 45.6745 99.9998 65.0025Z" fill="#F6F3EE"/>
<path d="M64.7079 42.4444C65.94 43.1509 67.2472 44.0601 68.2419 45.0239L67.8512 45.4144C65.8878 45.2067 63.8201 45.4661 61.9587 45.4947C61.7514 45.2863 61.3333 44.9731 61.7225 44.7114L64.7079 42.4444ZM99.422 66.7052C99.4481 67.5865 99.5314 68.3436 99.1857 69.246C95.5991 70.261 93.2431 66.4832 89.763 67.0528L90.1565 69.011C93.3761 69.1163 95.3873 72.1878 98.7132 72.0558C98.2407 72.9945 98.9241 75.4684 96.8307 74.4796C94.6573 73.9599 93.0859 72.0558 90.7048 72.0558C90.4174 72.5804 90.5996 73.307 90.549 73.928C93.0612 74.3199 94.8682 76.4324 97.3795 76.8223C97.1432 77.681 96.9093 78.6424 96.2015 79.1658C94.1585 78.6712 92.5623 76.8458 90.3871 76.898L90 78.696C92.0668 78.7489 93.4029 80.5683 95.2605 81.1146C95.3115 81.8729 94.6303 82.5508 94.2373 83.2275C92.5882 82.735 91.3307 81.3253 89.4461 81.4295C89.4199 80.723 89.8414 79.9212 89.6823 79.1658C87.5659 79.7923 86.1467 77.836 84.5781 76.6622C84.5332 72.8222 80.4693 70.3027 80.2547 66.7054C80.2133 65.9879 80.3232 65.2224 80.6519 64.3994C81.9875 61.3274 81.568 57.3387 80.1036 54.4744C79.6581 53.7204 78.8701 53.1256 78.1352 52.6822C79.2101 54.9491 80.5206 57.6274 79.8664 60.4135C79.7906 62.5648 78.5143 64.6314 78.4999 66.7054C78.495 67.4449 78.6538 68.1844 79.0814 68.9311C80.7837 71.9816 83.847 74.8696 82.6951 78.6955C82.3784 79.8707 81.4357 80.7792 81.1999 81.9752C83.1919 83.6164 85.0753 85.4659 87.7184 85.5699C88.6601 84.9715 88.137 82.3181 90.0744 83.5422L92.9031 84.9498C92.6972 85.7028 92.063 86.3779 91.4888 86.8967C90.4156 86.3772 89.3687 85.7541 88.0304 85.8049C87.636 86.2216 87.2965 86.6891 87.3264 87.2867C88.2681 87.441 89.1322 87.8361 89.9186 88.3841C89.5531 89.1667 88.8413 89.6569 88.1869 90.2564L85.9928 89.4759C85.6264 89.9975 84.8654 90.5452 85.1325 91.1178C85.6278 91.3285 86.1768 91.6136 86.5411 91.979C85.5728 93.0205 84.3451 93.6907 83.1639 94.3974C82.1464 91.089 78.7936 88.7696 79.0816 84.9437L78.9259 84.7887C78.138 85.6703 78.4011 87.0795 78.4519 88.2235C79.3951 90.6197 81.6447 92.4706 81.9859 95.0985C81.592 95.7751 80.7041 95.9099 80.0224 96.196C80.102 91.4582 72.8771 87.8647 77.5102 83.0721C79.0553 80.7253 81.6442 78.4858 80.727 75.2549C79.7852 72.1351 76.4541 70.2022 76.4835 66.7054L76.4889 66.4325C77.2474 62.7858 79.5523 58.9053 77.6669 55.0257C77.1412 53.4652 75.9672 51.692 74.3706 51.0398C76.7513 53.7503 77.6949 58.1733 76.3332 61.8209C75.6465 63.272 74.7015 65.0003 74.6069 66.7059H74.601C74.5504 67.5966 74.733 68.4826 75.3112 69.3223C77.1184 72.2402 80.2582 75.445 78.4522 79.2473C76.4106 82.2928 72.8505 85.3908 74.8389 89.4024C76.2783 91.7978 78.5056 94.1884 77.9044 97.1335L75.5489 97.9142C77.1193 92.421 69.422 89.1934 72.6446 83.6981C74.6337 80.7558 78.1919 77.9947 76.1776 74.0893C74.9735 71.6695 72.4858 70.2374 72.5639 67.2136L72.6498 66.7056C73.4604 62.4171 76.7379 58.3573 74.4459 53.7745C73.8438 52.4209 72.6406 51.0414 71.305 50.2596L71.2245 50.3396C73.8958 52.9177 74.7083 57.1596 73.2679 60.5694C72.5961 62.57 71.1212 64.5628 70.8216 66.7063C70.6788 67.7174 70.799 68.7649 71.3859 69.8684C73.0872 72.5485 76.071 75.3916 74.2092 78.8566C72.2486 81.7184 68.9753 84.5033 70.2827 88.2252C71.7231 91.4814 74.7297 94.5835 73.1065 98.6209L70.6752 99.167C72.6117 95.2324 69.7083 91.3278 68.0072 87.9155C65.9381 83.0192 72.4526 80.6748 72.5573 76.1987C72.5326 73.3093 69.4448 71.6688 68.7927 69.0131C67.4561 67.8913 66.0711 69.4588 64.4735 69.1678C63.2944 69.4035 61.4829 67.5528 60.7789 69.5592C59.9407 72.5003 56.1208 74.6624 57.7993 78.1511C59.3969 81.2511 63.241 83.5178 61.9568 87.5299C60.8071 91.277 57.0089 94.845 59.3646 99.167C58.3968 98.8552 56.59 99.4524 56.6161 97.9144C55.1247 92.6806 61.4848 89.6311 59.5204 84.3999C58.6062 81.1956 54.4409 79.4257 55.3579 75.5716C56.0359 72.3992 59.6143 70.1814 59.1124 66.7063C59.0677 66.4009 58.9956 66.1 58.8968 65.8074C57.5612 62.0575 54.8362 58.3065 56.4604 53.9299C56.9063 52.6801 57.7969 51.6126 58.5796 50.4953C55.9878 51.8748 54.6804 54.7923 54.7341 57.7603C54.6211 60.988 57.0178 63.7528 57.3588 66.7063C57.4929 67.8983 57.2967 69.1191 56.4604 70.4139C54.7602 72.7087 52.5367 75.1285 53.5561 78.1504C54.5254 81.1985 58.3469 83.0452 58.1116 86.5879C58.0854 90.7791 53.1902 93.3883 54.5776 98.0755L52.1412 97.2892C51.1738 93.124 55.6231 90.9933 55.6742 87.1394C56.3039 82.7081 50.6222 81.0638 50.9632 76.7437C50.9387 73.4615 53.843 71.3828 55.1257 68.6219C55.3454 67.9501 55.4189 67.3154 55.3894 66.7066C55.2323 63.654 52.4673 61.2677 52.9262 57.8355C53.0805 55.3096 53.9444 53.0954 55.5942 51.1959C53.318 52.1054 52.3777 54.712 51.7489 56.8998C50.6577 60.4081 53.2624 63.5637 53.5234 66.7066C53.6392 68.0947 53.2984 69.4747 51.9856 70.8856C50.0998 73.0961 48.1874 75.8858 49.5489 78.8571C50.9907 82.1355 55.5203 84.6873 53.5556 88.7762C52.4838 91.355 49.9172 93.3066 50.0226 96.3526C49.3426 96.066 48.6371 95.7804 48.0592 95.2608C48.0592 91.3816 53.6065 88.9586 50.9634 84.8702C50.7293 85.6766 50.6789 86.7731 50.4956 87.6844C49.5783 90.0553 47.6158 91.9528 46.8814 94.404C45.6533 93.9325 44.3692 92.9419 43.3477 91.9002L44.7626 91.0389C44.6054 90.5169 44.1873 90.0747 43.8214 89.632C42.9027 89.5038 42.2994 90.1035 41.5416 90.3385C40.8872 89.7643 40.2556 89.2435 39.734 88.5402C40.2036 87.2097 43.8736 88.3099 42.0144 86.1218C40.7592 85.3414 39.4993 86.4566 38.4002 86.9772L36.9102 85.105C38.1929 84.3245 39.4723 83.228 41.0677 83.5426C41.4609 84.247 41.4882 85.2826 42.2457 85.6504C44.9424 85.5984 46.8532 83.5691 48.9204 81.9801C47.4796 79.8475 46.3068 76.9031 47.5866 74.3237C48.6119 71.7393 51.2841 69.5623 51.4051 66.7049C51.4326 66.0549 51.3307 65.3706 51.0448 64.6342C49.632 61.014 49.1334 56.121 51.8301 52.9167C50.3638 53.3086 49.4993 55.1268 49.0011 56.507C47.38 60.042 49.4303 63.3172 49.5012 66.7047C49.5108 67.3143 49.4612 67.9248 49.3127 68.54C47.9248 71.3261 45.6761 73.7707 45.3109 76.9769C43.7136 77.9905 42.4022 79.763 40.1262 79.1649C40.0462 79.7632 40.2295 80.6752 40.4383 81.3532C38.6334 81.2776 37.4027 82.6011 35.8833 83.2259C35.0736 82.9675 34.8629 81.9265 34.5495 81.1982C36.3283 80.6006 37.6114 78.8266 39.6537 78.8545C39.8904 78.2002 39.521 77.6007 39.4168 76.9764C36.8763 75.8549 32.8494 82.5215 32.5107 76.7413C35.0493 76.5852 36.6713 74.2408 39.1857 74.0072L39.2607 72.1349C36.4076 71.8484 34.5721 74.7661 31.7201 74.4786L31.0911 71.9799C34.3902 72.185 36.3558 69.2439 39.4977 69.0856C39.9151 68.5395 39.9655 67.7324 40.046 66.9779C36.6165 66.5331 34.2634 70.3142 30.6233 69.1659C30.6233 69.1659 30.4979 67.5924 30.4298 66.7049H30.4348C30.421 66.5086 30.4049 66.3124 30.3866 66.1164C33.6322 67.369 36.484 65.0499 39.2607 63.853C39.9669 63.6428 41.0682 64.0073 41.3847 63.2266C41.3576 62.6275 42.4556 61.9271 41.5414 61.5093C37.482 60.961 34.7853 65.832 30.6228 63.6173L30.3105 62.9908C31.1758 51.2215 37.8479 39.8432 48.9199 34.244C53.4039 31.6948 58.9747 30.3955 64.5928 30.3492C71.3727 30.293 78.2241 32.0625 83.3206 35.6514C88.2695 38.6711 93.0033 43.6481 95.5725 48.7005C98.0299 53.1274 99.1606 58.0946 99.4985 63.3825C95.2045 66.6101 92.3237 60.3419 87.9511 61.7448C88.1864 62.4229 88.317 63.125 88.8171 63.6978C92.6925 63.6704 95.3609 67.7073 99.4178 66.1162L99.422 66.7052ZM50.0972 52.2105C47.3742 50.4394 43.9221 52.1073 41.3845 53.0719C41.1489 50.7011 40.1811 48.5411 38.163 46.9788C37.9672 46.8816 37.6966 46.678 37.4528 46.6628C37.3069 46.6536 37.1681 46.7124 37.0603 46.8978C37.975 52.4958 34.317 56.4019 31.7248 60.6483C32.5879 61.3499 33.9746 61.2452 35.0215 61.0388C37.7695 59.9458 40.3872 58.0429 43.6592 58.695C44.6271 57.0545 46.2526 55.4655 47.5857 54.1637C48.4004 53.4624 49.519 53.0174 50.0972 52.2105V52.2105ZM58.4229 55.7261C58.3704 56.0632 58.449 56.6643 58.9714 56.4319C59.7842 55.3122 61.2231 56.1982 62.1126 56.2769V55.9618C61.6246 55.1994 60.6207 54.8166 59.6009 54.8545C59.3656 54.863 59.1265 54.8969 58.8963 54.9503C58.5554 55.0257 58.3177 55.3361 58.4229 55.7261V55.7261ZM71.2233 52.3715C70.4922 50.7565 68.8167 50.103 67.2968 49.7123C66.5514 49.621 65.7779 49.5594 65.0108 49.5519C64.867 49.5505 64.7234 49.5486 64.5801 49.5519C62.4345 49.595 60.3842 50.143 59.1317 51.9001C58.9519 52.3961 58.1615 53.0928 58.8954 53.5373C60.5447 53.4327 62.4268 53.2269 63.5262 54.6347C63.5262 55.8862 64.3385 57.5506 62.9776 58.1496C61.8502 57.1112 60.5151 58.5918 59.2884 57.7584C58.7116 57.4192 58.3466 57.8149 58.1104 58.3097C57.7694 61.5378 59.4689 65.1009 62.5046 66.8971C63.7351 67.3386 65.3891 67.7583 66.6733 67.1321C69.7618 65.7014 71.0412 62.4222 71.6167 59.4011C71.5396 58.8261 71.5666 57.7058 70.756 57.6784C69.8403 58.2547 68.5049 57.9141 67.5347 57.6784C66.9608 57.8626 66.9345 58.6978 66.2815 58.8561L65.8835 58.5403C65.5426 57.11 65.3324 55.0783 66.669 54.0886C68.1623 53.4896 69.9161 53.2281 71.4603 53.6981C71.7485 53.2033 71.3038 52.814 71.2233 52.3715V52.3715ZM69.6474 54.9391C69.5436 54.9419 69.4429 54.947 69.3403 54.9503C68.792 55.3143 67.1935 55.0526 67.7708 56.2769C68.7659 55.4939 70.1533 56.0426 71.148 56.4319C71.5156 56.2504 71.4363 55.8857 71.46 55.5711C71.1405 54.98 70.3776 54.9248 69.6474 54.9391ZM81.0444 43.9286C79.1068 43.8263 77.4843 44.9207 75.7039 45.4155C75.5491 43.9085 76.6998 42.3169 76.9624 40.8039C74.084 40.9882 71.8038 42.712 69.4222 44.0889C68.8695 42.7612 68.3191 41.4325 67.7712 40.1028L70.9127 37.1336L70.9932 36.7422L66.7497 36.5072C66.0191 35.2333 65.7308 33.6988 64.8672 32.5269C64.1603 33.8552 63.6855 35.2607 62.9793 36.5873L58.7413 36.823V37.1336L61.9578 40.0228C61.5646 41.5079 61.1991 43.1214 60.2313 44.2437C58.3469 43.1207 56.4888 41.8988 54.4228 41.1188C53.9256 40.9594 53.2168 40.6998 52.7718 41.0387C53.4253 42.4716 54.3404 44.0126 54.1865 45.5764C53.322 45.4181 52.6426 44.8668 51.8305 44.6351C50.8594 44.3712 49.7073 43.8565 48.7651 44.1697C50.3361 46.3556 51.6183 48.6439 52.0619 51.2748C57.2734 48.7724 63.3511 47.3962 69.6599 48.4657C72.6173 48.9337 75.3364 50.1322 77.9808 51.1192C78.0841 48.3606 79.8375 46.144 81.0444 43.9286V43.9286ZM89.9941 58.9303C92.6621 59.6326 95.3383 62.5245 98.1635 60.6483C95.7028 56.5866 92.0406 52.8355 93.0593 47.5242C93.1659 47.1616 92.9301 46.7946 92.5915 46.7431C90.9954 47.392 89.759 48.9564 89.1275 50.4939C88.8677 51.4036 88.7142 52.3701 88.3483 53.2276C86.4359 52.2374 84.3957 51.2786 82.0661 51.5101C81.2256 51.6143 80.0217 51.669 79.8664 52.5272C82.5099 53.9327 84.684 56.2781 86.3044 58.776C87.4329 58.5932 88.8164 58.7493 89.9941 58.9303V58.9303ZM62.0373 62.6013L62.1126 63.0721C63.1355 63.7498 63.4501 64.8987 64.8665 64.7945C66.1221 64.8685 67.0643 63.698 67.6898 62.7612C65.9908 62.5276 63.9224 62.8888 62.0373 62.6013V62.6013ZM63.4513 60.4933C63.5024 60.7017 63.3217 61.0142 63.6071 61.1198C64.4451 60.9388 65.9626 61.5631 66.4304 60.5734C66.1036 60.2094 65.5706 60.0441 65.0108 60.0441C64.4514 60.0441 63.8711 60.2061 63.4513 60.4933V60.4933Z" fill="#22194D"/>
<path opacity="0.99" d="M62.0391 59.5902H67.7791V61.936H62.0391V59.5902Z" fill="white"/>
<path d="M63.0991 60.8447C63.8408 61.0193 64.0244 61.2808 64.6103 61.3541C65.2339 61.3431 65.144 61.2171 66.2305 60.844C66.3022 60.8189 66.4001 60.6621 66.2787 60.542C65.6036 59.8758 65.137 60.3519 64.7143 60.3646C64.1526 60.3704 63.6265 59.8866 63.0782 60.5158C62.9848 60.6434 62.936 60.7691 63.0991 60.8447Z" fill="#22194D"/>
<path d="M90.2172 99.3347V95.9935H89.0176V95.3132H92.2301V95.9935H91.0333V99.3347H90.2172ZM92.7487 99.3347V95.313H93.9702L94.7037 98.0563L95.4289 95.313H96.6533V99.3347H95.8949V96.1691L95.0924 99.3347H94.3065L93.5069 96.1691V99.3347H92.7487Z" fill="#22194D"/>
</g>
<defs>
<clipPath id="clip0">
<rect width="70" height="70" fill="white" transform="translate(30 30)"/>
</clipPath>
</defs>
</svg>
