<svg width="502" height="502" viewBox="0 0 502 502" fill="none" xmlns="http://www.w3.org/2000/svg">
<path fill-rule="evenodd" clip-rule="evenodd" d="M250.442 41.0636C315.068 42.5042 374.531 73.3843 414.471 122.778C454.04 171.712 469.796 234.719 456.213 295.538C442.443 357.191 402.086 410.511 343.941 438.571C284.917 467.056 214.89 469.217 156.037 440.401C98.3816 412.172 64.4816 355.494 49.586 294.448C34.5049 232.641 36.8086 165.57 76.6978 115.249C117.313 64.0119 183.906 39.5805 250.442 41.0636Z" stroke="#E6E4E7"/>
<path d="M250.442 41.0636C201.548 39.9737 152.624 52.8774 114 80.1282" stroke="#7B51FB" stroke-width="3" stroke-linecap="round"/>
<circle cx="112.5" cy="81.5" r="6.5" fill="#7B51FB" stroke="white" stroke-width="4"/>
<path d="M255 460.836C285.545 459.653 315.978 452.066 343.941 438.571C366.711 427.582 386.754 412.72 403.54 395" stroke="#0AC2A3" stroke-width="3" stroke-linecap="round"/>
<circle cx="403.5" cy="395.5" r="6.5" fill="#0AC2A3" stroke="white" stroke-width="4"/>
<path fill-rule="evenodd" clip-rule="evenodd" d="M253.973 121.003C291.078 120.799 328.84 130.579 353.001 160.231C378.153 191.098 386.015 233.402 377.971 273.181C369.774 313.725 346.308 349.727 310.984 368.031C275.303 386.52 233.562 384.509 197.595 366.645C161.243 348.59 131.601 316.193 123.262 274.794C115.06 234.081 129.872 192.325 156.231 161.311C180.781 132.427 217.16 121.205 253.973 121.003Z" stroke="#E6E4E7"/>
<path d="M253.973 121.003C279.959 120.86 306.267 125.614 328 138.661" stroke="#F7D56E" stroke-width="3" stroke-linecap="round"/>
<circle cx="327.5" cy="138.5" r="6.5" fill="#F7D56E" stroke="white" stroke-width="4"/>
<path fill-rule="evenodd" clip-rule="evenodd" d="M249.461 91.0891C296.692 92.2284 343.311 108.163 373.683 146.958C404.978 186.933 418.97 241.152 406.418 291.576C394.341 340.092 355.105 372.677 312.378 393.24C271.326 412.996 225.185 418.368 184.165 398.537C141.849 378.079 111.185 338.003 98.8715 290.018C85.8014 239.084 86.9758 181.809 118.026 140.791C148.827 100.103 200.596 89.9104 249.461 91.0891Z" stroke="#E6E4E7" stroke-dasharray="5 5"/>
<path fill-rule="evenodd" clip-rule="evenodd" d="M256.688 1.00198C336.269 0.677843 410.544 40.0893 457.678 100.89C502.639 158.888 510.253 233.947 491.306 303.65C473.062 370.765 424.826 424.405 360.698 457.666C291.45 493.582 209.812 517.595 137.771 487.016C63.8379 455.634 21.6928 382.479 6.02914 307.121C-9.01995 234.72 10.1231 160.807 57.8507 102.519C106.42 43.2029 177.491 1.32456 256.688 1.00198Z" stroke="#E6E4E7" stroke-dasharray="5 5"/>
</svg>
