<svg width="502" height="504" viewBox="0 0 502 504" fill="none" xmlns="http://www.w3.org/2000/svg">
<path fill-rule="evenodd" clip-rule="evenodd" d="M251.558 42.0636C186.932 43.5042 127.469 74.3843 87.5288 123.778C47.9604 172.712 32.2041 235.719 45.7874 296.538C59.5573 358.191 99.9137 411.511 158.059 439.571C217.083 468.056 287.11 470.217 345.963 441.401C403.618 413.172 437.518 356.494 452.414 295.448C467.495 233.641 465.191 166.57 425.302 116.249C384.687 65.0119 318.094 40.5805 251.558 42.0636Z" stroke="#E6E4E7" stroke-dasharray="5 5"/>
<path d="M129 84.144C164.129 58.3193 206.594 43.066 251.558 42.0636C260.056 41.8742 268.554 42.1075 277 42.7654" stroke="#F7D56E" stroke-width="3" stroke-linecap="round"/>
<circle r="6.5" transform="matrix(-1 0 0 1 128.5 83.5)" fill="#F7D56E" stroke="white" stroke-width="4"/>
<path fill-rule="evenodd" clip-rule="evenodd" d="M248.027 122.003C210.922 121.799 173.16 131.579 148.999 161.231C123.847 192.098 115.985 234.402 124.029 274.181C132.226 314.725 155.692 350.727 191.016 369.031C226.697 387.52 268.438 385.509 304.405 367.645C340.757 349.59 370.399 317.193 378.738 275.794C386.94 235.081 372.128 193.325 345.769 162.311C321.219 133.427 284.84 122.205 248.027 122.003Z" stroke="#E6E4E7" stroke-dasharray="5 5"/>
<path fill-rule="evenodd" clip-rule="evenodd" d="M252.539 92.0891C205.308 93.2284 158.689 109.163 128.317 147.958C97.0216 187.933 83.0301 242.152 95.5821 292.576C107.659 341.092 146.895 373.677 189.622 394.24C230.674 413.996 276.815 419.368 317.835 399.537C360.151 379.079 390.815 339.003 403.129 291.018C416.199 240.084 415.024 182.809 383.974 141.791C353.173 101.103 301.404 90.9104 252.539 92.0891Z" stroke="#E6E4E7"/>
<path fill-rule="evenodd" clip-rule="evenodd" d="M245.312 2.00198C165.731 1.67784 91.4562 41.0893 44.322 101.89C-0.639209 159.888 -8.25311 234.947 10.694 304.65C28.9376 371.765 77.1743 425.405 141.302 458.666C210.55 494.582 292.188 518.595 364.229 488.016C438.162 456.634 480.307 383.479 495.971 308.121C511.02 235.72 491.877 161.807 444.149 103.519C395.58 44.2029 324.509 2.32456 245.312 2.00198Z" stroke="#E6E4E7"/>
<path d="M141.303 458.666C210.55 494.582 292.188 518.595 364.229 488.016" stroke="#0AC2A3" stroke-width="3" stroke-linecap="round"/>
<circle r="6.5" transform="matrix(-1 0 0 1 143.5 460.5)" fill="#0AC2A3" stroke="white" stroke-width="4"/>
<path d="M364.229 35.074C328.468 14.4657 288.075 2.17616 245.313 2.00198C221.185 1.90371 197.544 5.45806 175 12.1537" stroke="#7B51FB" stroke-width="3" stroke-linecap="round"/>
<circle r="6.5" transform="matrix(-1 0 0 1 368.5 36.5)" fill="#7B51FB" stroke="white" stroke-width="4"/>
</svg>
