<svg width="125" height="34" viewBox="0 0 125 34" fill="none" xmlns="http://www.w3.org/2000/svg">
<circle cx="17" cy="17" r="17" fill="white"/>
<path fill-rule="evenodd" clip-rule="evenodd" d="M27.7974 6.20676C27.7292 6.13801 27.6475 6.08417 27.5575 6.04867C27.4674 6.01317 27.3709 5.99677 27.2742 6.00053C14.4966 6.66872 9.78075 18.0439 9.73401 18.1587C9.68379 18.2837 9.67141 18.4208 9.69842 18.5528C9.72544 18.6848 9.79064 18.8059 9.88593 18.9012L15.0982 24.1127C15.1939 24.2086 15.3159 24.274 15.4487 24.3008C15.5815 24.3276 15.7193 24.3145 15.8447 24.2632C15.9588 24.2179 27.2749 19.4456 27.9981 6.72784C28.003 6.63178 27.9876 6.53576 27.953 6.446C27.9184 6.35624 27.8654 6.27474 27.7974 6.20676ZM18.7176 16.9997C18.3777 16.9997 18.0454 16.8989 17.7627 16.71C17.4801 16.5212 17.2598 16.2528 17.1298 15.9387C16.9997 15.6247 16.9657 15.2792 17.032 14.9458C17.0983 14.6124 17.262 14.3062 17.5023 14.0658C17.7427 13.8255 18.0489 13.6618 18.3823 13.5955C18.7157 13.5292 19.0612 13.5632 19.3752 13.6933C19.6893 13.8233 19.9577 14.0436 20.1465 14.3262C20.3354 14.6089 20.4362 14.9412 20.4362 15.2811C20.4362 15.7369 20.2551 16.174 19.9328 16.4963C19.6105 16.8186 19.1734 16.9997 18.7176 16.9997Z" fill="#1E0D26"/>
<path d="M11.4219 9.19827C12.8545 8.50403 14.4614 8.25235 16.0376 8.47534C13.5958 10.2434 11.5125 12.4597 9.89874 15.0061L8.10038 13.2084C7.99265 13.1006 7.92379 12.9601 7.90462 12.8089C7.88546 12.6577 7.91708 12.5044 7.99451 12.3732C8.79615 10.9978 9.98939 9.89251 11.4219 9.19827Z" fill="#1E0D26"/>
<path d="M20.7901 25.8966L18.9869 24.0934C21.5327 22.4665 23.7478 20.3729 25.5156 17.9229C25.6977 19.1622 25.5863 20.427 25.1904 21.6154C24.7944 22.8038 24.125 23.8826 23.2361 24.7651C22.7532 25.2432 22.2123 25.6589 21.6261 26.0025C21.4947 26.0801 21.3413 26.1118 21.19 26.0926C21.0386 26.0735 20.898 26.0045 20.7901 25.8966Z" fill="#1E0D26"/>
<path d="M12.1864 24.5616C12.1864 23.8324 11.8968 23.1331 11.3813 22.6175C10.8657 22.102 10.1664 21.8124 9.43724 21.8124C8.70809 21.8124 8.0088 22.102 7.49313 22.6175C6.41866 23.6913 6 27.9988 6 27.9988C6 27.9988 10.3075 27.5802 11.3813 26.5057C11.8968 25.99 12.1864 25.2907 12.1864 24.5616Z" fill="#1E0D26"/>
<path d="M47.8203 23H45.4375V11.5781H51.9844V13.5625H47.8203V16.5078H51.6953V18.4844H47.8203V23ZM57.6484 15.7969C57.1432 15.7969 56.7474 15.9583 56.4609 16.2812C56.1745 16.599 56.0104 17.0521 55.9688 17.6406H59.3125C59.3021 17.0521 59.1484 16.599 58.8516 16.2812C58.5547 15.9583 58.1536 15.7969 57.6484 15.7969ZM57.9844 23.1562C56.5781 23.1562 55.4792 22.7682 54.6875 21.9922C53.8958 21.2161 53.5 20.1172 53.5 18.6953C53.5 17.2318 53.8646 16.1016 54.5938 15.3047C55.3281 14.5026 56.3411 14.1016 57.6328 14.1016C58.8672 14.1016 59.8281 14.4531 60.5156 15.1562C61.2031 15.8594 61.5469 16.8307 61.5469 18.0703V19.2266H55.9141C55.9401 19.9036 56.1406 20.4323 56.5156 20.8125C56.8906 21.1927 57.4167 21.3828 58.0938 21.3828C58.6198 21.3828 59.1172 21.3281 59.5859 21.2188C60.0547 21.1094 60.5443 20.9349 61.0547 20.6953V22.5391C60.638 22.7474 60.1927 22.901 59.7188 23C59.2448 23.1042 58.6667 23.1562 57.9844 23.1562ZM69.0312 23L68.5703 21.8125H68.5078C68.1068 22.3177 67.6927 22.6693 67.2656 22.8672C66.8438 23.0599 66.2917 23.1562 65.6094 23.1562C64.7708 23.1562 64.1094 22.9167 63.625 22.4375C63.1458 21.9583 62.9062 21.276 62.9062 20.3906C62.9062 19.4635 63.2292 18.7812 63.875 18.3438C64.526 17.901 65.5052 17.6562 66.8125 17.6094L68.3281 17.5625V17.1797C68.3281 16.2943 67.875 15.8516 66.9688 15.8516C66.2708 15.8516 65.4505 16.0625 64.5078 16.4844L63.7188 14.875C64.724 14.349 65.8385 14.0859 67.0625 14.0859C68.2344 14.0859 69.1328 14.3411 69.7578 14.8516C70.3828 15.362 70.6953 16.138 70.6953 17.1797V23H69.0312ZM68.3281 18.9531L67.4062 18.9844C66.7135 19.0052 66.1979 19.1302 65.8594 19.3594C65.5208 19.5885 65.3516 19.9375 65.3516 20.4062C65.3516 21.0781 65.737 21.4141 66.5078 21.4141C67.0599 21.4141 67.5 21.2552 67.8281 20.9375C68.1615 20.6198 68.3281 20.1979 68.3281 19.6719V18.9531ZM79.3438 23L79.0234 21.8828H78.8984C78.6432 22.2891 78.2812 22.6042 77.8125 22.8281C77.3438 23.0469 76.8099 23.1562 76.2109 23.1562C75.1849 23.1562 74.4115 22.8828 73.8906 22.3359C73.3698 21.7839 73.1094 20.9922 73.1094 19.9609V14.2656H75.4922V19.3672C75.4922 19.9974 75.6042 20.4714 75.8281 20.7891C76.0521 21.1016 76.4089 21.2578 76.8984 21.2578C77.5651 21.2578 78.0469 21.0365 78.3438 20.5938C78.6406 20.1458 78.7891 19.4062 78.7891 18.375V14.2656H81.1719V23H79.3438ZM87.3516 21.2578C87.7682 21.2578 88.2682 21.1667 88.8516 20.9844V22.7578C88.2578 23.0234 87.5286 23.1562 86.6641 23.1562C85.7109 23.1562 85.0156 22.9167 84.5781 22.4375C84.1458 21.9531 83.9297 21.2292 83.9297 20.2656V16.0547H82.7891V15.0469L84.1016 14.25L84.7891 12.4062H86.3125V14.2656H88.7578V16.0547H86.3125V20.2656C86.3125 20.6042 86.4062 20.8542 86.5938 21.0156C86.7865 21.1771 87.0391 21.2578 87.3516 21.2578ZM96.8125 23L96.4922 21.8828H96.3672C96.112 22.2891 95.75 22.6042 95.2812 22.8281C94.8125 23.0469 94.2786 23.1562 93.6797 23.1562C92.6536 23.1562 91.8802 22.8828 91.3594 22.3359C90.8385 21.7839 90.5781 20.9922 90.5781 19.9609V14.2656H92.9609V19.3672C92.9609 19.9974 93.0729 20.4714 93.2969 20.7891C93.5208 21.1016 93.8776 21.2578 94.3672 21.2578C95.0339 21.2578 95.5156 21.0365 95.8125 20.5938C96.1094 20.1458 96.2578 19.4062 96.2578 18.375V14.2656H98.6406V23H96.8125ZM106.016 14.1016C106.339 14.1016 106.607 14.125 106.82 14.1719L106.641 16.4062C106.448 16.3542 106.214 16.3281 105.938 16.3281C105.177 16.3281 104.583 16.5234 104.156 16.9141C103.734 17.3047 103.523 17.8516 103.523 18.5547V23H101.141V14.2656H102.945L103.297 15.7344H103.414C103.685 15.2448 104.049 14.8516 104.508 14.5547C104.971 14.2526 105.474 14.1016 106.016 14.1016ZM112.023 15.7969C111.518 15.7969 111.122 15.9583 110.836 16.2812C110.549 16.599 110.385 17.0521 110.344 17.6406H113.688C113.677 17.0521 113.523 16.599 113.227 16.2812C112.93 15.9583 112.529 15.7969 112.023 15.7969ZM112.359 23.1562C110.953 23.1562 109.854 22.7682 109.062 21.9922C108.271 21.2161 107.875 20.1172 107.875 18.6953C107.875 17.2318 108.24 16.1016 108.969 15.3047C109.703 14.5026 110.716 14.1016 112.008 14.1016C113.242 14.1016 114.203 14.4531 114.891 15.1562C115.578 15.8594 115.922 16.8307 115.922 18.0703V19.2266H110.289C110.315 19.9036 110.516 20.4323 110.891 20.8125C111.266 21.1927 111.792 21.3828 112.469 21.3828C112.995 21.3828 113.492 21.3281 113.961 21.2188C114.43 21.1094 114.919 20.9349 115.43 20.6953V22.5391C115.013 22.7474 114.568 22.901 114.094 23C113.62 23.1042 113.042 23.1562 112.359 23.1562ZM123.953 20.4062C123.953 21.3021 123.641 21.9844 123.016 22.4531C122.396 22.9219 121.466 23.1562 120.227 23.1562C119.591 23.1562 119.049 23.112 118.602 23.0234C118.154 22.9401 117.734 22.8151 117.344 22.6484V20.6797C117.786 20.888 118.284 21.0625 118.836 21.2031C119.393 21.3438 119.883 21.4141 120.305 21.4141C121.169 21.4141 121.602 21.1641 121.602 20.6641C121.602 20.4766 121.544 20.3255 121.43 20.2109C121.315 20.0911 121.117 19.9583 120.836 19.8125C120.555 19.6615 120.18 19.487 119.711 19.2891C119.039 19.0078 118.544 18.7474 118.227 18.5078C117.914 18.2682 117.685 17.9948 117.539 17.6875C117.398 17.375 117.328 16.9922 117.328 16.5391C117.328 15.763 117.628 15.1641 118.227 14.7422C118.831 14.3151 119.685 14.1016 120.789 14.1016C121.841 14.1016 122.865 14.3307 123.859 14.7891L123.141 16.5078C122.703 16.3203 122.294 16.1667 121.914 16.0469C121.534 15.9271 121.146 15.8672 120.75 15.8672C120.047 15.8672 119.695 16.0573 119.695 16.4375C119.695 16.651 119.807 16.8359 120.031 16.9922C120.26 17.1484 120.758 17.3802 121.523 17.6875C122.206 17.9635 122.706 18.2214 123.023 18.4609C123.341 18.7005 123.576 18.9766 123.727 19.2891C123.878 19.6016 123.953 19.974 123.953 20.4062Z" fill="white"/>
</svg>
