<svg xmlns="http://www.w3.org/2000/svg" viewBox="0 0 60 50"><defs/><path d="M25.4135 37.5c0 4.2157-1.3032 7.3529-3.9097 9.4118C18.9975 48.9706 16.1404 50 12.9323 50c-3.20799 0-6.16538-1.1274-8.87215-3.3823C1.35338 44.2647 0 40.7843 0 36.1765c0-4.4118 1.50376-9.6079 4.51128-15.5883C7.61905 14.5098 12.9323 7.64706 20.4511 0l8.2707 5.29412c-3.1078 5.29408-5.2632 9.31368-6.4662 12.05878-1.1027 2.6471-1.6541 4.6569-1.6541 6.0294 0 1.3726.401 2.6961 1.203 3.9706.802 1.2746 1.604 2.6961 2.406 4.2648.802 1.5686 1.203 3.5294 1.203 5.8823zm31.1279 0c0 4.2157-1.2532 7.3529-3.7594 9.4118C50.2757 48.9706 47.4185 50 44.2105 50s-6.2155-1.1274-9.0225-3.3823c-2.7068-2.353-4.0602-5.8334-4.0602-10.4412 0-4.4118 1.5038-9.6079 4.5113-15.5883C38.7469 14.5098 44.1103 7.64706 51.7293 0L60 5.29412c-3.208 5.29408-5.3634 9.31368-6.4662 12.05878-1.1027 2.6471-1.6541 4.6569-1.6541 6.0294 0 1.3726.401 2.6961 1.203 3.9706.802 1.2746 1.5539 2.6961 2.2556 4.2648.8021 1.5686 1.2031 3.5294 1.2031 5.8823z"/></svg>