<svg width="150" height="150" viewBox="0 0 150 150" fill="none" xmlns="http://www.w3.org/2000/svg">
<path fill-rule="evenodd" clip-rule="evenodd" d="M73.7727 0.112105C97.1284 -0.729728 122.201 2.8827 137.082 20.7877C152.195 38.9714 152.273 64.5732 146.319 87.401C140.605 109.306 126.548 127.718 106.426 138.317C85.2003 149.497 59.7754 154.839 38.1927 144.356C16.7307 133.931 5.83461 110.681 1.4842 87.3425C-2.61894 65.3304 1.651 42.4351 15.9729 25.1529C30.0289 8.19153 51.6737 0.908641 73.7727 0.112105Z" fill="#F7D56E"/>
<path opacity="0.25" d="M71.3594 67.4453H77.4727L67.7656 96H61.1641L51.4766 67.4453H57.5898L62.9609 84.4375C63.2604 85.4401 63.5664 86.612 63.8789 87.9531C64.2044 89.2812 64.4062 90.2057 64.4844 90.7266C64.6276 89.5286 65.1159 87.4323 65.9492 84.4375L71.3594 67.4453ZM97.9414 88.0703C97.9414 90.6484 97.0104 92.6797 95.1484 94.1641C93.2995 95.6484 90.7214 96.3906 87.4141 96.3906C84.3672 96.3906 81.6719 95.8177 79.3281 94.6719V89.0469C81.2552 89.9062 82.8828 90.5117 84.2109 90.8633C85.5521 91.2148 86.776 91.3906 87.8828 91.3906C89.2109 91.3906 90.2266 91.1367 90.9297 90.6289C91.6458 90.1211 92.0039 89.3659 92.0039 88.3633C92.0039 87.8034 91.8477 87.3086 91.5352 86.8789C91.2227 86.4362 90.7604 86.013 90.1484 85.6094C89.5495 85.2057 88.319 84.5612 86.457 83.6758C84.7122 82.8555 83.4036 82.0677 82.5312 81.3125C81.6589 80.5573 80.9622 79.6784 80.4414 78.6758C79.9206 77.6732 79.6602 76.5013 79.6602 75.1602C79.6602 72.6341 80.513 70.6484 82.2188 69.2031C83.9375 67.7578 86.3073 67.0352 89.3281 67.0352C90.8125 67.0352 92.2253 67.2109 93.5664 67.5625C94.9206 67.9141 96.3333 68.4089 97.8047 69.0469L95.8516 73.7539C94.3281 73.1289 93.0651 72.6927 92.0625 72.4453C91.0729 72.1979 90.0964 72.0742 89.1328 72.0742C87.987 72.0742 87.1081 72.3411 86.4961 72.875C85.8841 73.4089 85.5781 74.1055 85.5781 74.9648C85.5781 75.4987 85.7018 75.9674 85.9492 76.3711C86.1966 76.7617 86.5872 77.1458 87.1211 77.5234C87.668 77.888 88.9505 78.5521 90.9688 79.5156C93.638 80.7917 95.4674 82.0742 96.457 83.3633C97.4466 84.6393 97.9414 86.2083 97.9414 88.0703Z" fill="#1E0D26"/>
</svg>
