<svg width="150" height="150" viewBox="0 0 150 150" fill="none" xmlns="http://www.w3.org/2000/svg">
<path fill-rule="evenodd" clip-rule="evenodd" d="M74.4772 0.0049548C95.2346 0.282767 112.905 13.2657 126.452 29.8215C140.827 47.3894 153.165 68.5942 149.274 91.4146C145.2 115.304 128.01 134.535 106.921 144.355C86.6374 153.8 63.7856 150.619 43.7788 140.54C23.7027 130.426 5.82726 113.965 1.13814 91.0645C-3.49439 68.4407 6.59987 46.0616 20.8182 28.4077C34.4386 11.4963 53.4151 -0.276935 74.4772 0.0049548Z" fill="#F7D56E"/>
<path d="M73.8906 74.6836C73.8906 79.4102 72.7188 83.043 70.375 85.582C68.0312 88.1211 64.6719 89.3906 60.2969 89.3906C55.9219 89.3906 52.5625 88.1211 50.2188 85.582C47.875 83.043 46.7031 79.3971 46.7031 74.6445C46.7031 69.8919 47.875 66.2656 50.2188 63.7656C52.5755 61.2526 55.9479 59.9961 60.3359 59.9961C64.724 59.9961 68.0768 61.2591 70.3945 63.7852C72.7253 66.3112 73.8906 69.944 73.8906 74.6836ZM53.0508 74.6836C53.0508 77.8737 53.6562 80.276 54.8672 81.8906C56.0781 83.5052 57.888 84.3125 60.2969 84.3125C65.1276 84.3125 67.543 81.1029 67.543 74.6836C67.543 68.2513 65.1406 65.0352 60.3359 65.0352C57.9271 65.0352 56.1107 65.849 54.8867 67.4766C53.6628 69.0911 53.0508 71.4935 53.0508 74.6836Z" fill="#C1A35C"/>
<path d="M85.8633 73.1211H87.8164C89.7305 73.1211 91.1432 72.8021 92.0547 72.1641C92.9661 71.526 93.4219 70.5234 93.4219 69.1562C93.4219 67.8021 92.9531 66.8385 92.0156 66.2656C91.0911 65.6927 89.6523 65.4062 87.6992 65.4062H85.8633V73.1211ZM85.8633 78.043V89H79.8086V60.4453H88.1289C92.0091 60.4453 94.8802 61.1549 96.7422 62.5742C98.6042 63.9805 99.5352 66.1224 99.5352 69C99.5352 70.6797 99.0729 72.1771 98.1484 73.4922C97.224 74.7943 95.9154 75.8164 94.2227 76.5586C98.5195 82.9779 101.319 87.125 102.621 89H95.9023L89.0859 78.043H85.8633Z" fill="#C1A35C"/>
</svg>
