<svg width="150" height="150" viewBox="0 0 150 150" fill="none" xmlns="http://www.w3.org/2000/svg">
<path fill-rule="evenodd" clip-rule="evenodd" d="M74.4772 0.0049548C95.2346 0.282767 112.905 13.2657 126.452 29.8215C140.827 47.3894 153.165 68.5942 149.274 91.4146C145.2 115.304 128.01 134.535 106.921 144.355C86.6374 153.8 63.7856 150.619 43.7788 140.54C23.7027 130.426 5.82726 113.965 1.13814 91.0645C-3.49439 68.4407 6.59987 46.0616 20.8182 28.4077C34.4386 11.4963 53.4151 -0.276935 74.4772 0.0049548Z" fill="#F7D56E"/>
<path opacity="0.25" d="M71.3594 62.4453H77.4727L67.7656 91H61.1641L51.4766 62.4453H57.5898L62.9609 79.4375C63.2604 80.4401 63.5664 81.612 63.8789 82.9531C64.2044 84.2812 64.4062 85.2057 64.4844 85.7266C64.6276 84.5286 65.1159 82.4323 65.9492 79.4375L71.3594 62.4453ZM97.9414 83.0703C97.9414 85.6484 97.0104 87.6797 95.1484 89.1641C93.2995 90.6484 90.7214 91.3906 87.4141 91.3906C84.3672 91.3906 81.6719 90.8177 79.3281 89.6719V84.0469C81.2552 84.9062 82.8828 85.5117 84.2109 85.8633C85.5521 86.2148 86.776 86.3906 87.8828 86.3906C89.2109 86.3906 90.2266 86.1367 90.9297 85.6289C91.6458 85.1211 92.0039 84.3659 92.0039 83.3633C92.0039 82.8034 91.8477 82.3086 91.5352 81.8789C91.2227 81.4362 90.7604 81.013 90.1484 80.6094C89.5495 80.2057 88.319 79.5612 86.457 78.6758C84.7122 77.8555 83.4036 77.0677 82.5312 76.3125C81.6589 75.5573 80.9622 74.6784 80.4414 73.6758C79.9206 72.6732 79.6602 71.5013 79.6602 70.1602C79.6602 67.6341 80.513 65.6484 82.2188 64.2031C83.9375 62.7578 86.3073 62.0352 89.3281 62.0352C90.8125 62.0352 92.2253 62.2109 93.5664 62.5625C94.9206 62.9141 96.3333 63.4089 97.8047 64.0469L95.8516 68.7539C94.3281 68.1289 93.0651 67.6927 92.0625 67.4453C91.0729 67.1979 90.0964 67.0742 89.1328 67.0742C87.987 67.0742 87.1081 67.3411 86.4961 67.875C85.8841 68.4089 85.5781 69.1055 85.5781 69.9648C85.5781 70.4987 85.7018 70.9674 85.9492 71.3711C86.1966 71.7617 86.5872 72.1458 87.1211 72.5234C87.668 72.888 88.9505 73.5521 90.9688 74.5156C93.638 75.7917 95.4674 77.0742 96.457 78.3633C97.4466 79.6393 97.9414 81.2083 97.9414 83.0703Z" fill="#1E0D26"/>
</svg>
