<svg width="150" height="150" viewBox="0 0 150 150" fill="none" xmlns="http://www.w3.org/2000/svg">
<path fill-rule="evenodd" clip-rule="evenodd" d="M73.7727 0.112105C97.1284 -0.729728 122.201 2.8827 137.082 20.7877C152.195 38.9714 152.273 64.5732 146.319 87.401C140.605 109.306 126.548 127.718 106.426 138.317C85.2003 149.497 59.7754 154.839 38.1927 144.356C16.7307 133.931 5.83461 110.681 1.4842 87.3425C-2.61894 65.3304 1.651 42.4351 15.9729 25.1529C30.0289 8.19153 51.6737 0.908641 73.7727 0.112105Z" fill="#F7D56E"/>
<path d="M73.8906 68.6836C73.8906 73.4102 72.7188 77.043 70.375 79.582C68.0312 82.1211 64.6719 83.3906 60.2969 83.3906C55.9219 83.3906 52.5625 82.1211 50.2188 79.582C47.875 77.043 46.7031 73.3971 46.7031 68.6445C46.7031 63.8919 47.875 60.2656 50.2188 57.7656C52.5755 55.2526 55.9479 53.9961 60.3359 53.9961C64.724 53.9961 68.0768 55.2591 70.3945 57.7852C72.7253 60.3112 73.8906 63.944 73.8906 68.6836ZM53.0508 68.6836C53.0508 71.8737 53.6562 74.276 54.8672 75.8906C56.0781 77.5052 57.888 78.3125 60.2969 78.3125C65.1276 78.3125 67.543 75.1029 67.543 68.6836C67.543 62.2513 65.1406 59.0352 60.3359 59.0352C57.9271 59.0352 56.1107 59.849 54.8867 61.4766C53.6628 63.0911 53.0508 65.4935 53.0508 68.6836Z" fill="#C1A35C"/>
<path d="M85.8633 67.1211H87.8164C89.7305 67.1211 91.1432 66.8021 92.0547 66.1641C92.9661 65.526 93.4219 64.5234 93.4219 63.1562C93.4219 61.8021 92.9531 60.8385 92.0156 60.2656C91.0911 59.6927 89.6523 59.4062 87.6992 59.4062H85.8633V67.1211ZM85.8633 72.043V83H79.8086V54.4453H88.1289C92.0091 54.4453 94.8802 55.1549 96.7422 56.5742C98.6042 57.9805 99.5352 60.1224 99.5352 63C99.5352 64.6797 99.0729 66.1771 98.1484 67.4922C97.224 68.7943 95.9154 69.8164 94.2227 70.5586C98.5195 76.9779 101.319 81.125 102.621 83H95.9023L89.0859 72.043H85.8633Z" fill="#C1A35C"/>
</svg>
