<svg width="60" height="60" viewBox="0 0 60 60" fill="none" xmlns="http://www.w3.org/2000/svg">
<path fill-rule="circle" clip-rule="evenodd" d="M30.686 0.000717402C39.2487 -0.0463054 47.9631 2.21056 53.5387 9.05323C59.3429 16.1764 61.1572 25.9389 59.3011 35.1187C57.4093 44.4749 51.9942 52.7833 43.8425 57.0071C35.6084 61.2738 25.9759 60.8098 17.6758 56.6873C9.28685 52.5208 2.44649 45.0446 0.521936 35.4909C-1.37071 26.0956 2.04744 16.4595 8.13033 9.30259C13.7956 2.63706 22.1908 0.0473698 30.686 0.000717402Z" fill="#E0DCD4"/>
<path d="M50.0023 30C50.0023 26.401 49.0311 22.8688 47.1913 19.7756C45.3514 16.6825 42.711 14.1431 39.5485 12.4253C36.3859 10.7075 32.8184 9.87485 29.2222 10.0152C25.626 10.1556 22.1343 11.2638 19.1152 13.2229L30.0023 30H50.0023Z" fill="white" stroke="#DFDCD4" stroke-width="1.33"/>
<path d="M19.113 13.2231C15.6527 15.4686 12.9713 18.7291 11.4363 22.5579C9.9013 26.3868 9.58774 30.5965 10.5386 34.6105L30 30.0003L19.113 13.2231Z" fill="white" stroke="#DFDCD4" stroke-width="1.33"/>
<path d="M10.541 34.6102C11.636 39.2327 14.3406 43.3145 18.1706 46.1248C22.0006 48.9351 26.7058 50.2904 31.4439 49.948L30.0024 30L10.541 34.6102Z" fill="white" stroke="#DFDCD4" stroke-width="1.33"/>
<path d="M31.4415 49.948C36.4831 49.5837 41.1998 47.3238 44.6429 43.623C48.086 39.9221 50 35.0548 50 30H30L31.4415 49.948Z" fill="white" stroke="#DFDCD4" stroke-width="1.33"/>
<circle fill-rule="circle" cx="30" cy="30" r="10" fill="#DFDCD4"/>
</svg>
