<svg width="101" height="101" viewBox="0 0 101 101" fill="none" xmlns="http://www.w3.org/2000/svg">
<path fill-rule="evenodd" clip-rule="evenodd" d="M89.0516 16.4196C78.0319 2.89556 62.0529 -0.0620023 50.5845 0.000976449C38.4386 0.0676783 23.553 3.81542 12.8993 16.3502C3.76848 27.0933 -2.43342 42.7734 0.92409 59.4405C4.30756 76.2363 16.042 88.2692 28.7875 94.5996C41.9605 101.142 58.3715 102.372 73.0522 94.7648C87.6174 87.2176 96.073 73.1266 98.9127 59.0824C101.751 45.0444 99.2423 28.9261 89.0516 16.4196Z" fill="#F6F3EE"/>
<path fill-rule="evenodd" clip-rule="evenodd" d="M50.6851 20.0006C59.2478 19.9536 67.9622 22.2104 73.5378 29.0531C79.3419 36.1763 81.1563 45.9388 79.3001 55.1185C77.4083 64.4748 71.9932 72.7831 63.8416 77.007C55.6074 81.2737 45.975 80.8097 37.6748 76.6872C29.2859 72.5206 22.4455 65.0445 20.521 55.4908C18.6283 46.0955 22.0465 36.4594 28.1294 29.3025C33.7946 22.6369 42.1898 20.0472 50.6851 20.0006Z" fill="#E0DCD4"/>
<path d="M70.0003 49.9999C70.0003 46.4009 69.0292 42.8686 67.1893 39.7755C65.3495 36.6824 62.7091 34.143 59.5465 32.4252C56.384 30.7074 52.8165 29.8747 49.2203 30.0151C45.624 30.1555 42.1323 31.2636 39.1133 33.2227L50.0003 49.9999H70.0003Z" fill="white" stroke="#DFDCD4" stroke-width="1.33"/>
<path d="M39.112 33.2228C35.6517 35.4683 32.9703 38.7288 31.4353 42.5576C29.9003 46.3864 29.5868 50.5962 30.5376 54.6101L49.999 49.9999L39.112 33.2228Z" fill="white" stroke="#DFDCD4" stroke-width="1.33"/>
<path d="M30.5391 54.6101C31.6341 59.2326 34.3387 63.3144 38.1687 66.1247C41.9986 68.935 46.7039 70.2903 51.4419 69.9479L50.0005 49.9999L30.5391 54.6101Z" fill="white" stroke="#DFDCD4" stroke-width="1.33"/>
<path d="M51.4405 69.9479C56.4822 69.5836 61.1989 67.3237 64.6419 63.6228C68.085 59.922 69.999 55.0547 69.999 49.9999H49.999L51.4405 69.9479Z" fill="white" stroke="#DFDCD4" stroke-width="1.33"/>
<circle cx="49.999" cy="49.9999" r="10" fill="#DFDCD4"/>
</svg>
