<svg width="101" height="101" viewBox="0 0 101 101" fill="none" xmlns="http://www.w3.org/2000/svg">
<path fill-rule="evenodd" clip-rule="evenodd" d="M89.0516 16.4196C78.0319 2.89556 62.0529 -0.0620023 50.5845 0.000976449C38.4386 0.0676783 23.553 3.81542 12.8993 16.3502C3.76848 27.0933 -2.43342 42.7734 0.92409 59.4405C4.30756 76.2363 16.042 88.2692 28.7875 94.5996C41.9605 101.142 58.3715 102.372 73.0522 94.7648C87.6174 87.2176 96.073 73.1266 98.9127 59.0824C101.751 45.0444 99.2423 28.9261 89.0516 16.4196Z" fill="#F6F3EE"/>
<path fill-rule="evenodd" clip-rule="evenodd" d="M50.6851 20.0007C59.2478 19.9537 67.9622 22.2106 73.5378 29.0532C79.3419 36.1764 81.1563 45.9389 79.3001 55.1187C77.4083 64.4749 71.9932 72.7833 63.8416 77.0071C55.6074 81.2738 45.975 80.8098 37.6748 76.6873C29.2859 72.5208 22.4455 65.0446 20.521 55.4909C18.6283 46.0956 22.0465 36.4595 28.1294 29.3026C33.7946 22.6371 42.1898 20.0474 50.6851 20.0007Z" fill="#22194D"/>
<path d="M70.0003 50C70.0003 46.401 69.0292 42.8688 67.1893 39.7756C65.3495 36.6825 62.7091 34.1431 59.5465 32.4253C56.384 30.7075 52.8165 29.8749 49.2203 30.0152C45.624 30.1556 42.1323 31.2638 39.1133 33.2229L50.0003 50H70.0003Z" fill="white" stroke="#22194D" stroke-width="1.33"/>
<path d="M39.112 33.2229C35.6517 35.4684 32.9703 38.7289 31.4353 42.5577C29.9003 46.3865 29.5868 50.5963 30.5376 54.6103L49.999 50.0001L39.112 33.2229Z" fill="white" stroke="#22194D" stroke-width="1.33"/>
<path d="M30.5391 54.6102C31.6341 59.2327 34.3387 63.3145 38.1687 66.1248C41.9986 68.9351 46.7039 70.2904 51.4419 69.948L50.0005 50L30.5391 54.6102Z" fill="white" stroke="#22194D" stroke-width="1.33"/>
<path d="M51.4405 69.948C56.4822 69.5837 61.1989 67.3238 64.6419 63.623C68.085 59.9221 69.999 55.0548 69.999 50H49.999L51.4405 69.948Z" fill="white" stroke="#22194D" stroke-width="1.33"/>
<circle cx="49.999" cy="50" r="10" fill="#22194D"/>
</svg>
