<svg width="100" height="100" viewBox="0 0 100 100" fill="none" xmlns="http://www.w3.org/2000/svg">
<path fill-rule="evenodd" clip-rule="evenodd" d="M50.6065 0.000407531C66.8035 -0.065552 81.4281 7.88087 90.6162 19.7308C100.719 32.7611 101.659 48.6335 98.1452 61.5566C94.2523 75.8751 84.1792 86.4235 72.3791 92.5427C62.8005 97.5098 45.8621 104.045 28.6019 96.7203C11.5295 89.475 3.67524 73.5502 1.02395 60.7973C-2.06449 45.9417 1.96372 30.9707 11.3505 19.5092C20.1007 8.82497 33.8988 0.0684458 50.6065 0.000407531Z" fill="#F6F3EE"/>
<path fill-rule="evenodd" clip-rule="evenodd" d="M50.6825 20.0002C60.2323 19.9613 69.1453 24.6907 74.8014 31.9869C80.1967 38.9466 81.1104 47.9536 78.8367 56.318C76.6475 64.3718 70.8591 70.8086 63.1637 74.7999C54.854 79.1098 45.0575 81.9914 36.4125 78.3219C27.5406 74.5561 22.4831 65.7775 20.6035 56.7345C18.7976 48.0464 21.0948 39.1768 26.8221 32.1823C32.6504 25.0644 41.1789 20.0389 50.6825 20.0002Z" fill="#22194D"/>
<circle cx="38" cy="40" r="3" fill="white"/>
<rect x="44" y="38" width="21" height="4" rx="2" fill="white"/>
<circle cx="50" cy="50" r="3" fill="white"/>
<rect x="56" y="48" width="9" height="4" rx="2" fill="white"/>
<rect x="35" y="48" width="9" height="4" rx="2" fill="white"/>
<circle cx="62" cy="60" r="3" fill="white"/>
<rect x="35" y="58" width="21" height="4" rx="2" fill="white"/>
</svg>
