<svg width="60" height="60" viewBox="0 0 60 60" fill="none" xmlns="http://www.w3.org/2000/svg">
<path fill-rule="circle" clip-rule="evenodd" d="M29.9203 0.0090922C39.1526 0.214892 47.6473 4.62633 53.353 11.6826C59.0057 18.6731 61.2566 27.6742 59.3161 36.3625C57.3489 45.1702 51.5838 52.7872 43.2773 56.7959C34.8453 60.8651 24.8414 61.1739 16.4339 57.0573C8.19738 53.0245 3.35452 44.9276 1.22658 36.2068C-0.927878 27.3773 -0.598773 17.7957 5.09968 10.607C10.9018 3.28741 20.4151 -0.202792 29.9203 0.0090922Z" fill="#E0DCD4"/>
<g clip-path="url(#clip0)">
<path fill-rule="evenodd" clip-rule="evenodd" d="M28.5026 24.6667C35.4982 24.6667 41.1693 22.2789 41.1693 19.3333C41.1693 16.3878 35.4982 14 28.5026 14C21.507 14 15.8359 16.3878 15.8359 19.3333C15.8359 22.2789 21.507 24.6667 28.5026 24.6667ZM39.7199 27.5481C38.3886 26.968 36.9522 26.668 35.4999 26.6668C33.9349 26.6657 32.3889 27.0098 30.9721 27.6745C29.5552 28.3391 28.3023 29.308 27.3026 30.5121C27.27 30.5508 27.2291 30.5817 27.183 30.6025C27.1368 30.6233 27.0865 30.6334 27.0359 30.6321C20.7333 30.3254 15.8359 28.0721 15.8359 25.3334V23.0441C15.8359 22.981 15.8537 22.9192 15.8874 22.8659C15.921 22.8125 15.9692 22.7698 16.0261 22.7427C16.0831 22.7156 16.1466 22.7053 16.2092 22.7128C16.2719 22.7204 16.331 22.7456 16.3799 22.7854C18.9626 24.8894 23.8319 26.0001 28.5039 26.0001C33.1759 26.0001 38.0426 24.8908 40.6266 22.7881C40.6753 22.7481 40.7343 22.7229 40.7968 22.7152C40.8593 22.7075 40.9226 22.7177 40.9795 22.7447C41.0364 22.7717 41.0845 22.8143 41.118 22.8675C41.1516 22.9208 41.1694 22.9825 41.1693 23.0454V25.3334C41.1456 25.7475 41.0368 26.1522 40.8496 26.5222C40.6623 26.8923 40.4008 27.2197 40.0813 27.4841C40.034 27.5291 39.9745 27.5592 39.9103 27.5705C39.846 27.5819 39.7798 27.5741 39.7199 27.5481ZM16.3799 28.7867C16.331 28.7469 16.2719 28.7217 16.2092 28.7141C16.1466 28.7066 16.0831 28.7169 16.0261 28.744C15.9692 28.7711 15.921 28.8138 15.8874 28.8672C15.8537 28.9205 15.8359 28.9823 15.8359 29.0454V31.3334C15.8359 33.6961 19.4839 35.6961 24.5346 36.4001C24.5786 36.406 24.6234 36.4032 24.6663 36.3917C24.7091 36.3802 24.7493 36.3603 24.7844 36.3331C24.8196 36.3059 24.8489 36.272 24.8708 36.2334C24.8927 36.1948 24.9067 36.1522 24.9119 36.1081C25.0626 34.7981 25.4579 33.5281 26.0773 32.3641C26.103 32.3154 26.1163 32.261 26.1159 32.206C26.1156 32.1509 26.1015 32.0967 26.0751 32.0484C26.0487 32 26.0107 31.959 25.9646 31.9289C25.9184 31.8989 25.8655 31.8807 25.8106 31.8761C22.0479 31.5334 18.4679 30.4867 16.3799 28.7867ZM25.6013 42.5214C25.6604 42.5273 25.72 42.5172 25.7739 42.4923C25.8278 42.4674 25.8741 42.4285 25.908 42.3797C25.9418 42.3309 25.962 42.2739 25.9665 42.2146C25.9709 42.1554 25.9595 42.0961 25.9333 42.0427C25.3177 40.7927 24.9552 39.4333 24.8666 38.0427C24.8617 37.966 24.8303 37.8933 24.7778 37.8371C24.7253 37.781 24.6549 37.7448 24.5786 37.7347C21.6367 37.4779 18.8117 36.4622 16.3799 34.7867C16.331 34.7469 16.2719 34.7217 16.2092 34.7141C16.1466 34.7066 16.0831 34.7169 16.0261 34.744C15.9692 34.7711 15.921 34.8138 15.8874 34.8672C15.8537 34.9205 15.8359 34.9823 15.8359 35.0454V37.3334C15.8359 39.8667 20.0093 41.9707 25.6013 42.5214ZM30.6835 30.1273C32.1087 29.175 33.7843 28.6667 35.4984 28.6667C37.7961 28.6695 39.9988 29.5835 41.6236 31.2082C43.2483 32.8329 44.1623 35.0357 44.1651 37.3333C44.1651 39.0474 43.6568 40.7231 42.7045 42.1483C41.7522 43.5735 40.3986 44.6843 38.815 45.3403C37.2314 45.9963 35.4888 46.1679 33.8076 45.8335C32.1265 45.4991 30.5822 44.6737 29.3702 43.4616C28.1581 42.2495 27.3327 40.7053 26.9983 39.0241C26.6639 37.343 26.8355 35.6004 27.4915 34.0167C28.1474 32.4331 29.2582 31.0796 30.6835 30.1273ZM35.9997 40.7653L39.8664 35.6V35.6067C40.0255 35.3945 40.0939 35.1278 40.0564 34.8652C40.0189 34.6027 39.8786 34.3658 39.6664 34.2067C39.4542 34.0475 39.1875 33.9792 38.925 34.0167C38.6624 34.0542 38.4255 34.1945 38.2664 34.4067L34.6357 39.2573C34.607 39.2954 34.5705 39.327 34.5287 39.3499C34.4868 39.3729 34.4406 39.3868 34.3931 39.3907C34.3442 39.395 34.295 39.3885 34.2489 39.3717C34.2028 39.3549 34.161 39.3281 34.1264 39.2933L32.3931 37.56C32.2046 37.3778 31.952 37.2768 31.6898 37.279C31.4276 37.2811 31.1767 37.3862 30.9912 37.5715C30.8058 37.7568 30.7005 38.0076 30.6981 38.2698C30.6957 38.532 30.7963 38.7846 30.9784 38.9733L32.9784 40.9733C33.162 41.1603 33.3808 41.3089 33.6223 41.4105C33.8638 41.5121 34.1231 41.5648 34.3851 41.5653H34.5331C34.8209 41.5462 35.1012 41.4648 35.3544 41.3266C35.6076 41.1885 35.8278 40.997 35.9997 40.7653Z" fill="white"/>
</g>
<defs>
<clipPath id="clip0">
<rect width="32" height="32" fill="white" transform="translate(14 14)"/>
</clipPath>
</defs>
</svg>
