<svg width="100" height="100" viewBox="0 0 100 100" fill="none" xmlns="http://www.w3.org/2000/svg">
<path fill-rule="evenodd" clip-rule="evenodd" d="M88.9019 19.1068C79.6855 7.70992 65.7693 0.35716 50.3599 0.0136924C36.146 -0.30313 19.9849 4.85221 9.41711 18.1826C-1.71807 32.2287 -1.08528 49.1791 1.7865 60.9474C4.78403 73.2311 12.3136 87.5202 27.631 95.0194C42.0309 102.069 58.5028 101.304 71.9655 94.8077C86.0351 88.0183 95.5964 75.2124 98.8331 60.7216C102.162 45.8185 98.2208 30.6304 88.9019 19.1068Z" fill="#F6F3EE"/>
<path fill-rule="evenodd" clip-rule="evenodd" d="M49.9194 20.0091C59.1516 20.2149 67.6463 24.6263 73.352 31.6826C79.0047 38.6731 81.2556 47.6742 79.3151 56.3625C77.348 65.1702 71.5828 72.7872 63.2763 76.7959C54.8444 80.8651 44.8404 81.1739 36.4329 77.0573C28.1964 73.0245 23.3535 64.9276 21.2256 56.2068C19.0711 47.3773 19.4003 37.7957 25.0987 30.607C30.9009 23.2874 40.4141 19.7972 49.9194 20.0091Z" fill="#22194D"/>
<g clip-path="url(#clip0)">
<path fill-rule="evenodd" clip-rule="evenodd" d="M48.5016 44.6667C55.4972 44.6667 61.1683 42.2789 61.1683 39.3333C61.1683 36.3878 55.4972 34 48.5016 34C41.506 34 35.835 36.3878 35.835 39.3333C35.835 42.2789 41.506 44.6667 48.5016 44.6667ZM59.719 47.5481C58.3876 46.968 56.9512 46.668 55.499 46.6668C53.9339 46.6657 52.388 47.0098 50.9711 47.6745C49.5542 48.3391 48.3013 49.308 47.3016 50.5121C47.269 50.5508 47.2281 50.5817 47.182 50.6025C47.1358 50.6233 47.0856 50.6334 47.035 50.6321C40.7323 50.3254 35.835 48.0721 35.835 45.3334V43.0441C35.8349 42.981 35.8527 42.9192 35.8864 42.8659C35.9201 42.8125 35.9682 42.7698 36.0252 42.7427C36.0821 42.7156 36.1456 42.7053 36.2082 42.7128C36.2709 42.7204 36.3301 42.7456 36.379 42.7854C38.9616 44.8894 43.831 46.0001 48.503 46.0001C53.175 46.0001 58.0416 44.8908 60.6256 42.7881C60.6743 42.7481 60.7333 42.7229 60.7958 42.7152C60.8583 42.7075 60.9217 42.7177 60.9785 42.7447C61.0354 42.7717 61.0835 42.8143 61.1171 42.8675C61.1507 42.9208 61.1684 42.9825 61.1683 43.0454V45.3334C61.1446 45.7475 61.0358 46.1522 60.8486 46.5222C60.6614 46.8923 60.3998 47.2197 60.0803 47.4841C60.033 47.5291 59.9735 47.5592 59.9093 47.5705C59.845 47.5819 59.7788 47.5741 59.719 47.5481ZM36.379 48.7867C36.3301 48.7469 36.2709 48.7217 36.2082 48.7141C36.1456 48.7066 36.0821 48.7169 36.0252 48.744C35.9682 48.7711 35.9201 48.8138 35.8864 48.8672C35.8527 48.9205 35.8349 48.9823 35.835 49.0454V51.3334C35.835 53.6961 39.483 55.6961 44.5336 56.4001C44.5776 56.406 44.6224 56.4032 44.6653 56.3917C44.7082 56.3802 44.7483 56.3603 44.7835 56.3331C44.8186 56.3059 44.8479 56.272 44.8698 56.2334C44.8917 56.1948 44.9057 56.1522 44.911 56.1081C45.0616 54.7981 45.4569 53.5281 46.0763 52.3641C46.102 52.3154 46.1153 52.261 46.115 52.206C46.1146 52.1509 46.1006 52.0967 46.0741 52.0484C46.0477 52 46.0097 51.959 45.9636 51.9289C45.9174 51.8989 45.8645 51.8807 45.8096 51.8761C42.047 51.5334 38.467 50.4867 36.379 48.7867ZM45.6003 62.5214C45.6594 62.5273 45.719 62.5172 45.7729 62.4923C45.8269 62.4674 45.8731 62.4285 45.907 62.3797C45.9409 62.3309 45.9611 62.2739 45.9655 62.2146C45.9699 62.1554 45.9585 62.0961 45.9323 62.0427C45.3167 60.7927 44.9542 59.4333 44.8656 58.0427C44.8607 57.966 44.8293 57.8933 44.7768 57.8371C44.7243 57.781 44.6539 57.7448 44.5776 57.7347C41.6357 57.4779 38.8108 56.4622 36.379 54.7867C36.3301 54.7469 36.2709 54.7217 36.2082 54.7141C36.1456 54.7066 36.0821 54.7169 36.0252 54.744C35.9682 54.7711 35.9201 54.8138 35.8864 54.8672C35.8527 54.9205 35.8349 54.9823 35.835 55.0454V57.3334C35.835 59.8667 40.0083 61.9707 45.6003 62.5214ZM50.6825 50.1273C52.1077 49.175 53.7833 48.6667 55.4974 48.6667C57.7951 48.6695 59.9979 49.5835 61.6226 51.2082C63.2473 52.8329 64.1613 55.0357 64.1641 57.3333C64.1641 59.0474 63.6558 60.7231 62.7035 62.1483C61.7512 63.5735 60.3976 64.6843 58.814 65.3403C57.2304 65.9963 55.4878 66.1679 53.8067 65.8335C52.1255 65.4991 50.5812 64.6737 49.3692 63.4616C48.1571 62.2495 47.3317 60.7053 46.9973 59.0241C46.6629 57.343 46.8345 55.6004 47.4905 54.0167C48.1464 52.4331 49.2573 51.0796 50.6825 50.1273ZM55.9988 60.7653L59.8654 55.6V55.6067C60.0246 55.3945 60.0929 55.1278 60.0554 54.8652C60.0179 54.6027 59.8776 54.3658 59.6654 54.2067C59.4533 54.0475 59.1866 53.9792 58.924 54.0167C58.6615 54.0542 58.4246 54.1945 58.2654 54.4067L54.6348 59.2573C54.606 59.2954 54.5695 59.327 54.5277 59.3499C54.4859 59.3729 54.4397 59.3868 54.3921 59.3907C54.3432 59.395 54.294 59.3885 54.2479 59.3717C54.2019 59.3549 54.16 59.3281 54.1254 59.2933L52.3921 57.56C52.2036 57.3778 51.951 57.2768 51.6888 57.279C51.4266 57.2811 51.1758 57.3862 50.9903 57.5715C50.8048 57.7568 50.6995 58.0076 50.6971 58.2698C50.6947 58.532 50.7954 58.7846 50.9774 58.9733L52.9774 60.9733C53.161 61.1603 53.3799 61.3089 53.6213 61.4105C53.8628 61.5121 54.1221 61.5648 54.3841 61.5653H54.5321C54.8199 61.5462 55.1002 61.4648 55.3534 61.3266C55.6067 61.1885 55.8269 60.997 55.9988 60.7653Z" fill="white"/>
</g>
<defs>
<clipPath id="clip0">
<rect width="32" height="32" fill="white" transform="translate(33.999 34)"/>
</clipPath>
</defs>
</svg>
