<svg width="70" height="70" viewBox="0 0 70 70" fill="none" xmlns="http://www.w3.org/2000/svg">
<path class="circle" fill-rule="evenodd" clip-rule="evenodd" d="M35.7963 0.000277811C46.9376 -0.0451019 57.3361 5.47251 63.9349 13.9847C70.2295 22.1044 71.2954 32.6125 68.6428 42.371C66.0887 51.7672 59.3356 59.2767 50.3577 63.9332C40.663 68.9615 29.2337 72.3233 19.148 68.0422C8.79731 63.6487 2.89699 53.4071 0.70408 42.857C-1.40279 32.7208 1.27724 22.373 7.9591 14.2127C14.7588 5.90841 24.7087 0.0454384 35.7963 0.000277811Z" fill="#F6F3EE"/>
<path fill-rule="evenodd" clip-rule="evenodd" d="M27.908 14C27.8475 14.0006 27.791 14.0165 27.7354 14.0478C27.5527 14.1504 27.4927 14.3633 27.5942 14.549L29.3987 17.8551C25.9269 19.6871 23.5818 23.1688 23.5771 27.1646H46.424C46.4194 23.1688 44.0743 19.6871 40.6025 17.8551L42.407 14.549C42.5085 14.3633 42.4484 14.1504 42.2658 14.0478C42.2102 14.0165 42.1537 14.0006 42.0932 14C41.9635 13.9987 41.8407 14.0644 41.7715 14.191L39.9434 17.5328C38.448 16.8601 36.7706 16.4825 35.0006 16.4825C33.2305 16.4825 31.5532 16.8601 30.0578 17.5328L28.2297 14.191C28.1605 14.0644 28.0376 13.9988 27.908 14ZM23.5771 28.0796V44.8724C23.5771 46.4241 24.8089 47.6732 26.3389 47.6732H28.1709V53.4017C28.1709 54.8484 29.306 55.9996 30.7325 55.9996C32.1591 55.9996 33.2942 54.8484 33.2942 53.4017V47.6732H36.7071V53.4017C36.7071 54.8484 37.8422 55.9996 39.2687 55.9996C40.6953 55.9996 41.8304 54.8484 41.8304 53.4017V47.6732H43.6623C45.1923 47.6732 46.424 46.4241 46.424 44.8724V28.0796H23.5771ZM29.7282 20.9902C29.2066 20.9902 28.7749 21.428 28.7749 21.9569C28.7749 22.4859 29.2066 22.9237 29.7282 22.9237C30.2497 22.9237 30.6814 22.4859 30.6814 21.9569C30.6814 21.428 30.2497 20.9902 29.7282 20.9902ZM40.2729 20.9902C39.7513 20.9902 39.3196 21.428 39.3196 21.9569C39.3196 22.4859 39.7513 22.9237 40.2729 22.9237C40.7944 22.9237 41.2261 22.4859 41.2261 21.9569C41.2261 21.428 40.7944 20.9902 40.2729 20.9902ZM20.0616 27.6339C18.6351 27.6339 17.5 28.785 17.5 30.2317V41.053C17.5 42.4997 18.6351 43.6509 20.0616 43.6509C21.4882 43.6509 22.6233 42.4997 22.6233 41.053V30.2317C22.6233 28.785 21.4882 27.6339 20.0616 27.6339ZM49.9384 27.6339C48.5118 27.6339 47.3767 28.785 47.3767 30.2317V41.053C47.3767 42.4997 48.5118 43.6509 49.9384 43.6509C51.3649 43.6509 52.5 42.4997 52.5 41.053V30.2317C52.5 28.785 51.3649 27.6339 49.9384 27.6339Z" fill="white"/>
</svg>
