<svg width="90" height="90" viewBox="0 0 90 90" fill="none" xmlns="http://www.w3.org/2000/svg">
<path class="circle" fill-rule="evenodd" clip-rule="evenodd" d="M44.5672 0.0250699C57.8507 0.345498 70.9625 4.827 79.5047 15.7382C88.3064 26.9811 92.2415 42.2302 88.7113 56.4121C85.3147 70.0571 74.2797 79.2216 62.2625 85.0049C50.7168 90.5613 37.7395 92.0723 26.2027 86.4948C14.3013 80.7409 5.67695 69.4697 2.21385 55.9739C-1.46211 41.6486 -1.13182 25.54 7.60111 14.0038C16.2639 2.56016 30.824 -0.306447 44.5672 0.0250699Z" fill="#F6F3EE"/>
<g clip-path="url(#clip0)">
<path fill-rule="evenodd" clip-rule="evenodd" d="M44.3299 18H60.7349L25.8711 53.3048L17.666 44.9972L44.3299 18ZM38.173 65.7661L38.1732 65.7664L44.3293 71.9943H60.7343L46.378 57.4585L40.8252 63.0807L60.7346 42.9179H44.3296L29.9733 57.4588L38.173 65.7661Z" fill="white"/>
</g>
<defs>
<clipPath id="clip0">
<rect width="48" height="54" fill="white" transform="translate(18 18)"/>
</clipPath>
</defs>
</svg>
