<svg width="100" height="100" viewBox="0 0 100 100" fill="none" xmlns="http://www.w3.org/2000/svg">
<path class="circle" fill-rule="evenodd" clip-rule="evenodd" d="M49.8672 0.0151537C65.2543 0.358153 79.4121 7.71055 88.9217 19.471C98.3428 31.1219 102.094 46.1237 98.8601 60.6042C95.5816 75.2836 85.9729 87.9787 72.1288 94.6599C58.0756 101.442 41.4024 101.956 27.3898 95.0955C13.6623 88.3742 5.59086 74.8794 2.04429 60.3447C-1.54646 45.6288 -0.997955 29.6594 8.49947 17.6783C18.1698 5.47902 34.0252 -0.337987 49.8672 0.0151537Z" fill="#F6F3EE"/>
<path d="M24.8523 35.767C24.8523 36.3548 24.4972 36.7897 23.888 36.7897C23.3807 36.7897 23 36.3548 23 35.767C23 35.204 23.4058 34.7438 23.9387 34.7438C24.4972 34.7438 24.8523 35.204 24.8523 35.767ZM23.448 66.5071V42.9927H24.4042V66.5071H23.448ZM56.2078 49.7531C56.2078 61.6083 49.679 66.9974 42.5326 66.9974C35.2322 66.9974 29.3203 61.1682 29.3203 50.2434C29.3203 39.026 35.4381 33 43.0467 33C50.5009 32.9991 56.2078 38.9267 56.2078 49.7531ZM30.2893 49.9981C30.2893 58.987 34.6111 65.9699 42.5778 65.9699C50.5999 65.9699 55.2009 58.7721 55.2009 49.8958C55.2009 41.6645 51.5143 34.1525 43.1017 34.1525C34.6891 34.1525 30.2893 41.2253 30.2893 49.9981ZM59.7171 63.9593C61.3213 65.037 64.0901 66.0778 66.4714 66.0778C70.991 66.0778 75.0106 62.8905 75.0106 58.1993C75.0106 53.8458 72.333 51.5743 67.7869 49.6229C63.7183 47.8765 60.0603 45.981 60.0603 41.3271C60.0603 36.4777 63.8505 33.0477 69.0019 33.0477C71.772 33.0477 73.8617 33.8315 74.8336 34.5173L74.4474 35.363C73.6213 34.7756 71.3883 34.027 68.9593 34.027C63.515 34.027 61.1435 38.1738 61.1435 41.2266C61.1435 45.443 64.3859 46.8529 68.5654 48.8614C73.4247 51.2614 76 53.3778 76 57.9831C76 62.9309 72.5014 66.9471 66.2808 66.9471C63.7047 66.9471 60.7406 66.0658 59.2827 64.9386L59.7171 63.9593Z" fill="white" stroke="white" stroke-width="2"/>
</svg>
