<svg width="70" height="70" viewBox="0 0 70 70" fill="none" xmlns="http://www.w3.org/2000/svg">
<path fill-rule="evenodd" clip-rule="evenodd" d="M34.9071 0.0106076C45.678 0.250707 55.5885 5.39738 62.2452 13.6297C68.8399 21.7853 71.466 32.2866 69.2021 42.4229C66.9071 52.6985 60.1811 61.5851 50.4901 66.2619C40.6529 71.0093 28.9816 71.3695 19.1728 66.5669C9.56361 61.8619 3.9136 52.4156 1.431 42.2413C-1.08252 31.9402 -0.698569 20.7616 5.94963 12.3748C12.7188 3.83531 23.8176 -0.236591 34.9071 0.0106076Z" fill="#F6F3EE"/>
<path fill-rule="evenodd" clip-rule="evenodd" d="M17.5 17.5H52.5V52.5H17.5V17.5ZM44.2562 46.8413C42.634 46.8413 41.7168 45.9952 41.0118 44.8441L38.339 46.3969C39.3045 48.3046 41.2779 49.7602 44.3323 49.7602C47.4562 49.7602 49.7823 48.138 49.7823 45.1768C49.7823 42.4302 48.2045 41.2085 45.4101 40.0102L44.5879 39.658C43.1768 39.0469 42.5657 38.6474 42.5657 37.6607C42.5657 36.8624 43.1762 36.2513 44.1395 36.2513C45.084 36.2513 45.6923 36.6496 46.2562 37.6607L48.8173 36.0163C47.734 34.1107 46.2307 33.383 44.1395 33.383C41.2023 33.383 39.3229 35.2607 39.3229 37.7274C39.3229 40.4052 40.8995 41.6719 43.2729 42.683L44.0951 43.0357C45.5951 43.6919 46.4895 44.0913 46.4895 45.2191C46.4895 46.1602 45.619 46.8413 44.2562 46.8413ZM31.5101 46.8207C30.3801 46.8207 29.9101 46.0457 29.3934 45.1291L26.7162 46.7499C27.4918 48.3913 29.0168 49.7541 31.6501 49.7541C34.5645 49.7541 36.5612 48.2041 36.5612 44.7985V33.5707H33.2723V44.7541C33.2723 46.398 32.5907 46.8207 31.5101 46.8207Z" fill="white"/>
</svg>
