<svg width="100" height="100" viewBox="0 0 100 100" fill="none" xmlns="http://www.w3.org/2000/svg">
<path class="circle" fill-rule="evenodd" clip-rule="evenodd" d="M51.1375 0.000396874C67.0538 -0.0644313 81.9088 7.81787 91.3356 19.9781C100.328 31.5777 101.851 46.5893 98.0612 60.53C94.4125 73.9531 84.7651 84.681 71.9395 91.3332C58.09 98.5164 41.7625 103.319 27.3542 97.2032C12.5676 90.9268 4.13856 76.2958 1.00583 61.2242C-2.00399 46.744 1.82462 31.9614 11.3701 20.3038C21.084 8.44059 35.2981 0.0649119 51.1375 0.000396874Z" fill="#F6F3EE"/>
<path fill-rule="evenodd" clip-rule="evenodd" d="M45.1778 32.4189H50.371L48.9034 39.5709H53.5697C56.1287 39.6211 58.0351 40.1453 59.2898 41.1436C60.5693 42.1419 60.9456 44.0395 60.4187 46.8352L57.8974 59.3043H52.6289L55.0374 47.3968C55.288 46.1484 55.2128 45.2625 54.8116 44.7383C54.4104 44.214 53.5449 43.9519 52.215 43.9519L48.0378 43.9145L44.952 59.3043H39.7588L45.1778 32.4189ZM21.3814 39.5712H31.4667C34.4269 39.5959 36.5719 40.4451 37.9018 42.1174C39.2317 43.7897 39.6705 46.0739 39.2189 48.9698C39.0435 50.2931 38.6544 51.5909 38.0523 52.8641C37.4751 54.1372 36.6727 55.2853 35.6439 56.309C34.3892 57.6068 33.0473 58.4306 31.6173 58.7803C30.1872 59.1301 28.7068 59.3046 27.1767 59.3046H22.6609L21.2308 66.4191H16L21.3814 39.5712ZM23.5264 55.0733L25.7768 43.8773H26.5369C26.8131 43.8773 27.1014 43.8646 27.4025 43.8399C29.4097 43.8152 31.0776 44.0024 32.4075 44.4016C33.7623 44.8007 34.2139 46.3112 33.7623 48.9324C33.2106 52.053 32.1313 53.8751 30.5259 54.3993C28.9205 54.8988 26.9133 55.1355 24.5048 55.1108H23.978C23.8274 55.1108 23.6769 55.098 23.5264 55.0733ZM76.0753 39.5713H65.99L60.6086 66.4192H65.8394L67.2695 59.3047H71.7853C73.3154 59.3047 74.7959 59.1302 76.2259 58.7804C77.6559 58.4307 78.9978 57.6069 80.2525 56.3091C81.2813 55.2854 82.0837 54.1373 82.6609 52.8642C83.263 51.5911 83.6521 50.2932 83.8275 48.9699C84.2791 46.074 83.8403 43.7898 82.5104 42.1175C81.1805 40.4452 79.0355 39.596 76.0753 39.5713ZM70.3854 43.8774L68.135 55.0734C68.2855 55.0981 68.4361 55.1109 68.5866 55.1109H69.1134C71.5219 55.1356 73.5291 54.8989 75.1345 54.3994C76.7399 53.8752 77.8192 52.0531 78.3709 48.9325C78.8225 46.3113 78.3709 44.8008 77.0161 44.4017C75.6862 44.0025 74.0184 43.8153 72.0111 43.84C71.71 43.8647 71.4218 43.8774 71.1455 43.8774H70.3854Z" fill="white"/>
</svg>
