<svg width="90" height="90" viewBox="0 0 90 90" fill="none" xmlns="http://www.w3.org/2000/svg">
<path class="circle" fill-rule="evenodd" clip-rule="evenodd" d="M44.5672 0.0250699C57.8507 0.345498 70.9625 4.827 79.5047 15.7382C88.3064 26.9811 92.2415 42.2302 88.7113 56.4121C85.3147 70.0571 74.2797 79.2216 62.2625 85.0049C50.7168 90.5613 37.7395 92.0723 26.2027 86.4948C14.3013 80.7409 5.67695 69.4697 2.21385 55.9739C-1.46211 41.6486 -1.13182 25.54 7.60111 14.0038C16.2639 2.56016 30.824 -0.306447 44.5672 0.0250699Z" fill="#F6F3EE"/>
<path fill-rule="evenodd" clip-rule="evenodd" d="M38.4546 18.526C40.3256 18.1985 42.452 18.0107 44.6787 18.0004C46.9053 17.9902 49.2269 18.1576 51.4645 18.526C54.9991 19.1086 57.977 21.7313 57.977 25.2225V37.4896C57.977 41.0868 55.0859 44.036 51.4645 44.036H38.4546C34.0374 44.036 30.3177 47.7867 30.3177 52.0389V57.9246H25.8394C22.0539 57.9246 19.8428 55.2071 18.9169 51.3932C17.668 46.2695 17.721 43.2074 18.9169 38.3004C19.9537 34.0194 23.2684 31.769 27.0538 31.769H31.942H44.9671V30.1323H31.942V25.2225C31.942 21.5049 32.9427 19.4891 38.4546 18.526ZM40.0789 24.4117C40.0789 23.0538 38.9802 21.9493 37.6348 21.9493C36.2846 21.9493 35.1907 23.0538 35.1907 24.4117C35.1907 25.7649 36.2846 26.8591 37.6348 26.8591C38.9802 26.8591 40.0789 25.7649 40.0789 24.4117ZM59.6005 37.4898V31.7692H64.4887C68.279 31.7692 70.0658 34.5734 71.0013 38.3006C72.3033 43.4773 72.3611 47.358 71.0013 51.3935C69.6848 55.3133 68.2742 57.9249 64.4887 57.9249H57.9762H44.9663V59.5615H57.9762V64.4713C57.9762 68.1889 54.7428 70.0787 51.4636 71.0177C46.5305 72.4335 42.5768 72.2168 38.4538 71.0177C35.0107 70.0161 31.9412 67.9626 31.9412 64.4713V52.2043C31.9412 48.6745 34.8901 45.6578 38.4538 45.6578H51.4636C55.7988 45.6578 59.6005 41.9249 59.6005 37.4898ZM54.7275 65.2821C54.7275 63.9289 53.6336 62.8347 52.2834 62.8347C50.938 62.8347 49.8393 63.9289 49.8393 65.2821C49.8393 66.6401 50.938 67.7445 52.2834 67.7445C53.6336 67.7445 54.7275 66.6401 54.7275 65.2821Z" fill="white"/>
</svg>
