<svg width="104" height="103" viewBox="0 0 104 103" fill="none" xmlns="http://www.w3.org/2000/svg">
<path class="circle" fill-rule="evenodd" clip-rule="evenodd" d="M50.8938 12.0121C63.2034 12.2865 74.5297 18.1684 82.1374 27.5768C89.6742 36.8975 92.6754 48.8989 90.0881 60.4833C87.4653 72.2269 79.7783 82.383 68.703 87.7279C57.4605 93.1535 44.1219 93.5652 32.9118 88.0764C21.9298 82.6994 15.4727 71.9035 12.6354 60.2757C9.76283 48.5031 10.2016 35.7275 17.7996 26.1426C25.5358 16.3832 38.2202 11.7296 50.8938 12.0121Z" fill="#F6F3EE"/>
<path fill-rule="evenodd" clip-rule="evenodd" d="M50.8672 2.01515C66.2543 2.35815 80.4121 9.71055 89.9217 21.471C99.3428 33.1219 103.094 48.1237 99.8601 62.6042C96.5816 77.2836 86.9729 89.9787 73.1288 96.6599C59.0756 103.442 42.4024 103.956 28.3898 97.0955C14.6623 90.3742 6.59086 76.8794 3.04429 62.3447C-0.546463 47.6288 0.00204495 31.6594 9.49947 19.6783C19.1698 7.47902 35.0252 1.66201 50.8672 2.01515Z" stroke="#F6F3EE"/>
<path d="M50.8672 2.01514C66.2543 2.35814 80.4121 9.71053 89.9217 21.471" stroke="#0AC2A3" stroke-width="3" stroke-linecap="round"/>
<circle cx="95.5" cy="26.5" r="6.5" fill="#0AC2A3" stroke="white" stroke-width="4"/>
<path fill-rule="evenodd" clip-rule="evenodd" d="M66.6519 42.9526C73.5202 45.051 78 48.4349 78 52.0055C78 55.5651 73.5422 58.949 66.7179 61.0474C68.3139 68.0128 67.6205 73.561 64.5275 75.3408C63.8011 75.7583 62.9645 75.9561 62.0399 75.9561C59.013 75.9561 55.0506 73.8247 51.044 70.1112C47.0375 73.8466 43.075 76 40.0481 76C39.1235 76 38.287 75.8022 37.5715 75.3848C34.4676 73.6049 33.7631 68.0458 35.3481 61.0584C28.4798 58.9599 24 55.5761 24 52.0055C24 48.4459 28.4578 45.073 35.3041 42.9636C33.7081 35.9982 34.4015 30.45 37.4945 28.6702C38.221 28.2527 39.0575 28.0549 39.9821 28.0549V28.0439C43.009 28.0439 46.9715 30.1753 50.978 33.8888C54.9845 30.1534 58.947 28 61.9739 28V28.011C62.8832 28.0126 63.7159 28.2104 64.4285 28.6262C67.5324 30.406 68.2369 35.9652 66.6519 42.9526ZM61.9629 30.45C59.6737 30.4558 56.3106 32.2791 52.7281 35.6027C54.2801 37.2177 55.821 39.0634 57.307 41.0959C59.7835 41.3596 62.139 41.7661 64.2964 42.2934C64.5385 41.1838 64.7367 40.0961 64.8577 39.0634C65.364 34.8666 64.7146 31.6036 63.2177 30.7466C62.8765 30.5599 62.4692 30.461 61.9629 30.461V30.45ZM49.2279 35.6136C45.6396 32.3067 42.2605 30.4939 39.9821 30.4939V30.5049C39.4757 30.5049 39.0465 30.5928 38.7163 30.7906C37.2303 31.6585 36.5919 34.9215 37.1093 39.1183C37.2413 40.1401 37.4285 41.2058 37.6816 42.3044C39.839 41.7661 42.1945 41.3596 44.682 41.0959C46.1459 39.0634 47.6869 37.2287 49.2279 35.6136ZM62.183 49.0172C62.7554 47.556 63.2617 46.0948 63.669 44.6775C62.2271 44.3259 60.7191 44.0403 59.1561 43.8096C59.6955 44.6445 60.2348 45.5015 60.7411 46.3804C61.2585 47.2593 61.7318 48.1382 62.183 49.0172ZM55.9751 60.575C56.8887 59.2676 57.7693 57.8613 58.6278 56.3781C59.4533 54.9389 60.2128 53.4667 60.9062 51.9945C60.2128 50.5223 59.4533 49.0611 58.6168 47.6219C57.7583 46.1497 56.8667 44.7544 55.9531 43.447C54.3241 43.3152 52.662 43.2383 51 43.2383C49.3269 43.2383 47.6649 43.3152 46.0249 43.458C45.1113 44.7654 44.2307 46.1717 43.3722 47.6548C42.5467 49.0941 41.7762 50.5663 41.0938 52.0385C41.7872 53.5106 42.5467 54.9718 43.3832 56.4111C44.2417 57.8833 45.1333 59.2786 46.0469 60.5859C47.6759 60.7178 49.338 60.7947 51 60.7947C52.6731 60.7947 54.3351 60.7178 55.9751 60.575ZM63.702 59.3225C63.2837 57.8943 62.7774 56.4221 62.183 54.9499C61.7318 55.8288 61.2585 56.7187 60.7521 57.5976C60.2458 58.4875 59.7065 59.3555 59.1671 60.2014C60.7411 59.9707 62.2601 59.6741 63.702 59.3225ZM47.9621 63.1568C48.9747 64.4422 49.9984 65.6178 51.022 66.6725C52.0347 65.6178 53.0583 64.4422 54.0489 63.1568C53.0473 63.2117 52.0236 63.2337 50.989 63.2337C49.9653 63.2337 48.9527 63.2007 47.9621 63.1568ZM38.32 59.3335C39.7619 59.6851 41.2699 59.9707 42.8329 60.2014C42.2935 59.3664 41.7652 58.5095 41.2479 57.6306C40.7305 56.7517 40.2572 55.8727 39.806 54.9938C39.2336 56.455 38.7273 57.9162 38.32 59.3335ZM54.0269 40.8542C53.0143 39.5688 51.9906 38.3932 50.967 37.3385C49.9543 38.3932 48.9307 39.5688 47.9401 40.8542C48.9417 40.7993 49.9653 40.7773 51 40.7773C52.0236 40.7773 53.0363 40.8103 54.0269 40.8542ZM41.2369 46.4134C41.7432 45.5235 42.2825 44.6555 42.8219 43.8096C41.2479 44.0403 39.7289 44.3369 38.287 44.6775C38.7053 46.1057 39.2116 47.5779 39.806 49.0501C40.2572 48.1712 40.7305 47.2923 41.2369 46.4134ZM26.4435 52.0055C26.4435 53.7304 28.9641 55.9057 32.8606 57.5647C33.8182 57.9712 34.8528 58.3447 35.9425 58.6853C36.5589 56.5429 37.3734 54.3127 38.3861 52.0275C37.3624 49.7313 36.5369 47.49 35.9095 45.3367C34.8418 45.6773 33.8072 46.0398 32.8606 46.4463C28.9641 48.0943 26.4435 50.2806 26.4435 52.0055ZM37.1423 64.9476C36.636 69.1444 37.2854 72.4074 38.7823 73.2644C39.1125 73.4511 39.5308 73.55 40.0261 73.561C42.3155 73.561 45.6837 71.7372 49.2719 68.4083C47.7199 66.7933 46.179 64.9476 44.693 62.9151C42.2165 62.6514 39.861 62.2449 37.7036 61.7176C37.4615 62.8272 37.2634 63.9149 37.1423 64.9476ZM63.2837 73.2204C64.7697 72.3525 65.4081 69.0895 64.8907 64.8927C64.7697 63.8709 64.5715 62.8052 64.3184 61.6956C62.161 62.2339 59.8055 62.6404 57.318 62.9041C55.8541 64.9366 54.3131 66.7713 52.7721 68.3864C56.3604 71.6933 59.7395 73.5061 62.0179 73.5061C62.5243 73.5061 62.9535 73.4182 63.2837 73.2204ZM66.0795 58.6743C67.1472 58.3337 68.1818 57.9712 69.1284 57.5647C73.0249 55.9167 75.5455 53.7304 75.5565 52.0055C75.5565 50.2806 73.0359 48.1053 69.1394 46.4463C68.1708 46.0398 67.1362 45.6663 66.0465 45.3257C65.4301 47.4681 64.6156 49.6983 63.6029 51.9835C64.6266 54.2797 65.4521 56.5209 66.0795 58.6743ZM56.0188 52.0052C56.0188 54.7781 53.7667 57.026 50.9886 57.026C48.2105 57.026 45.9584 54.7781 45.9584 52.0052C45.9584 49.2323 48.2105 46.9844 50.9886 46.9844C53.7667 46.9844 56.0188 49.2323 56.0188 52.0052Z" fill="white"/>
</svg>
