<svg width="80" height="80" viewBox="0 0 80 80" fill="none" xmlns="http://www.w3.org/2000/svg">
<path fill-rule="evenodd" clip-rule="evenodd" d="M39.6153 0.0222843C51.4229 0.30711 63.0778 4.29067 70.6708 13.9895C78.4946 23.9832 81.9925 37.538 78.8545 50.1441C75.8353 62.273 66.0264 70.4192 55.3444 75.5599C45.0816 80.499 33.5462 81.8421 23.2913 76.8842C12.7123 71.7697 5.04618 61.7509 1.96787 49.7546C-1.29966 37.021 -1.00606 22.7022 6.75655 12.4478C14.4568 2.2757 27.3991 -0.272397 39.6153 0.0222843Z" fill="#F6F3EE"/>
<path d="M45.8741 40.1615C39.7694 44.0697 33.7203 47.9427 27.5116 51.9167C36.8096 53.178 45.9417 54.4162 55.2547 55.6794C52.0824 50.431 48.9912 45.3178 45.8741 40.1615ZM57.88 22.8673C57.0602 24.0897 56.239 25.3115 55.4206 26.5348C52.6092 30.7364 49.7987 34.9375 46.9906 39.1405C46.8342 39.3752 46.6315 39.5611 46.8517 39.9216C49.5658 44.3729 52.2577 48.8383 54.9561 53.2986C55.3819 54.0032 55.8128 54.7049 56.3637 55.3809L58 22.9025L57.88 22.8673ZM20.8366 36.7466C20.9637 36.8663 21.2807 36.9353 21.4277 36.8635C24.0307 35.5923 26.6503 34.3498 29.1966 32.974C30.0263 32.5262 30.6642 31.7221 31.38 31.0706C33.7487 28.9127 36.1131 26.7502 38.4775 24.5872C38.6226 24.4544 38.7932 24.3262 38.8801 24.1587C39.7292 22.5097 40.5632 20.8531 41.4274 19.1478C40.3968 18.7643 39.4202 18.3874 38.4317 18.0447C38.2975 17.9982 38.0868 18.0907 37.9403 18.1714C35.6519 19.4416 33.3206 20.6438 31.1046 22.029C29.9956 22.7218 29.0922 23.7428 28.1103 24.6328C26.5288 26.0672 24.9483 27.505 23.389 28.9649C22.9751 29.3521 22.5981 29.7948 22.2763 30.2604C21.2094 31.8029 20.1755 33.3674 19.093 34.9769C19.6988 35.5994 20.2483 36.1936 20.8366 36.7466ZM30.3495 34.6376C29.0553 40.0718 27.7673 45.4751 26.4376 51.0563C32.6742 47.0645 38.7667 43.1647 44.8185 39.2907C40.0023 37.7417 35.2012 36.1979 30.3495 34.6376ZM40.6676 25.5119L45.9691 38.3228C49.4297 33.159 52.8213 28.0969 56.29 22.9194C51.0211 23.7939 45.8779 24.6473 40.6676 25.5119ZM30.5668 33.526C35.3117 35.0567 39.9626 36.5565 44.7477 38.0994C42.9706 33.7983 41.2544 29.6478 39.5024 25.4091L30.5668 33.526ZM21.0326 39.9155L16.0695 51.7017C19.2499 51.6083 22.3335 51.5177 25.5219 51.4243C24.025 47.5865 22.5574 43.8237 21.0326 39.9155ZM25.6344 48.691L25.7516 48.6656C26.886 43.9772 28.0375 39.3212 29.1966 34.4503C26.612 35.7843 24.1465 37.0573 21.6129 38.3655C22.9052 41.7039 24.284 45.2244 25.6344 48.691ZM54.3825 22.1595C52.8729 21.7624 51.3646 21.3634 49.8535 20.9691C47.6833 20.4025 45.5112 19.842 43.342 19.2698C43.0712 19.1985 42.8747 19.152 42.7154 19.4764C41.949 21.0367 41.158 22.5857 40.3794 24.1399C40.3553 24.1882 40.36 24.2511 40.3416 24.3708C45.042 23.6634 49.7113 22.9603 54.3797 22.2576L54.3825 22.1595ZM45.626 18.6099C49.6797 19.7242 53.7333 20.8381 57.9287 21.991L55.8959 16.237C52.4514 16.9961 49.0479 17.7457 45.6445 18.4953L45.626 18.6099ZM49.3503 55.8606L39.2572 54.4918C35.0646 53.9234 30.8796 53.2977 26.6777 52.8165C25.1538 52.6424 23.5894 52.8029 22.0443 52.8287C20.7747 52.8503 19.505 52.8982 18.2359 52.9381C18.105 52.9419 17.9746 52.9681 17.8447 53.1076C28.339 54.0717 38.8343 55.0354 49.3281 56L49.3503 55.8606ZM16.2764 48.1042C17.6297 44.9869 18.9754 41.8673 20.3333 38.7528C20.4694 38.4397 20.4595 38.228 20.1935 37.9769C19.6251 37.4394 19.0977 36.8606 18.4764 36.2194L16 48.3633L16.0912 48.4065C16.154 48.306 16.2301 48.2122 16.2764 48.1042ZM42.9314 17.787C45.2121 17.2021 47.526 16.7459 49.8261 16.2356C49.9745 16.2023 50.12 16.1535 50.2665 16.1117L50.2443 16L40.3614 17.3204C41.2899 17.7236 42.0048 18.0245 42.9314 17.787Z" fill="white"/>
</svg>
