<svg width="50" height="30" viewBox="0 0 50 30" fill="none" xmlns="http://www.w3.org/2000/svg">
<path d="M0 2C0 0.89543 0.895431 0 2 0H46.1587C47.7767 0 48.725 1.82137 47.7972 3.14692L40.3028 13.8531C39.8208 14.5417 39.8208 15.4583 40.3028 16.1469L47.7972 26.8531C48.725 28.1786 47.7767 30 46.1587 30H2C0.895432 30 0 29.1046 0 28V2Z" fill="#7B51FB"/>
<path d="M14.6387 11.8927C14.6387 12.7952 14.7155 13.4704 14.8691 13.9181C15.0297 14.3586 15.2845 14.5789 15.6335 14.5789C16.3037 14.5789 16.6387 13.6835 16.6387 11.8927C16.6387 10.1161 16.3037 9.22785 15.6335 9.22785C15.2845 9.22785 15.0297 9.44815 14.8691 9.88874C14.7155 10.3222 14.6387 10.9902 14.6387 11.8927ZM19.2775 11.8714C19.2775 13.5059 18.9668 14.7353 18.3456 15.5596C17.7243 16.3769 16.8133 16.7855 15.6126 16.7855C14.4607 16.7855 13.5707 16.3662 12.9424 15.5276C12.3141 14.682 12 13.4632 12 11.8714C12 8.62381 13.2042 7 15.6126 7C16.7923 7 17.6963 7.42283 18.3246 8.26849C18.9599 9.10704 19.2775 10.308 19.2775 11.8714ZM26.4817 7.22385L17.9895 22.8081H15.4764L23.9686 7.22385H26.4817ZM25.3613 18.1179C25.3613 19.0204 25.438 19.6955 25.5916 20.1432C25.7522 20.5838 26.007 20.8041 26.356 20.8041C27.0262 20.8041 27.3613 19.9087 27.3613 18.1179C27.3613 16.3413 27.0262 15.453 26.356 15.453C26.007 15.453 25.7522 15.6733 25.5916 16.1139C25.438 16.5474 25.3613 17.2154 25.3613 18.1179ZM30 18.0966C30 19.724 29.6894 20.9498 29.0681 21.7741C28.4468 22.5914 27.5358 23 26.3351 23C25.1832 23 24.2932 22.5807 23.6649 21.7422C23.0366 20.8965 22.7225 19.6813 22.7225 18.0966C22.7225 14.849 23.9267 13.2252 26.3351 13.2252C27.5148 13.2252 28.4188 13.648 29.0471 14.4937C29.6824 15.3322 30 16.5332 30 18.0966Z" fill="white"/>
</svg>
