<svg width="60" height="60" viewBox="0 0 60 60" fill="none">
<path class="shape" fill-rule="evenodd" clip-rule="evenodd" d="M30.686 0.000717402C39.2487 -0.0463054 47.9631 2.21056 53.5387 9.05323C59.3429 16.1764 61.1572 25.9389 59.3011 35.1187C57.4093 44.4749 51.9942 52.7833 43.8425 57.0071C35.6084 61.2738 25.9759 60.8098 17.6758 56.6873C9.28685 52.5208 2.44649 45.0446 0.521936 35.4909C-1.37071 26.0956 2.04744 16.4595 8.13033 9.30259C13.7956 2.63706 22.1908 0.0473698 30.686 0.000717402Z" fill="#F6F3EE"/>
<path fill-rule="evenodd" clip-rule="evenodd" d="M30 19.333C34.8533 19.333 38.9 22.793 39.8067 27.3797C43.26 27.6263 46 30.4797 46 33.9997C46 37.6797 43.0133 40.6663 39.3333 40.6663H22C17.58 40.6663 14 37.0863 14 32.6663C14 28.5397 17.1267 25.1463 21.1333 24.713C22.8067 21.5197 26.1467 19.333 30 19.333ZM27.553 36.1728L35.3483 28.3775L33.6512 26.6804L27.5052 32.8264L24.8237 30.2939L23.1758 32.0387L27.553 36.1728Z" fill="white"/>
</svg>
