<svg width="516" height="438" viewBox="0 0 516 438" fill="none" xmlns="http://www.w3.org/2000/svg">
<path fill-rule="evenodd" clip-rule="evenodd" d="M38.2792 216.033C35.0848 152.576 59.2203 85.5039 114.696 50.0893C166.594 16.958 232.071 39.8257 292.912 53.4792C352.868 66.934 422.492 73.8792 451.329 125.634C480.944 178.786 457.502 242.548 427.867 295.689C399.917 345.808 356.171 387.17 298.135 400.341C239.405 413.67 178.853 397.513 130.457 363.186C79.8185 327.27 41.2994 276.029 38.2792 216.033Z" stroke="#1E0D26" stroke-width="2" stroke-linecap="round" stroke-linejoin="round"/>
<path fill-rule="evenodd" clip-rule="evenodd" d="M81.223 216.623C78.672 165.79 97.9464 112.06 142.249 83.6899C183.695 57.1492 235.984 75.4679 284.572 86.4054C332.452 97.1837 388.053 102.747 411.082 144.207C434.733 186.786 416.012 237.863 392.345 280.434C370.025 320.583 335.09 353.717 288.742 364.268C241.841 374.945 193.485 362.002 154.836 334.504C114.396 305.732 83.6349 264.685 81.223 216.623Z" stroke="#E4C567" stroke-width="2"/>
<path fill-rule="evenodd" clip-rule="evenodd" d="M1.32761 215.522C-2.42036 141.149 25.8978 62.5369 90.9871 21.0294C151.88 -17.8019 228.704 9.00004 300.089 25.0025C370.435 40.7721 452.125 48.9122 485.96 109.571C520.707 171.868 493.202 246.599 458.431 308.883C425.638 367.625 374.311 416.102 306.217 431.54C237.308 447.162 166.264 428.224 109.48 387.993C50.0657 345.897 4.87121 285.841 1.32761 215.522Z" stroke="#E4C567" stroke-width="2"/>
<g filter="url(#filter0_d_553_391)">
<path fill-rule="evenodd" clip-rule="evenodd" d="M460.823 84.0009C471.098 83.9444 481.556 86.6527 488.246 94.8639C495.211 103.412 497.389 115.127 495.161 126.142C492.891 137.37 486.393 147.34 476.611 152.409C466.73 157.529 455.171 156.972 445.211 152.025C435.144 147.025 426.936 138.054 424.626 126.589C422.355 115.315 426.457 103.751 433.756 95.1631C440.555 87.1645 450.629 84.0568 460.823 84.0009Z" fill="white"/>
</g>
<path fill-rule="evenodd" clip-rule="evenodd" d="M453.077 105.16C446.084 107.177 445.261 112.507 446.908 118.08C446.924 118.075 446.943 118.071 446.961 118.067C447.003 118.059 447.044 118.051 447.066 118.025C449.849 114.685 453.472 113.404 457.695 113.402C461.96 113.4 466.23 113.359 470.489 113.142C473.947 112.965 476.684 111.607 478.606 108.712C479.78 106.943 480.451 104.267 480.277 104.253C479.96 104.227 466.088 104.144 459.389 104.25C457.554 104.279 454.851 104.648 453.077 105.16ZM456.674 116.75L467.971 116.771V124.437H456.674V138.418C450.817 138.366 446.083 133.536 446.083 127.584C446.083 121.632 450.817 116.802 456.674 116.75Z" fill="#22194D"/>
<path fill-rule="evenodd" clip-rule="evenodd" d="M59.8232 274.001C70.0985 273.944 80.5558 276.653 87.2465 284.864C94.2115 293.412 96.3887 305.127 94.1613 316.142C91.8911 327.37 85.393 337.34 75.6111 342.409C65.7301 347.529 54.1711 346.972 44.211 342.025C34.1442 337.025 25.9358 328.054 23.6263 316.589C21.3552 305.315 25.4569 293.751 32.7564 285.163C39.5547 277.164 49.629 274.057 59.8232 274.001Z" fill="#7B51FB"/>
<rect x="38" y="299" width="42.1667" height="23" rx="11.5" fill="white"/>
<circle cx="68.6667" cy="310.5" r="7.66667" fill="#22194D"/>
<defs>
<filter id="filter0_d_553_391" x="404" y="74" width="112" height="112" filterUnits="userSpaceOnUse" color-interpolation-filters="sRGB">
<feFlood flood-opacity="0" result="BackgroundImageFix"/>
<feColorMatrix in="SourceAlpha" type="matrix" values="0 0 0 0 0 0 0 0 0 0 0 0 0 0 0 0 0 0 127 0" result="hardAlpha"/>
<feOffset dy="10"/>
<feGaussianBlur stdDeviation="10"/>
<feColorMatrix type="matrix" values="0 0 0 0 0.117647 0 0 0 0 0.0509804 0 0 0 0 0.14902 0 0 0 0.2 0"/>
<feBlend mode="normal" in2="BackgroundImageFix" result="effect1_dropShadow_553_391"/>
<feBlend mode="normal" in="SourceGraphic" in2="effect1_dropShadow_553_391" result="shape"/>
</filter>
</defs>
</svg>
