<svg width="650" height="330" viewBox="0 0 650 330" fill="none" xmlns="http://www.w3.org/2000/svg">
<rect width="650" height="330" rx="8" fill="white"/>
<path d="M0 8C0 3.58172 3.58172 0 8 0H642C646.418 0 650 3.58172 650 8V54H0V8Z" fill="#1E0D26"/>
<rect x="430" y="13" width="200" height="28" rx="14" fill="white"/>
<path fill-rule="evenodd" clip-rule="evenodd" d="M446.295 31.0705C449.235 33.3193 453.458 33.0991 456.147 30.41C459.076 27.4811 459.076 22.7323 456.147 19.8034C453.218 16.8745 448.469 16.8745 445.541 19.8034C442.851 22.4926 442.631 26.716 444.88 29.6563L439.346 35.1909L440.76 36.6051L446.295 31.0705ZM454.733 28.9958C452.585 31.1437 449.103 31.1437 446.955 28.9958C444.807 26.8479 444.807 23.3655 446.955 21.2176C449.103 19.0697 452.585 19.0697 454.733 21.2176C456.881 23.3655 456.881 26.8479 454.733 28.9958Z" fill="#1E0D26"/>
<circle cx="37" cy="27" r="17" fill="white"/>
<path fill-rule="evenodd" clip-rule="evenodd" d="M47.7974 16.2068C47.7292 16.138 47.6475 16.0842 47.5575 16.0487C47.4674 16.0132 47.3709 15.9968 47.2742 16.0005C34.4966 16.6687 29.7808 28.0439 29.734 28.1587C29.6838 28.2837 29.6714 28.4208 29.6984 28.5528C29.7254 28.6848 29.7906 28.8059 29.8859 28.9012L35.0982 34.1127C35.1939 34.2086 35.3159 34.274 35.4487 34.3008C35.5815 34.3276 35.7193 34.3145 35.8447 34.2632C35.9588 34.2179 47.2749 29.4456 47.9981 16.7278C48.003 16.6318 47.9876 16.5358 47.953 16.446C47.9184 16.3562 47.8654 16.2747 47.7974 16.2068ZM38.7176 26.9997C38.3777 26.9997 38.0454 26.8989 37.7627 26.71C37.4801 26.5212 37.2598 26.2528 37.1298 25.9387C36.9997 25.6247 36.9657 25.2792 37.032 24.9458C37.0983 24.6124 37.262 24.3062 37.5023 24.0658C37.7427 23.8255 38.0489 23.6618 38.3823 23.5955C38.7157 23.5292 39.0612 23.5632 39.3752 23.6933C39.6893 23.8233 39.9577 24.0436 40.1465 24.3262C40.3354 24.6089 40.4362 24.9412 40.4362 25.2811C40.4362 25.7369 40.2551 26.174 39.9328 26.4963C39.6105 26.8186 39.1734 26.9997 38.7176 26.9997Z" fill="#1E0D26"/>
<path d="M31.4219 19.1983C32.8545 18.504 34.4614 18.2523 36.0376 18.4753C33.5958 20.2434 31.5125 22.4597 29.8987 25.0061L28.1004 23.2084C27.9926 23.1006 27.9238 22.9601 27.9046 22.8089C27.8855 22.6577 27.9171 22.5044 27.9945 22.3732C28.7962 20.9978 29.9894 19.8925 31.4219 19.1983Z" fill="#1E0D26"/>
<path d="M40.7901 35.8966L38.9869 34.0934C41.5327 32.4665 43.7478 30.3729 45.5156 27.9229C45.6977 29.1622 45.5863 30.427 45.1904 31.6154C44.7944 32.8038 44.125 33.8826 43.2361 34.7651C42.7532 35.2432 42.2123 35.6589 41.6261 36.0025C41.4947 36.0801 41.3413 36.1118 41.19 36.0926C41.0386 36.0735 40.898 36.0045 40.7901 35.8966Z" fill="#1E0D26"/>
<path d="M32.1864 34.5616C32.1864 33.8324 31.8968 33.1331 31.3813 32.6175C30.8657 32.102 30.1664 31.8124 29.4372 31.8124C28.7081 31.8124 28.0088 32.102 27.4931 32.6175C26.4187 33.6913 26 37.9988 26 37.9988C26 37.9988 30.3075 37.5802 31.3813 36.5057C31.8968 35.99 32.1864 35.2907 32.1864 34.5616Z" fill="#1E0D26"/>
<path d="M67.8203 33H65.4375V21.5781H71.9844V23.5625H67.8203V26.5078H71.6953V28.4844H67.8203V33ZM77.6484 25.7969C77.1432 25.7969 76.7474 25.9583 76.4609 26.2812C76.1745 26.599 76.0104 27.0521 75.9688 27.6406H79.3125C79.3021 27.0521 79.1484 26.599 78.8516 26.2812C78.5547 25.9583 78.1536 25.7969 77.6484 25.7969ZM77.9844 33.1562C76.5781 33.1562 75.4792 32.7682 74.6875 31.9922C73.8958 31.2161 73.5 30.1172 73.5 28.6953C73.5 27.2318 73.8646 26.1016 74.5938 25.3047C75.3281 24.5026 76.3411 24.1016 77.6328 24.1016C78.8672 24.1016 79.8281 24.4531 80.5156 25.1562C81.2031 25.8594 81.5469 26.8307 81.5469 28.0703V29.2266H75.9141C75.9401 29.9036 76.1406 30.4323 76.5156 30.8125C76.8906 31.1927 77.4167 31.3828 78.0938 31.3828C78.6198 31.3828 79.1172 31.3281 79.5859 31.2188C80.0547 31.1094 80.5443 30.9349 81.0547 30.6953V32.5391C80.638 32.7474 80.1927 32.901 79.7188 33C79.2448 33.1042 78.6667 33.1562 77.9844 33.1562ZM89.0312 33L88.5703 31.8125H88.5078C88.1068 32.3177 87.6927 32.6693 87.2656 32.8672C86.8438 33.0599 86.2917 33.1562 85.6094 33.1562C84.7708 33.1562 84.1094 32.9167 83.625 32.4375C83.1458 31.9583 82.9062 31.276 82.9062 30.3906C82.9062 29.4635 83.2292 28.7812 83.875 28.3438C84.526 27.901 85.5052 27.6562 86.8125 27.6094L88.3281 27.5625V27.1797C88.3281 26.2943 87.875 25.8516 86.9688 25.8516C86.2708 25.8516 85.4505 26.0625 84.5078 26.4844L83.7188 24.875C84.724 24.349 85.8385 24.0859 87.0625 24.0859C88.2344 24.0859 89.1328 24.3411 89.7578 24.8516C90.3828 25.362 90.6953 26.138 90.6953 27.1797V33H89.0312ZM88.3281 28.9531L87.4062 28.9844C86.7135 29.0052 86.1979 29.1302 85.8594 29.3594C85.5208 29.5885 85.3516 29.9375 85.3516 30.4062C85.3516 31.0781 85.737 31.4141 86.5078 31.4141C87.0599 31.4141 87.5 31.2552 87.8281 30.9375C88.1615 30.6198 88.3281 30.1979 88.3281 29.6719V28.9531ZM96.8359 31.2578C97.2526 31.2578 97.7526 31.1667 98.3359 30.9844V32.7578C97.7422 33.0234 97.013 33.1562 96.1484 33.1562C95.1953 33.1562 94.5 32.9167 94.0625 32.4375C93.6302 31.9531 93.4141 31.2292 93.4141 30.2656V26.0547H92.2734V25.0469L93.5859 24.25L94.2734 22.4062H95.7969V24.2656H98.2422V26.0547H95.7969V30.2656C95.7969 30.6042 95.8906 30.8542 96.0781 31.0156C96.2708 31.1771 96.5234 31.2578 96.8359 31.2578ZM106.297 33L105.977 31.8828H105.852C105.596 32.2891 105.234 32.6042 104.766 32.8281C104.297 33.0469 103.763 33.1562 103.164 33.1562C102.138 33.1562 101.365 32.8828 100.844 32.3359C100.323 31.7839 100.062 30.9922 100.062 29.9609V24.2656H102.445V29.3672C102.445 29.9974 102.557 30.4714 102.781 30.7891C103.005 31.1016 103.362 31.2578 103.852 31.2578C104.518 31.2578 105 31.0365 105.297 30.5938C105.594 30.1458 105.742 29.4062 105.742 28.375V24.2656H108.125V33H106.297ZM115.5 24.1016C115.823 24.1016 116.091 24.125 116.305 24.1719L116.125 26.4062C115.932 26.3542 115.698 26.3281 115.422 26.3281C114.661 26.3281 114.068 26.5234 113.641 26.9141C113.219 27.3047 113.008 27.8516 113.008 28.5547V33H110.625V24.2656H112.43L112.781 25.7344H112.898C113.169 25.2448 113.534 24.8516 113.992 24.5547C114.456 24.2526 114.958 24.1016 115.5 24.1016ZM121.508 25.7969C121.003 25.7969 120.607 25.9583 120.32 26.2812C120.034 26.599 119.87 27.0521 119.828 27.6406H123.172C123.161 27.0521 123.008 26.599 122.711 26.2812C122.414 25.9583 122.013 25.7969 121.508 25.7969ZM121.844 33.1562C120.438 33.1562 119.339 32.7682 118.547 31.9922C117.755 31.2161 117.359 30.1172 117.359 28.6953C117.359 27.2318 117.724 26.1016 118.453 25.3047C119.188 24.5026 120.201 24.1016 121.492 24.1016C122.727 24.1016 123.688 24.4531 124.375 25.1562C125.062 25.8594 125.406 26.8307 125.406 28.0703V29.2266H119.773C119.799 29.9036 120 30.4323 120.375 30.8125C120.75 31.1927 121.276 31.3828 121.953 31.3828C122.479 31.3828 122.977 31.3281 123.445 31.2188C123.914 31.1094 124.404 30.9349 124.914 30.6953V32.5391C124.497 32.7474 124.052 32.901 123.578 33C123.104 33.1042 122.526 33.1562 121.844 33.1562ZM133.438 30.4062C133.438 31.3021 133.125 31.9844 132.5 32.4531C131.88 32.9219 130.951 33.1562 129.711 33.1562C129.076 33.1562 128.534 33.112 128.086 33.0234C127.638 32.9401 127.219 32.8151 126.828 32.6484V30.6797C127.271 30.888 127.768 31.0625 128.32 31.2031C128.878 31.3438 129.367 31.4141 129.789 31.4141C130.654 31.4141 131.086 31.1641 131.086 30.6641C131.086 30.4766 131.029 30.3255 130.914 30.2109C130.799 30.0911 130.602 29.9583 130.32 29.8125C130.039 29.6615 129.664 29.487 129.195 29.2891C128.523 29.0078 128.029 28.7474 127.711 28.5078C127.398 28.2682 127.169 27.9948 127.023 27.6875C126.883 27.375 126.812 26.9922 126.812 26.5391C126.812 25.763 127.112 25.1641 127.711 24.7422C128.315 24.3151 129.169 24.1016 130.273 24.1016C131.326 24.1016 132.349 24.3307 133.344 24.7891L132.625 26.5078C132.188 26.3203 131.779 26.1667 131.398 26.0469C131.018 25.9271 130.63 25.8672 130.234 25.8672C129.531 25.8672 129.18 26.0573 129.18 26.4375C129.18 26.651 129.292 26.8359 129.516 26.9922C129.745 27.1484 130.242 27.3802 131.008 27.6875C131.69 27.9635 132.19 28.2214 132.508 28.4609C132.826 28.7005 133.06 28.9766 133.211 29.2891C133.362 29.6016 133.438 29.974 133.438 30.4062Z" fill="white"/>
</svg>
