<svg width="650" height="330" viewBox="0 0 650 330" fill="none" xmlns="http://www.w3.org/2000/svg">
<rect width="650" height="330" rx="8" fill="white"/>
<path d="M0 8C0 3.58172 3.58172 0 8 0H642C646.418 0 650 3.58172 650 8V54H0V8Z" fill="#1E0D26"/>
<rect x="430" y="13" width="200" height="28" rx="14" fill="white"/>
<path fill-rule="evenodd" clip-rule="evenodd" d="M446.295 31.0705C449.235 33.3193 453.458 33.0991 456.147 30.41C459.076 27.4811 459.076 22.7323 456.147 19.8034C453.218 16.8745 448.469 16.8745 445.541 19.8034C442.851 22.4926 442.631 26.716 444.88 29.6563L439.346 35.1909L440.76 36.6051L446.295 31.0705ZM454.733 28.9958C452.585 31.1437 449.103 31.1437 446.955 28.9958C444.807 26.8479 444.807 23.3655 446.955 21.2176C449.103 19.0697 452.585 19.0697 454.733 21.2176C456.881 23.3655 456.881 26.8479 454.733 28.9958Z" fill="#1E0D26"/>
<circle cx="37" cy="27" r="17" fill="white"/>
<path fill-rule="evenodd" clip-rule="evenodd" d="M47.7974 16.2068C47.7292 16.138 47.6475 16.0842 47.5575 16.0487C47.4674 16.0132 47.3709 15.9968 47.2742 16.0005C34.4966 16.6687 29.7808 28.0439 29.734 28.1587C29.6838 28.2837 29.6714 28.4208 29.6984 28.5528C29.7254 28.6848 29.7906 28.8059 29.8859 28.9012L35.0982 34.1127C35.1939 34.2086 35.3159 34.274 35.4487 34.3008C35.5815 34.3276 35.7193 34.3145 35.8447 34.2632C35.9588 34.2179 47.2749 29.4456 47.9981 16.7278C48.003 16.6318 47.9876 16.5358 47.953 16.446C47.9184 16.3562 47.8654 16.2747 47.7974 16.2068ZM38.7176 26.9997C38.3777 26.9997 38.0454 26.8989 37.7627 26.71C37.4801 26.5212 37.2598 26.2528 37.1298 25.9387C36.9997 25.6247 36.9657 25.2792 37.032 24.9458C37.0983 24.6124 37.262 24.3062 37.5023 24.0658C37.7427 23.8255 38.0489 23.6618 38.3823 23.5955C38.7157 23.5292 39.0612 23.5632 39.3752 23.6933C39.6893 23.8233 39.9577 24.0436 40.1465 24.3262C40.3354 24.6089 40.4362 24.9412 40.4362 25.2811C40.4362 25.7369 40.2551 26.174 39.9328 26.4963C39.6105 26.8186 39.1734 26.9997 38.7176 26.9997Z" fill="#1E0D26"/>
<path d="M31.4219 19.1983C32.8545 18.504 34.4614 18.2523 36.0376 18.4753C33.5958 20.2434 31.5125 22.4597 29.8987 25.0061L28.1004 23.2084C27.9926 23.1006 27.9238 22.9601 27.9046 22.8089C27.8855 22.6577 27.9171 22.5044 27.9945 22.3732C28.7962 20.9978 29.9894 19.8925 31.4219 19.1983Z" fill="#1E0D26"/>
<path d="M40.7901 35.8966L38.9869 34.0934C41.5327 32.4665 43.7478 30.3729 45.5156 27.9229C45.6977 29.1622 45.5863 30.427 45.1904 31.6154C44.7944 32.8038 44.125 33.8826 43.2361 34.7651C42.7532 35.2432 42.2123 35.6589 41.6261 36.0025C41.4947 36.0801 41.3413 36.1118 41.19 36.0926C41.0386 36.0735 40.898 36.0045 40.7901 35.8966Z" fill="#1E0D26"/>
<path d="M32.1864 34.5616C32.1864 33.8324 31.8968 33.1331 31.3813 32.6175C30.8657 32.102 30.1664 31.8124 29.4372 31.8124C28.7081 31.8124 28.0088 32.102 27.4931 32.6175C26.4187 33.6913 26 37.9988 26 37.9988C26 37.9988 30.3075 37.5802 31.3813 36.5057C31.8968 35.99 32.1864 35.2907 32.1864 34.5616Z" fill="#1E0D26"/>
<path d="M67.8203 33H65.4375V21.5781H71.9844V23.5625H67.8203V26.5078H71.6953V28.4844H67.8203V33ZM77.6484 25.7969C77.1432 25.7969 76.7474 25.9583 76.4609 26.2812C76.1745 26.599 76.0104 27.0521 75.9688 27.6406H79.3125C79.3021 27.0521 79.1484 26.599 78.8516 26.2812C78.5547 25.9583 78.1536 25.7969 77.6484 25.7969ZM77.9844 33.1562C76.5781 33.1562 75.4792 32.7682 74.6875 31.9922C73.8958 31.2161 73.5 30.1172 73.5 28.6953C73.5 27.2318 73.8646 26.1016 74.5938 25.3047C75.3281 24.5026 76.3411 24.1016 77.6328 24.1016C78.8672 24.1016 79.8281 24.4531 80.5156 25.1562C81.2031 25.8594 81.5469 26.8307 81.5469 28.0703V29.2266H75.9141C75.9401 29.9036 76.1406 30.4323 76.5156 30.8125C76.8906 31.1927 77.4167 31.3828 78.0938 31.3828C78.6198 31.3828 79.1172 31.3281 79.5859 31.2188C80.0547 31.1094 80.5443 30.9349 81.0547 30.6953V32.5391C80.638 32.7474 80.1927 32.901 79.7188 33C79.2448 33.1042 78.6667 33.1562 77.9844 33.1562ZM89.0312 33L88.5703 31.8125H88.5078C88.1068 32.3177 87.6927 32.6693 87.2656 32.8672C86.8438 33.0599 86.2917 33.1562 85.6094 33.1562C84.7708 33.1562 84.1094 32.9167 83.625 32.4375C83.1458 31.9583 82.9062 31.276 82.9062 30.3906C82.9062 29.4635 83.2292 28.7812 83.875 28.3438C84.526 27.901 85.5052 27.6562 86.8125 27.6094L88.3281 27.5625V27.1797C88.3281 26.2943 87.875 25.8516 86.9688 25.8516C86.2708 25.8516 85.4505 26.0625 84.5078 26.4844L83.7188 24.875C84.724 24.349 85.8385 24.0859 87.0625 24.0859C88.2344 24.0859 89.1328 24.3411 89.7578 24.8516C90.3828 25.362 90.6953 26.138 90.6953 27.1797V33H89.0312ZM88.3281 28.9531L87.4062 28.9844C86.7135 29.0052 86.1979 29.1302 85.8594 29.3594C85.5208 29.5885 85.3516 29.9375 85.3516 30.4062C85.3516 31.0781 85.737 31.4141 86.5078 31.4141C87.0599 31.4141 87.5 31.2552 87.8281 30.9375C88.1615 30.6198 88.3281 30.1979 88.3281 29.6719V28.9531ZM99.3438 33L99.0234 31.8828H98.8984C98.6432 32.2891 98.2812 32.6042 97.8125 32.8281C97.3438 33.0469 96.8099 33.1562 96.2109 33.1562C95.1849 33.1562 94.4115 32.8828 93.8906 32.3359C93.3698 31.7839 93.1094 30.9922 93.1094 29.9609V24.2656H95.4922V29.3672C95.4922 29.9974 95.6042 30.4714 95.8281 30.7891C96.0521 31.1016 96.4089 31.2578 96.8984 31.2578C97.5651 31.2578 98.0469 31.0365 98.3438 30.5938C98.6406 30.1458 98.7891 29.4062 98.7891 28.375V24.2656H101.172V33H99.3438ZM107.352 31.2578C107.768 31.2578 108.268 31.1667 108.852 30.9844V32.7578C108.258 33.0234 107.529 33.1562 106.664 33.1562C105.711 33.1562 105.016 32.9167 104.578 32.4375C104.146 31.9531 103.93 31.2292 103.93 30.2656V26.0547H102.789V25.0469L104.102 24.25L104.789 22.4062H106.312V24.2656H108.758V26.0547H106.312V30.2656C106.312 30.6042 106.406 30.8542 106.594 31.0156C106.786 31.1771 107.039 31.2578 107.352 31.2578ZM116.812 33L116.492 31.8828H116.367C116.112 32.2891 115.75 32.6042 115.281 32.8281C114.812 33.0469 114.279 33.1562 113.68 33.1562C112.654 33.1562 111.88 32.8828 111.359 32.3359C110.839 31.7839 110.578 30.9922 110.578 29.9609V24.2656H112.961V29.3672C112.961 29.9974 113.073 30.4714 113.297 30.7891C113.521 31.1016 113.878 31.2578 114.367 31.2578C115.034 31.2578 115.516 31.0365 115.812 30.5938C116.109 30.1458 116.258 29.4062 116.258 28.375V24.2656H118.641V33H116.812ZM126.016 24.1016C126.339 24.1016 126.607 24.125 126.82 24.1719L126.641 26.4062C126.448 26.3542 126.214 26.3281 125.938 26.3281C125.177 26.3281 124.583 26.5234 124.156 26.9141C123.734 27.3047 123.523 27.8516 123.523 28.5547V33H121.141V24.2656H122.945L123.297 25.7344H123.414C123.685 25.2448 124.049 24.8516 124.508 24.5547C124.971 24.2526 125.474 24.1016 126.016 24.1016ZM132.023 25.7969C131.518 25.7969 131.122 25.9583 130.836 26.2812C130.549 26.599 130.385 27.0521 130.344 27.6406H133.688C133.677 27.0521 133.523 26.599 133.227 26.2812C132.93 25.9583 132.529 25.7969 132.023 25.7969ZM132.359 33.1562C130.953 33.1562 129.854 32.7682 129.062 31.9922C128.271 31.2161 127.875 30.1172 127.875 28.6953C127.875 27.2318 128.24 26.1016 128.969 25.3047C129.703 24.5026 130.716 24.1016 132.008 24.1016C133.242 24.1016 134.203 24.4531 134.891 25.1562C135.578 25.8594 135.922 26.8307 135.922 28.0703V29.2266H130.289C130.315 29.9036 130.516 30.4323 130.891 30.8125C131.266 31.1927 131.792 31.3828 132.469 31.3828C132.995 31.3828 133.492 31.3281 133.961 31.2188C134.43 31.1094 134.919 30.9349 135.43 30.6953V32.5391C135.013 32.7474 134.568 32.901 134.094 33C133.62 33.1042 133.042 33.1562 132.359 33.1562ZM143.953 30.4062C143.953 31.3021 143.641 31.9844 143.016 32.4531C142.396 32.9219 141.466 33.1562 140.227 33.1562C139.591 33.1562 139.049 33.112 138.602 33.0234C138.154 32.9401 137.734 32.8151 137.344 32.6484V30.6797C137.786 30.888 138.284 31.0625 138.836 31.2031C139.393 31.3438 139.883 31.4141 140.305 31.4141C141.169 31.4141 141.602 31.1641 141.602 30.6641C141.602 30.4766 141.544 30.3255 141.43 30.2109C141.315 30.0911 141.117 29.9583 140.836 29.8125C140.555 29.6615 140.18 29.487 139.711 29.2891C139.039 29.0078 138.544 28.7474 138.227 28.5078C137.914 28.2682 137.685 27.9948 137.539 27.6875C137.398 27.375 137.328 26.9922 137.328 26.5391C137.328 25.763 137.628 25.1641 138.227 24.7422C138.831 24.3151 139.685 24.1016 140.789 24.1016C141.841 24.1016 142.865 24.3307 143.859 24.7891L143.141 26.5078C142.703 26.3203 142.294 26.1667 141.914 26.0469C141.534 25.9271 141.146 25.8672 140.75 25.8672C140.047 25.8672 139.695 26.0573 139.695 26.4375C139.695 26.651 139.807 26.8359 140.031 26.9922C140.26 27.1484 140.758 27.3802 141.523 27.6875C142.206 27.9635 142.706 28.2214 143.023 28.4609C143.341 28.7005 143.576 28.9766 143.727 29.2891C143.878 29.6016 143.953 29.974 143.953 30.4062Z" fill="white"/>
</svg>
