<svg width="80" height="80" viewBox="0 0 80 80" fill="none" xmlns="http://www.w3.org/2000/svg">
<rect width="80" height="80" rx="20" fill="white"/>
<g clip-path="url(#clip0)">
<path d="M57.5536 39.4351C57.4643 39.3995 57.3877 39.3379 57.3337 39.2583C57.2797 39.1787 57.2509 39.0847 57.2508 38.9885V38.7969C57.2508 34.2219 55.4334 29.8343 52.1984 26.5993C48.9634 23.3643 44.5758 21.5469 40.0008 21.5469C35.4258 21.5469 31.0382 23.3643 27.8032 26.5993C24.5682 29.8343 22.7508 34.2219 22.7508 38.7969V38.9885C22.7508 39.0847 22.7219 39.1787 22.6679 39.2583C22.6139 39.3379 22.5373 39.3995 22.448 39.4351C20.6802 40.1353 19.1933 41.4001 18.2186 43.0326C17.2439 44.6652 16.836 46.5741 17.0583 48.4625C17.2806 50.3509 18.1208 52.1129 19.448 53.4744C20.7752 54.836 22.5151 55.7208 24.3972 55.9913C24.6692 56.03 24.9463 56.0098 25.2097 55.9321C25.4732 55.8544 25.7169 55.721 25.9243 55.5408C26.1317 55.3607 26.2979 55.1381 26.4118 54.8881C26.5256 54.6381 26.5844 54.3666 26.5841 54.0919V38.8026C26.5841 35.2443 27.9977 31.8317 30.5138 29.3156C33.0299 26.7995 36.4425 25.386 40.0008 25.386C43.5591 25.386 46.9717 26.7995 49.4878 29.3156C52.0039 31.8317 53.4175 35.2443 53.4175 38.8026V54.4944C53.4181 54.7098 53.4632 54.9228 53.5501 55.1199C53.637 55.317 53.7637 55.494 53.9223 55.6398C54.0809 55.7857 54.2679 55.8971 54.4716 55.9671C54.6753 56.0372 54.8913 56.0643 55.1061 56.0469C57.043 55.8821 58.8674 55.0678 60.2835 53.7361C61.6996 52.4043 62.6243 50.6333 62.9076 48.7102C63.191 46.787 62.8164 44.8246 61.8445 43.141C60.8727 41.4575 59.3607 40.1516 57.5536 39.4351Z" fill="#1E0D26"/>
<path d="M51.0209 48.8914C51.0209 48.3831 50.819 47.8956 50.4595 47.5361C50.1001 47.1767 49.6126 46.9748 49.1042 46.9748H45.7501C45.3946 46.9746 45.0461 47.0733 44.7435 47.2598C44.4409 47.4463 44.1962 47.7132 44.0366 48.0308L43.1012 49.8977C43.0573 49.9851 42.9876 50.057 42.9016 50.1037C42.8155 50.1504 42.7172 50.1696 42.62 50.1587C42.5227 50.1479 42.4311 50.1075 42.3574 50.043C42.2838 49.9785 42.2317 49.893 42.2081 49.798L39.9426 40.736C39.8466 40.3564 39.6367 40.0152 39.341 39.7585C39.0453 39.5018 38.6781 39.3417 38.2887 39.3C37.8994 39.2582 37.5066 39.3367 37.1632 39.5249C36.8198 39.7131 36.5423 40.002 36.368 40.3527L33.1921 46.6968C33.1528 46.7757 33.0924 46.8422 33.0176 46.8889C32.9429 46.9356 32.8566 46.9607 32.7685 46.9613L30.8806 46.9748C30.3722 46.9768 29.8855 47.1807 29.5275 47.5416C29.1695 47.9024 28.9695 48.3908 28.9716 48.8991C28.9736 49.4074 29.1775 49.8941 29.5384 50.2521C29.8993 50.6101 30.3876 50.8101 30.8959 50.8081H30.9112L34.2654 50.7832C34.619 50.7805 34.9649 50.6801 35.265 50.493C35.565 50.306 35.8075 50.0396 35.9655 49.7233L36.9008 47.8507C36.9446 47.7632 37.0142 47.6912 37.1001 47.6444C37.186 47.5976 37.2842 47.5783 37.3814 47.5889C37.4787 47.5995 37.5703 47.6397 37.6441 47.704C37.7178 47.7682 37.7701 47.8535 37.794 47.9484L40.0576 56.997C40.1525 57.3768 40.3613 57.7184 40.6561 57.9759C40.9509 58.2334 41.3175 58.3945 41.7065 58.4375C42.0956 58.4805 42.4885 58.4033 42.8324 58.2164C43.1763 58.0294 43.4547 57.7417 43.6302 57.3918L46.8004 51.0668C46.84 50.9874 46.901 50.9205 46.9765 50.8738C47.052 50.827 47.139 50.8023 47.2278 50.8023H49.1042C49.6116 50.8023 50.0982 50.6012 50.4575 50.243C50.8168 49.8848 51.0194 49.3988 51.0209 48.8914Z" fill="#1E0D26"/>
</g>
<defs>
<clipPath id="clip0">
<rect width="46" height="46" fill="white" transform="translate(17 17)"/>
</clipPath>
</defs>
</svg>
