<svg width="390" height="390" viewBox="0 0 390 390" fill="none" xmlns="http://www.w3.org/2000/svg">
<rect width="390" height="390" rx="20" fill="#7B51FB"/>
<mask id="mask0" mask-type="alpha" maskUnits="userSpaceOnUse" x="0" y="0" width="390" height="390">
<rect width="390" height="390" rx="20" fill="#7B51FB"/>
</mask>
<g mask="url(#mask0)">
<circle opacity="0.5" cx="177.071" cy="212" r="5" transform="rotate(-45 177.071 212)" fill="white"/>
<circle cx="194.749" cy="194.324" r="5" transform="rotate(-45 194.749 194.324)" fill="white"/>
<circle opacity="0.5" cx="212.426" cy="176.645" r="5" transform="rotate(-45 212.426 176.645)" fill="white"/>
<circle opacity="0.4" cx="35" cy="355" r="64" stroke="white" stroke-width="2"/>
<circle opacity="0.4" cx="355" cy="35" r="64" stroke="white" stroke-width="2"/>
<circle opacity="0.6" cx="35" cy="355" r="79" stroke="white" stroke-width="2"/>
<circle opacity="0.6" cx="355" cy="35" r="79" stroke="white" stroke-width="2"/>
<circle opacity="0.8" cx="35" cy="355" r="94" stroke="white" stroke-width="2"/>
<circle opacity="0.8" cx="355" cy="35" r="94" stroke="white" stroke-width="2"/>
<circle cx="35" cy="355" r="109" stroke="white" stroke-width="2"/>
<circle cx="355" cy="35" r="109" stroke="white" stroke-width="2"/>
<circle opacity="0.2" cx="35" cy="355" r="49" stroke="white" stroke-width="2"/>
<circle opacity="0.2" cx="355" cy="35" r="49" stroke="white" stroke-width="2"/>
<path d="M369.285 159.193L369.115 157.702L369.105 157.703L369.095 157.705L369.285 159.193ZM230.781 20.9524L232.268 21.1432L232.27 21.1312L232.271 21.1191L230.781 20.9524ZM21.0532 230.769L21.2187 232.26L21.2315 232.259L21.2442 232.257L21.0532 230.769ZM159.206 369.169L157.718 368.979L157.716 368.99L157.715 369.001L159.206 369.169ZM369.455 160.683C432.512 153.509 481.5 99.9765 481.5 35H478.5C478.5 98.4335 430.675 150.699 369.115 157.702L369.455 160.683ZM481.5 35C481.5 -34.864 424.864 -91.5 355 -91.5V-88.5C423.207 -88.5 478.5 -33.2072 478.5 35H481.5ZM355 -91.5C289.941 -91.5 236.355 -42.3879 229.29 20.7857L232.271 21.1191C239.168 -40.5531 291.486 -88.5 355 -88.5V-91.5ZM229.293 20.7616C219.9 94.0031 204.158 141.321 172.768 172.726C141.378 204.13 94.0797 219.883 20.8622 229.282L21.2442 232.257C94.5943 222.841 142.758 206.993 174.89 174.846C207.021 142.7 222.858 94.517 232.268 21.1432L229.293 20.7616ZM20.8877 229.278C-42.335 236.297 -91.5 289.906 -91.5 355H-88.5C-88.5 291.452 -40.5015 239.112 21.2187 232.26L20.8877 229.278ZM-91.5 355C-91.5 424.864 -34.864 481.5 35 481.5V478.5C-33.2072 478.5 -88.5 423.207 -88.5 355H-91.5ZM35 481.5C100.017 481.5 153.575 432.452 160.696 369.338L157.715 369.001C150.764 430.615 98.4727 478.5 35 478.5V481.5ZM160.694 369.36C170.09 296.016 185.843 248.654 217.281 217.232C248.719 185.811 296.103 170.07 369.475 160.681L369.095 157.705C295.591 167.111 247.34 182.947 215.16 215.111C182.979 247.274 167.131 295.503 157.718 368.979L160.694 369.36Z" fill="white"/>
</g>
</svg>
