<svg width="390" height="390" viewBox="0 0 390 390" fill="none" xmlns="http://www.w3.org/2000/svg">
<rect width="390" height="390" rx="20" fill="#F7D56E"/>
<mask id="mask0" mask-type="alpha" maskUnits="userSpaceOnUse" x="0" y="0" width="390" height="390">
<rect width="390" height="390" rx="20" fill="#F7D56E"/>
</mask>
<g mask="url(#mask0)">
<circle opacity="0.05" cx="10" cy="182" r="70" fill="#1E0D26"/>
<circle opacity="0.05" cx="80" cy="182" r="45" fill="#1E0D26"/>
<path opacity="0.05" d="M270 440C309.782 440 347.935 424.196 376.066 396.066C404.196 367.936 420 329.782 420 290C420 250.218 404.196 212.064 376.066 183.934C347.936 155.804 309.782 140 270 140L270 290L270 440Z" fill="#1E0D26"/>
<path opacity="0.05" d="M220 420C246.522 420 271.957 409.464 290.711 390.711C309.464 371.957 320 346.522 320 320C320 293.478 309.464 268.043 290.711 249.289C271.957 230.536 246.522 220 220 220L220 320L220 420Z" fill="#1E0D26"/>
<path d="M32.6953 291.584H39.3604C42.3975 291.584 44.5996 292.019 45.9668 292.888C47.3438 293.747 48.0322 295.119 48.0322 297.004C48.0322 298.283 47.7295 299.333 47.124 300.153C46.5283 300.974 45.7324 301.467 44.7363 301.633V301.779C46.0938 302.082 47.0703 302.648 47.666 303.479C48.2715 304.309 48.5742 305.412 48.5742 306.789C48.5742 308.742 47.8662 310.266 46.4502 311.359C45.0439 312.453 43.1299 313 40.708 313H32.6953V291.584ZM37.2363 300.065H39.873C41.1035 300.065 41.9922 299.875 42.5391 299.494C43.0957 299.113 43.374 298.483 43.374 297.604C43.374 296.784 43.0713 296.198 42.4658 295.847C41.8701 295.485 40.9229 295.305 39.624 295.305H37.2363V300.065ZM37.2363 303.669V309.25H40.1953C41.4453 309.25 42.3682 309.011 42.9639 308.532C43.5596 308.054 43.8574 307.321 43.8574 306.335C43.8574 304.558 42.5879 303.669 40.0488 303.669H37.2363ZM52.3096 292.39C52.3096 290.935 53.1201 290.207 54.7412 290.207C56.3623 290.207 57.1729 290.935 57.1729 292.39C57.1729 293.083 56.9678 293.625 56.5576 294.016C56.1572 294.396 55.5518 294.587 54.7412 294.587C53.1201 294.587 52.3096 293.854 52.3096 292.39ZM56.9678 313H52.5V296.623H56.9678V313ZM60.2197 306.789V303.127H68.0859V306.789H60.2197ZM84.7998 313L83.54 307.272L81.8408 300.036H81.7383L78.75 313H73.9453L69.2871 296.623H73.7402L75.6299 303.874C75.9326 305.173 76.2402 306.965 76.5527 309.25H76.6406C76.6797 308.508 76.8506 307.331 77.1533 305.72L77.3877 304.475L79.4092 296.623H84.3311L86.25 304.475C86.2891 304.689 86.3477 305.007 86.4258 305.427C86.5137 305.847 86.5967 306.296 86.6748 306.774C86.7529 307.243 86.8213 307.707 86.8799 308.166C86.9482 308.615 86.9873 308.977 86.9971 309.25H87.085C87.1729 308.547 87.3291 307.585 87.5537 306.364C87.7783 305.134 87.9395 304.304 88.0371 303.874L90 296.623H94.3799L89.6631 313H84.7998ZM103.813 299.494C102.866 299.494 102.124 299.797 101.587 300.402C101.05 300.998 100.742 301.848 100.664 302.951H106.934C106.914 301.848 106.626 300.998 106.069 300.402C105.513 299.797 104.761 299.494 103.813 299.494ZM104.443 313.293C101.807 313.293 99.7461 312.565 98.2617 311.11C96.7773 309.655 96.0352 307.595 96.0352 304.929C96.0352 302.185 96.7188 300.065 98.0859 298.571C99.4629 297.067 101.362 296.315 103.784 296.315C106.099 296.315 107.9 296.975 109.189 298.293C110.479 299.611 111.123 301.433 111.123 303.757V305.925H100.562C100.61 307.194 100.986 308.186 101.689 308.898C102.393 309.611 103.379 309.968 104.648 309.968C105.635 309.968 106.567 309.865 107.446 309.66C108.325 309.455 109.243 309.128 110.2 308.679V312.136C109.419 312.526 108.584 312.814 107.695 313C106.807 313.195 105.723 313.293 104.443 313.293ZM121.538 299.494C120.591 299.494 119.849 299.797 119.312 300.402C118.774 300.998 118.467 301.848 118.389 302.951H124.658C124.639 301.848 124.351 300.998 123.794 300.402C123.237 299.797 122.485 299.494 121.538 299.494ZM122.168 313.293C119.531 313.293 117.471 312.565 115.986 311.11C114.502 309.655 113.76 307.595 113.76 304.929C113.76 302.185 114.443 300.065 115.811 298.571C117.188 297.067 119.087 296.315 121.509 296.315C123.823 296.315 125.625 296.975 126.914 298.293C128.203 299.611 128.848 301.433 128.848 303.757V305.925H118.286C118.335 307.194 118.711 308.186 119.414 308.898C120.117 309.611 121.104 309.968 122.373 309.968C123.359 309.968 124.292 309.865 125.171 309.66C126.05 309.455 126.968 309.128 127.925 308.679V312.136C127.144 312.526 126.309 312.814 125.42 313C124.531 313.195 123.447 313.293 122.168 313.293ZM136.772 304.094L138.721 301.604L143.306 296.623H148.345L141.841 303.728L148.74 313H143.584L138.867 306.364L136.948 307.902V313H132.48V290.207H136.948V300.373L136.714 304.094H136.772ZM155.552 313H151.084V290.207H155.552V313ZM157.91 296.623H162.803L165.894 305.837C166.157 306.638 166.338 307.585 166.436 308.679H166.523C166.631 307.673 166.841 306.726 167.153 305.837L170.186 296.623H174.976L168.047 315.095C167.412 316.804 166.504 318.083 165.322 318.933C164.15 319.782 162.778 320.207 161.206 320.207C160.435 320.207 159.678 320.124 158.936 319.958V316.413C159.473 316.54 160.059 316.604 160.693 316.604C161.484 316.604 162.173 316.359 162.759 315.871C163.354 315.393 163.818 314.665 164.15 313.688L164.414 312.883L157.91 296.623ZM37.2363 340.662H38.7305C40.127 340.662 41.1719 340.389 41.8652 339.842C42.5586 339.285 42.9053 338.479 42.9053 337.425C42.9053 336.36 42.6123 335.574 42.0264 335.066C41.4502 334.559 40.542 334.305 39.3018 334.305H37.2363V340.662ZM47.4902 337.264C47.4902 339.568 46.7676 341.331 45.3223 342.552C43.8867 343.772 41.8408 344.383 39.1846 344.383H37.2363V352H32.6953V330.584H39.5361C42.1338 330.584 44.1064 331.146 45.4541 332.269C46.8115 333.382 47.4902 335.047 47.4902 337.264ZM54.7412 343.782C54.7412 345.403 55.0049 346.629 55.5322 347.459C56.0693 348.289 56.9385 348.704 58.1396 348.704C59.3311 348.704 60.1855 348.294 60.7031 347.474C61.2305 346.644 61.4941 345.413 61.4941 343.782C61.4941 342.161 61.2305 340.945 60.7031 340.135C60.1758 339.324 59.3115 338.919 58.1104 338.919C56.9189 338.919 56.0596 339.324 55.5322 340.135C55.0049 340.936 54.7412 342.151 54.7412 343.782ZM66.0645 343.782C66.0645 346.448 65.3613 348.533 63.9551 350.037C62.5488 351.541 60.5908 352.293 58.0811 352.293C56.5088 352.293 55.1221 351.951 53.9209 351.268C52.7197 350.574 51.7969 349.583 51.1523 348.294C50.5078 347.005 50.1855 345.501 50.1855 343.782C50.1855 341.106 50.8838 339.026 52.2803 337.542C53.6768 336.058 55.6396 335.315 58.1689 335.315C59.7412 335.315 61.1279 335.657 62.3291 336.341C63.5303 337.024 64.4531 338.006 65.0977 339.285C65.7422 340.564 66.0645 342.063 66.0645 343.782ZM74.9414 352.293C73.0176 352.293 71.5039 351.546 70.4004 350.052C69.3066 348.558 68.7598 346.487 68.7598 343.841C68.7598 341.155 69.3164 339.065 70.4297 337.571C71.5527 336.067 73.0957 335.315 75.0586 335.315C77.1191 335.315 78.6914 336.116 79.7754 337.718H79.9219C79.6973 336.497 79.585 335.408 79.585 334.451V329.207H84.0674V352H80.6396L79.7754 349.876H79.585C78.5693 351.487 77.0215 352.293 74.9414 352.293ZM76.5088 348.733C77.6514 348.733 78.4863 348.401 79.0137 347.737C79.5508 347.073 79.8438 345.945 79.8926 344.354V343.87C79.8926 342.112 79.6191 340.853 79.0723 340.091C78.5352 339.329 77.6562 338.948 76.4355 338.948C75.4395 338.948 74.6631 339.373 74.1064 340.223C73.5596 341.062 73.2861 342.288 73.2861 343.899C73.2861 345.511 73.5645 346.722 74.1211 347.532C74.6777 348.333 75.4736 348.733 76.5088 348.733ZM95.3906 352.293C90.293 352.293 87.7441 349.495 87.7441 343.899C87.7441 341.116 88.4375 338.992 89.8242 337.527C91.2109 336.053 93.1982 335.315 95.7861 335.315C97.6807 335.315 99.3799 335.687 100.884 336.429L99.5654 339.886C98.8623 339.603 98.208 339.373 97.6025 339.197C96.9971 339.012 96.3916 338.919 95.7861 338.919C93.4619 338.919 92.2998 340.569 92.2998 343.87C92.2998 347.073 93.4619 348.675 95.7861 348.675C96.6455 348.675 97.4414 348.562 98.1738 348.338C98.9062 348.104 99.6387 347.742 100.371 347.254V351.077C99.6484 351.536 98.916 351.854 98.1738 352.029C97.4414 352.205 96.5137 352.293 95.3906 352.293ZM114.58 352L113.716 349.773H113.599C112.847 350.721 112.07 351.38 111.27 351.751C110.479 352.112 109.443 352.293 108.164 352.293C106.592 352.293 105.352 351.844 104.443 350.945C103.545 350.047 103.096 348.768 103.096 347.107C103.096 345.369 103.701 344.09 104.912 343.27C106.133 342.439 107.969 341.98 110.42 341.893L113.262 341.805V341.087C113.262 339.427 112.412 338.597 110.713 338.597C109.404 338.597 107.866 338.992 106.099 339.783L104.619 336.766C106.504 335.779 108.594 335.286 110.889 335.286C113.086 335.286 114.771 335.765 115.942 336.722C117.114 337.679 117.7 339.134 117.7 341.087V352H114.58ZM113.262 344.412L111.533 344.471C110.234 344.51 109.268 344.744 108.633 345.174C107.998 345.604 107.681 346.258 107.681 347.137C107.681 348.396 108.403 349.026 109.849 349.026C110.884 349.026 111.709 348.729 112.324 348.133C112.949 347.537 113.262 346.746 113.262 345.76V344.412ZM133.74 347.137C133.74 348.816 133.154 350.096 131.982 350.975C130.82 351.854 129.077 352.293 126.753 352.293C125.562 352.293 124.546 352.21 123.706 352.044C122.866 351.888 122.08 351.653 121.348 351.341V347.649C122.178 348.04 123.11 348.367 124.146 348.631C125.19 348.895 126.108 349.026 126.899 349.026C128.521 349.026 129.331 348.558 129.331 347.62C129.331 347.269 129.224 346.985 129.009 346.771C128.794 346.546 128.423 346.297 127.896 346.023C127.368 345.74 126.665 345.413 125.786 345.042C124.526 344.515 123.599 344.026 123.003 343.577C122.417 343.128 121.987 342.615 121.714 342.039C121.45 341.453 121.318 340.735 121.318 339.886C121.318 338.431 121.88 337.308 123.003 336.517C124.136 335.716 125.737 335.315 127.808 335.315C129.78 335.315 131.699 335.745 133.564 336.604L132.217 339.827C131.396 339.476 130.63 339.188 129.917 338.963C129.204 338.738 128.477 338.626 127.734 338.626C126.416 338.626 125.757 338.982 125.757 339.695C125.757 340.096 125.967 340.442 126.387 340.735C126.816 341.028 127.749 341.463 129.185 342.039C130.464 342.557 131.401 343.04 131.997 343.489C132.593 343.938 133.032 344.456 133.315 345.042C133.599 345.628 133.74 346.326 133.74 347.137ZM144.126 348.733C144.907 348.733 145.845 348.562 146.938 348.221V351.546C145.825 352.044 144.458 352.293 142.837 352.293C141.05 352.293 139.746 351.844 138.926 350.945C138.115 350.037 137.71 348.68 137.71 346.873V338.978H135.571V337.088L138.032 335.594L139.321 332.137H142.178V335.623H146.763V338.978H142.178V346.873C142.178 347.508 142.354 347.977 142.705 348.279C143.066 348.582 143.54 348.733 144.126 348.733Z" fill="#1E0D26"/>
</g>
</svg>
