<svg width="80" height="80" viewBox="0 0 80 80" fill="none" xmlns="http://www.w3.org/2000/svg">
<rect width="80" height="80" rx="20" fill="white"/>
<g clip-path="url(#clip0)">
<path d="M40.0005 24.4219C37.8033 24.4245 35.6468 25.0144 33.7543 26.1306C31.8617 27.2468 30.302 28.8486 29.2366 30.7702C28.1712 32.6918 27.6389 34.8633 27.6948 37.0598C27.7508 39.2562 28.3929 41.3978 29.5547 43.2627C29.6783 43.4951 29.8485 43.6995 30.0545 43.8632C30.2606 44.027 30.4982 44.1465 30.7525 44.2144C31.0068 44.2823 31.2724 44.297 31.5326 44.2578C31.7929 44.2185 32.0423 44.1261 32.2652 43.9863C32.4882 43.8464 32.68 43.6621 32.8286 43.4449C32.9773 43.2277 33.0796 42.9822 33.1292 42.7237C33.1788 42.4652 33.1746 42.1993 33.1169 41.9425C33.0592 41.6857 32.9492 41.4435 32.7939 41.231C31.9859 39.9463 31.537 38.4685 31.4939 36.9514C31.4509 35.4344 31.8153 33.9335 32.5491 32.605C33.283 31.2765 34.3595 30.1691 35.6666 29.3978C36.9737 28.6266 38.4637 28.2198 39.9814 28.2198C41.499 28.2198 42.989 28.6266 44.2961 29.3978C45.6032 30.1691 46.6797 31.2765 47.4136 32.605C48.1474 33.9335 48.5118 35.4344 48.4688 36.9514C48.4257 38.4685 47.9769 39.9463 47.1689 41.231C46.8969 41.6606 46.8067 42.1806 46.9181 42.6766C47.0296 43.1726 47.3335 43.6041 47.763 43.876C48.1926 44.148 48.7125 44.2382 49.2086 44.1268C49.7046 44.0153 50.1361 43.7114 50.408 43.2819C51.5731 41.4194 52.2191 39.2793 52.2793 37.0833C52.3394 34.8872 51.8114 32.715 50.75 30.7916C49.6886 28.8681 48.1323 27.2634 46.2423 26.1434C44.3524 25.0235 42.1974 24.4291 40.0005 24.4219Z" fill="#1E0D26"/>
<path d="M40.0001 17.0235C36.094 17.0256 32.273 18.1643 29.003 20.3009C25.7331 22.4374 23.1555 25.4793 21.5848 29.0557C20.014 32.632 19.518 36.5881 20.1571 40.4416C20.7963 44.295 22.543 47.8791 25.1843 50.7568C25.5361 51.0935 26.0028 51.2837 26.4898 51.2887C26.9767 51.2937 27.4473 51.1132 27.8059 50.7838C28.1646 50.4544 28.3844 50.0009 28.4208 49.5153C28.4572 49.0297 28.3073 48.5485 28.0018 48.1693C25.8676 45.8377 24.4577 42.9356 23.9441 39.8167C23.4305 36.6977 23.8353 33.4968 25.1091 30.6039C26.3829 27.711 28.4708 25.2512 31.1183 23.5242C33.7657 21.7973 36.8583 20.8777 40.0193 20.8777C43.1802 20.8777 46.2728 21.7973 48.9203 23.5242C51.5677 25.2512 53.6556 27.711 54.9294 30.6039C56.2032 33.4968 56.608 36.6977 56.0944 39.8167C55.5808 42.9356 54.171 45.8377 52.0368 48.1693C51.8669 48.3556 51.7353 48.5735 51.6496 48.8106C51.5639 49.0477 51.5258 49.2993 51.5374 49.5512C51.5489 49.803 51.61 50.0501 51.7171 50.2783C51.8241 50.5066 51.9751 50.7115 52.1613 50.8814C52.3476 51.0513 52.5655 51.1828 52.8026 51.2685C53.0397 51.3542 53.2913 51.3924 53.5432 51.3808C53.795 51.3692 54.0421 51.3082 54.2704 51.2011C54.4986 51.0941 54.7035 50.9431 54.8734 50.7568C57.518 47.8755 59.2657 44.2861 59.9029 40.4274C60.5401 36.5686 60.0392 32.6079 58.4614 29.0293C56.8836 25.4507 54.2972 22.4094 51.0186 20.2773C47.7399 18.1451 43.9111 17.0144 40.0001 17.0235Z" fill="#1E0D26"/>
<path d="M42.4342 45.7735H37.5659C37.025 45.7702 36.4894 45.8815 35.9946 46.0999C35.4997 46.3184 35.0567 46.6391 34.6946 47.041C34.3325 47.4429 34.0596 47.9169 33.8938 48.4318C33.728 48.9467 33.673 49.4908 33.7326 50.0285L34.8059 59.6118C34.9101 60.5538 35.3596 61.4237 36.0675 62.0537C36.7754 62.6838 37.6916 63.0293 38.6392 63.0235H41.3609C42.3085 63.0293 43.2247 62.6838 43.9326 62.0537C44.6406 61.4237 45.09 60.5538 45.1942 59.6118L46.2676 50.0285C46.3271 49.4908 46.2721 48.9467 46.1063 48.4318C45.9405 47.9169 45.6676 47.4429 45.3055 47.041C44.9434 46.6391 44.5004 46.3184 44.0055 46.0999C43.5107 45.8815 42.9752 45.7702 42.4342 45.7735Z" fill="#1E0D26"/>
<path d="M40.0004 41.9388C42.6467 41.9388 44.792 39.7935 44.792 37.1471C44.792 34.5008 42.6467 32.3555 40.0004 32.3555C37.354 32.3555 35.2087 34.5008 35.2087 37.1471C35.2087 39.7935 37.354 41.9388 40.0004 41.9388Z" fill="#1E0D26"/>
</g>
<defs>
<clipPath id="clip0">
<rect width="46" height="46" fill="white" transform="translate(17 17.0234)"/>
</clipPath>
</defs>
</svg>
