<svg width="48" height="48" viewBox="0 0 48 48" fill="none" xmlns="http://www.w3.org/2000/svg">
<rect width="48" height="48" rx="8" fill="#0AC2A3"/>
<path opacity="0.3" fill-rule="evenodd" clip-rule="evenodd" d="M9.8649 15.4352C8.94002 14.5103 7.39186 14.6718 6.83034 15.8531C5.65673 18.3221 5 21.0844 5 24C5 34.4934 13.5066 43 24 43C26.9156 43 29.6779 42.3433 32.1469 41.1697C33.3282 40.6081 33.4897 39.06 32.5648 38.1351C31.9075 37.4778 30.8967 37.3565 30.0462 37.7316C28.1966 38.5472 26.1512 39 24 39C15.7157 39 9 32.2843 9 24C9 21.8488 9.45284 19.8034 10.2684 17.9538C10.6435 17.1033 10.5222 16.0925 9.8649 15.4352ZM38.4263 28.123C38.1982 28.9225 38.3705 29.7987 38.9584 30.3866C39.9727 31.4009 41.6818 31.1148 42.1152 29.7473C42.69 27.9342 43 26.0033 43 24C43 22.9233 42.9102 21.8661 42.7374 20.8358C42.5546 19.7464 41.5234 19.0115 40.434 19.1942C39.3447 19.377 38.6098 20.4082 38.7925 21.4976C38.9288 22.3101 39 23.146 39 24C39 25.4299 38.7999 26.813 38.4263 28.123ZM19.877 9.57374C19.0775 9.80181 18.2013 9.62952 17.6134 9.04159C16.5991 8.02727 16.8852 6.31821 18.2527 5.88476C20.0658 5.31004 21.9967 5 24 5C26.6985 5 29.2706 5.56376 31.6007 6.58184C32.6129 7.02408 33.0749 8.20312 32.6327 9.21529C32.1905 10.2275 31.0114 10.6895 29.9993 10.2473C28.1646 9.44568 26.137 9 24 9C22.5701 9 21.187 9.20007 19.877 9.57374Z" fill="#1E0D26"/>
<circle opacity="0.3" cx="13" cy="11" r="2" fill="#1E0D26"/>
<circle opacity="0.3" cx="37" cy="35" r="2" fill="#1E0D26"/>
<path d="M18 21.5L24.234 29L37 13" stroke="white" stroke-width="4" stroke-linecap="round" stroke-linejoin="round"/>
</svg>
