<svg width="590" height="50" viewBox="0 0 590 50" fill="none" xmlns="http://www.w3.org/2000/svg">
<path d="M9.95801 9.17383V10.5361L8.41992 10.9316C8.70117 11.3711 8.8418 11.8633 8.8418 12.4082C8.8418 13.4629 8.47266 14.2861 7.73438 14.8779C7.00195 15.4639 5.98242 15.7568 4.67578 15.7568L4.19238 15.7305L3.79688 15.6865C3.52148 15.8975 3.38379 16.1318 3.38379 16.3896C3.38379 16.7764 3.87598 16.9697 4.86035 16.9697H6.53027C7.6084 16.9697 8.42871 17.2012 8.99121 17.6641C9.55957 18.127 9.84375 18.8066 9.84375 19.7031C9.84375 20.8516 9.36328 21.7422 8.40234 22.375C7.44727 23.0078 6.07324 23.3242 4.28027 23.3242C2.90918 23.3242 1.86035 23.084 1.13379 22.6035C0.413086 22.1289 0.0527344 21.4609 0.0527344 20.5996C0.0527344 20.0078 0.237305 19.5127 0.606445 19.1143C0.975586 18.7158 1.51758 18.4316 2.23242 18.2617C1.95703 18.1445 1.7168 17.9541 1.51172 17.6904C1.30664 17.4209 1.2041 17.1367 1.2041 16.8379C1.2041 16.4629 1.3125 16.1523 1.5293 15.9062C1.74609 15.6543 2.05957 15.4082 2.46973 15.168C1.9541 14.9453 1.54395 14.5879 1.23926 14.0957C0.94043 13.6035 0.791016 13.0234 0.791016 12.3555C0.791016 11.2832 1.13965 10.4541 1.83691 9.86816C2.53418 9.28223 3.53027 8.98926 4.8252 8.98926C5.10059 8.98926 5.42578 9.01562 5.80078 9.06836C6.18164 9.11523 6.4248 9.15039 6.53027 9.17383H9.95801ZM2.37305 20.3887C2.37305 20.7578 2.54883 21.0479 2.90039 21.2588C3.25781 21.4697 3.75586 21.5752 4.39453 21.5752C5.35547 21.5752 6.1084 21.4434 6.65332 21.1797C7.19824 20.916 7.4707 20.5557 7.4707 20.0986C7.4707 19.7295 7.30957 19.4746 6.9873 19.334C6.66504 19.1934 6.16699 19.123 5.49316 19.123H4.10449C3.6123 19.123 3.19922 19.2373 2.86523 19.4658C2.53711 19.7002 2.37305 20.0078 2.37305 20.3887ZM3.34863 12.3906C3.34863 12.9238 3.46875 13.3457 3.70898 13.6562C3.95508 13.9668 4.32715 14.1221 4.8252 14.1221C5.3291 14.1221 5.69824 13.9668 5.93262 13.6562C6.16699 13.3457 6.28418 12.9238 6.28418 12.3906C6.28418 11.207 5.79785 10.6152 4.8252 10.6152C3.84082 10.6152 3.34863 11.207 3.34863 12.3906ZM13.7197 14.0693C13.7197 15.042 13.8779 15.7773 14.1943 16.2754C14.5166 16.7734 15.0381 17.0225 15.7588 17.0225C16.4736 17.0225 16.9863 16.7764 17.2969 16.2842C17.6133 15.7861 17.7715 15.0479 17.7715 14.0693C17.7715 13.0967 17.6133 12.3672 17.2969 11.8809C16.9805 11.3945 16.4619 11.1514 15.7412 11.1514C15.0264 11.1514 14.5107 11.3945 14.1943 11.8809C13.8779 12.3613 13.7197 13.0908 13.7197 14.0693ZM20.5137 14.0693C20.5137 15.6689 20.0918 16.9199 19.248 17.8223C18.4043 18.7246 17.2295 19.1758 15.7236 19.1758C14.7803 19.1758 13.9482 18.9707 13.2275 18.5605C12.5068 18.1445 11.9531 17.5498 11.5664 16.7764C11.1797 16.0029 10.9863 15.1006 10.9863 14.0693C10.9863 12.4639 11.4053 11.2158 12.2432 10.3252C13.0811 9.43457 14.2588 8.98926 15.7764 8.98926C16.7197 8.98926 17.5518 9.19434 18.2725 9.60449C18.9932 10.0146 19.5469 10.6035 19.9336 11.3711C20.3203 12.1387 20.5137 13.0381 20.5137 14.0693ZM24.8643 14.0693C24.8643 15.042 25.0225 15.7773 25.3389 16.2754C25.6611 16.7734 26.1826 17.0225 26.9033 17.0225C27.6182 17.0225 28.1309 16.7764 28.4414 16.2842C28.7578 15.7861 28.916 15.0479 28.916 14.0693C28.916 13.0967 28.7578 12.3672 28.4414 11.8809C28.125 11.3945 27.6064 11.1514 26.8857 11.1514C26.1709 11.1514 25.6553 11.3945 25.3389 11.8809C25.0225 12.3613 24.8643 13.0908 24.8643 14.0693ZM31.6582 14.0693C31.6582 15.6689 31.2363 16.9199 30.3926 17.8223C29.5488 18.7246 28.374 19.1758 26.8682 19.1758C25.9248 19.1758 25.0928 18.9707 24.3721 18.5605C23.6514 18.1445 23.0977 17.5498 22.7109 16.7764C22.3242 16.0029 22.1309 15.1006 22.1309 14.0693C22.1309 12.4639 22.5498 11.2158 23.3877 10.3252C24.2256 9.43457 25.4033 8.98926 26.9209 8.98926C27.8643 8.98926 28.6963 9.19434 29.417 9.60449C30.1377 10.0146 30.6914 10.6035 31.0781 11.3711C31.4648 12.1387 31.6582 13.0381 31.6582 14.0693ZM42.4248 9.17383V10.5361L40.8867 10.9316C41.168 11.3711 41.3086 11.8633 41.3086 12.4082C41.3086 13.4629 40.9395 14.2861 40.2012 14.8779C39.4688 15.4639 38.4492 15.7568 37.1426 15.7568L36.6592 15.7305L36.2637 15.6865C35.9883 15.8975 35.8506 16.1318 35.8506 16.3896C35.8506 16.7764 36.3428 16.9697 37.3271 16.9697H38.9971C40.0752 16.9697 40.8955 17.2012 41.458 17.6641C42.0264 18.127 42.3105 18.8066 42.3105 19.7031C42.3105 20.8516 41.8301 21.7422 40.8691 22.375C39.9141 23.0078 38.54 23.3242 36.7471 23.3242C35.376 23.3242 34.3271 23.084 33.6006 22.6035C32.8799 22.1289 32.5195 21.4609 32.5195 20.5996C32.5195 20.0078 32.7041 19.5127 33.0732 19.1143C33.4424 18.7158 33.9844 18.4316 34.6992 18.2617C34.4238 18.1445 34.1836 17.9541 33.9785 17.6904C33.7734 17.4209 33.6709 17.1367 33.6709 16.8379C33.6709 16.4629 33.7793 16.1523 33.9961 15.9062C34.2129 15.6543 34.5264 15.4082 34.9365 15.168C34.4209 14.9453 34.0107 14.5879 33.7061 14.0957C33.4072 13.6035 33.2578 13.0234 33.2578 12.3555C33.2578 11.2832 33.6064 10.4541 34.3037 9.86816C35.001 9.28223 35.9971 8.98926 37.292 8.98926C37.5674 8.98926 37.8926 9.01562 38.2676 9.06836C38.6484 9.11523 38.8916 9.15039 38.9971 9.17383H42.4248ZM34.8398 20.3887C34.8398 20.7578 35.0156 21.0479 35.3672 21.2588C35.7246 21.4697 36.2227 21.5752 36.8613 21.5752C37.8223 21.5752 38.5752 21.4434 39.1201 21.1797C39.665 20.916 39.9375 20.5557 39.9375 20.0986C39.9375 19.7295 39.7764 19.4746 39.4541 19.334C39.1318 19.1934 38.6338 19.123 37.96 19.123H36.5713C36.0791 19.123 35.666 19.2373 35.332 19.4658C35.0039 19.7002 34.8398 20.0078 34.8398 20.3887ZM35.8154 12.3906C35.8154 12.9238 35.9355 13.3457 36.1758 13.6562C36.4219 13.9668 36.7939 14.1221 37.292 14.1221C37.7959 14.1221 38.165 13.9668 38.3994 13.6562C38.6338 13.3457 38.751 12.9238 38.751 12.3906C38.751 11.207 38.2646 10.6152 37.292 10.6152C36.3076 10.6152 35.8154 11.207 35.8154 12.3906ZM46.7314 19H44.0508V5.32422H46.7314V19ZM53.6221 10.8965C53.0537 10.8965 52.6084 11.0781 52.2861 11.4414C51.9639 11.7988 51.7793 12.3086 51.7324 12.9707H55.4941C55.4824 12.3086 55.3096 11.7988 54.9756 11.4414C54.6416 11.0781 54.1904 10.8965 53.6221 10.8965ZM54 19.1758C52.418 19.1758 51.1816 18.7393 50.291 17.8662C49.4004 16.9932 48.9551 15.7568 48.9551 14.1572C48.9551 12.5107 49.3652 11.2393 50.1855 10.3428C51.0117 9.44043 52.1514 8.98926 53.6045 8.98926C54.9932 8.98926 56.0742 9.38477 56.8477 10.1758C57.6211 10.9668 58.0078 12.0596 58.0078 13.4541V14.7549H51.6709C51.7002 15.5166 51.9258 16.1113 52.3477 16.5391C52.7695 16.9668 53.3613 17.1807 54.123 17.1807C54.7148 17.1807 55.2744 17.1191 55.8018 16.9961C56.3291 16.873 56.8799 16.6768 57.4541 16.4072V18.4814C56.9854 18.7158 56.4844 18.8887 55.9512 19C55.418 19.1172 54.7676 19.1758 54 19.1758ZM66.2168 21.8477H58.7461V20.6172H66.2168V21.8477ZM73.8281 19L73.3096 17.6641H73.2393C72.7881 18.2324 72.3223 18.6279 71.8418 18.8506C71.3672 19.0674 70.7461 19.1758 69.9785 19.1758C69.0352 19.1758 68.291 18.9062 67.7461 18.3672C67.207 17.8281 66.9375 17.0605 66.9375 16.0645C66.9375 15.0215 67.3008 14.2539 68.0273 13.7617C68.7598 13.2637 69.8613 12.9883 71.332 12.9355L73.0371 12.8828V12.4521C73.0371 11.4561 72.5273 10.958 71.5078 10.958C70.7227 10.958 69.7998 11.1953 68.7393 11.6699L67.8516 9.85938C68.9824 9.26758 70.2363 8.97168 71.6133 8.97168C72.9316 8.97168 73.9424 9.25879 74.6455 9.83301C75.3486 10.4072 75.7002 11.2803 75.7002 12.4521V19H73.8281ZM73.0371 14.4473L72 14.4824C71.2207 14.5059 70.6406 14.6465 70.2598 14.9043C69.8789 15.1621 69.6885 15.5547 69.6885 16.082C69.6885 16.8379 70.1221 17.2158 70.9893 17.2158C71.6104 17.2158 72.1055 17.0371 72.4746 16.6797C72.8496 16.3223 73.0371 15.8477 73.0371 15.2559V14.4473ZM83.8652 19.1758C82.7109 19.1758 81.8057 18.7568 81.1494 17.9189H81.0088C81.1025 18.7393 81.1494 19.2139 81.1494 19.3428V23.3242H78.4688V9.17383H80.6484L81.0264 10.4482H81.1494C81.7764 9.47559 82.7051 8.98926 83.9355 8.98926C85.0957 8.98926 86.0039 9.4375 86.6602 10.334C87.3164 11.2305 87.6445 12.4756 87.6445 14.0693C87.6445 15.1182 87.4893 16.0293 87.1787 16.8027C86.874 17.5762 86.4375 18.165 85.8691 18.5693C85.3008 18.9736 84.6328 19.1758 83.8652 19.1758ZM83.0742 11.1338C82.4121 11.1338 81.9287 11.3389 81.624 11.749C81.3193 12.1533 81.1611 12.8242 81.1494 13.7617V14.0518C81.1494 15.1064 81.3047 15.8623 81.6152 16.3193C81.9316 16.7764 82.4297 17.0049 83.1094 17.0049C84.3105 17.0049 84.9111 16.0146 84.9111 14.0342C84.9111 13.0674 84.7617 12.3438 84.4629 11.8633C84.1699 11.377 83.707 11.1338 83.0742 11.1338ZM89.7451 6.63379C89.7451 5.76074 90.2314 5.32422 91.2041 5.32422C92.1768 5.32422 92.6631 5.76074 92.6631 6.63379C92.6631 7.0498 92.54 7.375 92.2939 7.60938C92.0537 7.83789 91.6904 7.95215 91.2041 7.95215C90.2314 7.95215 89.7451 7.5127 89.7451 6.63379ZM92.54 19H89.8594V9.17383H92.54V19ZM101.391 21.8477H93.9199V20.6172H101.391V21.8477ZM105.337 13.6562L106.506 12.1621L109.257 9.17383H112.28L108.378 13.4365L112.518 19H109.424L106.594 15.0186L105.442 15.9414V19H102.762V5.32422H105.442V11.4238L105.302 13.6562H105.337ZM117.993 10.8965C117.425 10.8965 116.979 11.0781 116.657 11.4414C116.335 11.7988 116.15 12.3086 116.104 12.9707H119.865C119.854 12.3086 119.681 11.7988 119.347 11.4414C119.013 11.0781 118.562 10.8965 117.993 10.8965ZM118.371 19.1758C116.789 19.1758 115.553 18.7393 114.662 17.8662C113.771 16.9932 113.326 15.7568 113.326 14.1572C113.326 12.5107 113.736 11.2393 114.557 10.3428C115.383 9.44043 116.522 8.98926 117.976 8.98926C119.364 8.98926 120.445 9.38477 121.219 10.1758C121.992 10.9668 122.379 12.0596 122.379 13.4541V14.7549H116.042C116.071 15.5166 116.297 16.1113 116.719 16.5391C117.141 16.9668 117.732 17.1807 118.494 17.1807C119.086 17.1807 119.646 17.1191 120.173 16.9961C120.7 16.873 121.251 16.6768 121.825 16.4072V18.4814C121.356 18.7158 120.855 18.8887 120.322 19C119.789 19.1172 119.139 19.1758 118.371 19.1758ZM123.152 9.17383H126.088L127.942 14.7021C128.101 15.1826 128.209 15.751 128.268 16.4072H128.32C128.385 15.8037 128.511 15.2354 128.698 14.7021L130.518 9.17383H133.392L129.234 20.2568C128.854 21.2822 128.309 22.0498 127.6 22.5596C126.896 23.0693 126.073 23.3242 125.13 23.3242C124.667 23.3242 124.213 23.2744 123.768 23.1748V21.0479C124.09 21.124 124.441 21.1621 124.822 21.1621C125.297 21.1621 125.71 21.0156 126.062 20.7227C126.419 20.4355 126.697 19.999 126.896 19.4131L127.055 18.9297L123.152 9.17383Z" fill="#1E0D26"/>
<path d="M5.65332 35.9014C4.55501 35.9014 3.68685 36.2682 3.04883 37.002C2.41536 37.7311 2.09863 38.7314 2.09863 40.0029C2.09863 41.3109 2.40397 42.3226 3.01465 43.0381C3.62988 43.749 4.50488 44.1045 5.63965 44.1045C6.33691 44.1045 7.13216 43.9792 8.02539 43.7285V44.7471C7.33268 45.0068 6.47819 45.1367 5.46191 45.1367C3.98991 45.1367 2.85286 44.6901 2.05078 43.7969C1.25326 42.9036 0.854492 41.6344 0.854492 39.9893C0.854492 38.9593 1.0459 38.057 1.42871 37.2822C1.81608 36.5075 2.37207 35.9105 3.09668 35.4912C3.82585 35.0719 4.68262 34.8623 5.66699 34.8623C6.71517 34.8623 7.63118 35.0537 8.41504 35.4365L7.92285 36.4346C7.16634 36.0791 6.40983 35.9014 5.65332 35.9014ZM13.4531 37.3711C13.7858 37.3711 14.0843 37.3984 14.3486 37.4531L14.1914 38.5059C13.8815 38.4375 13.6081 38.4033 13.3711 38.4033C12.765 38.4033 12.2454 38.6494 11.8125 39.1416C11.3841 39.6338 11.1699 40.2467 11.1699 40.9805V45H10.0352V37.5078H10.9717L11.1016 38.8955H11.1562C11.4342 38.4079 11.7692 38.0319 12.1611 37.7676C12.5531 37.5033 12.9837 37.3711 13.4531 37.3711ZM18.915 45.1367C17.8076 45.1367 16.9326 44.7995 16.29 44.125C15.652 43.4505 15.333 42.514 15.333 41.3154C15.333 40.1077 15.6292 39.1484 16.2217 38.4375C16.8187 37.7266 17.6185 37.3711 18.6211 37.3711C19.5599 37.3711 20.3027 37.681 20.8496 38.3008C21.3965 38.916 21.6699 39.7295 21.6699 40.7412V41.459H16.5088C16.5316 42.3385 16.7526 43.0062 17.1719 43.4619C17.5957 43.9176 18.1904 44.1455 18.9561 44.1455C19.7627 44.1455 20.5602 43.9769 21.3486 43.6396V44.6514C20.9476 44.8245 20.5671 44.9476 20.207 45.0205C19.8516 45.098 19.4209 45.1367 18.915 45.1367ZM18.6074 38.3213C18.0059 38.3213 17.5251 38.5173 17.165 38.9092C16.8096 39.3011 16.5999 39.8434 16.5361 40.5361H20.4531C20.4531 39.8206 20.2936 39.2738 19.9746 38.8955C19.6556 38.5127 19.1999 38.3213 18.6074 38.3213ZM28.2188 45L27.9932 43.9336H27.9385C27.5648 44.403 27.1911 44.722 26.8174 44.8906C26.4482 45.0547 25.9857 45.1367 25.4297 45.1367C24.6868 45.1367 24.1035 44.9453 23.6797 44.5625C23.2604 44.1797 23.0508 43.6351 23.0508 42.9287C23.0508 41.4157 24.2607 40.6227 26.6807 40.5498L27.9521 40.5088V40.0439C27.9521 39.4561 27.8245 39.0231 27.5693 38.7451C27.3187 38.4626 26.9154 38.3213 26.3594 38.3213C25.735 38.3213 25.0286 38.5127 24.2402 38.8955L23.8916 38.0273C24.2607 37.8268 24.6641 37.6696 25.1016 37.5557C25.5436 37.4417 25.9857 37.3848 26.4277 37.3848C27.321 37.3848 27.9818 37.583 28.4102 37.9795C28.8431 38.376 29.0596 39.0117 29.0596 39.8867V45H28.2188ZM25.6553 44.2002C26.3617 44.2002 26.9154 44.0065 27.3164 43.6191C27.722 43.2318 27.9248 42.6895 27.9248 41.9922V41.3154L26.79 41.3633C25.8877 41.3952 25.236 41.5365 24.835 41.7871C24.4385 42.0332 24.2402 42.4183 24.2402 42.9424C24.2402 43.3525 24.3633 43.6647 24.6094 43.8789C24.86 44.0931 25.2087 44.2002 25.6553 44.2002ZM33.8242 44.2002C34.0247 44.2002 34.2184 44.1865 34.4053 44.1592C34.5921 44.1273 34.7402 44.0954 34.8496 44.0635V44.9316C34.7266 44.9909 34.5443 45.0387 34.3027 45.0752C34.0658 45.1162 33.8516 45.1367 33.6602 45.1367C32.2109 45.1367 31.4863 44.3734 31.4863 42.8467V38.3896H30.4131V37.8428L31.4863 37.3711L31.9648 35.7715H32.6211V37.5078H34.7949V38.3896H32.6211V42.7988C32.6211 43.25 32.7282 43.5964 32.9424 43.8379C33.1566 44.0794 33.4505 44.2002 33.8242 44.2002ZM39.5186 45.1367C38.4111 45.1367 37.5361 44.7995 36.8936 44.125C36.2555 43.4505 35.9365 42.514 35.9365 41.3154C35.9365 40.1077 36.2327 39.1484 36.8252 38.4375C37.4222 37.7266 38.222 37.3711 39.2246 37.3711C40.1634 37.3711 40.9062 37.681 41.4531 38.3008C42 38.916 42.2734 39.7295 42.2734 40.7412V41.459H37.1123C37.1351 42.3385 37.3561 43.0062 37.7754 43.4619C38.1992 43.9176 38.7939 44.1455 39.5596 44.1455C40.3662 44.1455 41.1637 43.9769 41.9521 43.6396V44.6514C41.5511 44.8245 41.1706 44.9476 40.8105 45.0205C40.4551 45.098 40.0244 45.1367 39.5186 45.1367ZM39.2109 38.3213C38.6094 38.3213 38.1286 38.5173 37.7686 38.9092C37.4131 39.3011 37.2035 39.8434 37.1396 40.5361H41.0566C41.0566 39.8206 40.8971 39.2738 40.5781 38.8955C40.2591 38.5127 39.8034 38.3213 39.2109 38.3213ZM49.3145 43.9951H49.2529C48.7288 44.7562 47.945 45.1367 46.9014 45.1367C45.9215 45.1367 45.1582 44.8018 44.6113 44.1318C44.069 43.4619 43.7979 42.5094 43.7979 41.2744C43.7979 40.0394 44.0713 39.0801 44.6182 38.3965C45.165 37.7129 45.9261 37.3711 46.9014 37.3711C47.9176 37.3711 48.6969 37.7402 49.2393 38.4785H49.3281L49.2803 37.9385L49.2529 37.4121V34.3633H50.3877V45H49.4648L49.3145 43.9951ZM47.0449 44.1865C47.8197 44.1865 48.3802 43.9769 48.7266 43.5576C49.0775 43.1338 49.2529 42.4525 49.2529 41.5137V41.2744C49.2529 40.2126 49.0752 39.4561 48.7197 39.0049C48.3688 38.5492 47.806 38.3213 47.0312 38.3213C46.3659 38.3213 45.8555 38.5811 45.5 39.1006C45.1491 39.6156 44.9736 40.3447 44.9736 41.2881C44.9736 42.2451 45.1491 42.9674 45.5 43.4551C45.8509 43.9427 46.3659 44.1865 47.0449 44.1865ZM62.959 42.7031H61.4756V45H60.3887V42.7031H55.5283V41.7119L60.2725 34.9512H61.4756V41.6709H62.959V42.7031ZM60.3887 41.6709V38.3486C60.3887 37.6969 60.4115 36.9609 60.457 36.1406H60.4023C60.1836 36.5781 59.9785 36.9404 59.7871 37.2275L56.6631 41.6709H60.3887ZM66.8691 44.2002C67.0697 44.2002 67.2633 44.1865 67.4502 44.1592C67.637 44.1273 67.7852 44.0954 67.8945 44.0635V44.9316C67.7715 44.9909 67.5892 45.0387 67.3477 45.0752C67.1107 45.1162 66.8965 45.1367 66.7051 45.1367C65.2559 45.1367 64.5312 44.3734 64.5312 42.8467V38.3896H63.458V37.8428L64.5312 37.3711L65.0098 35.7715H65.666V37.5078H67.8398V38.3896H65.666V42.7988C65.666 43.25 65.7731 43.5964 65.9873 43.8379C66.2015 44.0794 66.4954 44.2002 66.8691 44.2002ZM74.5254 45V40.1533C74.5254 39.5426 74.3864 39.0869 74.1084 38.7861C73.8304 38.4854 73.3952 38.335 72.8027 38.335C72.0143 38.335 71.4378 38.5492 71.0732 38.9775C70.7132 39.4059 70.5332 40.1077 70.5332 41.083V45H69.3984V34.3633H70.5332V37.583C70.5332 37.9704 70.515 38.2917 70.4785 38.5469H70.5469C70.7702 38.1868 71.0869 37.9043 71.4971 37.6992C71.9118 37.4896 72.3835 37.3848 72.9121 37.3848C73.8281 37.3848 74.514 37.6035 74.9697 38.041C75.43 38.474 75.6602 39.1644 75.6602 40.1123V45H74.5254ZM82.9678 45H81.8057V35.0059H87.377V36.0381H82.9678V39.6953H87.1104V40.7275H82.9678V45ZM92.0322 45.1367C90.9248 45.1367 90.0498 44.7995 89.4072 44.125C88.7692 43.4505 88.4502 42.514 88.4502 41.3154C88.4502 40.1077 88.7464 39.1484 89.3389 38.4375C89.9359 37.7266 90.7357 37.3711 91.7383 37.3711C92.6771 37.3711 93.4199 37.681 93.9668 38.3008C94.5137 38.916 94.7871 39.7295 94.7871 40.7412V41.459H89.626C89.6488 42.3385 89.8698 43.0062 90.2891 43.4619C90.7129 43.9176 91.3076 44.1455 92.0732 44.1455C92.8799 44.1455 93.6774 43.9769 94.4658 43.6396V44.6514C94.0648 44.8245 93.6842 44.9476 93.3242 45.0205C92.9688 45.098 92.5381 45.1367 92.0322 45.1367ZM91.7246 38.3213C91.123 38.3213 90.6423 38.5173 90.2822 38.9092C89.9268 39.3011 89.7171 39.8434 89.6533 40.5361H93.5703C93.5703 39.8206 93.4108 39.2738 93.0918 38.8955C92.7728 38.5127 92.3171 38.3213 91.7246 38.3213ZM100.215 37.3848C101.199 37.3848 101.963 37.722 102.505 38.3965C103.052 39.0664 103.325 40.0166 103.325 41.2471C103.325 42.4775 103.049 43.4346 102.498 44.1182C101.951 44.7972 101.19 45.1367 100.215 45.1367C99.7272 45.1367 99.2806 45.0479 98.875 44.8701C98.474 44.6878 98.1367 44.4098 97.8633 44.0361H97.7812L97.542 45H96.7285V34.3633H97.8633V36.9473C97.8633 37.526 97.8451 38.0456 97.8086 38.5059H97.8633C98.3919 37.7585 99.1758 37.3848 100.215 37.3848ZM100.051 38.335C99.276 38.335 98.7178 38.5583 98.376 39.0049C98.0342 39.4469 97.8633 40.1943 97.8633 41.2471C97.8633 42.2998 98.0387 43.054 98.3896 43.5098C98.7406 43.9609 99.3034 44.1865 100.078 44.1865C100.775 44.1865 101.295 43.9336 101.637 43.4277C101.979 42.9173 102.149 42.1859 102.149 41.2334C102.149 40.2581 101.979 39.5312 101.637 39.0527C101.295 38.5742 100.766 38.335 100.051 38.335ZM115.001 45H108.432V44.0225L111.063 41.377C111.866 40.5658 112.394 39.987 112.649 39.6406C112.905 39.2943 113.096 38.957 113.224 38.6289C113.351 38.3008 113.415 37.9476 113.415 37.5693C113.415 37.0361 113.253 36.6146 112.93 36.3047C112.606 35.9902 112.157 35.833 111.583 35.833C111.168 35.833 110.774 35.9014 110.4 36.0381C110.031 36.1748 109.619 36.4232 109.163 36.7832L108.562 36.0107C109.482 35.2451 110.485 34.8623 111.569 34.8623C112.508 34.8623 113.244 35.1038 113.777 35.5869C114.311 36.0654 114.577 36.7103 114.577 37.5215C114.577 38.1549 114.399 38.7816 114.044 39.4014C113.688 40.0212 113.023 40.805 112.048 41.7529L109.86 43.8926V43.9473H115.001V45ZM123.067 39.9893C123.067 41.7165 122.794 43.0062 122.247 43.8584C121.705 44.7106 120.873 45.1367 119.752 45.1367C118.676 45.1367 117.858 44.7015 117.298 43.8311C116.737 42.9561 116.457 41.6755 116.457 39.9893C116.457 38.2484 116.728 36.9564 117.271 36.1133C117.813 35.2702 118.64 34.8486 119.752 34.8486C120.837 34.8486 121.659 35.2884 122.22 36.168C122.785 37.0475 123.067 38.3213 123.067 39.9893ZM117.605 39.9893C117.605 41.443 117.776 42.5026 118.118 43.168C118.46 43.8288 119.005 44.1592 119.752 44.1592C120.508 44.1592 121.055 43.8242 121.393 43.1543C121.734 42.4798 121.905 41.4248 121.905 39.9893C121.905 38.5537 121.734 37.5033 121.393 36.8379C121.055 36.168 120.508 35.833 119.752 35.833C119.005 35.833 118.46 36.1634 118.118 36.8242C117.776 37.4805 117.605 38.5355 117.605 39.9893ZM131.024 45H124.455V44.0225L127.087 41.377C127.889 40.5658 128.418 39.987 128.673 39.6406C128.928 39.2943 129.119 38.957 129.247 38.6289C129.375 38.3008 129.438 37.9476 129.438 37.5693C129.438 37.0361 129.277 36.6146 128.953 36.3047C128.63 35.9902 128.181 35.833 127.606 35.833C127.192 35.833 126.798 35.9014 126.424 36.0381C126.055 36.1748 125.642 36.4232 125.187 36.7832L124.585 36.0107C125.506 35.2451 126.508 34.8623 127.593 34.8623C128.532 34.8623 129.268 35.1038 129.801 35.5869C130.334 36.0654 130.601 36.7103 130.601 37.5215C130.601 38.1549 130.423 38.7816 130.067 39.4014C129.712 40.0212 129.047 40.805 128.071 41.7529L125.884 43.8926V43.9473H131.024V45ZM136.671 45H135.563V37.877C135.563 37.2845 135.582 36.724 135.618 36.1953C135.522 36.291 135.415 36.3913 135.297 36.4961C135.178 36.6009 134.636 37.0452 133.67 37.8291L133.068 37.0498L135.714 35.0059H136.671V45ZM148.319 45H147.212V37.877C147.212 37.2845 147.23 36.724 147.267 36.1953C147.171 36.291 147.064 36.3913 146.945 36.4961C146.827 36.6009 146.285 37.0452 145.318 37.8291L144.717 37.0498L147.362 35.0059H148.319V45ZM156.331 45H155.224V37.877C155.224 37.2845 155.242 36.724 155.278 36.1953C155.183 36.291 155.076 36.3913 154.957 36.4961C154.839 36.6009 154.296 37.0452 153.33 37.8291L152.729 37.0498L155.374 35.0059H156.331V45ZM160.494 44.2754C160.494 43.9701 160.562 43.7399 160.699 43.585C160.84 43.4255 161.041 43.3457 161.301 43.3457C161.565 43.3457 161.77 43.4255 161.916 43.585C162.066 43.7399 162.142 43.9701 162.142 44.2754C162.142 44.5716 162.066 44.7995 161.916 44.959C161.766 45.1185 161.561 45.1982 161.301 45.1982C161.068 45.1982 160.875 45.1276 160.72 44.9863C160.569 44.8405 160.494 44.6035 160.494 44.2754ZM160.494 38.2393C160.494 37.624 160.763 37.3164 161.301 37.3164C161.861 37.3164 162.142 37.624 162.142 38.2393C162.142 38.5355 162.066 38.7633 161.916 38.9229C161.766 39.0824 161.561 39.1621 161.301 39.1621C161.068 39.1621 160.875 39.0915 160.72 38.9502C160.569 38.8044 160.494 38.5674 160.494 38.2393ZM170.912 42.7031H169.429V45H168.342V42.7031H163.481V41.7119L168.226 34.9512H169.429V41.6709H170.912V42.7031ZM168.342 41.6709V38.3486C168.342 37.6969 168.365 36.9609 168.41 36.1406H168.355C168.137 36.5781 167.932 36.9404 167.74 37.2275L164.616 41.6709H168.342ZM175.007 38.8955C176.06 38.8955 176.887 39.1576 177.488 39.6816C178.094 40.2012 178.397 40.9144 178.397 41.8213C178.397 42.8558 178.067 43.667 177.406 44.2549C176.75 44.8428 175.843 45.1367 174.686 45.1367C173.56 45.1367 172.701 44.9567 172.108 44.5967V43.5029C172.427 43.708 172.824 43.8698 173.298 43.9883C173.772 44.1022 174.239 44.1592 174.699 44.1592C175.501 44.1592 176.123 43.9701 176.565 43.5918C177.012 43.2135 177.235 42.6667 177.235 41.9512C177.235 40.5566 176.381 39.8594 174.672 39.8594C174.239 39.8594 173.66 39.9255 172.936 40.0576L172.348 39.6816L172.724 35.0059H177.693V36.0518H173.694L173.441 39.0527C173.965 38.9479 174.487 38.8955 175.007 38.8955ZM185.021 45L184.796 43.9336H184.741C184.368 44.403 183.994 44.722 183.62 44.8906C183.251 45.0547 182.788 45.1367 182.232 45.1367C181.49 45.1367 180.906 44.9453 180.482 44.5625C180.063 44.1797 179.854 43.6351 179.854 42.9287C179.854 41.4157 181.063 40.6227 183.483 40.5498L184.755 40.5088V40.0439C184.755 39.4561 184.627 39.0231 184.372 38.7451C184.121 38.4626 183.718 38.3213 183.162 38.3213C182.538 38.3213 181.831 38.5127 181.043 38.8955L180.694 38.0273C181.063 37.8268 181.467 37.6696 181.904 37.5557C182.346 37.4417 182.788 37.3848 183.23 37.3848C184.124 37.3848 184.785 37.583 185.213 37.9795C185.646 38.376 185.862 39.0117 185.862 39.8867V45H185.021ZM182.458 44.2002C183.164 44.2002 183.718 44.0065 184.119 43.6191C184.525 43.2318 184.728 42.6895 184.728 41.9922V41.3154L183.593 41.3633C182.69 41.3952 182.039 41.5365 181.638 41.7871C181.241 42.0332 181.043 42.4183 181.043 42.9424C181.043 43.3525 181.166 43.6647 181.412 43.8789C181.663 44.0931 182.011 44.2002 182.458 44.2002ZM197.757 45V40.126C197.757 39.529 197.629 39.0824 197.374 38.7861C197.119 38.4854 196.722 38.335 196.185 38.335C195.478 38.335 194.956 38.5378 194.619 38.9434C194.282 39.349 194.113 39.9733 194.113 40.8164V45H192.979V40.126C192.979 39.529 192.851 39.0824 192.596 38.7861C192.34 38.4854 191.942 38.335 191.399 38.335C190.688 38.335 190.167 38.5492 189.834 38.9775C189.506 39.4014 189.342 40.0986 189.342 41.0693V45H188.207V37.5078H189.13L189.314 38.5332H189.369C189.583 38.1686 189.884 37.8838 190.271 37.6787C190.663 37.4736 191.101 37.3711 191.584 37.3711C192.755 37.3711 193.521 37.7949 193.881 38.6426H193.936C194.159 38.2507 194.482 37.9408 194.906 37.7129C195.33 37.485 195.813 37.3711 196.355 37.3711C197.203 37.3711 197.837 37.5898 198.256 38.0273C198.68 38.4603 198.892 39.1553 198.892 40.1123V45H197.757Z" fill="#999999"/>
<path d="M535.836 15.1429C533.425 13.4713 530.484 12.7411 527.571 13.0905C524.658 13.4399 521.973 14.8446 520.026 17.039C518.078 19.2334 517.001 22.0654 517 24.9996L519 25.0005C519.001 22.5554 519.898 20.1954 521.521 18.3667C523.145 16.538 525.382 15.3675 527.809 15.0763C530.237 14.7851 532.687 15.3936 534.697 16.7866C536.707 18.1796 538.136 20.2606 538.715 22.6362C539.295 25.0117 538.983 27.5172 537.841 29.6789C536.698 31.8406 534.803 33.5086 532.513 34.3677C530.224 35.2267 527.699 35.2173 525.416 34.341C523.969 33.7854 522.682 32.9056 521.647 31.7828L525.624 32.8908L526.161 30.9642L518.057 28.7063L519.099 36.9871L521.083 36.7375L520.697 33.669C521.84 34.7642 523.198 35.6316 524.7 36.2082C527.439 37.2597 530.469 37.2711 533.216 36.2402C535.963 35.2093 538.237 33.2076 539.609 30.6136C540.98 28.0196 541.354 25.013 540.658 22.1624C539.963 19.3117 538.248 16.8145 535.836 15.1429Z" fill="#C0BCC2"/>
<path d="M530 18V24H536V26H528V18H530Z" fill="#C0BCC2"/>
<path fill-rule="evenodd" clip-rule="evenodd" d="M583 13H573V17H566V19H590V17H583V13ZM581 17V15H575V17H581Z" fill="#F67055"/>
<path d="M571 34V21H569V34C569 34.7957 569.316 35.5587 569.879 36.1213C570.441 36.6839 571.204 37 572 37H584C584.796 37 585.559 36.6839 586.121 36.1213C586.684 35.5587 587 34.7957 587 34V21H585V34C585 34.2652 584.895 34.5196 584.707 34.7071C584.52 34.8946 584.265 35 584 35H572C571.735 35 571.48 34.8946 571.293 34.7071C571.105 34.5196 571 34.2652 571 34Z" fill="#F67055"/>
<path d="M579 24V32H577V24H579Z" fill="#F67055"/>
<path d="M575 32V24H573V32H575Z" fill="#F67055"/>
<path d="M583 24V32H581V24H583Z" fill="#F67055"/>
<rect x="308" y="10" width="179" height="30" rx="15" fill="#E6E4E7"/>
<path d="M331.173 27.8193H329.826V30H328.261V27.8193H323.694V26.582L328.261 19.9785H329.826V26.4863H331.173V27.8193ZM328.261 26.4863V23.9775C328.261 23.0843 328.284 22.3529 328.329 21.7832H328.274C328.147 22.084 327.946 22.4486 327.673 22.877L325.191 26.4863H328.261ZM332.068 25.7412C332.068 21.8311 333.661 19.876 336.847 19.876C337.348 19.876 337.772 19.9147 338.118 19.9922V21.332C337.772 21.2318 337.371 21.1816 336.915 21.1816C335.844 21.1816 335.04 21.4688 334.502 22.043C333.964 22.6172 333.673 23.5378 333.627 24.8047H333.709C333.923 24.4355 334.224 24.1507 334.611 23.9502C334.999 23.7451 335.454 23.6426 335.979 23.6426C336.885 23.6426 337.592 23.9206 338.098 24.4766C338.604 25.0326 338.856 25.7868 338.856 26.7393C338.856 27.7874 338.562 28.6169 337.975 29.2275C337.391 29.8337 336.594 30.1367 335.582 30.1367C334.867 30.1367 334.244 29.9658 333.716 29.624C333.187 29.2777 332.779 28.7764 332.492 28.1201C332.21 27.4593 332.068 26.6663 332.068 25.7412ZM335.555 28.8105C336.106 28.8105 336.53 28.6328 336.826 28.2773C337.127 27.9219 337.277 27.4137 337.277 26.7529C337.277 26.1787 337.136 25.7275 336.854 25.3994C336.576 25.0713 336.156 24.9072 335.596 24.9072C335.249 24.9072 334.93 24.9824 334.639 25.1328C334.347 25.2786 334.117 25.4814 333.948 25.7412C333.78 25.9964 333.695 26.2585 333.695 26.5273C333.695 27.1699 333.868 27.7122 334.215 28.1543C334.566 28.5918 335.012 28.8105 335.555 28.8105ZM346.438 22.3027C346.438 22.9362 346.253 23.4648 345.884 23.8887C345.515 24.3079 344.995 24.5905 344.325 24.7363V24.791C345.127 24.8913 345.729 25.1419 346.13 25.543C346.531 25.9395 346.731 26.4681 346.731 27.1289C346.731 28.0905 346.392 28.8333 345.713 29.3574C345.034 29.877 344.068 30.1367 342.814 30.1367C341.707 30.1367 340.773 29.9567 340.012 29.5967V28.168C340.436 28.3776 340.884 28.5394 341.358 28.6533C341.832 28.7673 342.288 28.8242 342.726 28.8242C343.5 28.8242 344.079 28.6807 344.462 28.3936C344.845 28.1064 345.036 27.6621 345.036 27.0605C345.036 26.5273 344.824 26.1354 344.4 25.8848C343.977 25.6341 343.311 25.5088 342.404 25.5088H341.536V24.2031H342.418C344.013 24.2031 344.811 23.6517 344.811 22.5488C344.811 22.1204 344.672 21.79 344.394 21.5576C344.116 21.3252 343.705 21.209 343.163 21.209C342.785 21.209 342.42 21.2637 342.069 21.373C341.718 21.4779 341.304 21.6852 340.825 21.9951L340.039 20.874C340.955 20.1995 342.019 19.8623 343.231 19.8623C344.239 19.8623 345.025 20.0788 345.59 20.5117C346.155 20.9447 346.438 21.5417 346.438 22.3027ZM351.428 23.7588C352.435 23.7588 353.232 24.0254 353.82 24.5586C354.408 25.0918 354.702 25.8187 354.702 26.7393C354.702 27.8057 354.367 28.6396 353.697 29.2412C353.032 29.8382 352.084 30.1367 350.854 30.1367C349.737 30.1367 348.86 29.9567 348.222 29.5967V28.1406C348.591 28.3503 349.015 28.512 349.493 28.626C349.972 28.7399 350.416 28.7969 350.826 28.7969C351.551 28.7969 352.102 28.6351 352.48 28.3115C352.859 27.988 353.048 27.514 353.048 26.8896C353.048 25.6956 352.287 25.0986 350.765 25.0986C350.55 25.0986 350.286 25.1214 349.972 25.167C349.657 25.208 349.382 25.2559 349.145 25.3105L348.427 24.8867L348.81 20.0059H354.005V21.4346H350.225L349.999 23.9092C350.159 23.8818 350.352 23.8499 350.58 23.8135C350.812 23.777 351.095 23.7588 351.428 23.7588ZM362.434 22.3027C362.434 22.9362 362.249 23.4648 361.88 23.8887C361.511 24.3079 360.991 24.5905 360.321 24.7363V24.791C361.123 24.8913 361.725 25.1419 362.126 25.543C362.527 25.9395 362.728 26.4681 362.728 27.1289C362.728 28.0905 362.388 28.8333 361.709 29.3574C361.03 29.877 360.064 30.1367 358.811 30.1367C357.703 30.1367 356.769 29.9567 356.008 29.5967V28.168C356.432 28.3776 356.881 28.5394 357.354 28.6533C357.828 28.7673 358.284 28.8242 358.722 28.8242C359.496 28.8242 360.075 28.6807 360.458 28.3936C360.841 28.1064 361.032 27.6621 361.032 27.0605C361.032 26.5273 360.82 26.1354 360.396 25.8848C359.973 25.6341 359.307 25.5088 358.4 25.5088H357.532V24.2031H358.414C360.009 24.2031 360.807 23.6517 360.807 22.5488C360.807 22.1204 360.668 21.79 360.39 21.5576C360.112 21.3252 359.701 21.209 359.159 21.209C358.781 21.209 358.416 21.2637 358.065 21.373C357.715 21.4779 357.3 21.6852 356.821 21.9951L356.035 20.874C356.951 20.1995 358.015 19.8623 359.228 19.8623C360.235 19.8623 361.021 20.0788 361.586 20.5117C362.151 20.9447 362.434 21.5417 362.434 22.3027ZM368.429 22.3027C369.372 22.3027 370.106 22.6445 370.63 23.3281C371.159 24.0117 371.423 24.971 371.423 26.2061C371.423 27.4456 371.156 28.4118 370.623 29.1045C370.09 29.7926 369.349 30.1367 368.401 30.1367C367.444 30.1367 366.701 29.7926 366.173 29.1045H366.063L365.77 30H364.566V19.3633H366.173V21.8926C366.173 22.0794 366.164 22.3574 366.146 22.7266C366.127 23.0957 366.114 23.3304 366.104 23.4307H366.173C366.683 22.6787 367.435 22.3027 368.429 22.3027ZM368.012 23.6152C367.365 23.6152 366.897 23.8066 366.61 24.1895C366.328 24.5677 366.182 25.2035 366.173 26.0967V26.2061C366.173 27.1266 366.319 27.7943 366.61 28.209C366.902 28.6191 367.378 28.8242 368.039 28.8242C368.609 28.8242 369.039 28.5986 369.331 28.1475C369.627 27.6963 369.775 27.0446 369.775 26.1924C369.775 24.4743 369.188 23.6152 368.012 23.6152ZM379.517 24.2715C379.517 26.2402 379.12 27.71 378.327 28.6807C377.534 29.6514 376.34 30.1367 374.745 30.1367C374.139 30.1367 373.704 30.1003 373.439 30.0273V28.6807C373.845 28.7946 374.253 28.8516 374.663 28.8516C375.748 28.8516 376.557 28.5599 377.09 27.9766C377.623 27.3932 377.915 26.4772 377.965 25.2285H377.883C377.614 25.6387 377.288 25.9349 376.905 26.1172C376.527 26.2995 376.083 26.3906 375.572 26.3906C374.688 26.3906 373.993 26.1149 373.487 25.5635C372.981 25.012 372.729 24.2555 372.729 23.2939C372.729 22.2503 373.02 21.4209 373.604 20.8057C374.191 20.1859 374.991 19.876 376.003 19.876C376.714 19.876 377.334 20.0492 377.862 20.3955C378.391 20.7419 378.799 21.2454 379.086 21.9062C379.373 22.5625 379.517 23.3509 379.517 24.2715ZM376.03 21.209C375.474 21.209 375.048 21.3913 374.752 21.7559C374.456 22.1159 374.308 22.624 374.308 23.2803C374.308 23.8499 374.444 24.2988 374.718 24.627C374.996 24.9505 375.415 25.1123 375.976 25.1123C376.518 25.1123 376.974 24.9505 377.343 24.627C377.712 24.3034 377.896 23.9251 377.896 23.4922C377.896 23.0866 377.817 22.7083 377.657 22.3574C377.502 22.002 377.284 21.7217 377.001 21.5166C376.718 21.3115 376.395 21.209 376.03 21.209ZM387.152 22.3027C387.152 22.9362 386.968 23.4648 386.599 23.8887C386.229 24.3079 385.71 24.5905 385.04 24.7363V24.791C385.842 24.8913 386.444 25.1419 386.845 25.543C387.246 25.9395 387.446 26.4681 387.446 27.1289C387.446 28.0905 387.107 28.8333 386.428 29.3574C385.749 29.877 384.783 30.1367 383.529 30.1367C382.422 30.1367 381.488 29.9567 380.727 29.5967V28.168C381.15 28.3776 381.599 28.5394 382.073 28.6533C382.547 28.7673 383.003 28.8242 383.44 28.8242C384.215 28.8242 384.794 28.6807 385.177 28.3936C385.56 28.1064 385.751 27.6621 385.751 27.0605C385.751 26.5273 385.539 26.1354 385.115 25.8848C384.691 25.6341 384.026 25.5088 383.119 25.5088H382.251V24.2031H383.133C384.728 24.2031 385.525 23.6517 385.525 22.5488C385.525 22.1204 385.386 21.79 385.108 21.5576C384.83 21.3252 384.42 21.209 383.878 21.209C383.5 21.209 383.135 21.2637 382.784 21.373C382.433 21.4779 382.019 21.6852 381.54 21.9951L380.754 20.874C381.67 20.1995 382.734 19.8623 383.946 19.8623C384.953 19.8623 385.74 20.0788 386.305 20.5117C386.87 20.9447 387.152 21.5417 387.152 22.3027ZM394.016 30L393.694 28.9473H393.64C393.275 29.4076 392.908 29.722 392.539 29.8906C392.17 30.0547 391.696 30.1367 391.117 30.1367C390.374 30.1367 389.793 29.9362 389.374 29.5352C388.959 29.1341 388.752 28.5667 388.752 27.833C388.752 27.0537 389.041 26.4658 389.62 26.0693C390.199 25.6729 391.081 25.4564 392.266 25.4199L393.571 25.3789V24.9756C393.571 24.4925 393.457 24.1325 393.229 23.8955C393.006 23.654 392.658 23.5332 392.184 23.5332C391.796 23.5332 391.425 23.5902 391.069 23.7041C390.714 23.818 390.372 23.9525 390.044 24.1074L389.524 22.959C389.935 22.7448 390.383 22.583 390.871 22.4736C391.359 22.3597 391.819 22.3027 392.252 22.3027C393.214 22.3027 393.938 22.5124 394.426 22.9316C394.918 23.3509 395.164 24.0094 395.164 24.9072V30H394.016ZM391.623 28.9062C392.206 28.9062 392.674 28.7445 393.024 28.4209C393.38 28.0928 393.558 27.6348 393.558 27.0469V26.3906L392.587 26.4316C391.83 26.459 391.279 26.5866 390.933 26.8145C390.591 27.0378 390.42 27.3818 390.42 27.8467C390.42 28.1839 390.52 28.446 390.721 28.6328C390.921 28.8151 391.222 28.9062 391.623 28.9062ZM400.708 30.1367C399.532 30.1367 398.612 29.7949 397.946 29.1113C397.285 28.4232 396.955 27.4775 396.955 26.2744C396.955 25.0394 397.263 24.0687 397.878 23.3623C398.493 22.6559 399.339 22.3027 400.414 22.3027C401.412 22.3027 402.201 22.6058 402.779 23.2119C403.358 23.818 403.647 24.652 403.647 25.7139V26.582H398.609C398.632 27.3158 398.83 27.8809 399.204 28.2773C399.578 28.6693 400.104 28.8652 400.783 28.8652C401.23 28.8652 401.645 28.8242 402.027 28.7422C402.415 28.6556 402.829 28.5143 403.271 28.3184V29.624C402.88 29.8109 402.483 29.943 402.082 30.0205C401.681 30.098 401.223 30.1367 400.708 30.1367ZM400.414 23.5195C399.904 23.5195 399.493 23.6813 399.184 24.0049C398.878 24.3285 398.696 24.8001 398.637 25.4199H402.068C402.059 24.7956 401.909 24.3239 401.617 24.0049C401.326 23.6813 400.924 23.5195 400.414 23.5195ZM411.714 30H404.939V28.7832L407.517 26.1924C408.278 25.4131 408.781 24.8617 409.027 24.5381C409.278 24.21 409.46 23.9023 409.574 23.6152C409.688 23.3281 409.745 23.0205 409.745 22.6924C409.745 22.2412 409.608 21.8857 409.335 21.626C409.066 21.3662 408.692 21.2363 408.214 21.2363C407.831 21.2363 407.46 21.307 407.1 21.4482C406.744 21.5895 406.332 21.8447 405.862 22.2139L404.994 21.1543C405.55 20.6849 406.09 20.3522 406.614 20.1562C407.138 19.9603 407.697 19.8623 408.289 19.8623C409.219 19.8623 409.964 20.1061 410.524 20.5938C411.085 21.0768 411.365 21.7285 411.365 22.5488C411.365 23 411.283 23.4284 411.119 23.834C410.96 24.2396 410.711 24.6589 410.374 25.0918C410.041 25.5202 409.485 26.1012 408.706 26.835L406.97 28.5166V28.585H411.714V30ZM420.067 27.8193H418.721V30H417.155V27.8193H412.589V26.582L417.155 19.9785H418.721V26.4863H420.067V27.8193ZM417.155 26.4863V23.9775C417.155 23.0843 417.178 22.3529 417.224 21.7832H417.169C417.041 22.084 416.841 22.4486 416.567 22.877L414.086 26.4863H417.155ZM426.199 30L425.878 28.9473H425.823C425.459 29.4076 425.092 29.722 424.723 29.8906C424.354 30.0547 423.88 30.1367 423.301 30.1367C422.558 30.1367 421.977 29.9362 421.558 29.5352C421.143 29.1341 420.936 28.5667 420.936 27.833C420.936 27.0537 421.225 26.4658 421.804 26.0693C422.382 25.6729 423.264 25.4564 424.449 25.4199L425.755 25.3789V24.9756C425.755 24.4925 425.641 24.1325 425.413 23.8955C425.19 23.654 424.841 23.5332 424.367 23.5332C423.98 23.5332 423.608 23.5902 423.253 23.7041C422.897 23.818 422.556 23.9525 422.228 24.1074L421.708 22.959C422.118 22.7448 422.567 22.583 423.055 22.4736C423.542 22.3597 424.003 22.3027 424.436 22.3027C425.397 22.3027 426.122 22.5124 426.609 22.9316C427.102 23.3509 427.348 24.0094 427.348 24.9072V30H426.199ZM423.807 28.9062C424.39 28.9062 424.857 28.7445 425.208 28.4209C425.563 28.0928 425.741 27.6348 425.741 27.0469V26.3906L424.771 26.4316C424.014 26.459 423.463 26.5866 423.116 26.8145C422.774 27.0378 422.604 27.3818 422.604 27.8467C422.604 28.1839 422.704 28.446 422.904 28.6328C423.105 28.8151 423.406 28.9062 423.807 28.9062ZM433.773 30H432.167V23.5469C432.167 22.7767 432.185 22.166 432.222 21.7148C432.117 21.8242 431.987 21.945 431.832 22.0771C431.682 22.2093 431.171 22.6286 430.301 23.335L429.494 22.3164L432.434 20.0059H433.773V30ZM443.453 22.3027C443.453 22.9362 443.269 23.4648 442.899 23.8887C442.53 24.3079 442.011 24.5905 441.341 24.7363V24.791C442.143 24.8913 442.744 25.1419 443.146 25.543C443.547 25.9395 443.747 26.4681 443.747 27.1289C443.747 28.0905 443.408 28.8333 442.729 29.3574C442.049 29.877 441.083 30.1367 439.83 30.1367C438.723 30.1367 437.788 29.9567 437.027 29.5967V28.168C437.451 28.3776 437.9 28.5394 438.374 28.6533C438.848 28.7673 439.304 28.8242 439.741 28.8242C440.516 28.8242 441.095 28.6807 441.478 28.3936C441.86 28.1064 442.052 27.6621 442.052 27.0605C442.052 26.5273 441.84 26.1354 441.416 25.8848C440.992 25.6341 440.327 25.5088 439.42 25.5088H438.552V24.2031H439.434C441.029 24.2031 441.826 23.6517 441.826 22.5488C441.826 22.1204 441.687 21.79 441.409 21.5576C441.131 21.3252 440.721 21.209 440.179 21.209C439.8 21.209 439.436 21.2637 439.085 21.373C438.734 21.4779 438.319 21.6852 437.841 21.9951L437.055 20.874C437.971 20.1995 439.035 19.8623 440.247 19.8623C441.254 19.8623 442.04 20.0788 442.605 20.5117C443.171 20.9447 443.453 21.5417 443.453 22.3027ZM451.451 22.3027C451.451 22.9362 451.267 23.4648 450.897 23.8887C450.528 24.3079 450.009 24.5905 449.339 24.7363V24.791C450.141 24.8913 450.743 25.1419 451.144 25.543C451.545 25.9395 451.745 26.4681 451.745 27.1289C451.745 28.0905 451.406 28.8333 450.727 29.3574C450.048 29.877 449.081 30.1367 447.828 30.1367C446.721 30.1367 445.786 29.9567 445.025 29.5967V28.168C445.449 28.3776 445.898 28.5394 446.372 28.6533C446.846 28.7673 447.302 28.8242 447.739 28.8242C448.514 28.8242 449.093 28.6807 449.476 28.3936C449.858 28.1064 450.05 27.6621 450.05 27.0605C450.05 26.5273 449.838 26.1354 449.414 25.8848C448.99 25.6341 448.325 25.5088 447.418 25.5088H446.55V24.2031H447.432C449.027 24.2031 449.824 23.6517 449.824 22.5488C449.824 22.1204 449.685 21.79 449.407 21.5576C449.129 21.3252 448.719 21.209 448.177 21.209C447.799 21.209 447.434 21.2637 447.083 21.373C446.732 21.4779 446.317 21.6852 445.839 21.9951L445.053 20.874C445.969 20.1995 447.033 19.8623 448.245 19.8623C449.252 19.8623 450.038 20.0788 450.604 20.5117C451.169 20.9447 451.451 21.5417 451.451 22.3027ZM454.186 30L458.137 21.4346H452.941V20.0195H459.853V21.1406L455.922 30H454.186ZM461.343 29.1455C461.343 28.8128 461.429 28.5576 461.603 28.3799C461.776 28.2021 462.026 28.1133 462.354 28.1133C462.687 28.1133 462.94 28.2067 463.113 28.3936C463.286 28.5758 463.373 28.8265 463.373 29.1455C463.373 29.4691 463.284 29.7266 463.106 29.918C462.933 30.1048 462.683 30.1982 462.354 30.1982C462.026 30.1982 461.776 30.1048 461.603 29.918C461.429 29.7311 461.343 29.4736 461.343 29.1455ZM465.198 29.1455C465.198 28.8128 465.285 28.5576 465.458 28.3799C465.631 28.2021 465.882 28.1133 466.21 28.1133C466.543 28.1133 466.796 28.2067 466.969 28.3936C467.142 28.5758 467.229 28.8265 467.229 29.1455C467.229 29.4691 467.14 29.7266 466.962 29.918C466.789 30.1048 466.538 30.1982 466.21 30.1982C465.882 30.1982 465.631 30.1048 465.458 29.918C465.285 29.7311 465.198 29.4736 465.198 29.1455ZM469.054 29.1455C469.054 28.8128 469.14 28.5576 469.313 28.3799C469.487 28.2021 469.737 28.1133 470.065 28.1133C470.398 28.1133 470.651 28.2067 470.824 28.3936C470.997 28.5758 471.084 28.8265 471.084 29.1455C471.084 29.4691 470.995 29.7266 470.817 29.918C470.644 30.1048 470.394 30.1982 470.065 30.1982C469.737 30.1982 469.487 30.1048 469.313 29.918C469.14 29.7311 469.054 29.4736 469.054 29.1455Z" fill="#1E0D26"/>
</svg>
