<svg width="590" height="66" viewBox="0 0 590 66" fill="none" xmlns="http://www.w3.org/2000/svg">
<path d="M9.95801 9.17383V10.5361L8.41992 10.9316C8.70117 11.3711 8.8418 11.8633 8.8418 12.4082C8.8418 13.4629 8.47266 14.2861 7.73438 14.8779C7.00195 15.4639 5.98242 15.7568 4.67578 15.7568L4.19238 15.7305L3.79688 15.6865C3.52148 15.8975 3.38379 16.1318 3.38379 16.3896C3.38379 16.7764 3.87598 16.9697 4.86035 16.9697H6.53027C7.6084 16.9697 8.42871 17.2012 8.99121 17.6641C9.55957 18.127 9.84375 18.8066 9.84375 19.7031C9.84375 20.8516 9.36328 21.7422 8.40234 22.375C7.44727 23.0078 6.07324 23.3242 4.28027 23.3242C2.90918 23.3242 1.86035 23.084 1.13379 22.6035C0.413086 22.1289 0.0527344 21.4609 0.0527344 20.5996C0.0527344 20.0078 0.237305 19.5127 0.606445 19.1143C0.975586 18.7158 1.51758 18.4316 2.23242 18.2617C1.95703 18.1445 1.7168 17.9541 1.51172 17.6904C1.30664 17.4209 1.2041 17.1367 1.2041 16.8379C1.2041 16.4629 1.3125 16.1523 1.5293 15.9062C1.74609 15.6543 2.05957 15.4082 2.46973 15.168C1.9541 14.9453 1.54395 14.5879 1.23926 14.0957C0.94043 13.6035 0.791016 13.0234 0.791016 12.3555C0.791016 11.2832 1.13965 10.4541 1.83691 9.86816C2.53418 9.28223 3.53027 8.98926 4.8252 8.98926C5.10059 8.98926 5.42578 9.01562 5.80078 9.06836C6.18164 9.11523 6.4248 9.15039 6.53027 9.17383H9.95801ZM2.37305 20.3887C2.37305 20.7578 2.54883 21.0479 2.90039 21.2588C3.25781 21.4697 3.75586 21.5752 4.39453 21.5752C5.35547 21.5752 6.1084 21.4434 6.65332 21.1797C7.19824 20.916 7.4707 20.5557 7.4707 20.0986C7.4707 19.7295 7.30957 19.4746 6.9873 19.334C6.66504 19.1934 6.16699 19.123 5.49316 19.123H4.10449C3.6123 19.123 3.19922 19.2373 2.86523 19.4658C2.53711 19.7002 2.37305 20.0078 2.37305 20.3887ZM3.34863 12.3906C3.34863 12.9238 3.46875 13.3457 3.70898 13.6562C3.95508 13.9668 4.32715 14.1221 4.8252 14.1221C5.3291 14.1221 5.69824 13.9668 5.93262 13.6562C6.16699 13.3457 6.28418 12.9238 6.28418 12.3906C6.28418 11.207 5.79785 10.6152 4.8252 10.6152C3.84082 10.6152 3.34863 11.207 3.34863 12.3906ZM13.7197 14.0693C13.7197 15.042 13.8779 15.7773 14.1943 16.2754C14.5166 16.7734 15.0381 17.0225 15.7588 17.0225C16.4736 17.0225 16.9863 16.7764 17.2969 16.2842C17.6133 15.7861 17.7715 15.0479 17.7715 14.0693C17.7715 13.0967 17.6133 12.3672 17.2969 11.8809C16.9805 11.3945 16.4619 11.1514 15.7412 11.1514C15.0264 11.1514 14.5107 11.3945 14.1943 11.8809C13.8779 12.3613 13.7197 13.0908 13.7197 14.0693ZM20.5137 14.0693C20.5137 15.6689 20.0918 16.9199 19.248 17.8223C18.4043 18.7246 17.2295 19.1758 15.7236 19.1758C14.7803 19.1758 13.9482 18.9707 13.2275 18.5605C12.5068 18.1445 11.9531 17.5498 11.5664 16.7764C11.1797 16.0029 10.9863 15.1006 10.9863 14.0693C10.9863 12.4639 11.4053 11.2158 12.2432 10.3252C13.0811 9.43457 14.2588 8.98926 15.7764 8.98926C16.7197 8.98926 17.5518 9.19434 18.2725 9.60449C18.9932 10.0146 19.5469 10.6035 19.9336 11.3711C20.3203 12.1387 20.5137 13.0381 20.5137 14.0693ZM24.8643 14.0693C24.8643 15.042 25.0225 15.7773 25.3389 16.2754C25.6611 16.7734 26.1826 17.0225 26.9033 17.0225C27.6182 17.0225 28.1309 16.7764 28.4414 16.2842C28.7578 15.7861 28.916 15.0479 28.916 14.0693C28.916 13.0967 28.7578 12.3672 28.4414 11.8809C28.125 11.3945 27.6064 11.1514 26.8857 11.1514C26.1709 11.1514 25.6553 11.3945 25.3389 11.8809C25.0225 12.3613 24.8643 13.0908 24.8643 14.0693ZM31.6582 14.0693C31.6582 15.6689 31.2363 16.9199 30.3926 17.8223C29.5488 18.7246 28.374 19.1758 26.8682 19.1758C25.9248 19.1758 25.0928 18.9707 24.3721 18.5605C23.6514 18.1445 23.0977 17.5498 22.7109 16.7764C22.3242 16.0029 22.1309 15.1006 22.1309 14.0693C22.1309 12.4639 22.5498 11.2158 23.3877 10.3252C24.2256 9.43457 25.4033 8.98926 26.9209 8.98926C27.8643 8.98926 28.6963 9.19434 29.417 9.60449C30.1377 10.0146 30.6914 10.6035 31.0781 11.3711C31.4648 12.1387 31.6582 13.0381 31.6582 14.0693ZM42.4248 9.17383V10.5361L40.8867 10.9316C41.168 11.3711 41.3086 11.8633 41.3086 12.4082C41.3086 13.4629 40.9395 14.2861 40.2012 14.8779C39.4688 15.4639 38.4492 15.7568 37.1426 15.7568L36.6592 15.7305L36.2637 15.6865C35.9883 15.8975 35.8506 16.1318 35.8506 16.3896C35.8506 16.7764 36.3428 16.9697 37.3271 16.9697H38.9971C40.0752 16.9697 40.8955 17.2012 41.458 17.6641C42.0264 18.127 42.3105 18.8066 42.3105 19.7031C42.3105 20.8516 41.8301 21.7422 40.8691 22.375C39.9141 23.0078 38.54 23.3242 36.7471 23.3242C35.376 23.3242 34.3271 23.084 33.6006 22.6035C32.8799 22.1289 32.5195 21.4609 32.5195 20.5996C32.5195 20.0078 32.7041 19.5127 33.0732 19.1143C33.4424 18.7158 33.9844 18.4316 34.6992 18.2617C34.4238 18.1445 34.1836 17.9541 33.9785 17.6904C33.7734 17.4209 33.6709 17.1367 33.6709 16.8379C33.6709 16.4629 33.7793 16.1523 33.9961 15.9062C34.2129 15.6543 34.5264 15.4082 34.9365 15.168C34.4209 14.9453 34.0107 14.5879 33.7061 14.0957C33.4072 13.6035 33.2578 13.0234 33.2578 12.3555C33.2578 11.2832 33.6064 10.4541 34.3037 9.86816C35.001 9.28223 35.9971 8.98926 37.292 8.98926C37.5674 8.98926 37.8926 9.01562 38.2676 9.06836C38.6484 9.11523 38.8916 9.15039 38.9971 9.17383H42.4248ZM34.8398 20.3887C34.8398 20.7578 35.0156 21.0479 35.3672 21.2588C35.7246 21.4697 36.2227 21.5752 36.8613 21.5752C37.8223 21.5752 38.5752 21.4434 39.1201 21.1797C39.665 20.916 39.9375 20.5557 39.9375 20.0986C39.9375 19.7295 39.7764 19.4746 39.4541 19.334C39.1318 19.1934 38.6338 19.123 37.96 19.123H36.5713C36.0791 19.123 35.666 19.2373 35.332 19.4658C35.0039 19.7002 34.8398 20.0078 34.8398 20.3887ZM35.8154 12.3906C35.8154 12.9238 35.9355 13.3457 36.1758 13.6562C36.4219 13.9668 36.7939 14.1221 37.292 14.1221C37.7959 14.1221 38.165 13.9668 38.3994 13.6562C38.6338 13.3457 38.751 12.9238 38.751 12.3906C38.751 11.207 38.2646 10.6152 37.292 10.6152C36.3076 10.6152 35.8154 11.207 35.8154 12.3906ZM46.7314 19H44.0508V5.32422H46.7314V19ZM53.6221 10.8965C53.0537 10.8965 52.6084 11.0781 52.2861 11.4414C51.9639 11.7988 51.7793 12.3086 51.7324 12.9707H55.4941C55.4824 12.3086 55.3096 11.7988 54.9756 11.4414C54.6416 11.0781 54.1904 10.8965 53.6221 10.8965ZM54 19.1758C52.418 19.1758 51.1816 18.7393 50.291 17.8662C49.4004 16.9932 48.9551 15.7568 48.9551 14.1572C48.9551 12.5107 49.3652 11.2393 50.1855 10.3428C51.0117 9.44043 52.1514 8.98926 53.6045 8.98926C54.9932 8.98926 56.0742 9.38477 56.8477 10.1758C57.6211 10.9668 58.0078 12.0596 58.0078 13.4541V14.7549H51.6709C51.7002 15.5166 51.9258 16.1113 52.3477 16.5391C52.7695 16.9668 53.3613 17.1807 54.123 17.1807C54.7148 17.1807 55.2744 17.1191 55.8018 16.9961C56.3291 16.873 56.8799 16.6768 57.4541 16.4072V18.4814C56.9854 18.7158 56.4844 18.8887 55.9512 19C55.418 19.1172 54.7676 19.1758 54 19.1758ZM66.2168 21.8477H58.7461V20.6172H66.2168V21.8477ZM69.7236 14.0693C69.7236 15.042 69.8818 15.7773 70.1982 16.2754C70.5205 16.7734 71.042 17.0225 71.7627 17.0225C72.4775 17.0225 72.9902 16.7764 73.3008 16.2842C73.6172 15.7861 73.7754 15.0479 73.7754 14.0693C73.7754 13.0967 73.6172 12.3672 73.3008 11.8809C72.9844 11.3945 72.4658 11.1514 71.7451 11.1514C71.0303 11.1514 70.5146 11.3945 70.1982 11.8809C69.8818 12.3613 69.7236 13.0908 69.7236 14.0693ZM76.5176 14.0693C76.5176 15.6689 76.0957 16.9199 75.252 17.8223C74.4082 18.7246 73.2334 19.1758 71.7275 19.1758C70.7842 19.1758 69.9521 18.9707 69.2314 18.5605C68.5107 18.1445 67.957 17.5498 67.5703 16.7764C67.1836 16.0029 66.9902 15.1006 66.9902 14.0693C66.9902 12.4639 67.4092 11.2158 68.2471 10.3252C69.085 9.43457 70.2627 8.98926 71.7803 8.98926C72.7236 8.98926 73.5557 9.19434 74.2764 9.60449C74.9971 10.0146 75.5508 10.6035 75.9375 11.3711C76.3242 12.1387 76.5176 13.0381 76.5176 14.0693ZM84.9727 19L84.4541 17.6641H84.3838C83.9326 18.2324 83.4668 18.6279 82.9863 18.8506C82.5117 19.0674 81.8906 19.1758 81.123 19.1758C80.1797 19.1758 79.4355 18.9062 78.8906 18.3672C78.3516 17.8281 78.082 17.0605 78.082 16.0645C78.082 15.0215 78.4453 14.2539 79.1719 13.7617C79.9043 13.2637 81.0059 12.9883 82.4766 12.9355L84.1816 12.8828V12.4521C84.1816 11.4561 83.6719 10.958 82.6523 10.958C81.8672 10.958 80.9443 11.1953 79.8838 11.6699L78.9961 9.85938C80.127 9.26758 81.3809 8.97168 82.7578 8.97168C84.0762 8.97168 85.0869 9.25879 85.79 9.83301C86.4932 10.4072 86.8447 11.2803 86.8447 12.4521V19H84.9727ZM84.1816 14.4473L83.1445 14.4824C82.3652 14.5059 81.7852 14.6465 81.4043 14.9043C81.0234 15.1621 80.833 15.5547 80.833 16.082C80.833 16.8379 81.2666 17.2158 82.1338 17.2158C82.7549 17.2158 83.25 17.0371 83.6191 16.6797C83.9941 16.3223 84.1816 15.8477 84.1816 15.2559V14.4473ZM96.5742 19L96.2139 17.7432H96.0732C95.7861 18.2002 95.3789 18.5547 94.8516 18.8066C94.3242 19.0527 93.7236 19.1758 93.0498 19.1758C91.8955 19.1758 91.0254 18.8682 90.4395 18.2529C89.8535 17.6318 89.5605 16.7412 89.5605 15.5811V9.17383H92.2412V14.9131C92.2412 15.6221 92.3672 16.1553 92.6191 16.5127C92.8711 16.8643 93.2725 17.04 93.8232 17.04C94.5732 17.04 95.1152 16.791 95.4492 16.293C95.7832 15.7891 95.9502 14.957 95.9502 13.7969V9.17383H98.6309V19H96.5742ZM105.583 17.04C106.052 17.04 106.614 16.9375 107.271 16.7324V18.7275C106.603 19.0264 105.782 19.1758 104.81 19.1758C103.737 19.1758 102.955 18.9062 102.463 18.3672C101.977 17.8223 101.733 17.0078 101.733 15.9238V11.1865H100.45V10.0527L101.927 9.15625L102.7 7.08203H104.414V9.17383H107.165V11.1865H104.414V15.9238C104.414 16.3047 104.52 16.5859 104.73 16.7676C104.947 16.9492 105.231 17.04 105.583 17.04ZM118.336 19H115.655V13.2607C115.655 11.8428 115.128 11.1338 114.073 11.1338C113.323 11.1338 112.781 11.3887 112.447 11.8984C112.113 12.4082 111.946 13.2344 111.946 14.377V19H109.266V5.32422H111.946V8.11035C111.946 8.32715 111.926 8.83691 111.885 9.63965L111.823 10.4307H111.964C112.562 9.46973 113.511 8.98926 114.812 8.98926C115.966 8.98926 116.842 9.2998 117.439 9.9209C118.037 10.542 118.336 11.4326 118.336 12.5928V19ZM127.125 21.8477H119.654V20.6172H127.125V21.8477ZM132.486 19.1758C129.428 19.1758 127.898 17.4971 127.898 14.1396C127.898 12.4697 128.314 11.1953 129.146 10.3164C129.979 9.43164 131.171 8.98926 132.724 8.98926C133.86 8.98926 134.88 9.21191 135.782 9.65723L134.991 11.7314C134.569 11.5615 134.177 11.4238 133.813 11.3184C133.45 11.207 133.087 11.1514 132.724 11.1514C131.329 11.1514 130.632 12.1416 130.632 14.1221C130.632 16.0439 131.329 17.0049 132.724 17.0049C133.239 17.0049 133.717 16.9375 134.156 16.8027C134.596 16.6621 135.035 16.4453 135.475 16.1523V18.4463C135.041 18.7217 134.602 18.9121 134.156 19.0176C133.717 19.123 133.16 19.1758 132.486 19.1758ZM140.44 19H137.76V5.32422H140.44V19ZM143.147 6.63379C143.147 5.76074 143.634 5.32422 144.606 5.32422C145.579 5.32422 146.065 5.76074 146.065 6.63379C146.065 7.0498 145.942 7.375 145.696 7.60938C145.456 7.83789 145.093 7.95215 144.606 7.95215C143.634 7.95215 143.147 7.5127 143.147 6.63379ZM145.942 19H143.262V9.17383H145.942V19ZM152.833 10.8965C152.265 10.8965 151.819 11.0781 151.497 11.4414C151.175 11.7988 150.99 12.3086 150.943 12.9707H154.705C154.693 12.3086 154.521 11.7988 154.187 11.4414C153.853 11.0781 153.401 10.8965 152.833 10.8965ZM153.211 19.1758C151.629 19.1758 150.393 18.7393 149.502 17.8662C148.611 16.9932 148.166 15.7568 148.166 14.1572C148.166 12.5107 148.576 11.2393 149.396 10.3428C150.223 9.44043 151.362 8.98926 152.815 8.98926C154.204 8.98926 155.285 9.38477 156.059 10.1758C156.832 10.9668 157.219 12.0596 157.219 13.4541V14.7549H150.882C150.911 15.5166 151.137 16.1113 151.559 16.5391C151.98 16.9668 152.572 17.1807 153.334 17.1807C153.926 17.1807 154.485 17.1191 155.013 16.9961C155.54 16.873 156.091 16.6768 156.665 16.4072V18.4814C156.196 18.7158 155.695 18.8887 155.162 19C154.629 19.1172 153.979 19.1758 153.211 19.1758ZM168.469 19H165.788V13.2607C165.788 12.5518 165.662 12.0215 165.41 11.6699C165.158 11.3125 164.757 11.1338 164.206 11.1338C163.456 11.1338 162.914 11.3857 162.58 11.8896C162.246 12.3877 162.079 13.2168 162.079 14.377V19H159.398V9.17383H161.446L161.807 10.4307H161.956C162.255 9.95605 162.665 9.59863 163.187 9.3584C163.714 9.1123 164.312 8.98926 164.979 8.98926C166.122 8.98926 166.989 9.2998 167.581 9.9209C168.173 10.5361 168.469 11.4268 168.469 12.5928V19ZM175.368 17.04C175.837 17.04 176.399 16.9375 177.056 16.7324V18.7275C176.388 19.0264 175.567 19.1758 174.595 19.1758C173.522 19.1758 172.74 18.9062 172.248 18.3672C171.762 17.8223 171.519 17.0078 171.519 15.9238V11.1865H170.235V10.0527L171.712 9.15625L172.485 7.08203H174.199V9.17383H176.95V11.1865H174.199V15.9238C174.199 16.3047 174.305 16.5859 174.516 16.7676C174.732 16.9492 175.017 17.04 175.368 17.04ZM185.08 21.8477H177.609V20.6172H185.08V21.8477ZM186.337 6.63379C186.337 5.76074 186.823 5.32422 187.796 5.32422C188.769 5.32422 189.255 5.76074 189.255 6.63379C189.255 7.0498 189.132 7.375 188.886 7.60938C188.646 7.83789 188.282 7.95215 187.796 7.95215C186.823 7.95215 186.337 7.5127 186.337 6.63379ZM189.132 19H186.451V9.17383H189.132V19ZM195.064 19.1758C193.91 19.1758 193.002 18.7275 192.34 17.8311C191.684 16.9346 191.355 15.6924 191.355 14.1045C191.355 12.4932 191.689 11.2393 192.357 10.3428C193.031 9.44043 193.957 8.98926 195.135 8.98926C196.371 8.98926 197.314 9.46973 197.965 10.4307H198.053C197.918 9.69824 197.851 9.04492 197.851 8.4707V5.32422H200.54V19H198.483L197.965 17.7256H197.851C197.241 18.6924 196.312 19.1758 195.064 19.1758ZM196.005 17.04C196.69 17.04 197.191 16.8408 197.508 16.4424C197.83 16.0439 198.006 15.3672 198.035 14.4121V14.1221C198.035 13.0674 197.871 12.3115 197.543 11.8545C197.221 11.3975 196.693 11.1689 195.961 11.1689C195.363 11.1689 194.897 11.4238 194.563 11.9336C194.235 12.4375 194.071 13.1729 194.071 14.1396C194.071 15.1064 194.238 15.833 194.572 16.3193C194.906 16.7998 195.384 17.04 196.005 17.04Z" fill="#1E0D26"/>
<path d="M5.65332 35.9014C4.55501 35.9014 3.68685 36.2682 3.04883 37.002C2.41536 37.7311 2.09863 38.7314 2.09863 40.0029C2.09863 41.3109 2.40397 42.3226 3.01465 43.0381C3.62988 43.749 4.50488 44.1045 5.63965 44.1045C6.33691 44.1045 7.13216 43.9792 8.02539 43.7285V44.7471C7.33268 45.0068 6.47819 45.1367 5.46191 45.1367C3.98991 45.1367 2.85286 44.6901 2.05078 43.7969C1.25326 42.9036 0.854492 41.6344 0.854492 39.9893C0.854492 38.9593 1.0459 38.057 1.42871 37.2822C1.81608 36.5075 2.37207 35.9105 3.09668 35.4912C3.82585 35.0719 4.68262 34.8623 5.66699 34.8623C6.71517 34.8623 7.63118 35.0537 8.41504 35.4365L7.92285 36.4346C7.16634 36.0791 6.40983 35.9014 5.65332 35.9014ZM13.4531 37.3711C13.7858 37.3711 14.0843 37.3984 14.3486 37.4531L14.1914 38.5059C13.8815 38.4375 13.6081 38.4033 13.3711 38.4033C12.765 38.4033 12.2454 38.6494 11.8125 39.1416C11.3841 39.6338 11.1699 40.2467 11.1699 40.9805V45H10.0352V37.5078H10.9717L11.1016 38.8955H11.1562C11.4342 38.4079 11.7692 38.0319 12.1611 37.7676C12.5531 37.5033 12.9837 37.3711 13.4531 37.3711ZM18.915 45.1367C17.8076 45.1367 16.9326 44.7995 16.29 44.125C15.652 43.4505 15.333 42.514 15.333 41.3154C15.333 40.1077 15.6292 39.1484 16.2217 38.4375C16.8187 37.7266 17.6185 37.3711 18.6211 37.3711C19.5599 37.3711 20.3027 37.681 20.8496 38.3008C21.3965 38.916 21.6699 39.7295 21.6699 40.7412V41.459H16.5088C16.5316 42.3385 16.7526 43.0062 17.1719 43.4619C17.5957 43.9176 18.1904 44.1455 18.9561 44.1455C19.7627 44.1455 20.5602 43.9769 21.3486 43.6396V44.6514C20.9476 44.8245 20.5671 44.9476 20.207 45.0205C19.8516 45.098 19.4209 45.1367 18.915 45.1367ZM18.6074 38.3213C18.0059 38.3213 17.5251 38.5173 17.165 38.9092C16.8096 39.3011 16.5999 39.8434 16.5361 40.5361H20.4531C20.4531 39.8206 20.2936 39.2738 19.9746 38.8955C19.6556 38.5127 19.1999 38.3213 18.6074 38.3213ZM28.2188 45L27.9932 43.9336H27.9385C27.5648 44.403 27.1911 44.722 26.8174 44.8906C26.4482 45.0547 25.9857 45.1367 25.4297 45.1367C24.6868 45.1367 24.1035 44.9453 23.6797 44.5625C23.2604 44.1797 23.0508 43.6351 23.0508 42.9287C23.0508 41.4157 24.2607 40.6227 26.6807 40.5498L27.9521 40.5088V40.0439C27.9521 39.4561 27.8245 39.0231 27.5693 38.7451C27.3187 38.4626 26.9154 38.3213 26.3594 38.3213C25.735 38.3213 25.0286 38.5127 24.2402 38.8955L23.8916 38.0273C24.2607 37.8268 24.6641 37.6696 25.1016 37.5557C25.5436 37.4417 25.9857 37.3848 26.4277 37.3848C27.321 37.3848 27.9818 37.583 28.4102 37.9795C28.8431 38.376 29.0596 39.0117 29.0596 39.8867V45H28.2188ZM25.6553 44.2002C26.3617 44.2002 26.9154 44.0065 27.3164 43.6191C27.722 43.2318 27.9248 42.6895 27.9248 41.9922V41.3154L26.79 41.3633C25.8877 41.3952 25.236 41.5365 24.835 41.7871C24.4385 42.0332 24.2402 42.4183 24.2402 42.9424C24.2402 43.3525 24.3633 43.6647 24.6094 43.8789C24.86 44.0931 25.2087 44.2002 25.6553 44.2002ZM33.8242 44.2002C34.0247 44.2002 34.2184 44.1865 34.4053 44.1592C34.5921 44.1273 34.7402 44.0954 34.8496 44.0635V44.9316C34.7266 44.9909 34.5443 45.0387 34.3027 45.0752C34.0658 45.1162 33.8516 45.1367 33.6602 45.1367C32.2109 45.1367 31.4863 44.3734 31.4863 42.8467V38.3896H30.4131V37.8428L31.4863 37.3711L31.9648 35.7715H32.6211V37.5078H34.7949V38.3896H32.6211V42.7988C32.6211 43.25 32.7282 43.5964 32.9424 43.8379C33.1566 44.0794 33.4505 44.2002 33.8242 44.2002ZM39.5186 45.1367C38.4111 45.1367 37.5361 44.7995 36.8936 44.125C36.2555 43.4505 35.9365 42.514 35.9365 41.3154C35.9365 40.1077 36.2327 39.1484 36.8252 38.4375C37.4222 37.7266 38.222 37.3711 39.2246 37.3711C40.1634 37.3711 40.9062 37.681 41.4531 38.3008C42 38.916 42.2734 39.7295 42.2734 40.7412V41.459H37.1123C37.1351 42.3385 37.3561 43.0062 37.7754 43.4619C38.1992 43.9176 38.7939 44.1455 39.5596 44.1455C40.3662 44.1455 41.1637 43.9769 41.9521 43.6396V44.6514C41.5511 44.8245 41.1706 44.9476 40.8105 45.0205C40.4551 45.098 40.0244 45.1367 39.5186 45.1367ZM39.2109 38.3213C38.6094 38.3213 38.1286 38.5173 37.7686 38.9092C37.4131 39.3011 37.2035 39.8434 37.1396 40.5361H41.0566C41.0566 39.8206 40.8971 39.2738 40.5781 38.8955C40.2591 38.5127 39.8034 38.3213 39.2109 38.3213ZM49.3145 43.9951H49.2529C48.7288 44.7562 47.945 45.1367 46.9014 45.1367C45.9215 45.1367 45.1582 44.8018 44.6113 44.1318C44.069 43.4619 43.7979 42.5094 43.7979 41.2744C43.7979 40.0394 44.0713 39.0801 44.6182 38.3965C45.165 37.7129 45.9261 37.3711 46.9014 37.3711C47.9176 37.3711 48.6969 37.7402 49.2393 38.4785H49.3281L49.2803 37.9385L49.2529 37.4121V34.3633H50.3877V45H49.4648L49.3145 43.9951ZM47.0449 44.1865C47.8197 44.1865 48.3802 43.9769 48.7266 43.5576C49.0775 43.1338 49.2529 42.4525 49.2529 41.5137V41.2744C49.2529 40.2126 49.0752 39.4561 48.7197 39.0049C48.3688 38.5492 47.806 38.3213 47.0312 38.3213C46.3659 38.3213 45.8555 38.5811 45.5 39.1006C45.1491 39.6156 44.9736 40.3447 44.9736 41.2881C44.9736 42.2451 45.1491 42.9674 45.5 43.4551C45.8509 43.9427 46.3659 44.1865 47.0449 44.1865ZM62.959 42.7031H61.4756V45H60.3887V42.7031H55.5283V41.7119L60.2725 34.9512H61.4756V41.6709H62.959V42.7031ZM60.3887 41.6709V38.3486C60.3887 37.6969 60.4115 36.9609 60.457 36.1406H60.4023C60.1836 36.5781 59.9785 36.9404 59.7871 37.2275L56.6631 41.6709H60.3887ZM66.8691 44.2002C67.0697 44.2002 67.2633 44.1865 67.4502 44.1592C67.637 44.1273 67.7852 44.0954 67.8945 44.0635V44.9316C67.7715 44.9909 67.5892 45.0387 67.3477 45.0752C67.1107 45.1162 66.8965 45.1367 66.7051 45.1367C65.2559 45.1367 64.5312 44.3734 64.5312 42.8467V38.3896H63.458V37.8428L64.5312 37.3711L65.0098 35.7715H65.666V37.5078H67.8398V38.3896H65.666V42.7988C65.666 43.25 65.7731 43.5964 65.9873 43.8379C66.2015 44.0794 66.4954 44.2002 66.8691 44.2002ZM74.5254 45V40.1533C74.5254 39.5426 74.3864 39.0869 74.1084 38.7861C73.8304 38.4854 73.3952 38.335 72.8027 38.335C72.0143 38.335 71.4378 38.5492 71.0732 38.9775C70.7132 39.4059 70.5332 40.1077 70.5332 41.083V45H69.3984V34.3633H70.5332V37.583C70.5332 37.9704 70.515 38.2917 70.4785 38.5469H70.5469C70.7702 38.1868 71.0869 37.9043 71.4971 37.6992C71.9118 37.4896 72.3835 37.3848 72.9121 37.3848C73.8281 37.3848 74.514 37.6035 74.9697 38.041C75.43 38.474 75.6602 39.1644 75.6602 40.1123V45H74.5254ZM82.9678 45H81.8057V35.0059H87.377V36.0381H82.9678V39.6953H87.1104V40.7275H82.9678V45ZM92.0322 45.1367C90.9248 45.1367 90.0498 44.7995 89.4072 44.125C88.7692 43.4505 88.4502 42.514 88.4502 41.3154C88.4502 40.1077 88.7464 39.1484 89.3389 38.4375C89.9359 37.7266 90.7357 37.3711 91.7383 37.3711C92.6771 37.3711 93.4199 37.681 93.9668 38.3008C94.5137 38.916 94.7871 39.7295 94.7871 40.7412V41.459H89.626C89.6488 42.3385 89.8698 43.0062 90.2891 43.4619C90.7129 43.9176 91.3076 44.1455 92.0732 44.1455C92.8799 44.1455 93.6774 43.9769 94.4658 43.6396V44.6514C94.0648 44.8245 93.6842 44.9476 93.3242 45.0205C92.9688 45.098 92.5381 45.1367 92.0322 45.1367ZM91.7246 38.3213C91.123 38.3213 90.6423 38.5173 90.2822 38.9092C89.9268 39.3011 89.7171 39.8434 89.6533 40.5361H93.5703C93.5703 39.8206 93.4108 39.2738 93.0918 38.8955C92.7728 38.5127 92.3171 38.3213 91.7246 38.3213ZM100.215 37.3848C101.199 37.3848 101.963 37.722 102.505 38.3965C103.052 39.0664 103.325 40.0166 103.325 41.2471C103.325 42.4775 103.049 43.4346 102.498 44.1182C101.951 44.7972 101.19 45.1367 100.215 45.1367C99.7272 45.1367 99.2806 45.0479 98.875 44.8701C98.474 44.6878 98.1367 44.4098 97.8633 44.0361H97.7812L97.542 45H96.7285V34.3633H97.8633V36.9473C97.8633 37.526 97.8451 38.0456 97.8086 38.5059H97.8633C98.3919 37.7585 99.1758 37.3848 100.215 37.3848ZM100.051 38.335C99.276 38.335 98.7178 38.5583 98.376 39.0049C98.0342 39.4469 97.8633 40.1943 97.8633 41.2471C97.8633 42.2998 98.0387 43.054 98.3896 43.5098C98.7406 43.9609 99.3034 44.1865 100.078 44.1865C100.775 44.1865 101.295 43.9336 101.637 43.4277C101.979 42.9173 102.149 42.1859 102.149 41.2334C102.149 40.2581 101.979 39.5312 101.637 39.0527C101.295 38.5742 100.766 38.335 100.051 38.335ZM115.001 45H108.432V44.0225L111.063 41.377C111.866 40.5658 112.394 39.987 112.649 39.6406C112.905 39.2943 113.096 38.957 113.224 38.6289C113.351 38.3008 113.415 37.9476 113.415 37.5693C113.415 37.0361 113.253 36.6146 112.93 36.3047C112.606 35.9902 112.157 35.833 111.583 35.833C111.168 35.833 110.774 35.9014 110.4 36.0381C110.031 36.1748 109.619 36.4232 109.163 36.7832L108.562 36.0107C109.482 35.2451 110.485 34.8623 111.569 34.8623C112.508 34.8623 113.244 35.1038 113.777 35.5869C114.311 36.0654 114.577 36.7103 114.577 37.5215C114.577 38.1549 114.399 38.7816 114.044 39.4014C113.688 40.0212 113.023 40.805 112.048 41.7529L109.86 43.8926V43.9473H115.001V45ZM123.067 39.9893C123.067 41.7165 122.794 43.0062 122.247 43.8584C121.705 44.7106 120.873 45.1367 119.752 45.1367C118.676 45.1367 117.858 44.7015 117.298 43.8311C116.737 42.9561 116.457 41.6755 116.457 39.9893C116.457 38.2484 116.728 36.9564 117.271 36.1133C117.813 35.2702 118.64 34.8486 119.752 34.8486C120.837 34.8486 121.659 35.2884 122.22 36.168C122.785 37.0475 123.067 38.3213 123.067 39.9893ZM117.605 39.9893C117.605 41.443 117.776 42.5026 118.118 43.168C118.46 43.8288 119.005 44.1592 119.752 44.1592C120.508 44.1592 121.055 43.8242 121.393 43.1543C121.734 42.4798 121.905 41.4248 121.905 39.9893C121.905 38.5537 121.734 37.5033 121.393 36.8379C121.055 36.168 120.508 35.833 119.752 35.833C119.005 35.833 118.46 36.1634 118.118 36.8242C117.776 37.4805 117.605 38.5355 117.605 39.9893ZM131.024 45H124.455V44.0225L127.087 41.377C127.889 40.5658 128.418 39.987 128.673 39.6406C128.928 39.2943 129.119 38.957 129.247 38.6289C129.375 38.3008 129.438 37.9476 129.438 37.5693C129.438 37.0361 129.277 36.6146 128.953 36.3047C128.63 35.9902 128.181 35.833 127.606 35.833C127.192 35.833 126.798 35.9014 126.424 36.0381C126.055 36.1748 125.642 36.4232 125.187 36.7832L124.585 36.0107C125.506 35.2451 126.508 34.8623 127.593 34.8623C128.532 34.8623 129.268 35.1038 129.801 35.5869C130.334 36.0654 130.601 36.7103 130.601 37.5215C130.601 38.1549 130.423 38.7816 130.067 39.4014C129.712 40.0212 129.047 40.805 128.071 41.7529L125.884 43.8926V43.9473H131.024V45ZM136.671 45H135.563V37.877C135.563 37.2845 135.582 36.724 135.618 36.1953C135.522 36.291 135.415 36.3913 135.297 36.4961C135.178 36.6009 134.636 37.0452 133.67 37.8291L133.068 37.0498L135.714 35.0059H136.671V45ZM148.319 45H147.212V37.877C147.212 37.2845 147.23 36.724 147.267 36.1953C147.171 36.291 147.064 36.3913 146.945 36.4961C146.827 36.6009 146.285 37.0452 145.318 37.8291L144.717 37.0498L147.362 35.0059H148.319V45ZM156.331 45H155.224V37.877C155.224 37.2845 155.242 36.724 155.278 36.1953C155.183 36.291 155.076 36.3913 154.957 36.4961C154.839 36.6009 154.296 37.0452 153.33 37.8291L152.729 37.0498L155.374 35.0059H156.331V45ZM160.494 44.2754C160.494 43.9701 160.562 43.7399 160.699 43.585C160.84 43.4255 161.041 43.3457 161.301 43.3457C161.565 43.3457 161.77 43.4255 161.916 43.585C162.066 43.7399 162.142 43.9701 162.142 44.2754C162.142 44.5716 162.066 44.7995 161.916 44.959C161.766 45.1185 161.561 45.1982 161.301 45.1982C161.068 45.1982 160.875 45.1276 160.72 44.9863C160.569 44.8405 160.494 44.6035 160.494 44.2754ZM160.494 38.2393C160.494 37.624 160.763 37.3164 161.301 37.3164C161.861 37.3164 162.142 37.624 162.142 38.2393C162.142 38.5355 162.066 38.7633 161.916 38.9229C161.766 39.0824 161.561 39.1621 161.301 39.1621C161.068 39.1621 160.875 39.0915 160.72 38.9502C160.569 38.8044 160.494 38.5674 160.494 38.2393ZM170.912 42.7031H169.429V45H168.342V42.7031H163.481V41.7119L168.226 34.9512H169.429V41.6709H170.912V42.7031ZM168.342 41.6709V38.3486C168.342 37.6969 168.365 36.9609 168.41 36.1406H168.355C168.137 36.5781 167.932 36.9404 167.74 37.2275L164.616 41.6709H168.342ZM175.007 38.8955C176.06 38.8955 176.887 39.1576 177.488 39.6816C178.094 40.2012 178.397 40.9144 178.397 41.8213C178.397 42.8558 178.067 43.667 177.406 44.2549C176.75 44.8428 175.843 45.1367 174.686 45.1367C173.56 45.1367 172.701 44.9567 172.108 44.5967V43.5029C172.427 43.708 172.824 43.8698 173.298 43.9883C173.772 44.1022 174.239 44.1592 174.699 44.1592C175.501 44.1592 176.123 43.9701 176.565 43.5918C177.012 43.2135 177.235 42.6667 177.235 41.9512C177.235 40.5566 176.381 39.8594 174.672 39.8594C174.239 39.8594 173.66 39.9255 172.936 40.0576L172.348 39.6816L172.724 35.0059H177.693V36.0518H173.694L173.441 39.0527C173.965 38.9479 174.487 38.8955 175.007 38.8955ZM185.021 45L184.796 43.9336H184.741C184.368 44.403 183.994 44.722 183.62 44.8906C183.251 45.0547 182.788 45.1367 182.232 45.1367C181.49 45.1367 180.906 44.9453 180.482 44.5625C180.063 44.1797 179.854 43.6351 179.854 42.9287C179.854 41.4157 181.063 40.6227 183.483 40.5498L184.755 40.5088V40.0439C184.755 39.4561 184.627 39.0231 184.372 38.7451C184.121 38.4626 183.718 38.3213 183.162 38.3213C182.538 38.3213 181.831 38.5127 181.043 38.8955L180.694 38.0273C181.063 37.8268 181.467 37.6696 181.904 37.5557C182.346 37.4417 182.788 37.3848 183.23 37.3848C184.124 37.3848 184.785 37.583 185.213 37.9795C185.646 38.376 185.862 39.0117 185.862 39.8867V45H185.021ZM182.458 44.2002C183.164 44.2002 183.718 44.0065 184.119 43.6191C184.525 43.2318 184.728 42.6895 184.728 41.9922V41.3154L183.593 41.3633C182.69 41.3952 182.039 41.5365 181.638 41.7871C181.241 42.0332 181.043 42.4183 181.043 42.9424C181.043 43.3525 181.166 43.6647 181.412 43.8789C181.663 44.0931 182.011 44.2002 182.458 44.2002ZM197.757 45V40.126C197.757 39.529 197.629 39.0824 197.374 38.7861C197.119 38.4854 196.722 38.335 196.185 38.335C195.478 38.335 194.956 38.5378 194.619 38.9434C194.282 39.349 194.113 39.9733 194.113 40.8164V45H192.979V40.126C192.979 39.529 192.851 39.0824 192.596 38.7861C192.34 38.4854 191.942 38.335 191.399 38.335C190.688 38.335 190.167 38.5492 189.834 38.9775C189.506 39.4014 189.342 40.0986 189.342 41.0693V45H188.207V37.5078H189.13L189.314 38.5332H189.369C189.583 38.1686 189.884 37.8838 190.271 37.6787C190.663 37.4736 191.101 37.3711 191.584 37.3711C192.755 37.3711 193.521 37.7949 193.881 38.6426H193.936C194.159 38.2507 194.482 37.9408 194.906 37.7129C195.33 37.485 195.813 37.3711 196.355 37.3711C197.203 37.3711 197.837 37.5898 198.256 38.0273C198.68 38.4603 198.892 39.1553 198.892 40.1123V45H197.757Z" fill="#999999"/>
<path d="M535.836 15.1429C533.425 13.4713 530.484 12.7411 527.571 13.0905C524.658 13.4399 521.973 14.8446 520.026 17.039C518.078 19.2334 517.001 22.0654 517 24.9996L519 25.0005C519.001 22.5554 519.898 20.1954 521.521 18.3667C523.145 16.538 525.382 15.3675 527.809 15.0763C530.237 14.7851 532.687 15.3936 534.697 16.7866C536.707 18.1796 538.136 20.2606 538.715 22.6362C539.295 25.0117 538.983 27.5172 537.841 29.6789C536.698 31.8406 534.803 33.5086 532.513 34.3677C530.224 35.2267 527.699 35.2173 525.416 34.341C523.969 33.7854 522.682 32.9056 521.647 31.7828L525.624 32.8908L526.161 30.9642L518.057 28.7063L519.099 36.9871L521.083 36.7375L520.697 33.669C521.84 34.7642 523.198 35.6316 524.7 36.2082C527.439 37.2597 530.469 37.2711 533.216 36.2402C535.963 35.2093 538.237 33.2076 539.609 30.6136C540.98 28.0196 541.354 25.013 540.658 22.1624C539.963 19.3117 538.248 16.8145 535.836 15.1429Z" fill="#C0BCC2"/>
<path d="M530 18V24H536V26H528V18H530Z" fill="#C0BCC2"/>
<path fill-rule="evenodd" clip-rule="evenodd" d="M583 13H573V17H566V19H590V17H583V13ZM581 17V15H575V17H581Z" fill="#F67055"/>
<path d="M571 34V21H569V34C569 34.7957 569.316 35.5587 569.879 36.1213C570.441 36.6839 571.204 37 572 37H584C584.796 37 585.559 36.6839 586.121 36.1213C586.684 35.5587 587 34.7957 587 34V21H585V34C585 34.2652 584.895 34.5196 584.707 34.7071C584.52 34.8946 584.265 35 584 35H572C571.735 35 571.48 34.8946 571.293 34.7071C571.105 34.5196 571 34.2652 571 34Z" fill="#F67055"/>
<path d="M579 24V32H577V24H579Z" fill="#F67055"/>
<path d="M575 32V24H573V32H575Z" fill="#F67055"/>
<path d="M583 24V32H581V24H583Z" fill="#F67055"/>
<rect x="335" y="10" width="152" height="30" rx="15" fill="#E6E4E7"/>
<path d="M356.295 30H354.688V23.5469C354.688 22.7767 354.707 22.166 354.743 21.7148C354.638 21.8242 354.508 21.945 354.354 22.0771C354.203 22.2093 353.693 22.6286 352.822 23.335L352.016 22.3164L354.955 20.0059H356.295V30ZM364.293 30H362.687V23.5469C362.687 22.7767 362.705 22.166 362.741 21.7148C362.636 21.8242 362.507 21.945 362.352 22.0771C362.201 22.2093 361.691 22.6286 360.82 23.335L360.014 22.3164L362.953 20.0059H364.293V30ZM371.409 30.1367C370.233 30.1367 369.313 29.7949 368.647 29.1113C367.987 28.4232 367.656 27.4775 367.656 26.2744C367.656 25.0394 367.964 24.0687 368.579 23.3623C369.194 22.6559 370.04 22.3027 371.115 22.3027C372.113 22.3027 372.902 22.6058 373.48 23.2119C374.059 23.818 374.349 24.652 374.349 25.7139V26.582H369.311C369.333 27.3158 369.532 27.8809 369.905 28.2773C370.279 28.6693 370.805 28.8652 371.484 28.8652C371.931 28.8652 372.346 28.8242 372.729 28.7422C373.116 28.6556 373.531 28.5143 373.973 28.3184V29.624C373.581 29.8109 373.184 29.943 372.783 30.0205C372.382 30.098 371.924 30.1367 371.409 30.1367ZM371.115 23.5195C370.605 23.5195 370.195 23.6813 369.885 24.0049C369.579 24.3285 369.397 24.8001 369.338 25.4199H372.77C372.76 24.7956 372.61 24.3239 372.318 24.0049C372.027 23.6813 371.626 23.5195 371.115 23.5195ZM380.036 22.3027C380.979 22.3027 381.713 22.6445 382.237 23.3281C382.766 24.0117 383.03 24.971 383.03 26.2061C383.03 27.4456 382.764 28.4118 382.23 29.1045C381.697 29.7926 380.957 30.1367 380.009 30.1367C379.052 30.1367 378.309 29.7926 377.78 29.1045H377.671L377.377 30H376.174V19.3633H377.78V21.8926C377.78 22.0794 377.771 22.3574 377.753 22.7266C377.735 23.0957 377.721 23.3304 377.712 23.4307H377.78C378.291 22.6787 379.043 22.3027 380.036 22.3027ZM379.619 23.6152C378.972 23.6152 378.505 23.8066 378.218 24.1895C377.935 24.5677 377.789 25.2035 377.78 26.0967V26.2061C377.78 27.1266 377.926 27.7943 378.218 28.209C378.509 28.6191 378.986 28.8242 379.646 28.8242C380.216 28.8242 380.647 28.5986 380.938 28.1475C381.235 27.6963 381.383 27.0446 381.383 26.1924C381.383 24.4743 380.795 23.6152 379.619 23.6152ZM384.24 26.9307V25.5635H387.754V26.9307H384.24ZM394.139 30L393.817 28.9473H393.763C393.398 29.4076 393.031 29.722 392.662 29.8906C392.293 30.0547 391.819 30.1367 391.24 30.1367C390.497 30.1367 389.916 29.9362 389.497 29.5352C389.082 29.1341 388.875 28.5667 388.875 27.833C388.875 27.0537 389.164 26.4658 389.743 26.0693C390.322 25.6729 391.204 25.4564 392.389 25.4199L393.694 25.3789V24.9756C393.694 24.4925 393.58 24.1325 393.353 23.8955C393.129 23.654 392.781 23.5332 392.307 23.5332C391.919 23.5332 391.548 23.5902 391.192 23.7041C390.837 23.818 390.495 23.9525 390.167 24.1074L389.647 22.959C390.058 22.7448 390.507 22.583 390.994 22.4736C391.482 22.3597 391.942 22.3027 392.375 22.3027C393.337 22.3027 394.061 22.5124 394.549 22.9316C395.041 23.3509 395.287 24.0094 395.287 24.9072V30H394.139ZM391.746 28.9062C392.329 28.9062 392.797 28.7445 393.147 28.4209C393.503 28.0928 393.681 27.6348 393.681 27.0469V26.3906L392.71 26.4316C391.953 26.459 391.402 26.5866 391.056 26.8145C390.714 27.0378 390.543 27.3818 390.543 27.8467C390.543 28.1839 390.643 28.446 390.844 28.6328C391.044 28.8151 391.345 28.9062 391.746 28.9062ZM400.831 30.1367C399.655 30.1367 398.735 29.7949 398.069 29.1113C397.409 28.4232 397.078 27.4775 397.078 26.2744C397.078 25.0394 397.386 24.0687 398.001 23.3623C398.616 22.6559 399.462 22.3027 400.537 22.3027C401.535 22.3027 402.324 22.6058 402.902 23.2119C403.481 23.818 403.771 24.652 403.771 25.7139V26.582H398.732C398.755 27.3158 398.953 27.8809 399.327 28.2773C399.701 28.6693 400.227 28.8652 400.906 28.8652C401.353 28.8652 401.768 28.8242 402.15 28.7422C402.538 28.6556 402.952 28.5143 403.395 28.3184V29.624C403.003 29.8109 402.606 29.943 402.205 30.0205C401.804 30.098 401.346 30.1367 400.831 30.1367ZM400.537 23.5195C400.027 23.5195 399.617 23.6813 399.307 24.0049C399.001 24.3285 398.819 24.8001 398.76 25.4199H402.191C402.182 24.7956 402.032 24.3239 401.74 24.0049C401.449 23.6813 401.048 23.5195 400.537 23.5195ZM411.823 24.2715C411.823 26.2402 411.427 27.71 410.634 28.6807C409.841 29.6514 408.647 30.1367 407.052 30.1367C406.446 30.1367 406.01 30.1003 405.746 30.0273V28.6807C406.152 28.7946 406.56 28.8516 406.97 28.8516C408.054 28.8516 408.863 28.5599 409.396 27.9766C409.93 27.3932 410.221 26.4772 410.271 25.2285H410.189C409.921 25.6387 409.595 25.9349 409.212 26.1172C408.834 26.2995 408.389 26.3906 407.879 26.3906C406.995 26.3906 406.3 26.1149 405.794 25.5635C405.288 25.012 405.035 24.2555 405.035 23.2939C405.035 22.2503 405.327 21.4209 405.91 20.8057C406.498 20.1859 407.298 19.876 408.31 19.876C409.021 19.876 409.64 20.0492 410.169 20.3955C410.698 20.7419 411.105 21.2454 411.393 21.9062C411.68 22.5625 411.823 23.3509 411.823 24.2715ZM408.337 21.209C407.781 21.209 407.355 21.3913 407.059 21.7559C406.762 22.1159 406.614 22.624 406.614 23.2803C406.614 23.8499 406.751 24.2988 407.024 24.627C407.302 24.9505 407.722 25.1123 408.282 25.1123C408.825 25.1123 409.28 24.9505 409.649 24.627C410.019 24.3034 410.203 23.9251 410.203 23.4922C410.203 23.0866 410.123 22.7083 409.964 22.3574C409.809 22.002 409.59 21.7217 409.308 21.5166C409.025 21.3115 408.701 21.209 408.337 21.209ZM419.459 22.3027C419.459 22.9362 419.274 23.4648 418.905 23.8887C418.536 24.3079 418.017 24.5905 417.347 24.7363V24.791C418.149 24.8913 418.75 25.1419 419.151 25.543C419.552 25.9395 419.753 26.4681 419.753 27.1289C419.753 28.0905 419.413 28.8333 418.734 29.3574C418.055 29.877 417.089 30.1367 415.836 30.1367C414.729 30.1367 413.794 29.9567 413.033 29.5967V28.168C413.457 28.3776 413.906 28.5394 414.38 28.6533C414.854 28.7673 415.31 28.8242 415.747 28.8242C416.522 28.8242 417.101 28.6807 417.483 28.3936C417.866 28.1064 418.058 27.6621 418.058 27.0605C418.058 26.5273 417.846 26.1354 417.422 25.8848C416.998 25.6341 416.333 25.5088 415.426 25.5088H414.558V24.2031H415.439C417.035 24.2031 417.832 23.6517 417.832 22.5488C417.832 22.1204 417.693 21.79 417.415 21.5576C417.137 21.3252 416.727 21.209 416.185 21.209C415.806 21.209 415.442 21.2637 415.091 21.373C414.74 21.4779 414.325 21.6852 413.847 21.9951L413.061 20.874C413.977 20.1995 415.041 19.8623 416.253 19.8623C417.26 19.8623 418.046 20.0788 418.611 20.5117C419.176 20.9447 419.459 21.5417 419.459 22.3027ZM420.936 26.9307V25.5635H424.449V26.9307H420.936ZM432.345 25.0029C432.345 26.7393 432.064 28.029 431.504 28.8721C430.948 29.7152 430.096 30.1367 428.947 30.1367C427.835 30.1367 426.992 29.7015 426.418 28.8311C425.844 27.9606 425.557 26.6846 425.557 25.0029C425.557 23.2393 425.835 21.9404 426.391 21.1064C426.951 20.2679 427.803 19.8486 428.947 19.8486C430.064 19.8486 430.909 20.2861 431.483 21.1611C432.058 22.0361 432.345 23.3167 432.345 25.0029ZM427.184 25.0029C427.184 26.3656 427.323 27.3385 427.601 27.9219C427.883 28.5052 428.332 28.7969 428.947 28.7969C429.562 28.7969 430.011 28.5007 430.294 27.9082C430.581 27.3158 430.725 26.3473 430.725 25.0029C430.725 23.6631 430.581 22.6947 430.294 22.0977C430.011 21.4961 429.562 21.1953 428.947 21.1953C428.332 21.1953 427.883 21.4893 427.601 22.0771C427.323 22.665 427.184 23.6403 427.184 25.0029ZM440.343 30H433.568V28.7832L436.146 26.1924C436.907 25.4131 437.41 24.8617 437.656 24.5381C437.907 24.21 438.089 23.9023 438.203 23.6152C438.317 23.3281 438.374 23.0205 438.374 22.6924C438.374 22.2412 438.237 21.8857 437.964 21.626C437.695 21.3662 437.321 21.2363 436.843 21.2363C436.46 21.2363 436.089 21.307 435.729 21.4482C435.373 21.5895 434.961 21.8447 434.491 22.2139L433.623 21.1543C434.179 20.6849 434.719 20.3522 435.243 20.1562C435.767 19.9603 436.326 19.8623 436.918 19.8623C437.848 19.8623 438.593 20.1061 439.153 20.5938C439.714 21.0768 439.994 21.7285 439.994 22.5488C439.994 23 439.912 23.4284 439.748 23.834C439.589 24.2396 439.34 24.6589 439.003 25.0918C438.67 25.5202 438.114 26.1012 437.335 26.835L435.599 28.5166V28.585H440.343V30ZM448.696 27.8193H447.35V30H445.784V27.8193H441.218V26.582L445.784 19.9785H447.35V26.4863H448.696V27.8193ZM445.784 26.4863V23.9775C445.784 23.0843 445.807 22.3529 445.853 21.7832H445.798C445.67 22.084 445.47 22.4486 445.196 22.877L442.715 26.4863H445.784ZM456.339 30H449.564V28.7832L452.142 26.1924C452.903 25.4131 453.406 24.8617 453.652 24.5381C453.903 24.21 454.085 23.9023 454.199 23.6152C454.313 23.3281 454.37 23.0205 454.37 22.6924C454.37 22.2412 454.233 21.8857 453.96 21.626C453.691 21.3662 453.317 21.2363 452.839 21.2363C452.456 21.2363 452.085 21.307 451.725 21.4482C451.369 21.5895 450.957 21.8447 450.487 22.2139L449.619 21.1543C450.175 20.6849 450.715 20.3522 451.239 20.1562C451.763 19.9603 452.322 19.8623 452.914 19.8623C453.844 19.8623 454.589 20.1061 455.149 20.5938C455.71 21.0768 455.99 21.7285 455.99 22.5488C455.99 23 455.908 23.4284 455.744 23.834C455.585 24.2396 455.336 24.6589 454.999 25.0918C454.666 25.5202 454.11 26.1012 453.331 26.835L451.595 28.5166V28.585H456.339V30ZM462.826 30L462.505 28.9473H462.45C462.086 29.4076 461.719 29.722 461.35 29.8906C460.98 30.0547 460.507 30.1367 459.928 30.1367C459.185 30.1367 458.604 29.9362 458.185 29.5352C457.77 29.1341 457.562 28.5667 457.562 27.833C457.562 27.0537 457.852 26.4658 458.431 26.0693C459.009 25.6729 459.891 25.4564 461.076 25.4199L462.382 25.3789V24.9756C462.382 24.4925 462.268 24.1325 462.04 23.8955C461.817 23.654 461.468 23.5332 460.994 23.5332C460.607 23.5332 460.235 23.5902 459.88 23.7041C459.524 23.818 459.183 23.9525 458.854 24.1074L458.335 22.959C458.745 22.7448 459.194 22.583 459.682 22.4736C460.169 22.3597 460.63 22.3027 461.062 22.3027C462.024 22.3027 462.749 22.5124 463.236 22.9316C463.729 23.3509 463.975 24.0094 463.975 24.9072V30H462.826ZM460.434 28.9062C461.017 28.9062 461.484 28.7445 461.835 28.4209C462.19 28.0928 462.368 27.6348 462.368 27.0469V26.3906L461.397 26.4316C460.641 26.459 460.09 26.5866 459.743 26.8145C459.401 27.0378 459.23 27.3818 459.23 27.8467C459.23 28.1839 459.331 28.446 459.531 28.6328C459.732 28.8151 460.033 28.9062 460.434 28.9062ZM469.266 30.1367C468.122 30.1367 467.251 29.804 466.654 29.1387C466.062 28.4688 465.766 27.5094 465.766 26.2607C465.766 24.9893 466.076 24.0117 466.695 23.3281C467.32 22.6445 468.22 22.3027 469.396 22.3027C470.193 22.3027 470.911 22.4508 471.549 22.7471L471.063 24.0391C470.384 23.7747 469.824 23.6426 469.382 23.6426C468.074 23.6426 467.42 24.5107 467.42 26.2471C467.42 27.0947 467.582 27.7327 467.905 28.1611C468.233 28.585 468.712 28.7969 469.341 28.7969C470.056 28.7969 470.733 28.6191 471.371 28.2637V29.665C471.084 29.8337 470.776 29.9544 470.448 30.0273C470.125 30.1003 469.73 30.1367 469.266 30.1367Z" fill="#1E0D26"/>
<path fill-rule="evenodd" clip-rule="evenodd" d="M590 66H0V65H590V66Z" fill="#F2F2F2"/>
</svg>
