<svg width="590" height="65" viewBox="0 0 590 65" fill="none" xmlns="http://www.w3.org/2000/svg">
<path d="M9.95801 9.17383V10.5361L8.41992 10.9316C8.70117 11.3711 8.8418 11.8633 8.8418 12.4082C8.8418 13.4629 8.47266 14.2861 7.73438 14.8779C7.00195 15.4639 5.98242 15.7568 4.67578 15.7568L4.19238 15.7305L3.79688 15.6865C3.52148 15.8975 3.38379 16.1318 3.38379 16.3896C3.38379 16.7764 3.87598 16.9697 4.86035 16.9697H6.53027C7.6084 16.9697 8.42871 17.2012 8.99121 17.6641C9.55957 18.127 9.84375 18.8066 9.84375 19.7031C9.84375 20.8516 9.36328 21.7422 8.40234 22.375C7.44727 23.0078 6.07324 23.3242 4.28027 23.3242C2.90918 23.3242 1.86035 23.084 1.13379 22.6035C0.413086 22.1289 0.0527344 21.4609 0.0527344 20.5996C0.0527344 20.0078 0.237305 19.5127 0.606445 19.1143C0.975586 18.7158 1.51758 18.4316 2.23242 18.2617C1.95703 18.1445 1.7168 17.9541 1.51172 17.6904C1.30664 17.4209 1.2041 17.1367 1.2041 16.8379C1.2041 16.4629 1.3125 16.1523 1.5293 15.9062C1.74609 15.6543 2.05957 15.4082 2.46973 15.168C1.9541 14.9453 1.54395 14.5879 1.23926 14.0957C0.94043 13.6035 0.791016 13.0234 0.791016 12.3555C0.791016 11.2832 1.13965 10.4541 1.83691 9.86816C2.53418 9.28223 3.53027 8.98926 4.8252 8.98926C5.10059 8.98926 5.42578 9.01562 5.80078 9.06836C6.18164 9.11523 6.4248 9.15039 6.53027 9.17383H9.95801ZM2.37305 20.3887C2.37305 20.7578 2.54883 21.0479 2.90039 21.2588C3.25781 21.4697 3.75586 21.5752 4.39453 21.5752C5.35547 21.5752 6.1084 21.4434 6.65332 21.1797C7.19824 20.916 7.4707 20.5557 7.4707 20.0986C7.4707 19.7295 7.30957 19.4746 6.9873 19.334C6.66504 19.1934 6.16699 19.123 5.49316 19.123H4.10449C3.6123 19.123 3.19922 19.2373 2.86523 19.4658C2.53711 19.7002 2.37305 20.0078 2.37305 20.3887ZM3.34863 12.3906C3.34863 12.9238 3.46875 13.3457 3.70898 13.6562C3.95508 13.9668 4.32715 14.1221 4.8252 14.1221C5.3291 14.1221 5.69824 13.9668 5.93262 13.6562C6.16699 13.3457 6.28418 12.9238 6.28418 12.3906C6.28418 11.207 5.79785 10.6152 4.8252 10.6152C3.84082 10.6152 3.34863 11.207 3.34863 12.3906ZM15.7236 17.04C16.1924 17.04 16.7549 16.9375 17.4111 16.7324V18.7275C16.7432 19.0264 15.9229 19.1758 14.9502 19.1758C13.8779 19.1758 13.0957 18.9062 12.6035 18.3672C12.1172 17.8223 11.874 17.0078 11.874 15.9238V11.1865H10.5908V10.0527L12.0674 9.15625L12.8408 7.08203H14.5547V9.17383H17.3057V11.1865H14.5547V15.9238C14.5547 16.3047 14.6602 16.5859 14.8711 16.7676C15.0879 16.9492 15.3721 17.04 15.7236 17.04ZM25.6465 19L25.1279 17.6641H25.0576C24.6064 18.2324 24.1406 18.6279 23.6602 18.8506C23.1855 19.0674 22.5645 19.1758 21.7969 19.1758C20.8535 19.1758 20.1094 18.9062 19.5645 18.3672C19.0254 17.8281 18.7559 17.0605 18.7559 16.0645C18.7559 15.0215 19.1191 14.2539 19.8457 13.7617C20.5781 13.2637 21.6797 12.9883 23.1504 12.9355L24.8555 12.8828V12.4521C24.8555 11.4561 24.3457 10.958 23.3262 10.958C22.541 10.958 21.6182 11.1953 20.5576 11.6699L19.6699 9.85938C20.8008 9.26758 22.0547 8.97168 23.4316 8.97168C24.75 8.97168 25.7607 9.25879 26.4639 9.83301C27.167 10.4072 27.5186 11.2803 27.5186 12.4521V19H25.6465ZM24.8555 14.4473L23.8184 14.4824C23.0391 14.5059 22.459 14.6465 22.0781 14.9043C21.6973 15.1621 21.5068 15.5547 21.5068 16.082C21.5068 16.8379 21.9404 17.2158 22.8076 17.2158C23.4287 17.2158 23.9238 17.0371 24.293 16.6797C24.668 16.3223 24.8555 15.8477 24.8555 15.2559V14.4473ZM38.8389 9.17383V10.5361L37.3008 10.9316C37.582 11.3711 37.7227 11.8633 37.7227 12.4082C37.7227 13.4629 37.3535 14.2861 36.6152 14.8779C35.8828 15.4639 34.8633 15.7568 33.5566 15.7568L33.0732 15.7305L32.6777 15.6865C32.4023 15.8975 32.2646 16.1318 32.2646 16.3896C32.2646 16.7764 32.7568 16.9697 33.7412 16.9697H35.4111C36.4893 16.9697 37.3096 17.2012 37.8721 17.6641C38.4404 18.127 38.7246 18.8066 38.7246 19.7031C38.7246 20.8516 38.2441 21.7422 37.2832 22.375C36.3281 23.0078 34.9541 23.3242 33.1611 23.3242C31.79 23.3242 30.7412 23.084 30.0146 22.6035C29.2939 22.1289 28.9336 21.4609 28.9336 20.5996C28.9336 20.0078 29.1182 19.5127 29.4873 19.1143C29.8564 18.7158 30.3984 18.4316 31.1133 18.2617C30.8379 18.1445 30.5977 17.9541 30.3926 17.6904C30.1875 17.4209 30.085 17.1367 30.085 16.8379C30.085 16.4629 30.1934 16.1523 30.4102 15.9062C30.627 15.6543 30.9404 15.4082 31.3506 15.168C30.835 14.9453 30.4248 14.5879 30.1201 14.0957C29.8213 13.6035 29.6719 13.0234 29.6719 12.3555C29.6719 11.2832 30.0205 10.4541 30.7178 9.86816C31.415 9.28223 32.4111 8.98926 33.7061 8.98926C33.9814 8.98926 34.3066 9.01562 34.6816 9.06836C35.0625 9.11523 35.3057 9.15039 35.4111 9.17383H38.8389ZM31.2539 20.3887C31.2539 20.7578 31.4297 21.0479 31.7812 21.2588C32.1387 21.4697 32.6367 21.5752 33.2754 21.5752C34.2363 21.5752 34.9893 21.4434 35.5342 21.1797C36.0791 20.916 36.3516 20.5557 36.3516 20.0986C36.3516 19.7295 36.1904 19.4746 35.8682 19.334C35.5459 19.1934 35.0479 19.123 34.374 19.123H32.9854C32.4932 19.123 32.0801 19.2373 31.7461 19.4658C31.418 19.7002 31.2539 20.0078 31.2539 20.3887ZM32.2295 12.3906C32.2295 12.9238 32.3496 13.3457 32.5898 13.6562C32.8359 13.9668 33.208 14.1221 33.7061 14.1221C34.21 14.1221 34.5791 13.9668 34.8135 13.6562C35.0479 13.3457 35.165 12.9238 35.165 12.3906C35.165 11.207 34.6787 10.6152 33.7061 10.6152C32.7217 10.6152 32.2295 11.207 32.2295 12.3906ZM46.4941 21.8477H39.0234V20.6172H46.4941V21.8477ZM47.751 6.63379C47.751 5.76074 48.2373 5.32422 49.21 5.32422C50.1826 5.32422 50.6689 5.76074 50.6689 6.63379C50.6689 7.0498 50.5459 7.375 50.2998 7.60938C50.0596 7.83789 49.6963 7.95215 49.21 7.95215C48.2373 7.95215 47.751 7.5127 47.751 6.63379ZM50.5459 19H47.8652V9.17383H50.5459V19ZM56.4785 19.1758C55.3242 19.1758 54.416 18.7275 53.7539 17.8311C53.0977 16.9346 52.7695 15.6924 52.7695 14.1045C52.7695 12.4932 53.1035 11.2393 53.7715 10.3428C54.4453 9.44043 55.3711 8.98926 56.5488 8.98926C57.7852 8.98926 58.7285 9.46973 59.3789 10.4307H59.4668C59.332 9.69824 59.2646 9.04492 59.2646 8.4707V5.32422H61.9541V19H59.8975L59.3789 17.7256H59.2646C58.6553 18.6924 57.7266 19.1758 56.4785 19.1758ZM57.4189 17.04C58.1045 17.04 58.6055 16.8408 58.9219 16.4424C59.2441 16.0439 59.4199 15.3672 59.4492 14.4121V14.1221C59.4492 13.0674 59.2852 12.3115 58.957 11.8545C58.6348 11.3975 58.1074 11.1689 57.375 11.1689C56.7773 11.1689 56.3115 11.4238 55.9775 11.9336C55.6494 12.4375 55.4854 13.1729 55.4854 14.1396C55.4854 15.1064 55.6523 15.833 55.9863 16.3193C56.3203 16.7998 56.7979 17.04 57.4189 17.04Z" fill="#1E0D26"/>
<path d="M5.65332 35.9014C4.55501 35.9014 3.68685 36.2682 3.04883 37.002C2.41536 37.7311 2.09863 38.7314 2.09863 40.0029C2.09863 41.3109 2.40397 42.3226 3.01465 43.0381C3.62988 43.749 4.50488 44.1045 5.63965 44.1045C6.33691 44.1045 7.13216 43.9792 8.02539 43.7285V44.7471C7.33268 45.0068 6.47819 45.1367 5.46191 45.1367C3.98991 45.1367 2.85286 44.6901 2.05078 43.7969C1.25326 42.9036 0.854492 41.6344 0.854492 39.9893C0.854492 38.9593 1.0459 38.057 1.42871 37.2822C1.81608 36.5075 2.37207 35.9105 3.09668 35.4912C3.82585 35.0719 4.68262 34.8623 5.66699 34.8623C6.71517 34.8623 7.63118 35.0537 8.41504 35.4365L7.92285 36.4346C7.16634 36.0791 6.40983 35.9014 5.65332 35.9014ZM13.4531 37.3711C13.7858 37.3711 14.0843 37.3984 14.3486 37.4531L14.1914 38.5059C13.8815 38.4375 13.6081 38.4033 13.3711 38.4033C12.765 38.4033 12.2454 38.6494 11.8125 39.1416C11.3841 39.6338 11.1699 40.2467 11.1699 40.9805V45H10.0352V37.5078H10.9717L11.1016 38.8955H11.1562C11.4342 38.4079 11.7692 38.0319 12.1611 37.7676C12.5531 37.5033 12.9837 37.3711 13.4531 37.3711ZM18.915 45.1367C17.8076 45.1367 16.9326 44.7995 16.29 44.125C15.652 43.4505 15.333 42.514 15.333 41.3154C15.333 40.1077 15.6292 39.1484 16.2217 38.4375C16.8187 37.7266 17.6185 37.3711 18.6211 37.3711C19.5599 37.3711 20.3027 37.681 20.8496 38.3008C21.3965 38.916 21.6699 39.7295 21.6699 40.7412V41.459H16.5088C16.5316 42.3385 16.7526 43.0062 17.1719 43.4619C17.5957 43.9176 18.1904 44.1455 18.9561 44.1455C19.7627 44.1455 20.5602 43.9769 21.3486 43.6396V44.6514C20.9476 44.8245 20.5671 44.9476 20.207 45.0205C19.8516 45.098 19.4209 45.1367 18.915 45.1367ZM18.6074 38.3213C18.0059 38.3213 17.5251 38.5173 17.165 38.9092C16.8096 39.3011 16.5999 39.8434 16.5361 40.5361H20.4531C20.4531 39.8206 20.2936 39.2738 19.9746 38.8955C19.6556 38.5127 19.1999 38.3213 18.6074 38.3213ZM28.2188 45L27.9932 43.9336H27.9385C27.5648 44.403 27.1911 44.722 26.8174 44.8906C26.4482 45.0547 25.9857 45.1367 25.4297 45.1367C24.6868 45.1367 24.1035 44.9453 23.6797 44.5625C23.2604 44.1797 23.0508 43.6351 23.0508 42.9287C23.0508 41.4157 24.2607 40.6227 26.6807 40.5498L27.9521 40.5088V40.0439C27.9521 39.4561 27.8245 39.0231 27.5693 38.7451C27.3187 38.4626 26.9154 38.3213 26.3594 38.3213C25.735 38.3213 25.0286 38.5127 24.2402 38.8955L23.8916 38.0273C24.2607 37.8268 24.6641 37.6696 25.1016 37.5557C25.5436 37.4417 25.9857 37.3848 26.4277 37.3848C27.321 37.3848 27.9818 37.583 28.4102 37.9795C28.8431 38.376 29.0596 39.0117 29.0596 39.8867V45H28.2188ZM25.6553 44.2002C26.3617 44.2002 26.9154 44.0065 27.3164 43.6191C27.722 43.2318 27.9248 42.6895 27.9248 41.9922V41.3154L26.79 41.3633C25.8877 41.3952 25.236 41.5365 24.835 41.7871C24.4385 42.0332 24.2402 42.4183 24.2402 42.9424C24.2402 43.3525 24.3633 43.6647 24.6094 43.8789C24.86 44.0931 25.2087 44.2002 25.6553 44.2002ZM33.8242 44.2002C34.0247 44.2002 34.2184 44.1865 34.4053 44.1592C34.5921 44.1273 34.7402 44.0954 34.8496 44.0635V44.9316C34.7266 44.9909 34.5443 45.0387 34.3027 45.0752C34.0658 45.1162 33.8516 45.1367 33.6602 45.1367C32.2109 45.1367 31.4863 44.3734 31.4863 42.8467V38.3896H30.4131V37.8428L31.4863 37.3711L31.9648 35.7715H32.6211V37.5078H34.7949V38.3896H32.6211V42.7988C32.6211 43.25 32.7282 43.5964 32.9424 43.8379C33.1566 44.0794 33.4505 44.2002 33.8242 44.2002ZM39.5186 45.1367C38.4111 45.1367 37.5361 44.7995 36.8936 44.125C36.2555 43.4505 35.9365 42.514 35.9365 41.3154C35.9365 40.1077 36.2327 39.1484 36.8252 38.4375C37.4222 37.7266 38.222 37.3711 39.2246 37.3711C40.1634 37.3711 40.9062 37.681 41.4531 38.3008C42 38.916 42.2734 39.7295 42.2734 40.7412V41.459H37.1123C37.1351 42.3385 37.3561 43.0062 37.7754 43.4619C38.1992 43.9176 38.7939 44.1455 39.5596 44.1455C40.3662 44.1455 41.1637 43.9769 41.9521 43.6396V44.6514C41.5511 44.8245 41.1706 44.9476 40.8105 45.0205C40.4551 45.098 40.0244 45.1367 39.5186 45.1367ZM39.2109 38.3213C38.6094 38.3213 38.1286 38.5173 37.7686 38.9092C37.4131 39.3011 37.2035 39.8434 37.1396 40.5361H41.0566C41.0566 39.8206 40.8971 39.2738 40.5781 38.8955C40.2591 38.5127 39.8034 38.3213 39.2109 38.3213ZM49.3145 43.9951H49.2529C48.7288 44.7562 47.945 45.1367 46.9014 45.1367C45.9215 45.1367 45.1582 44.8018 44.6113 44.1318C44.069 43.4619 43.7979 42.5094 43.7979 41.2744C43.7979 40.0394 44.0713 39.0801 44.6182 38.3965C45.165 37.7129 45.9261 37.3711 46.9014 37.3711C47.9176 37.3711 48.6969 37.7402 49.2393 38.4785H49.3281L49.2803 37.9385L49.2529 37.4121V34.3633H50.3877V45H49.4648L49.3145 43.9951ZM47.0449 44.1865C47.8197 44.1865 48.3802 43.9769 48.7266 43.5576C49.0775 43.1338 49.2529 42.4525 49.2529 41.5137V41.2744C49.2529 40.2126 49.0752 39.4561 48.7197 39.0049C48.3688 38.5492 47.806 38.3213 47.0312 38.3213C46.3659 38.3213 45.8555 38.5811 45.5 39.1006C45.1491 39.6156 44.9736 40.3447 44.9736 41.2881C44.9736 42.2451 45.1491 42.9674 45.5 43.4551C45.8509 43.9427 46.3659 44.1865 47.0449 44.1865ZM62.959 42.7031H61.4756V45H60.3887V42.7031H55.5283V41.7119L60.2725 34.9512H61.4756V41.6709H62.959V42.7031ZM60.3887 41.6709V38.3486C60.3887 37.6969 60.4115 36.9609 60.457 36.1406H60.4023C60.1836 36.5781 59.9785 36.9404 59.7871 37.2275L56.6631 41.6709H60.3887ZM66.8691 44.2002C67.0697 44.2002 67.2633 44.1865 67.4502 44.1592C67.637 44.1273 67.7852 44.0954 67.8945 44.0635V44.9316C67.7715 44.9909 67.5892 45.0387 67.3477 45.0752C67.1107 45.1162 66.8965 45.1367 66.7051 45.1367C65.2559 45.1367 64.5312 44.3734 64.5312 42.8467V38.3896H63.458V37.8428L64.5312 37.3711L65.0098 35.7715H65.666V37.5078H67.8398V38.3896H65.666V42.7988C65.666 43.25 65.7731 43.5964 65.9873 43.8379C66.2015 44.0794 66.4954 44.2002 66.8691 44.2002ZM74.5254 45V40.1533C74.5254 39.5426 74.3864 39.0869 74.1084 38.7861C73.8304 38.4854 73.3952 38.335 72.8027 38.335C72.0143 38.335 71.4378 38.5492 71.0732 38.9775C70.7132 39.4059 70.5332 40.1077 70.5332 41.083V45H69.3984V34.3633H70.5332V37.583C70.5332 37.9704 70.515 38.2917 70.4785 38.5469H70.5469C70.7702 38.1868 71.0869 37.9043 71.4971 37.6992C71.9118 37.4896 72.3835 37.3848 72.9121 37.3848C73.8281 37.3848 74.514 37.6035 74.9697 38.041C75.43 38.474 75.6602 39.1644 75.6602 40.1123V45H74.5254ZM82.9678 45H81.8057V35.0059H87.377V36.0381H82.9678V39.6953H87.1104V40.7275H82.9678V45ZM92.0322 45.1367C90.9248 45.1367 90.0498 44.7995 89.4072 44.125C88.7692 43.4505 88.4502 42.514 88.4502 41.3154C88.4502 40.1077 88.7464 39.1484 89.3389 38.4375C89.9359 37.7266 90.7357 37.3711 91.7383 37.3711C92.6771 37.3711 93.4199 37.681 93.9668 38.3008C94.5137 38.916 94.7871 39.7295 94.7871 40.7412V41.459H89.626C89.6488 42.3385 89.8698 43.0062 90.2891 43.4619C90.7129 43.9176 91.3076 44.1455 92.0732 44.1455C92.8799 44.1455 93.6774 43.9769 94.4658 43.6396V44.6514C94.0648 44.8245 93.6842 44.9476 93.3242 45.0205C92.9688 45.098 92.5381 45.1367 92.0322 45.1367ZM91.7246 38.3213C91.123 38.3213 90.6423 38.5173 90.2822 38.9092C89.9268 39.3011 89.7171 39.8434 89.6533 40.5361H93.5703C93.5703 39.8206 93.4108 39.2738 93.0918 38.8955C92.7728 38.5127 92.3171 38.3213 91.7246 38.3213ZM100.215 37.3848C101.199 37.3848 101.963 37.722 102.505 38.3965C103.052 39.0664 103.325 40.0166 103.325 41.2471C103.325 42.4775 103.049 43.4346 102.498 44.1182C101.951 44.7972 101.19 45.1367 100.215 45.1367C99.7272 45.1367 99.2806 45.0479 98.875 44.8701C98.474 44.6878 98.1367 44.4098 97.8633 44.0361H97.7812L97.542 45H96.7285V34.3633H97.8633V36.9473C97.8633 37.526 97.8451 38.0456 97.8086 38.5059H97.8633C98.3919 37.7585 99.1758 37.3848 100.215 37.3848ZM100.051 38.335C99.276 38.335 98.7178 38.5583 98.376 39.0049C98.0342 39.4469 97.8633 40.1943 97.8633 41.2471C97.8633 42.2998 98.0387 43.054 98.3896 43.5098C98.7406 43.9609 99.3034 44.1865 100.078 44.1865C100.775 44.1865 101.295 43.9336 101.637 43.4277C101.979 42.9173 102.149 42.1859 102.149 41.2334C102.149 40.2581 101.979 39.5312 101.637 39.0527C101.295 38.5742 100.766 38.335 100.051 38.335ZM115.001 45H108.432V44.0225L111.063 41.377C111.866 40.5658 112.394 39.987 112.649 39.6406C112.905 39.2943 113.096 38.957 113.224 38.6289C113.351 38.3008 113.415 37.9476 113.415 37.5693C113.415 37.0361 113.253 36.6146 112.93 36.3047C112.606 35.9902 112.157 35.833 111.583 35.833C111.168 35.833 110.774 35.9014 110.4 36.0381C110.031 36.1748 109.619 36.4232 109.163 36.7832L108.562 36.0107C109.482 35.2451 110.485 34.8623 111.569 34.8623C112.508 34.8623 113.244 35.1038 113.777 35.5869C114.311 36.0654 114.577 36.7103 114.577 37.5215C114.577 38.1549 114.399 38.7816 114.044 39.4014C113.688 40.0212 113.023 40.805 112.048 41.7529L109.86 43.8926V43.9473H115.001V45ZM123.067 39.9893C123.067 41.7165 122.794 43.0062 122.247 43.8584C121.705 44.7106 120.873 45.1367 119.752 45.1367C118.676 45.1367 117.858 44.7015 117.298 43.8311C116.737 42.9561 116.457 41.6755 116.457 39.9893C116.457 38.2484 116.728 36.9564 117.271 36.1133C117.813 35.2702 118.64 34.8486 119.752 34.8486C120.837 34.8486 121.659 35.2884 122.22 36.168C122.785 37.0475 123.067 38.3213 123.067 39.9893ZM117.605 39.9893C117.605 41.443 117.776 42.5026 118.118 43.168C118.46 43.8288 119.005 44.1592 119.752 44.1592C120.508 44.1592 121.055 43.8242 121.393 43.1543C121.734 42.4798 121.905 41.4248 121.905 39.9893C121.905 38.5537 121.734 37.5033 121.393 36.8379C121.055 36.168 120.508 35.833 119.752 35.833C119.005 35.833 118.46 36.1634 118.118 36.8242C117.776 37.4805 117.605 38.5355 117.605 39.9893ZM131.024 45H124.455V44.0225L127.087 41.377C127.889 40.5658 128.418 39.987 128.673 39.6406C128.928 39.2943 129.119 38.957 129.247 38.6289C129.375 38.3008 129.438 37.9476 129.438 37.5693C129.438 37.0361 129.277 36.6146 128.953 36.3047C128.63 35.9902 128.181 35.833 127.606 35.833C127.192 35.833 126.798 35.9014 126.424 36.0381C126.055 36.1748 125.642 36.4232 125.187 36.7832L124.585 36.0107C125.506 35.2451 126.508 34.8623 127.593 34.8623C128.532 34.8623 129.268 35.1038 129.801 35.5869C130.334 36.0654 130.601 36.7103 130.601 37.5215C130.601 38.1549 130.423 38.7816 130.067 39.4014C129.712 40.0212 129.047 40.805 128.071 41.7529L125.884 43.8926V43.9473H131.024V45ZM136.671 45H135.563V37.877C135.563 37.2845 135.582 36.724 135.618 36.1953C135.522 36.291 135.415 36.3913 135.297 36.4961C135.178 36.6009 134.636 37.0452 133.67 37.8291L133.068 37.0498L135.714 35.0059H136.671V45ZM148.319 45H147.212V37.877C147.212 37.2845 147.23 36.724 147.267 36.1953C147.171 36.291 147.064 36.3913 146.945 36.4961C146.827 36.6009 146.285 37.0452 145.318 37.8291L144.717 37.0498L147.362 35.0059H148.319V45ZM156.331 45H155.224V37.877C155.224 37.2845 155.242 36.724 155.278 36.1953C155.183 36.291 155.076 36.3913 154.957 36.4961C154.839 36.6009 154.296 37.0452 153.33 37.8291L152.729 37.0498L155.374 35.0059H156.331V45ZM160.494 44.2754C160.494 43.9701 160.562 43.7399 160.699 43.585C160.84 43.4255 161.041 43.3457 161.301 43.3457C161.565 43.3457 161.77 43.4255 161.916 43.585C162.066 43.7399 162.142 43.9701 162.142 44.2754C162.142 44.5716 162.066 44.7995 161.916 44.959C161.766 45.1185 161.561 45.1982 161.301 45.1982C161.068 45.1982 160.875 45.1276 160.72 44.9863C160.569 44.8405 160.494 44.6035 160.494 44.2754ZM160.494 38.2393C160.494 37.624 160.763 37.3164 161.301 37.3164C161.861 37.3164 162.142 37.624 162.142 38.2393C162.142 38.5355 162.066 38.7633 161.916 38.9229C161.766 39.0824 161.561 39.1621 161.301 39.1621C161.068 39.1621 160.875 39.0915 160.72 38.9502C160.569 38.8044 160.494 38.5674 160.494 38.2393ZM170.912 42.7031H169.429V45H168.342V42.7031H163.481V41.7119L168.226 34.9512H169.429V41.6709H170.912V42.7031ZM168.342 41.6709V38.3486C168.342 37.6969 168.365 36.9609 168.41 36.1406H168.355C168.137 36.5781 167.932 36.9404 167.74 37.2275L164.616 41.6709H168.342ZM175.007 38.8955C176.06 38.8955 176.887 39.1576 177.488 39.6816C178.094 40.2012 178.397 40.9144 178.397 41.8213C178.397 42.8558 178.067 43.667 177.406 44.2549C176.75 44.8428 175.843 45.1367 174.686 45.1367C173.56 45.1367 172.701 44.9567 172.108 44.5967V43.5029C172.427 43.708 172.824 43.8698 173.298 43.9883C173.772 44.1022 174.239 44.1592 174.699 44.1592C175.501 44.1592 176.123 43.9701 176.565 43.5918C177.012 43.2135 177.235 42.6667 177.235 41.9512C177.235 40.5566 176.381 39.8594 174.672 39.8594C174.239 39.8594 173.66 39.9255 172.936 40.0576L172.348 39.6816L172.724 35.0059H177.693V36.0518H173.694L173.441 39.0527C173.965 38.9479 174.487 38.8955 175.007 38.8955ZM185.021 45L184.796 43.9336H184.741C184.368 44.403 183.994 44.722 183.62 44.8906C183.251 45.0547 182.788 45.1367 182.232 45.1367C181.49 45.1367 180.906 44.9453 180.482 44.5625C180.063 44.1797 179.854 43.6351 179.854 42.9287C179.854 41.4157 181.063 40.6227 183.483 40.5498L184.755 40.5088V40.0439C184.755 39.4561 184.627 39.0231 184.372 38.7451C184.121 38.4626 183.718 38.3213 183.162 38.3213C182.538 38.3213 181.831 38.5127 181.043 38.8955L180.694 38.0273C181.063 37.8268 181.467 37.6696 181.904 37.5557C182.346 37.4417 182.788 37.3848 183.23 37.3848C184.124 37.3848 184.785 37.583 185.213 37.9795C185.646 38.376 185.862 39.0117 185.862 39.8867V45H185.021ZM182.458 44.2002C183.164 44.2002 183.718 44.0065 184.119 43.6191C184.525 43.2318 184.728 42.6895 184.728 41.9922V41.3154L183.593 41.3633C182.69 41.3952 182.039 41.5365 181.638 41.7871C181.241 42.0332 181.043 42.4183 181.043 42.9424C181.043 43.3525 181.166 43.6647 181.412 43.8789C181.663 44.0931 182.011 44.2002 182.458 44.2002ZM197.757 45V40.126C197.757 39.529 197.629 39.0824 197.374 38.7861C197.119 38.4854 196.722 38.335 196.185 38.335C195.478 38.335 194.956 38.5378 194.619 38.9434C194.282 39.349 194.113 39.9733 194.113 40.8164V45H192.979V40.126C192.979 39.529 192.851 39.0824 192.596 38.7861C192.34 38.4854 191.942 38.335 191.399 38.335C190.688 38.335 190.167 38.5492 189.834 38.9775C189.506 39.4014 189.342 40.0986 189.342 41.0693V45H188.207V37.5078H189.13L189.314 38.5332H189.369C189.583 38.1686 189.884 37.8838 190.271 37.6787C190.663 37.4736 191.101 37.3711 191.584 37.3711C192.755 37.3711 193.521 37.7949 193.881 38.6426H193.936C194.159 38.2507 194.482 37.9408 194.906 37.7129C195.33 37.485 195.813 37.3711 196.355 37.3711C197.203 37.3711 197.837 37.5898 198.256 38.0273C198.68 38.4603 198.892 39.1553 198.892 40.1123V45H197.757Z" fill="#999999"/>
<path d="M535.836 15.1429C533.425 13.4713 530.484 12.7411 527.571 13.0905C524.658 13.4399 521.973 14.8446 520.026 17.039C518.078 19.2334 517.001 22.0654 517 24.9996L519 25.0005C519.001 22.5554 519.898 20.1954 521.521 18.3667C523.145 16.538 525.382 15.3675 527.809 15.0763C530.237 14.7851 532.687 15.3936 534.697 16.7866C536.707 18.1796 538.136 20.2606 538.715 22.6362C539.295 25.0117 538.983 27.5172 537.841 29.6789C536.698 31.8406 534.803 33.5086 532.513 34.3677C530.224 35.2267 527.699 35.2173 525.416 34.341C523.969 33.7854 522.682 32.9056 521.647 31.7828L525.624 32.8908L526.161 30.9642L518.057 28.7063L519.099 36.9871L521.083 36.7375L520.697 33.669C521.84 34.7642 523.198 35.6316 524.7 36.2082C527.439 37.2597 530.469 37.2711 533.216 36.2402C535.963 35.2093 538.237 33.2076 539.609 30.6136C540.98 28.0196 541.354 25.013 540.658 22.1624C539.963 19.3117 538.248 16.8145 535.836 15.1429Z" fill="#C0BCC2"/>
<path d="M530 18V24H536V26H528V18H530Z" fill="#C0BCC2"/>
<path fill-rule="evenodd" clip-rule="evenodd" d="M583 13H573V17H566V19H590V17H583V13ZM581 17V15H575V17H581Z" fill="#F67055"/>
<path d="M571 34V21H569V34C569 34.7957 569.316 35.5587 569.879 36.1213C570.441 36.6839 571.204 37 572 37H584C584.796 37 585.559 36.6839 586.121 36.1213C586.684 35.5587 587 34.7957 587 34V21H585V34C585 34.2652 584.895 34.5196 584.707 34.7071C584.52 34.8946 584.265 35 584 35H572C571.735 35 571.48 34.8946 571.293 34.7071C571.105 34.5196 571 34.2652 571 34Z" fill="#F67055"/>
<path d="M579 24V32H577V24H579Z" fill="#F67055"/>
<path d="M575 32V24H573V32H575Z" fill="#F67055"/>
<path d="M583 24V32H581V24H583Z" fill="#F67055"/>
<rect x="298" y="10" width="189" height="30" rx="15" fill="#7B51FB"/>
<path d="M318.868 22.3027C319.812 22.3027 320.545 22.6445 321.069 23.3281C321.598 24.0117 321.862 24.971 321.862 26.2061C321.862 27.4456 321.596 28.4118 321.062 29.1045C320.529 29.7926 319.789 30.1367 318.841 30.1367C317.884 30.1367 317.141 29.7926 316.612 29.1045H316.503L316.209 30H315.006V19.3633H316.612V21.8926C316.612 22.0794 316.603 22.3574 316.585 22.7266C316.567 23.0957 316.553 23.3304 316.544 23.4307H316.612C317.123 22.6787 317.875 22.3027 318.868 22.3027ZM318.451 23.6152C317.804 23.6152 317.337 23.8066 317.05 24.1895C316.767 24.5677 316.621 25.2035 316.612 26.0967V26.2061C316.612 27.1266 316.758 27.7943 317.05 28.209C317.341 28.6191 317.818 28.8242 318.479 28.8242C319.048 28.8242 319.479 28.5986 319.771 28.1475C320.067 27.6963 320.215 27.0446 320.215 26.1924C320.215 24.4743 319.627 23.6152 318.451 23.6152ZM326.572 19.876C327.52 19.876 328.27 20.0947 328.821 20.5322C329.373 20.9652 329.648 21.5462 329.648 22.2754C329.648 23.3008 329.033 24.1165 327.803 24.7227C328.587 25.1146 329.143 25.527 329.471 25.96C329.803 26.3929 329.97 26.876 329.97 27.4092C329.97 28.234 329.667 28.8949 329.061 29.3916C328.454 29.8883 327.634 30.1367 326.6 30.1367C325.515 30.1367 324.674 29.9043 324.077 29.4395C323.48 28.9746 323.182 28.3161 323.182 27.4639C323.182 26.9079 323.337 26.4089 323.646 25.9668C323.961 25.5202 324.474 25.1237 325.185 24.7773C324.574 24.4128 324.139 24.0277 323.879 23.6221C323.619 23.2165 323.489 22.7607 323.489 22.2549C323.489 21.5303 323.774 20.9538 324.344 20.5254C324.913 20.0924 325.656 19.876 326.572 19.876ZM324.72 27.4092C324.72 27.8831 324.886 28.2523 325.219 28.5166C325.551 28.7764 326.003 28.9062 326.572 28.9062C327.16 28.9062 327.616 28.7718 327.939 28.5029C328.268 28.2295 328.432 27.8604 328.432 27.3955C328.432 27.0264 328.281 26.6891 327.98 26.3838C327.68 26.0785 327.224 25.7959 326.613 25.5361L326.415 25.4473C325.813 25.7116 325.381 26.0033 325.116 26.3223C324.852 26.6367 324.72 26.999 324.72 27.4092ZM326.559 21.1133C326.103 21.1133 325.736 21.2272 325.458 21.4551C325.18 21.6784 325.041 21.9837 325.041 22.3711C325.041 22.6081 325.091 22.82 325.191 23.0068C325.292 23.1937 325.438 23.3646 325.629 23.5195C325.82 23.6699 326.144 23.8522 326.6 24.0664C327.146 23.8249 327.532 23.5719 327.755 23.3076C327.983 23.0387 328.097 22.7266 328.097 22.3711C328.097 21.9837 327.955 21.6784 327.673 21.4551C327.395 21.2272 327.023 21.1133 326.559 21.1133ZM334.584 23.7588C335.591 23.7588 336.389 24.0254 336.977 24.5586C337.564 25.0918 337.858 25.8187 337.858 26.7393C337.858 27.8057 337.523 28.6396 336.854 29.2412C336.188 29.8382 335.24 30.1367 334.01 30.1367C332.893 30.1367 332.016 29.9567 331.378 29.5967V28.1406C331.747 28.3503 332.171 28.512 332.649 28.626C333.128 28.7399 333.572 28.7969 333.982 28.7969C334.707 28.7969 335.258 28.6351 335.637 28.3115C336.015 27.988 336.204 27.514 336.204 26.8896C336.204 25.6956 335.443 25.0986 333.921 25.0986C333.707 25.0986 333.442 25.1214 333.128 25.167C332.813 25.208 332.538 25.2559 332.301 25.3105L331.583 24.8867L331.966 20.0059H337.161V21.4346H333.381L333.155 23.9092C333.315 23.8818 333.508 23.8499 333.736 23.8135C333.969 23.777 334.251 23.7588 334.584 23.7588ZM345.59 22.3027C345.59 22.9362 345.405 23.4648 345.036 23.8887C344.667 24.3079 344.147 24.5905 343.478 24.7363V24.791C344.28 24.8913 344.881 25.1419 345.282 25.543C345.683 25.9395 345.884 26.4681 345.884 27.1289C345.884 28.0905 345.544 28.8333 344.865 29.3574C344.186 29.877 343.22 30.1367 341.967 30.1367C340.859 30.1367 339.925 29.9567 339.164 29.5967V28.168C339.588 28.3776 340.037 28.5394 340.511 28.6533C340.985 28.7673 341.44 28.8242 341.878 28.8242C342.653 28.8242 343.231 28.6807 343.614 28.3936C343.997 28.1064 344.188 27.6621 344.188 27.0605C344.188 26.5273 343.977 26.1354 343.553 25.8848C343.129 25.6341 342.464 25.5088 341.557 25.5088H340.688V24.2031H341.57C343.165 24.2031 343.963 23.6517 343.963 22.5488C343.963 22.1204 343.824 21.79 343.546 21.5576C343.268 21.3252 342.858 21.209 342.315 21.209C341.937 21.209 341.573 21.2637 341.222 21.373C340.871 21.4779 340.456 21.6852 339.978 21.9951L339.191 20.874C340.107 20.1995 341.172 19.8623 342.384 19.8623C343.391 19.8623 344.177 20.0788 344.742 20.5117C345.307 20.9447 345.59 21.5417 345.59 22.3027ZM353.95 24.2715C353.95 26.2402 353.554 27.71 352.761 28.6807C351.968 29.6514 350.774 30.1367 349.179 30.1367C348.573 30.1367 348.137 30.1003 347.873 30.0273V28.6807C348.279 28.7946 348.687 28.8516 349.097 28.8516C350.181 28.8516 350.99 28.5599 351.523 27.9766C352.057 27.3932 352.348 26.4772 352.398 25.2285H352.316C352.048 25.6387 351.722 25.9349 351.339 26.1172C350.961 26.2995 350.516 26.3906 350.006 26.3906C349.122 26.3906 348.427 26.1149 347.921 25.5635C347.415 25.012 347.162 24.2555 347.162 23.2939C347.162 22.2503 347.454 21.4209 348.037 20.8057C348.625 20.1859 349.425 19.876 350.437 19.876C351.147 19.876 351.767 20.0492 352.296 20.3955C352.825 20.7419 353.232 21.2454 353.52 21.9062C353.807 22.5625 353.95 23.3509 353.95 24.2715ZM350.464 21.209C349.908 21.209 349.482 21.3913 349.186 21.7559C348.889 22.1159 348.741 22.624 348.741 23.2803C348.741 23.8499 348.878 24.2988 349.151 24.627C349.429 24.9505 349.849 25.1123 350.409 25.1123C350.951 25.1123 351.407 24.9505 351.776 24.627C352.146 24.3034 352.33 23.9251 352.33 23.4922C352.33 23.0866 352.25 22.7083 352.091 22.3574C351.936 22.002 351.717 21.7217 351.435 21.5166C351.152 21.3115 350.828 21.209 350.464 21.209ZM356.322 30L360.273 21.4346H355.078V20.0195H361.989V21.1406L358.059 30H356.322ZM370.315 27.8193H368.969V30H367.403V27.8193H362.837V26.582L367.403 19.9785H368.969V26.4863H370.315V27.8193ZM367.403 26.4863V23.9775C367.403 23.0843 367.426 22.3529 367.472 21.7832H367.417C367.289 22.084 367.089 22.4486 366.815 22.877L364.334 26.4863H367.403ZM374.766 30.1367C373.622 30.1367 372.751 29.804 372.154 29.1387C371.562 28.4688 371.266 27.5094 371.266 26.2607C371.266 24.9893 371.576 24.0117 372.195 23.3281C372.82 22.6445 373.72 22.3027 374.896 22.3027C375.693 22.3027 376.411 22.4508 377.049 22.7471L376.563 24.0391C375.884 23.7747 375.324 23.6426 374.882 23.6426C373.574 23.6426 372.92 24.5107 372.92 26.2471C372.92 27.0947 373.082 27.7327 373.405 28.1611C373.733 28.585 374.212 28.7969 374.841 28.7969C375.556 28.7969 376.233 28.6191 376.871 28.2637V29.665C376.584 29.8337 376.276 29.9544 375.948 30.0273C375.625 30.1003 375.23 30.1367 374.766 30.1367ZM377.992 26.9307V25.5635H381.506V26.9307H377.992ZM382.654 25.7412C382.654 21.8311 384.247 19.876 387.433 19.876C387.934 19.876 388.358 19.9147 388.704 19.9922V21.332C388.358 21.2318 387.957 21.1816 387.501 21.1816C386.43 21.1816 385.626 21.4688 385.088 22.043C384.55 22.6172 384.258 23.5378 384.213 24.8047H384.295C384.509 24.4355 384.81 24.1507 385.197 23.9502C385.585 23.7451 386.04 23.6426 386.564 23.6426C387.471 23.6426 388.178 23.9206 388.684 24.4766C389.189 25.0326 389.442 25.7868 389.442 26.7393C389.442 27.7874 389.148 28.6169 388.561 29.2275C387.977 29.8337 387.18 30.1367 386.168 30.1367C385.452 30.1367 384.83 29.9658 384.302 29.624C383.773 29.2777 383.365 28.7764 383.078 28.1201C382.796 27.4593 382.654 26.6663 382.654 25.7412ZM386.141 28.8105C386.692 28.8105 387.116 28.6328 387.412 28.2773C387.713 27.9219 387.863 27.4137 387.863 26.7529C387.863 26.1787 387.722 25.7275 387.439 25.3994C387.161 25.0713 386.742 24.9072 386.182 24.9072C385.835 24.9072 385.516 24.9824 385.225 25.1328C384.933 25.2786 384.703 25.4814 384.534 25.7412C384.366 25.9964 384.281 26.2585 384.281 26.5273C384.281 27.1699 384.454 27.7122 384.801 28.1543C385.152 28.5918 385.598 28.8105 386.141 28.8105ZM394.016 23.7588C395.023 23.7588 395.82 24.0254 396.408 24.5586C396.996 25.0918 397.29 25.8187 397.29 26.7393C397.29 27.8057 396.955 28.6396 396.285 29.2412C395.62 29.8382 394.672 30.1367 393.441 30.1367C392.325 30.1367 391.448 29.9567 390.81 29.5967V28.1406C391.179 28.3503 391.603 28.512 392.081 28.626C392.56 28.7399 393.004 28.7969 393.414 28.7969C394.139 28.7969 394.69 28.6351 395.068 28.3115C395.447 27.988 395.636 27.514 395.636 26.8896C395.636 25.6956 394.875 25.0986 393.353 25.0986C393.138 25.0986 392.874 25.1214 392.56 25.167C392.245 25.208 391.969 25.2559 391.732 25.3105L391.015 24.8867L391.397 20.0059H396.593V21.4346H392.812L392.587 23.9092C392.746 23.8818 392.94 23.8499 393.168 23.8135C393.4 23.777 393.683 23.7588 394.016 23.7588ZM402.014 23.7588C403.021 23.7588 403.818 24.0254 404.406 24.5586C404.994 25.0918 405.288 25.8187 405.288 26.7393C405.288 27.8057 404.953 28.6396 404.283 29.2412C403.618 29.8382 402.67 30.1367 401.439 30.1367C400.323 30.1367 399.446 29.9567 398.808 29.5967V28.1406C399.177 28.3503 399.601 28.512 400.079 28.626C400.558 28.7399 401.002 28.7969 401.412 28.7969C402.137 28.7969 402.688 28.6351 403.066 28.3115C403.445 27.988 403.634 27.514 403.634 26.8896C403.634 25.6956 402.873 25.0986 401.351 25.0986C401.136 25.0986 400.872 25.1214 400.558 25.167C400.243 25.208 399.967 25.2559 399.73 25.3105L399.013 24.8867L399.396 20.0059H404.591V21.4346H400.811L400.585 23.9092C400.744 23.8818 400.938 23.8499 401.166 23.8135C401.398 23.777 401.681 23.7588 402.014 23.7588ZM413.382 24.2715C413.382 26.2402 412.985 27.71 412.192 28.6807C411.399 29.6514 410.205 30.1367 408.61 30.1367C408.004 30.1367 407.569 30.1003 407.305 30.0273V28.6807C407.71 28.7946 408.118 28.8516 408.528 28.8516C409.613 28.8516 410.422 28.5599 410.955 27.9766C411.488 27.3932 411.78 26.4772 411.83 25.2285H411.748C411.479 25.6387 411.153 25.9349 410.771 26.1172C410.392 26.2995 409.948 26.3906 409.438 26.3906C408.553 26.3906 407.858 26.1149 407.353 25.5635C406.847 25.012 406.594 24.2555 406.594 23.2939C406.594 22.2503 406.885 21.4209 407.469 20.8057C408.057 20.1859 408.856 19.876 409.868 19.876C410.579 19.876 411.199 20.0492 411.728 20.3955C412.256 20.7419 412.664 21.2454 412.951 21.9062C413.238 22.5625 413.382 23.3509 413.382 24.2715ZM409.896 21.209C409.34 21.209 408.913 21.3913 408.617 21.7559C408.321 22.1159 408.173 22.624 408.173 23.2803C408.173 23.8499 408.31 24.2988 408.583 24.627C408.861 24.9505 409.28 25.1123 409.841 25.1123C410.383 25.1123 410.839 24.9505 411.208 24.627C411.577 24.3034 411.762 23.9251 411.762 23.4922C411.762 23.0866 411.682 22.7083 411.522 22.3574C411.368 22.002 411.149 21.7217 410.866 21.5166C410.584 21.3115 410.26 21.209 409.896 21.209ZM414.496 26.9307V25.5635H418.01V26.9307H414.496ZM423.848 30H422.241V23.5469C422.241 22.7767 422.259 22.166 422.296 21.7148C422.191 21.8242 422.061 21.945 421.906 22.0771C421.756 22.2093 421.245 22.6286 420.375 23.335L419.568 22.3164L422.508 20.0059H423.848V30ZM431.846 30H430.239V23.5469C430.239 22.7767 430.257 22.166 430.294 21.7148C430.189 21.8242 430.059 21.945 429.904 22.0771C429.754 22.2093 429.243 22.6286 428.373 23.335L427.566 22.3164L430.506 20.0059H431.846V30ZM438.962 30.1367C437.786 30.1367 436.866 29.7949 436.2 29.1113C435.539 28.4232 435.209 27.4775 435.209 26.2744C435.209 25.0394 435.517 24.0687 436.132 23.3623C436.747 22.6559 437.592 22.3027 438.668 22.3027C439.666 22.3027 440.454 22.6058 441.033 23.2119C441.612 23.818 441.901 24.652 441.901 25.7139V26.582H436.863C436.886 27.3158 437.084 27.8809 437.458 28.2773C437.832 28.6693 438.358 28.8652 439.037 28.8652C439.484 28.8652 439.898 28.8242 440.281 28.7422C440.669 28.6556 441.083 28.5143 441.525 28.3184V29.624C441.133 29.8109 440.737 29.943 440.336 30.0205C439.935 30.098 439.477 30.1367 438.962 30.1367ZM438.668 23.5195C438.158 23.5195 437.747 23.6813 437.438 24.0049C437.132 24.3285 436.95 24.8001 436.891 25.4199H440.322C440.313 24.7956 440.163 24.3239 439.871 24.0049C439.579 23.6813 439.178 23.5195 438.668 23.5195ZM447.589 22.3027C448.532 22.3027 449.266 22.6445 449.79 23.3281C450.319 24.0117 450.583 24.971 450.583 26.2061C450.583 27.4456 450.316 28.4118 449.783 29.1045C449.25 29.7926 448.509 30.1367 447.562 30.1367C446.604 30.1367 445.862 29.7926 445.333 29.1045H445.224L444.93 30H443.727V19.3633H445.333V21.8926C445.333 22.0794 445.324 22.3574 445.306 22.7266C445.287 23.0957 445.274 23.3304 445.265 23.4307H445.333C445.843 22.6787 446.595 22.3027 447.589 22.3027ZM447.172 23.6152C446.525 23.6152 446.058 23.8066 445.771 24.1895C445.488 24.5677 445.342 25.2035 445.333 26.0967V26.2061C445.333 27.1266 445.479 27.7943 445.771 28.209C446.062 28.6191 446.538 28.8242 447.199 28.8242C447.769 28.8242 448.2 28.5986 448.491 28.1475C448.787 27.6963 448.936 27.0446 448.936 26.1924C448.936 24.4743 448.348 23.6152 447.172 23.6152ZM451.793 26.9307V25.5635H455.307V26.9307H451.793ZM461.691 30L461.37 28.9473H461.315C460.951 29.4076 460.584 29.722 460.215 29.8906C459.846 30.0547 459.372 30.1367 458.793 30.1367C458.05 30.1367 457.469 29.9362 457.05 29.5352C456.635 29.1341 456.428 28.5667 456.428 27.833C456.428 27.0537 456.717 26.4658 457.296 26.0693C457.875 25.6729 458.757 25.4564 459.941 25.4199L461.247 25.3789V24.9756C461.247 24.4925 461.133 24.1325 460.905 23.8955C460.682 23.654 460.333 23.5332 459.859 23.5332C459.472 23.5332 459.101 23.5902 458.745 23.7041C458.39 23.818 458.048 23.9525 457.72 24.1074L457.2 22.959C457.61 22.7448 458.059 22.583 458.547 22.4736C459.035 22.3597 459.495 22.3027 459.928 22.3027C460.889 22.3027 461.614 22.5124 462.102 22.9316C462.594 23.3509 462.84 24.0094 462.84 24.9072V30H461.691ZM459.299 28.9062C459.882 28.9062 460.349 28.7445 460.7 28.4209C461.056 28.0928 461.233 27.6348 461.233 27.0469V26.3906L460.263 26.4316C459.506 26.459 458.955 26.5866 458.608 26.8145C458.267 27.0378 458.096 27.3818 458.096 27.8467C458.096 28.1839 458.196 28.446 458.396 28.6328C458.597 28.8151 458.898 28.9062 459.299 28.9062ZM468.384 30.1367C467.208 30.1367 466.287 29.7949 465.622 29.1113C464.961 28.4232 464.631 27.4775 464.631 26.2744C464.631 25.0394 464.938 24.0687 465.554 23.3623C466.169 22.6559 467.014 22.3027 468.09 22.3027C469.088 22.3027 469.876 22.6058 470.455 23.2119C471.034 23.818 471.323 24.652 471.323 25.7139V26.582H466.285C466.308 27.3158 466.506 27.8809 466.88 28.2773C467.254 28.6693 467.78 28.8652 468.459 28.8652C468.906 28.8652 469.32 28.8242 469.703 28.7422C470.09 28.6556 470.505 28.5143 470.947 28.3184V29.624C470.555 29.8109 470.159 29.943 469.758 30.0205C469.357 30.098 468.899 30.1367 468.384 30.1367ZM468.09 23.5195C467.579 23.5195 467.169 23.6813 466.859 24.0049C466.554 24.3285 466.372 24.8001 466.312 25.4199H469.744C469.735 24.7956 469.585 24.3239 469.293 24.0049C469.001 23.6813 468.6 23.5195 468.09 23.5195Z" fill="white"/>
<path fill-rule="evenodd" clip-rule="evenodd" d="M590 65H0V64H590V65Z" fill="#F2F2F2"/>
</svg>
