<svg width="710" height="470" viewBox="0 0 710 470" fill="none" xmlns="http://www.w3.org/2000/svg">
<rect width="710" height="470" rx="10" fill="white"/>
<rect x="560" y="429" width="120" height="12" rx="6" fill="#E6E4E7"/>
<rect x="480" y="429" width="60" height="12" rx="6" fill="#E6E4E7"/>
<rect x="60" width="180" height="470" fill="#F6F3EE"/>
<circle cx="91" cy="435" r="11" fill="#DFD8CC"/>
<rect x="112" y="431" width="88" height="8" rx="4" fill="#DFD8CC"/>
<rect x="80" y="27" width="110" height="16" rx="8" fill="#DFD8CC"/>
<path d="M0 10C0 4.47715 4.47715 0 10 0H60V470H10C4.47715 470 0 465.523 0 460V10Z" fill="#22194D"/>
<path d="M29 79V86H31V79H38V77H31V70H29V77H22V79H29Z" fill="white"/>
<rect x="12" y="106" width="36" height="36" rx="4" fill="#7B51FB"/>
<path d="M28.9453 130L25.2188 119.269H25.1484C25.248 120.862 25.2979 122.356 25.2979 123.751V130H23.3906V117.15H26.3525L29.9209 127.372H29.9736L33.6475 117.15H36.6182V130H34.5967V123.646C34.5967 123.007 34.6113 122.175 34.6406 121.149C34.6758 120.124 34.7051 119.503 34.7285 119.286H34.6582L30.7998 130H28.9453Z" fill="white"/>
<path d="M21.059 17.8472C14.9096 19.6232 14.1863 24.316 15.6344 29.2222C15.6489 29.2177 15.665 29.2145 15.6812 29.2113C15.7177 29.204 15.7544 29.1967 15.7731 29.174C18.2205 26.2331 21.4064 25.1055 25.1196 25.1035C28.87 25.1018 32.625 25.0661 36.3694 24.8745C39.4102 24.719 41.8171 23.5232 43.5067 20.975C44.5396 19.4171 45.1292 17.0612 44.976 17.0487C44.6972 17.0264 32.4996 16.9529 26.6093 17.0459C24.9956 17.0713 22.6184 17.3968 21.059 17.8472Z" fill="white"/>
<path d="M24.4088 28.1111L34.4445 28.1293V34.8128H24.4088V47C19.2048 46.955 15 42.7442 15 37.5556C15 32.3668 19.2048 28.1562 24.4088 28.1111Z" fill="white"/>
<circle cx="350" cy="35" r="10" fill="#0AC2A3"/>
<rect x="370" y="31" width="50" height="8" rx="4" fill="#E6E4E7"/>
<circle cx="460" cy="35" r="10" fill="#0AC2A3"/>
<rect x="480" y="31" width="50" height="8" rx="4" fill="#E6E4E7"/>
<rect x="560" y="20" width="120" height="30" rx="4" fill="#E6E4E7"/>
<path fill-rule="evenodd" clip-rule="evenodd" d="M653.293 32.7071L654.707 31.2928L660 36.5857L665.293 31.2928L666.707 32.7071L660 39.4142L653.293 32.7071Z" fill="#C0BCC2"/>
<rect x="575" y="31" width="60" height="8" rx="4" fill="white"/>
</svg>
