<svg width="137" height="29" viewBox="0 0 137 29" fill="none" xmlns="http://www.w3.org/2000/svg">
<path d="M1.72508 22.74C1.42508 22.74 1.11508 22.54 0.795078 22.14C0.475078 21.76 0.315078 21.28 0.315078 20.7C0.315078 20.24 0.425078 19.79 0.645078 19.35C1.04508 18.51 1.44508 17.83 1.84508 17.31C1.98508 17.11 2.08508 16.94 2.14508 16.8C2.22508 16.66 2.27508 16.47 2.29508 16.23C2.57508 15.87 2.94508 15.22 3.40508 14.28C4.18508 13.02 5.29508 11.08 6.73508 8.46C6.93508 8.1 7.32508 7.39 7.90508 6.33C8.50508 5.27 8.90508 4.64 9.10508 4.44L9.25508 4.23C9.19508 4.33 9.29508 4.1 9.55508 3.54C9.83508 2.98 10.1251 2.48 10.4251 2.04C10.7451 1.58 11.0251 1.35 11.2651 1.35C11.5251 1.35 11.8251 1.46 12.1651 1.68C12.5051 1.88 12.7951 2.19 13.0351 2.61C13.2951 3.01 13.4251 3.49 13.4251 4.05C13.4251 4.29 13.4151 4.48 13.3951 4.62L13.0951 6.66L12.9451 7.32C12.6851 8.64 12.2951 10.45 11.7751 12.75C11.3151 14.79 11.0851 16.02 11.0851 16.44C11.0851 16.56 11.1051 16.66 11.1451 16.74C11.1851 16.8 11.2351 16.83 11.2951 16.83C11.3351 16.83 11.4351 16.77 11.5951 16.65C11.7551 16.51 11.8951 16.31 12.0151 16.05L12.4051 15.45L12.9151 14.7C13.4751 13.92 14.1651 12.87 14.9851 11.55C15.8051 10.21 17.1351 7.92 18.9751 4.68C19.3551 4.12 19.6651 3.63 19.9051 3.21C20.2251 2.69 20.5351 2.2 20.8351 1.74C21.1351 1.28 21.3651 0.99 21.5251 0.87C21.7251 0.71 21.9751 0.629999 22.2751 0.629999C22.5751 0.649999 22.8851 0.759999 23.2051 0.959999C23.5451 1.16 23.8251 1.44 24.0451 1.8C24.2851 2.16 24.4051 2.55 24.4051 2.97C24.4051 3.45 24.2551 4.33 23.9551 5.61C23.6751 6.89 23.3451 8.13 22.9651 9.33C22.8851 9.75 22.6351 10.74 22.2151 12.3C21.8951 13.46 21.6551 14.38 21.4951 15.06C21.3551 15.74 21.2851 16.29 21.2851 16.71V16.95C20.9851 17.49 20.8351 18.57 20.8351 20.19C20.7551 20.85 20.6051 21.36 20.3851 21.72C20.1651 22.1 19.9851 22.29 19.8451 22.29L19.7551 22.26C19.6551 22.26 19.5551 22.3 19.4551 22.38C19.3751 22.48 19.2551 22.53 19.0951 22.53C18.5951 22.53 18.2651 22.35 18.1051 21.99C17.9651 21.63 17.8951 21.14 17.8951 20.52C17.8951 20.16 17.9051 19.86 17.9251 19.62C17.9851 19.1 18.6251 16.39 19.8451 11.49C20.8051 7.65 21.2851 5.64 21.2851 5.46L20.8651 6.18C20.4651 6.94 19.9651 7.83 19.3651 8.85L17.2651 12.78C17.0051 13.14 16.7851 13.49 16.6051 13.83C16.4451 14.17 16.3551 14.37 16.3351 14.43C16.0951 14.91 15.6151 15.6 14.8951 16.5C14.6551 16.8 14.5151 16.99 14.4751 17.07C14.3751 17.29 14.0551 17.68 13.5151 18.24C12.9751 18.78 12.4051 19.28 11.8051 19.74C11.2051 20.18 10.7051 20.4 10.3051 20.4C9.76508 20.4 9.27508 20.14 8.83508 19.62C8.41508 19.1 8.20508 18.47 8.20508 17.73C8.20508 17.19 8.30508 16.29 8.50508 15.03C8.82508 13.65 9.16508 12.25 9.52508 10.83C9.88508 9.41 10.1351 8.48 10.2751 8.04C10.3351 7.86 10.3651 7.66 10.3651 7.44C10.3651 7.3 10.3451 7.21 10.3051 7.17C10.2851 7.17 10.2551 7.19 10.2151 7.23C10.1951 7.27 10.1651 7.32 10.1251 7.38C9.82508 7.86 9.35508 8.7 8.71508 9.9C8.07508 11.1 7.38508 12.51 6.64508 14.13C3.78508 19.39 2.14508 22.26 1.72508 22.74ZM26.1005 20.79C25.8605 20.79 25.6705 20.75 25.5305 20.67C25.3905 20.59 25.1905 20.44 24.9305 20.22C24.5305 19.8 24.2205 19.37 24.0005 18.93C23.7805 18.47 23.7005 18.07 23.7605 17.73C23.8205 17.59 23.8405 17.45 23.8205 17.31C23.8205 17.17 23.8205 17.08 23.8205 17.04C23.7405 16.96 23.7005 16.91 23.7005 16.89C23.7005 16.85 23.7205 16.82 23.7605 16.8C23.8005 16.76 23.8305 16.72 23.8505 16.68C23.9705 16.68 24.0105 16.57 23.9705 16.35C23.9305 16.19 24.0005 15.84 24.1805 15.3C24.3605 14.76 24.5905 14.26 24.8705 13.8C25.0905 13.44 25.4105 12.99 25.8305 12.45C26.2705 11.91 26.6605 11.5 27.0005 11.22C28.0005 10.36 28.9005 9.84 29.7005 9.66C30.1005 9.56 30.4905 9.51 30.8705 9.51C31.4505 9.51 31.9005 9.67 32.2205 9.99C32.6605 10.17 32.9805 10.43 33.1805 10.77C33.3805 11.11 33.5105 11.56 33.5705 12.12C33.5905 12.24 33.6005 12.44 33.6005 12.72C33.6005 14.2 33.0405 15.74 31.9205 17.34C31.4605 18 31.0005 18.53 30.5405 18.93C30.0805 19.33 29.5205 19.73 28.8605 20.13C28.5005 20.37 28.1205 20.53 27.7205 20.61C27.3205 20.69 26.7805 20.75 26.1005 20.79ZM29.1605 17.13C29.5405 16.79 29.8105 16.45 29.9705 16.11C30.1505 15.75 30.4005 15.13 30.7205 14.25C30.8405 14.07 30.9005 13.71 30.9005 13.17C30.9005 12.69 30.8305 12.42 30.6905 12.36C30.5905 12.28 30.4705 12.24 30.3305 12.24C30.1505 12.24 29.8605 12.38 29.4605 12.66C28.7605 13.26 28.1705 13.89 27.6905 14.55C27.2305 15.19 26.9105 15.93 26.7305 16.77C26.7105 16.85 26.7005 16.97 26.7005 17.13C26.7005 17.81 26.9405 18.15 27.4205 18.15C27.8805 18.15 28.4605 17.81 29.1605 17.13ZM37.9297 21.45C37.4497 21.45 36.9497 21.35 36.4297 21.15C35.9297 20.95 35.4997 20.71 35.1397 20.43C34.7997 20.13 34.6297 19.86 34.6297 19.62C34.6297 19.38 34.7397 19.23 34.9597 19.17L35.1097 19.05C35.1497 19.03 35.2297 19.02 35.3497 19.02C35.4297 19 35.5297 19.01 35.6497 19.05C35.7697 19.07 35.8697 19.08 35.9497 19.08C36.0897 19.12 36.2997 19.16 36.5797 19.2L37.3597 19.29C37.7597 19.29 38.1297 19.25 38.4697 19.17C38.8297 19.09 39.0097 19 39.0097 18.9C39.0097 18.84 38.9297 18.74 38.7697 18.6C38.6097 18.46 38.4397 18.39 38.2597 18.39C38.2597 18.31 37.9497 18.04 37.3297 17.58C36.9897 17.32 36.6597 17.06 36.3397 16.8C36.0397 16.54 35.8897 16.35 35.8897 16.23L35.9197 16.17V16.02C35.7797 16.02 35.6497 15.83 35.5297 15.45C35.4097 15.07 35.3497 14.7 35.3497 14.34C35.3497 13.66 35.6497 12.91 36.2497 12.09C36.8497 11.27 37.5897 10.53 38.4697 9.87C39.3697 9.21 40.2197 8.76 41.0197 8.52C41.3197 8.38 41.7597 8.31 42.3397 8.31C42.7197 8.31 42.9797 8.35 43.1197 8.43L43.3597 8.37C43.5997 8.37 43.9097 8.57 44.2897 8.97C44.6697 9.37 44.9097 9.69 45.0097 9.93C45.0097 10.59 44.9897 11.12 44.9497 11.52C44.9097 11.92 44.8097 12.12 44.6497 12.12C44.6297 12.12 44.5997 12.13 44.5597 12.15C44.5197 12.17 44.4997 12.22 44.4997 12.3C44.4997 12.58 44.2497 12.89 43.7497 13.23C43.2697 13.57 42.8297 13.74 42.4297 13.74L42.3097 13.71C42.1897 13.69 42.0097 13.57 41.7697 13.35C41.5497 13.13 41.4397 12.91 41.4397 12.69C41.4397 12.63 41.5597 12.47 41.7997 12.21C42.0397 11.95 42.2397 11.7 42.3997 11.46C42.5797 11.2 42.6697 10.93 42.6697 10.65C42.6697 10.55 42.6297 10.49 42.5497 10.47C42.4897 10.43 42.3597 10.41 42.1597 10.41C41.0597 10.91 40.2697 11.38 39.7897 11.82C39.7297 11.94 39.6697 12.03 39.6097 12.09C39.5697 12.15 39.5097 12.18 39.4297 12.18C39.4297 12.16 39.4197 12.15 39.3997 12.15C39.3597 12.15 39.2297 12.27 39.0097 12.51C38.7897 12.73 38.5797 12.99 38.3797 13.29C38.1997 13.59 38.0897 13.87 38.0497 14.13L37.9897 14.22V14.37C37.9697 14.41 37.9597 14.49 37.9597 14.61C37.9597 14.79 38.0397 14.98 38.1997 15.18C38.3597 15.36 38.6797 15.62 39.1597 15.96C40.0597 16.64 40.6697 17.15 40.9897 17.49C41.3297 17.81 41.5397 18.1 41.6197 18.36C41.7997 18.72 41.8897 19.04 41.8897 19.32C41.8897 20 41.5297 20.53 40.8097 20.91C40.1097 21.27 39.1497 21.45 37.9297 21.45ZM49.318 21.18C48.878 21.06 48.308 20.69 47.608 20.07C47.268 19.63 47.068 19.24 47.008 18.9C46.948 18.54 46.918 17.84 46.918 16.8C46.918 16.32 47.158 15.12 47.638 13.2C47.658 13.12 47.728 12.85 47.848 12.39C47.908 12.17 47.828 12.03 47.608 11.97C47.388 11.91 47.078 11.88 46.678 11.88C46.338 11.88 46.138 11.86 46.078 11.82C46.018 11.8 45.978 11.71 45.958 11.55C45.958 11.39 45.958 11.28 45.958 11.22C45.958 11.16 45.908 11.1 45.808 11.04C45.728 10.98 45.668 10.92 45.628 10.86C45.568 10.78 45.618 10.63 45.778 10.41C45.938 10.19 46.118 10.06 46.318 10.02C46.438 10 46.698 9.97 47.098 9.93C47.498 9.89 47.878 9.81 48.238 9.69C48.618 9.57 48.898 9.4 49.078 9.18C49.338 8.5 49.638 7.78 49.978 7.02C50.338 6.26 50.588 5.81 50.728 5.67C51.048 5.51 51.338 5.43 51.598 5.43C52.038 5.43 52.378 5.61 52.618 5.97C52.678 6.05 52.748 6.13 52.828 6.21C52.908 6.29 52.948 6.38 52.948 6.48C52.948 6.62 52.878 6.84 52.738 7.14C52.618 7.44 52.368 7.93 51.988 8.61L51.598 9.36C51.658 9.38 51.798 9.39 52.018 9.39C52.238 9.39 52.418 9.38 52.558 9.36C52.998 9.28 53.338 9.24 53.578 9.24C53.758 9.24 53.888 9.25 53.968 9.27C54.808 9.27 55.268 9.73 55.348 10.65C55.388 10.89 55.298 11.09 55.078 11.25C54.878 11.39 54.518 11.46 53.998 11.46C51.938 11.54 50.898 11.63 50.878 11.73C50.778 11.79 50.618 12.1 50.398 12.66C50.178 13.22 49.998 13.75 49.858 14.25C49.618 15.29 49.498 16.27 49.498 17.19C49.498 18.07 49.628 18.64 49.888 18.9C49.968 18.98 50.078 19.02 50.218 19.02C50.578 19.02 51.088 18.75 51.748 18.21C51.968 18.01 52.208 17.91 52.468 17.91C52.688 17.91 52.858 17.99 52.978 18.15C53.118 18.31 53.188 18.52 53.188 18.78C53.188 19.08 53.088 19.37 52.888 19.65C52.588 20.11 52.138 20.49 51.538 20.79C50.938 21.09 50.368 21.24 49.828 21.24C49.588 21.24 49.418 21.22 49.318 21.18ZM61.3252 28.29C61.0852 28.21 60.7252 27.93 60.2452 27.45C59.7852 26.99 59.5552 26.67 59.5552 26.49C59.5552 26.19 59.7552 25.2 60.1552 23.52C60.5552 21.86 60.9452 20.51 61.3252 19.47C61.3452 19.39 61.4752 19.06 61.7152 18.48C61.9552 17.9 62.1852 17.2 62.4052 16.38C62.5652 15.8 62.9852 14.67 63.6652 12.99L64.5352 10.83C64.6952 10.37 64.8852 9.87 65.1052 9.33C65.3252 8.79 65.4552 8.46 65.4952 8.34C65.5752 8.1 66.0152 7.87 66.8152 7.65C66.8552 7.63 66.9252 7.62 67.0252 7.62C67.3052 7.62 67.5452 7.78 67.7452 8.1C67.8052 8.22 67.8352 8.36 67.8352 8.52C67.8352 8.9 67.7252 9.34 67.5052 9.84L67.2952 10.44L68.3752 10.2C69.7752 10.28 70.5552 10.34 70.7152 10.38C71.1552 10.4 71.4652 10.48 71.6452 10.62C71.8452 10.76 72.0352 10.98 72.2152 11.28C72.5752 11.62 72.7752 11.92 72.8152 12.18C72.8352 12.26 72.8452 12.39 72.8452 12.57C72.8452 13.27 72.5752 14.08 72.0352 15C71.4952 15.92 70.9352 16.57 70.3552 16.95C70.1552 17.03 69.9852 17.11 69.8452 17.19C69.7052 17.27 69.6152 17.32 69.5752 17.34C69.5352 17.44 69.3152 17.61 68.9152 17.85C68.5152 18.09 68.0552 18.32 67.5352 18.54C67.0352 18.76 66.6052 18.89 66.2452 18.93C66.0452 18.97 65.8152 18.99 65.5552 18.99C65.3352 18.99 65.1652 18.96 65.0452 18.9C64.8052 18.86 64.6452 18.84 64.5652 18.84C64.5052 18.84 64.4752 18.88 64.4752 18.96C64.4752 18.98 64.3452 19.26 64.0852 19.8C63.8452 20.32 63.5652 21.19 63.2452 22.41C62.6652 24.15 62.1552 25.74 61.7152 27.18C61.4952 27.86 61.3652 28.23 61.3252 28.29ZM65.1952 16.32C65.2152 16.4 65.3352 16.44 65.5552 16.44C65.8752 16.44 66.2952 16.35 66.8152 16.17C67.3352 15.99 67.8052 15.76 68.2252 15.48C68.6452 15.2 68.8852 14.92 68.9452 14.64C69.0452 14.54 69.2052 14.37 69.4252 14.13C69.6452 13.87 69.7952 13.68 69.8752 13.56C69.9552 13.42 69.9952 13.31 69.9952 13.23C69.9952 13.17 69.9452 13.09 69.8452 12.99C69.6252 12.69 69.3452 12.54 69.0052 12.54C68.5652 12.54 67.8852 12.79 66.9652 13.29C66.5852 13.43 66.3352 13.55 66.2152 13.65C66.1152 13.75 65.9952 13.97 65.8552 14.31C65.7352 14.61 65.6552 14.8 65.6152 14.88C65.2952 15.64 65.1552 16.12 65.1952 16.32ZM76.8031 20.76C76.7031 20.78 76.5731 20.79 76.4131 20.79C76.1531 20.79 75.9431 20.75 75.7831 20.67C75.6231 20.57 75.4331 20.41 75.2131 20.19C74.7531 19.97 74.3531 19.6 74.0131 19.08C73.6731 18.56 73.5231 18.15 73.5631 17.85C73.6631 16.89 73.9331 15.85 74.3731 14.73C74.8131 13.59 75.3831 12.57 76.0831 11.67C76.8031 10.75 77.5631 10.11 78.3631 9.75C78.7231 9.61 79.0531 9.54 79.3531 9.54C79.9731 9.54 80.3831 9.74 80.5831 10.14C80.7231 10.42 80.7931 10.63 80.7931 10.77C80.7931 11.01 80.6531 11.17 80.3731 11.25C80.3131 11.25 80.2431 11.28 80.1631 11.34C80.0831 11.4 80.0431 11.46 80.0431 11.52C80.0631 11.54 80.1531 11.55 80.3131 11.55C80.6531 11.55 81.0731 11.5 81.5731 11.4C82.0731 11.3 82.3931 11.19 82.5331 11.07C82.6531 11.01 82.7531 10.98 82.8331 10.98L83.2531 11.04C83.5931 11.14 83.7631 11.26 83.7631 11.4C83.7631 11.5 83.7931 11.63 83.8531 11.79C83.9331 11.95 84.0031 12.03 84.0631 12.03C84.1631 12.03 84.2131 12.1 84.2131 12.24C84.2131 12.36 84.1431 12.52 84.0031 12.72C83.8831 12.9 83.7031 13.08 83.4631 13.26C83.3631 13.32 83.2131 13.41 83.0131 13.53C82.8331 13.65 82.7231 13.75 82.6831 13.83C82.6631 13.91 82.6731 14.02 82.7131 14.16C82.7931 14.32 82.8331 14.52 82.8331 14.76C82.8331 15.44 82.5031 16.24 81.8431 17.16C81.1831 18.06 80.3731 18.86 79.4131 19.56C78.4731 20.26 77.6031 20.66 76.8031 20.76ZM76.8931 18.24C77.0131 18.24 77.3131 18.12 77.7931 17.88C78.0531 17.62 78.2631 17.46 78.4231 17.4C78.4831 17.4 78.5331 17.35 78.5731 17.25C78.6331 17.13 78.7231 16.96 78.8431 16.74C78.9831 16.5 79.2031 16.19 79.5031 15.81C79.8231 15.45 80.0431 15.16 80.1631 14.94C80.3031 14.72 80.3731 14.5 80.3731 14.28C80.3731 14.2 80.3531 14.06 80.3131 13.86C80.2931 13.8 80.2231 13.75 80.1031 13.71C80.0031 13.65 79.9031 13.6 79.8031 13.56C79.7031 13.56 79.6031 13.59 79.5031 13.65C79.4031 13.69 79.3331 13.71 79.2931 13.71C79.1931 13.71 79.0831 13.66 78.9631 13.56L78.4831 12.96L77.9731 13.47C77.5131 13.93 77.1231 14.55 76.8031 15.33C76.5031 16.11 76.3231 16.82 76.2631 17.46C76.2431 17.74 76.2831 17.94 76.3831 18.06C76.5031 18.16 76.6731 18.22 76.8931 18.24ZM83.3823 28.02C83.1823 28.02 83.0323 27.93 82.9323 27.75C82.9123 27.73 82.8223 27.61 82.6623 27.39C82.5023 27.17 82.4223 26.85 82.4223 26.43C82.4223 26.35 82.4423 26.19 82.4823 25.95C82.7023 25.11 82.8123 24.53 82.8123 24.21C82.8123 24.11 82.8323 23.96 82.8723 23.76C82.9123 23.58 82.9423 23.41 82.9623 23.25C83.0423 23.11 83.1123 22.89 83.1723 22.59C83.2523 22.31 83.2923 22.06 83.2923 21.84C83.2923 21.74 83.3223 21.62 83.3823 21.48C83.4623 21.36 83.5523 21.26 83.6523 21.18C83.6523 21.06 83.6823 20.88 83.7423 20.64C83.8023 20.38 83.8423 20.2 83.8623 20.1C83.9623 19.56 84.3523 18.28 85.0323 16.26C85.7123 14.24 86.2923 12.61 86.7723 11.37C87.0123 10.81 87.2123 10.29 87.3723 9.81C87.5323 9.33 87.6123 8.99 87.6123 8.79C87.6123 8.71 87.6323 8.64 87.6723 8.58C87.7323 8.5 87.8223 8.4 87.9423 8.28C88.1023 8.12 88.3123 8.04 88.5723 8.04C88.9123 8.04 89.2423 8.15 89.5623 8.37C89.7023 8.59 89.8023 8.78 89.8623 8.94C89.9223 9.1 89.9523 9.28 89.9523 9.48C89.9523 9.54 89.9323 9.73 89.8923 10.05C89.8923 10.47 89.7723 10.85 89.5323 11.19C89.2923 11.53 89.1823 11.69 89.2023 11.67C90.1823 11.07 91.0923 10.77 91.9323 10.77C92.8323 10.77 93.5523 11.09 94.0923 11.73C94.6323 12.35 94.9023 13.09 94.9023 13.95C94.9023 14.29 94.7423 14.8 94.4223 15.48C94.1023 16.14 93.8423 16.56 93.6423 16.74C93.5223 16.74 93.3623 16.95 93.1623 17.37C92.9223 17.69 92.4623 18.03 91.7823 18.39C91.1223 18.73 90.6723 18.86 90.4323 18.78C90.4123 18.78 90.3823 18.81 90.3423 18.87C90.3023 18.91 90.2823 18.97 90.2823 19.05C90.2823 19.13 89.9823 19.27 89.3823 19.47C88.7823 19.67 88.2623 19.77 87.8223 19.77C87.5823 19.77 87.4023 19.76 87.2823 19.74C87.1623 19.7 87.0423 19.63 86.9223 19.53C86.7823 19.67 86.7123 19.8 86.7123 19.92C86.7123 20.12 86.6123 20.44 86.4123 20.88C86.2123 21.3 86.0523 21.51 85.9323 21.51C85.9123 21.53 85.8823 21.57 85.8423 21.63C85.8223 21.69 85.8523 21.76 85.9323 21.84C85.9323 21.9 85.9223 22.04 85.9023 22.26C85.8823 22.48 85.8323 22.65 85.7523 22.77C85.7523 22.95 85.7223 23.19 85.6623 23.49C85.6023 23.81 85.5323 24.05 85.4523 24.21C85.4523 24.45 85.4123 24.68 85.3323 24.9C85.2723 25.14 85.2023 25.26 85.1223 25.26C85.0023 25.3 84.9423 25.59 84.9423 26.13C84.9223 26.61 84.7623 27.04 84.4623 27.42C84.1823 27.8 83.9123 27.99 83.6523 27.99L83.3823 28.02ZM87.4923 17.49C87.7723 17.49 88.2923 17.34 89.0523 17.04C89.8323 16.72 90.4023 16.41 90.7623 16.11C91.2223 15.73 91.5723 15.38 91.8123 15.06C92.0523 14.74 92.1723 14.42 92.1723 14.1C92.1723 13.82 92.0823 13.55 91.9023 13.29C91.7623 13.07 91.5523 12.96 91.2723 12.96C90.6123 12.96 89.7523 13.47 88.6923 14.49C88.3323 14.87 88.0123 15.35 87.7323 15.93C87.4523 16.49 87.3123 16.92 87.3123 17.22C87.3123 17.4 87.3723 17.49 87.4923 17.49ZM98.2602 19.95C97.7602 19.49 97.3902 19.09 97.1502 18.75C96.9302 18.39 96.7802 17.86 96.7002 17.16C96.6402 16.7 96.7202 16 96.9402 15.06C97.1802 14.1 97.4902 13.17 97.8702 12.27C98.2502 11.35 98.6202 10.71 98.9802 10.35C99.4202 9.79 99.9202 9.51 100.48 9.51C100.7 9.51 100.89 9.55 101.05 9.63C101.29 9.89 101.41 10.25 101.41 10.71C101.41 11.17 101.29 11.58 101.05 11.94C100.67 12.46 100.33 13.12 100.03 13.92C99.7302 14.72 99.5302 15.46 99.4302 16.14C99.3102 16.52 99.2502 16.83 99.2502 17.07C99.2502 17.29 99.3002 17.45 99.4002 17.55C99.5202 17.65 99.7002 17.7 99.9402 17.7C100.46 17.7 101 17.34 101.56 16.62C102.12 15.9 102.63 14.96 103.09 13.8C103.19 13.54 103.28 13.2 103.36 12.78C103.5 12.3 103.58 12.03 103.6 11.97C103.72 11.55 103.93 11.21 104.23 10.95C104.55 10.69 104.86 10.56 105.16 10.56C105.34 10.56 105.47 10.6 105.55 10.68C106.15 10.94 106.42 11.39 106.36 12.03C106.36 12.47 106.3 12.86 106.18 13.2C106.06 13.52 105.87 13.94 105.61 14.46C105.39 14.84 105.21 15.21 105.07 15.57C104.77 16.27 104.26 17.05 103.54 17.91C102.82 18.75 102.2 19.28 101.68 19.5C100.98 19.94 100.26 20.16 99.5202 20.16C99.0802 20.16 98.6602 20.09 98.2602 19.95ZM108.044 20.28C107.784 20.14 107.544 19.96 107.324 19.74C107.124 19.5 107.024 19.28 107.024 19.08C107.024 18.8 107.054 18.44 107.114 18C107.194 17.56 107.284 17.16 107.384 16.8C107.444 16.3 107.504 15.9 107.564 15.6C107.644 15.28 107.774 14.97 107.954 14.67C108.034 14.37 108.174 13.92 108.374 13.32C108.814 11.92 109.114 10.84 109.274 10.08C109.434 9.64 109.574 9.25 109.694 8.91C109.814 8.57 109.924 8.26 110.024 7.98C109.984 8.1 110.234 7.42 110.774 5.94C110.934 5.46 111.044 5.09 111.104 4.83C111.324 3.93 111.574 3.25 111.854 2.79C111.994 2.59 112.094 2.42 112.154 2.28C112.234 2.14 112.304 2.03 112.364 1.95C112.384 1.87 112.484 1.8 112.664 1.74C112.864 1.68 113.064 1.65 113.264 1.65C113.484 1.65 113.634 1.69 113.714 1.77C113.814 1.73 113.984 1.9 114.224 2.28C114.484 2.64 114.604 2.9 114.584 3.06C114.584 3.32 114.514 3.56 114.374 3.78C114.294 3.86 114.204 4.01 114.104 4.23C114.004 4.43 113.914 4.6 113.834 4.74C113.794 4.88 113.724 5.12 113.624 5.46C113.544 5.78 113.464 6.05 113.384 6.27C113.284 6.51 113.184 6.74 113.084 6.96C113.004 7.16 112.934 7.34 112.874 7.5C112.794 7.76 112.654 8.15 112.454 8.67C112.174 9.35 111.984 9.88 111.884 10.26C111.844 10.38 111.774 10.63 111.674 11.01C111.394 12.01 111.124 12.74 110.864 13.2C110.704 13.46 110.584 13.81 110.504 14.25C110.444 14.69 110.404 14.96 110.384 15.06C110.084 15.96 109.934 16.49 109.934 16.65C109.894 16.83 109.824 17.18 109.724 17.7C109.604 18.34 109.484 18.8 109.364 19.08C109.324 19.38 109.204 19.67 109.004 19.95C108.824 20.23 108.614 20.37 108.374 20.37C108.274 20.37 108.164 20.34 108.044 20.28ZM113.316 20.37C113.256 20.25 113.086 20.09 112.806 19.89C112.526 19.69 112.386 19.57 112.386 19.53C112.386 19.45 112.336 19.34 112.236 19.2C112.156 19.04 112.076 18.9 111.996 18.78C111.836 18.62 111.946 18.1 112.326 17.22C112.706 16.34 113.216 15.3 113.856 14.1C113.976 13.98 114.126 13.77 114.306 13.47C114.506 13.17 114.636 13 114.696 12.96C114.696 12.88 114.726 12.81 114.786 12.75C114.846 12.67 114.916 12.63 114.996 12.63L115.236 12.15C115.316 11.97 115.706 11.54 116.406 10.86C117.106 10.18 117.656 9.72 118.056 9.48C118.436 9.22 118.846 9.09 119.286 9.09C119.766 9.09 120.176 9.23 120.516 9.51L121.326 10.2C121.926 10.7 122.266 10.99 122.346 11.07L123.456 12.06L122.946 13.56C122.766 14.1 122.676 14.61 122.676 15.09C122.676 15.85 122.886 16.56 123.306 17.22C123.406 17.44 123.536 17.61 123.696 17.73C123.876 17.85 124.106 17.93 124.386 17.97C124.826 18.05 125.046 18.27 125.046 18.63C125.046 19.07 124.966 19.4 124.806 19.62C124.646 19.84 124.456 19.98 124.236 20.04C123.916 20.08 123.696 20.1 123.576 20.1C122.996 20.1 122.466 19.95 121.986 19.65C121.506 19.35 121.086 18.84 120.726 18.12C120.646 18 120.536 17.78 120.396 17.46C120.276 17.14 120.206 16.92 120.186 16.8C120.046 17 119.816 17.26 119.496 17.58C117.436 19.66 115.766 20.7 114.486 20.7C114.046 20.7 113.656 20.59 113.316 20.37ZM114.966 17.88C115.286 17.92 115.906 17.56 116.826 16.8C116.926 16.72 117.036 16.63 117.156 16.53C117.276 16.41 117.406 16.29 117.546 16.17C118.106 15.71 118.536 15.33 118.836 15.03C119.156 14.71 119.476 14.33 119.796 13.89L120.456 12.81C120.256 12.37 120.076 12.08 119.916 11.94C119.756 11.78 119.596 11.7 119.436 11.7C119.036 11.7 118.536 12.06 117.936 12.78C117.336 13.48 116.616 14.55 115.776 15.99C115.556 16.35 115.376 16.73 115.236 17.13C115.096 17.51 115.006 17.76 114.966 17.88ZM126.884 20.55C126.744 20.55 126.554 20.45 126.314 20.25C126.094 20.05 125.964 19.87 125.924 19.71C125.904 19.67 125.894 19.58 125.894 19.44C125.894 19.18 126.014 18.67 126.254 17.91L126.464 16.95C126.664 16.07 126.844 15.33 127.004 14.73C127.064 14.61 127.184 14.27 127.364 13.71C127.484 13.27 127.644 12.84 127.844 12.42C128.084 11.52 128.464 10.63 128.984 9.75C129.044 9.65 129.144 9.53 129.284 9.39C129.424 9.25 129.524 9.18 129.584 9.18C129.704 9.06 129.874 9 130.094 9C130.414 9 130.704 9.11 130.964 9.33C131.224 9.63 131.354 9.95 131.354 10.29C131.354 10.67 131.214 11.14 130.934 11.7C130.774 12.14 130.514 12.7 130.154 13.38C129.874 13.88 129.704 14.21 129.644 14.37C129.884 14.05 130.404 13.45 131.204 12.57C131.444 12.31 131.674 12.1 131.894 11.94C132.114 11.76 132.444 11.53 132.884 11.25C133.324 10.93 133.674 10.71 133.934 10.59C134.194 10.45 134.494 10.38 134.834 10.38C134.994 10.38 135.114 10.39 135.194 10.41C135.454 10.39 135.724 10.56 136.004 10.92C136.304 11.28 136.454 11.69 136.454 12.15C136.454 12.33 136.424 12.51 136.364 12.69C136.124 12.65 135.954 12.63 135.854 12.63C135.454 12.63 135.094 12.71 134.774 12.87C134.474 13.03 134.224 13.19 134.024 13.35C133.824 13.49 133.694 13.58 133.634 13.62C132.934 14.08 132.104 14.7 131.144 15.48C130.664 15.88 130.304 16.23 130.064 16.53C129.824 16.83 129.634 17.15 129.494 17.49C129.454 17.61 129.264 18.08 128.924 18.9C128.584 19.7 128.324 20.17 128.144 20.31C128.044 20.53 127.784 20.64 127.364 20.64C127.144 20.64 126.984 20.61 126.884 20.55Z" fill="#7B51FB"/>
</svg>
