<svg width="60" height="60" viewBox="0 0 60 60" fill="none" xmlns="http://www.w3.org/2000/svg">
<circle cx="30" cy="30" r="30" fill="#7B51FB"/>
<g clip-path="url(#clip0)">
<path d="M30.0002 18.4688C28.3762 18.4707 26.7823 18.9067 25.3834 19.7317C23.9846 20.5567 22.8317 21.7407 22.0443 23.161C21.2568 24.5813 20.8634 26.1863 20.9047 27.8098C20.9461 29.4333 21.4207 31.0162 22.2794 32.3946C22.3708 32.5663 22.4965 32.7174 22.6488 32.8384C22.8012 32.9595 22.9768 33.0478 23.1647 33.098C23.3527 33.1482 23.549 33.1591 23.7413 33.1301C23.9337 33.1011 24.118 33.0327 24.2829 32.9294C24.4477 32.826 24.5894 32.6898 24.6993 32.5292C24.8091 32.3687 24.8847 32.1872 24.9214 31.9962C24.9581 31.8051 24.955 31.6086 24.9123 31.4187C24.8697 31.2289 24.7884 31.0499 24.6736 30.8929C24.0764 29.9433 23.7446 28.851 23.7128 27.7297C23.6809 26.6084 23.9503 25.4991 24.4927 24.5172C25.0351 23.5352 25.8308 22.7167 26.7969 22.1466C27.763 21.5766 28.8643 21.2759 29.9861 21.2759C31.1078 21.2759 32.2091 21.5766 33.1752 22.1466C34.1414 22.7167 34.937 23.5352 35.4795 24.5172C36.0219 25.4991 36.2912 26.6084 36.2594 27.7297C36.2276 28.851 35.8958 29.9433 35.2986 30.8929C35.0976 31.2104 35.0309 31.5947 35.1133 31.9614C35.1956 32.328 35.4202 32.6469 35.7377 32.8479C36.0552 33.0489 36.4396 33.1156 36.8062 33.0332C37.1728 32.9509 37.4917 32.7262 37.6927 32.4087C38.5539 31.0321 39.0314 29.4503 39.0758 27.8272C39.1203 26.204 38.73 24.5985 37.9455 23.1768C37.161 21.7551 36.0107 20.569 34.6138 19.7412C33.2168 18.9134 31.624 18.4741 30.0002 18.4688Z" fill="white"/>
<path d="M30.0001 13C27.1131 13.0016 24.2888 13.8433 21.8719 15.4224C19.4549 17.0016 17.5498 19.25 16.3888 21.8934C15.2278 24.5368 14.8612 27.4609 15.3336 30.309C15.806 33.1572 17.0971 35.8064 19.0493 37.9334C19.3093 38.1822 19.6543 38.3228 20.0143 38.3265C20.3742 38.3302 20.722 38.1968 20.9871 37.9533C21.2522 37.7099 21.4147 37.3746 21.4415 37.0157C21.4684 36.6568 21.3577 36.3011 21.1318 36.0209C19.5544 34.2975 18.5123 32.1524 18.1327 29.8472C17.7531 27.5419 18.0522 25.176 18.9938 23.0377C19.9353 20.8995 21.4785 19.0814 23.4353 17.8049C25.3921 16.5285 27.678 15.8488 30.0143 15.8488C32.3506 15.8488 34.6365 16.5285 36.5933 17.8049C38.5501 19.0814 40.0933 20.8995 41.0349 23.0377C41.9764 25.176 42.2756 27.5419 41.8959 29.8472C41.5163 32.1524 40.4743 34.2975 38.8968 36.0209C38.7712 36.1585 38.674 36.3196 38.6107 36.4948C38.5473 36.6701 38.5191 36.8561 38.5277 37.0422C38.5362 37.2284 38.5814 37.411 38.6605 37.5797C38.7396 37.7484 38.8512 37.8999 38.9889 38.0255C39.1266 38.151 39.2876 38.2483 39.4629 38.3116C39.6381 38.3749 39.8241 38.4031 40.0103 38.3946C40.1964 38.386 40.379 38.3409 40.5477 38.2618C40.7164 38.1826 40.8679 38.071 40.9935 37.9334C42.9482 35.8037 44.24 33.1506 44.7109 30.2986C45.1819 27.4465 44.8117 24.5189 43.6455 21.8739C42.4792 19.2289 40.5676 16.981 38.1442 15.405C35.7209 13.829 32.8909 12.9933 30.0001 13Z" fill="white"/>
<path d="M31.7995 34.2501H28.2012C27.8014 34.2476 27.4056 34.3298 27.0398 34.4913C26.674 34.6528 26.3465 34.8898 26.0789 35.1869C25.8113 35.4839 25.6096 35.8343 25.487 36.2149C25.3645 36.5954 25.3239 36.9977 25.3678 37.3951L26.1612 44.4784C26.2382 45.1746 26.5704 45.8176 27.0936 46.2833C27.6169 46.7489 28.2941 47.0043 28.9945 47.0001H31.0062C31.7066 47.0043 32.3838 46.7489 32.907 46.2833C33.4303 45.8176 33.7625 45.1746 33.8395 44.4784L34.6328 37.3951C34.6768 36.9977 34.6362 36.5954 34.5137 36.2149C34.3911 35.8343 34.1894 35.4839 33.9218 35.1869C33.6542 34.8898 33.3267 34.6528 32.9609 34.4913C32.5951 34.3298 32.1993 34.2476 31.7995 34.2501Z" fill="white"/>
<path d="M30 31.4154C31.956 31.4154 33.5416 29.8297 33.5416 27.8737C33.5416 25.9177 31.956 24.332 30 24.332C28.044 24.332 26.4583 25.9177 26.4583 27.8737C26.4583 29.8297 28.044 31.4154 30 31.4154Z" fill="white"/>
</g>
<defs>
<clipPath id="clip0">
<rect width="34" height="34" fill="white" transform="translate(13 13)"/>
</clipPath>
</defs>
</svg>

