<svg width="940" height="50" viewBox="0 0 940 50" fill="none" xmlns="http://www.w3.org/2000/svg">
<g opacity="0.25">
<rect x="16" y="1" width="4" height="48" rx="2" fill="white"/>
<rect x="80" y="1" width="4" height="48" rx="2" fill="white"/>
<rect x="144" y="9" width="4" height="32" rx="2" fill="white"/>
<rect x="208" y="15" width="4" height="20" rx="2" fill="white"/>
<rect x="272" y="7" width="4" height="36" rx="2" fill="white"/>
<rect x="336" y="2" width="4" height="46" rx="2" fill="white"/>
<rect x="400" y="4" width="4" height="42" rx="2" fill="white"/>
<rect x="464" y="7" width="4" height="36" rx="2" fill="white"/>
<rect x="528" y="7" width="4" height="36" rx="2" fill="white"/>
<rect x="592" y="16" width="4" height="18" rx="2" fill="white"/>
<rect x="656" y="4" width="4" height="42" rx="2" fill="white"/>
<rect x="720" y="14" width="4" height="22" rx="2" fill="white"/>
<rect x="24" y="7" width="4" height="36" rx="2" fill="white"/>
<rect x="88" y="15" width="4" height="20" rx="2" fill="white"/>
<rect x="152" y="18" width="4" height="14" rx="2" fill="white"/>
<rect x="216" y="18" width="4" height="14" rx="2" fill="white"/>
<rect x="280" y="4" width="4" height="42" rx="2" fill="white"/>
<rect x="344" y="10" width="4" height="30" rx="2" fill="white"/>
<rect x="408" y="11" width="4" height="28" rx="2" fill="white"/>
<rect x="472" y="4" width="4" height="42" rx="2" fill="white"/>
<rect x="536" y="4" width="4" height="42" rx="2" fill="white"/>
<rect x="600" y="15" width="4" height="20" rx="2" fill="white"/>
<rect x="664" y="11" width="4" height="28" rx="2" fill="white"/>
<rect x="728" y="18" width="4" height="14" rx="2" fill="white"/>
<rect x="32" y="5" width="4" height="40" rx="2" fill="white"/>
<rect x="96" y="5" width="4" height="40" rx="2" fill="white"/>
<rect x="160" y="13" width="4" height="24" rx="2" fill="white"/>
<rect x="224" y="13" width="4" height="24" rx="2" fill="white"/>
<rect x="288" y="2" width="4" height="46" rx="2" fill="white"/>
<rect x="352" y="15" width="4" height="20" rx="2" fill="white"/>
<rect x="416" y="17" width="4" height="16" rx="2" fill="white"/>
<rect x="480" y="8" width="4" height="34" rx="2" fill="white"/>
<rect x="544" y="10" width="4" height="30" rx="2" fill="white"/>
<rect x="608" y="10" width="4" height="30" rx="2" fill="white"/>
<rect x="672" y="18" width="4" height="14" rx="2" fill="white"/>
<rect x="736" y="12" width="4" height="26" rx="2" fill="white"/>
<rect x="40" width="4" height="50" rx="2" fill="white"/>
<rect x="104" y="10" width="4" height="30" rx="2" fill="white"/>
<rect x="168" y="14" width="4" height="22" rx="2" fill="white"/>
<rect x="232" y="8" width="4" height="34" rx="2" fill="white"/>
<rect x="296" y="10" width="4" height="30" rx="2" fill="white"/>
<rect x="360" y="8" width="4" height="34" rx="2" fill="white"/>
<rect x="424" y="11" width="4" height="28" rx="2" fill="white"/>
<rect x="488" y="4" width="4" height="42" rx="2" fill="white"/>
<rect x="552" y="5" width="4" height="40" rx="2" fill="white"/>
<rect x="616" y="5" width="4" height="40" rx="2" fill="white"/>
<rect x="680" y="10" width="4" height="30" rx="2" fill="white"/>
<rect x="744" y="8" width="4" height="34" rx="2" fill="white"/>
<rect x="48" y="5" width="4" height="40" rx="2" fill="white"/>
<rect x="112" y="5" width="4" height="40" rx="2" fill="white"/>
<rect x="176" y="5" width="4" height="40" rx="2" fill="white"/>
<rect x="240" y="6" width="4" height="38" rx="2" fill="white"/>
<rect x="304" y="6" width="4" height="38" rx="2" fill="white"/>
<rect x="368" y="7" width="4" height="36" rx="2" fill="white"/>
<rect x="432" y="13" width="4" height="24" rx="2" fill="white"/>
<rect x="496" y="15" width="4" height="20" rx="2" fill="white"/>
<rect x="560" y="15" width="4" height="20" rx="2" fill="white"/>
<rect x="624" y="15" width="4" height="20" rx="2" fill="white"/>
<rect x="688" y="15" width="4" height="20" rx="2" fill="white"/>
<rect x="752" y="14" width="4" height="22" rx="2" fill="white"/>
<rect x="56" y="13" width="4" height="24" rx="2" fill="white"/>
<rect x="8" y="13" width="4" height="24" rx="2" fill="white"/>
<rect y="17" width="4" height="16" rx="2" fill="white"/>
<rect x="120" y="13" width="4" height="24" rx="2" fill="white"/>
<rect x="184" y="13" width="4" height="24" rx="2" fill="white"/>
<rect x="248" y="15" width="4" height="20" rx="2" fill="white"/>
<rect x="312" y="9" width="4" height="32" rx="2" fill="white"/>
<rect x="376" y="20" width="4" height="10" rx="2" fill="white"/>
<rect x="440" y="19" width="4" height="12" rx="2" fill="white"/>
<rect x="504" y="20" width="4" height="10" rx="2" fill="white"/>
<rect x="568" y="10" width="4" height="30" rx="2" fill="white"/>
<rect x="632" y="19" width="4" height="12" rx="2" fill="white"/>
<rect x="696" y="11" width="4" height="28" rx="2" fill="white"/>
<rect x="760" y="16" width="4" height="18" rx="2" fill="white"/>
<rect x="64" y="17" width="4" height="16" rx="2" fill="white"/>
<rect x="128" y="17" width="4" height="16" rx="2" fill="white"/>
<rect x="192" y="17" width="4" height="16" rx="2" fill="white"/>
<rect x="256" y="8" width="4" height="34" rx="2" fill="white"/>
<rect x="320" y="13" width="4" height="24" rx="2" fill="white"/>
<rect x="384" y="14" width="4" height="22" rx="2" fill="white"/>
<rect x="448" y="13" width="4" height="24" rx="2" fill="white"/>
<rect x="512" y="17" width="4" height="16" rx="2" fill="white"/>
<rect x="576" y="17" width="4" height="16" rx="2" fill="white"/>
<rect x="640" y="14" width="4" height="22" rx="2" fill="white"/>
<rect x="704" y="17" width="4" height="16" rx="2" fill="white"/>
<rect x="768" y="20" width="4" height="10" rx="2" fill="white"/>
<rect x="72" y="4" width="4" height="42" rx="2" fill="white"/>
<rect x="136" y="4" width="4" height="42" rx="2" fill="white"/>
<rect x="200" y="4" width="4" height="42" rx="2" fill="white"/>
<rect x="264" y="10" width="4" height="30" rx="2" fill="white"/>
<rect x="328" y="8" width="4" height="34" rx="2" fill="white"/>
<rect x="392" y="8" width="4" height="34" rx="2" fill="white"/>
<rect x="456" y="12" width="4" height="26" rx="2" fill="white"/>
<rect x="520" y="10" width="4" height="30" rx="2" fill="white"/>
<rect x="584" y="20" width="4" height="10" rx="2" fill="white"/>
<rect x="648" y="10" width="4" height="30" rx="2" fill="white"/>
<rect x="712" y="19" width="4" height="12" rx="2" fill="white"/>
<rect x="776" y="17" width="4" height="16" rx="2" fill="white"/>
<rect x="784" y="10" width="4" height="30" rx="2" fill="white"/>
<rect x="792" y="16" width="4" height="18" rx="2" fill="white"/>
<rect x="800" y="14" width="4" height="22" rx="2" fill="white"/>
<rect x="808" y="10" width="4" height="30" rx="2" fill="white"/>
<rect x="816" y="16" width="4" height="18" rx="2" fill="white"/>
<rect x="912" y="16" width="4" height="18" rx="2" fill="white"/>
<rect x="920" y="14" width="4" height="22" rx="2" fill="white"/>
<rect x="928" y="10" width="4" height="30" rx="2" fill="white"/>
<rect x="936" y="16" width="4" height="18" rx="2" fill="white"/>
<rect x="824" y="19" width="4" height="12" rx="2" fill="white"/>
<rect x="832" y="15" width="4" height="20" rx="2" fill="white"/>
<rect x="840" y="11" width="4" height="28" rx="2" fill="white"/>
<rect x="848" y="16" width="4" height="18" rx="2" fill="white"/>
<rect x="856" y="19" width="4" height="12" rx="2" fill="white"/>
<rect x="864" y="19" width="4" height="12" rx="2" fill="white"/>
<rect x="872" y="14" width="4" height="22" rx="2" fill="white"/>
<rect x="880" y="18" width="4" height="14" rx="2" fill="white"/>
<rect x="888" y="19" width="4" height="12" rx="2" fill="white"/>
<rect x="896" y="20" width="4" height="10" rx="2" fill="white"/>
<rect x="904" y="21" width="4" height="8" rx="2" fill="white"/>
</g>
</svg>
