<svg width="60" height="60" viewBox="0 0 60 60" fill="none">
<path class="shape" fill-rule="evenodd" clip-rule="evenodd" d="M29.7115 0.0167133C38.5672 0.230332 47.3083 3.218 53.0031 10.4922C58.8709 17.9874 61.4944 28.1535 59.1409 37.6081C56.8765 46.7047 49.5198 52.8144 41.5083 56.67C33.8112 60.3742 25.1597 61.3815 17.4685 57.6632C9.5342 53.8273 3.78464 46.3132 1.4759 37.3159C-0.974742 27.7657 -0.754546 17.0267 5.06741 9.33584C10.8426 1.70677 20.5493 -0.204298 29.7115 0.0167133Z" fill="#F6F3EE"/>
<path fill-rule="evenodd" clip-rule="evenodd" d="M20 27C18.8954 27 18 27.8954 18 29V31C18 32.1046 18.8954 33 20 33H40C41.1046 33 42 32.1046 42 31V29C42 27.8954 41.1046 27 40 27H20ZM22.7 31.7C23.6389 31.7 24.4 30.9389 24.4 30C24.4 29.0611 23.6389 28.3 22.7 28.3C21.7611 28.3 21 29.0611 21 30C21 30.9389 21.7611 31.7 22.7 31.7Z" fill="white"/>
<path fill-rule="evenodd" clip-rule="evenodd" d="M20 36C18.8954 36 18 36.8954 18 38V40C18 41.1046 18.8954 42 20 42H40C41.1046 42 42 41.1046 42 40V38C42 36.8954 41.1046 36 40 36H20ZM22.7 40.7C23.6389 40.7 24.4 39.9389 24.4 39C24.4 38.0611 23.6389 37.3 22.7 37.3C21.7611 37.3 21 38.0611 21 39C21 39.9389 21.7611 40.7 22.7 40.7Z" fill="white"/>
<path fill-rule="evenodd" clip-rule="evenodd" d="M20 18C18.8954 18 18 18.8954 18 20V22C18 23.1046 18.8954 24 20 24H40C41.1046 24 42 23.1046 42 22V20C42 18.8954 41.1046 18 40 18H20ZM22.7 22.7C23.6389 22.7 24.4 21.9389 24.4 21C24.4 20.0611 23.6389 19.3 22.7 19.3C21.7611 19.3 21 20.0611 21 21C21 21.9389 21.7611 22.7 22.7 22.7Z" fill="white"/>
</svg>
