<svg  viewBox="0 0 505 505" fill="none" xmlns="http://www.w3.org/2000/svg">
<rect width="505" height="505" fill="#E5E5E5"/>
<path d="M0 0H505V505H0V0Z" fill="#7B51FB"/>
<mask id="mask0" mask-type="alpha" maskUnits="userSpaceOnUse" x="0" y="0" width="505" height="505">
<path d="M0 0H505V505H0V0Z" fill="#7B51FB"/>
</mask>
<g mask="url(#mask0)">
<path d="M427.697 453.31V437.83H422.852V453.31H427.697Z" fill="white"/>
<path d="M423.346 434.635C423.873 435.165 424.517 435.43 425.274 435.43C426.052 435.43 426.705 435.165 427.234 434.635C427.762 434.105 428.026 433.47 428.026 432.73C428.026 431.99 427.752 431.35 427.204 430.81C426.655 430.27 426.012 430 425.274 430C424.537 430 423.899 430.27 423.36 430.81C422.822 431.35 422.553 431.99 422.553 432.73C422.553 433.47 422.817 434.105 423.346 434.635Z" fill="white"/>
<path d="M379.004 451.72L381.127 448.48C382.224 449.06 383.141 449.465 383.879 449.695C384.617 449.925 385.355 450.04 386.093 450.04C386.77 450.04 387.309 449.925 387.708 449.695C388.106 449.465 388.306 449.16 388.306 448.78C388.306 448.48 388.191 448.24 387.962 448.06C387.733 447.88 387.369 447.75 386.87 447.67L383.909 447.13C382.414 446.85 381.282 446.33 380.514 445.57C379.746 444.81 379.363 443.83 379.363 442.63C379.363 441.05 379.936 439.81 381.083 438.91C382.229 438.01 383.809 437.56 385.823 437.56C386.9 437.56 387.967 437.71 389.024 438.01C390.08 438.31 391.108 438.75 392.105 439.33L389.891 442.42C389.113 441.98 388.361 441.65 387.633 441.43C386.905 441.21 386.182 441.1 385.465 441.1C384.886 441.1 384.432 441.195 384.104 441.385C383.775 441.575 383.61 441.84 383.61 442.18C383.61 442.5 383.725 442.74 383.954 442.9C384.183 443.06 384.597 443.19 385.195 443.29L388.096 443.83C389.611 444.11 390.768 444.635 391.566 445.405C392.364 446.175 392.752 447.14 392.733 448.3C392.733 449.06 392.568 449.765 392.239 450.415C391.91 451.065 391.447 451.625 390.849 452.095C390.25 452.565 389.542 452.935 388.725 453.205C387.907 453.475 387.03 453.61 386.093 453.61C384.696 453.61 383.39 453.45 382.174 453.13C380.958 452.81 379.901 452.34 379.004 451.72Z" fill="white"/>
<path fill-rule="evenodd" clip-rule="evenodd" d="M345.317 452.245C346.314 453.115 347.59 453.55 349.146 453.55C349.963 453.55 350.711 453.425 351.389 453.175C352.067 452.925 352.745 452.52 353.423 451.96V453.31H358.208V443.41C358.208 441.57 357.615 440.14 356.429 439.12C355.242 438.1 353.582 437.59 351.449 437.59C350.312 437.59 349.161 437.73 347.994 438.01C346.828 438.29 345.616 438.71 344.36 439.27L346.035 442.66C346.932 442.28 347.735 442.005 348.443 441.835C349.15 441.665 349.793 441.58 350.372 441.58C351.389 441.58 352.152 441.77 352.66 442.15C353.169 442.53 353.423 443.09 353.423 443.83V445.09C352.745 444.83 352.117 444.645 351.539 444.535C350.96 444.425 350.392 444.37 349.834 444.37C347.939 444.37 346.464 444.765 345.407 445.555C344.35 446.345 343.822 447.45 343.822 448.87C343.822 450.25 344.32 451.375 345.317 452.245ZM348.906 449.935C348.488 449.665 348.278 449.28 348.278 448.78C348.278 448.28 348.492 447.9 348.921 447.64C349.35 447.38 349.963 447.25 350.761 447.25C351.199 447.25 351.643 447.28 352.092 447.34C352.541 447.4 352.984 447.48 353.423 447.58V449.56C353.004 449.82 352.56 450.015 352.092 450.145C351.623 450.275 351.139 450.34 350.641 450.34C349.903 450.34 349.325 450.205 348.906 449.935Z" fill="white"/>
<path fill-rule="evenodd" clip-rule="evenodd" d="M364.794 452.665C365.631 453.075 366.518 453.28 367.456 453.28C368.353 453.28 369.2 453.095 369.998 452.725C370.795 452.355 371.443 451.86 371.942 451.24V453.46C371.942 454.4 371.643 455.11 371.045 455.59C370.447 456.07 369.579 456.31 368.443 456.31C367.705 456.31 366.947 456.21 366.169 456.01C365.392 455.81 364.574 455.51 363.717 455.11L362.221 458.62C363.138 459.06 364.145 459.4 365.242 459.64C366.339 459.88 367.465 460 368.622 460C371.234 460 373.243 459.44 374.649 458.32C376.055 457.2 376.758 455.6 376.758 453.52V437.83H372.002V439.69C371.483 439.07 370.86 438.59 370.133 438.25C369.405 437.91 368.632 437.74 367.815 437.74C366.817 437.74 365.88 437.94 365.003 438.34C364.125 438.74 363.363 439.29 362.715 439.99C362.067 440.69 361.558 441.51 361.189 442.45C360.82 443.39 360.636 444.4 360.636 445.48C360.636 446.56 360.816 447.575 361.174 448.525C361.533 449.475 362.017 450.3 362.625 451C363.233 451.701 363.956 452.255 364.794 452.665ZM366.454 448.225C365.746 447.495 365.392 446.59 365.392 445.51C365.392 444.43 365.74 443.53 366.439 442.81C367.137 442.09 368.014 441.73 369.071 441.73C369.629 441.73 370.152 441.835 370.641 442.045C371.13 442.255 371.563 442.55 371.942 442.93V448.09C371.563 448.49 371.135 448.795 370.656 449.005C370.178 449.215 369.649 449.32 369.071 449.32C368.034 449.32 367.161 448.955 366.454 448.225Z" fill="white"/>
<path d="M433.5 448.54V441.58H430.509V437.83H433.5V434.155L438.554 433.152L438.346 437.83H442.473V441.58H438.346V447.58C438.346 448.26 438.5 448.74 438.809 449.02C439.118 449.3 439.641 449.44 440.38 449.44C440.658 449.44 440.938 449.42 441.217 449.38C441.496 449.34 441.875 449.25 442.354 449.11V453.04C441.915 453.18 441.377 453.295 440.739 453.385C440.1 453.475 439.532 453.52 439.033 453.52C437.219 453.52 435.843 453.1 434.906 452.26C433.968 451.42 433.5 450.18 433.5 448.54Z" fill="white"/>
<path d="M445.165 431.655V453.31H450.01V443.76C449.944 442.878 450.211 442.343 451.011 441.808C451.408 441.542 452.064 441.4 452.583 441.4C453.36 441.4 453.983 441.665 454.452 442.195C454.92 442.725 455.155 443.42 455.155 444.28V453.31H460V442.87C460 441.33 459.522 440.065 458.564 439.075C457.607 438.085 456.381 437.59 454.885 437.59C453.888 437.59 452.976 437.825 452.148 438.295C451.321 438.765 450.608 439.45 450.01 440.35V430.496L445.165 431.655Z" fill="white"/>
<path d="M395.212 453.415H400.331C400.442 449.532 400.621 443.326 400.783 442.682C401.066 441.552 401.877 441.095 402.987 441.192C403.984 441.279 404.572 441.863 404.746 443.012C404.828 443.552 404.845 444.103 404.862 444.65L404.862 444.67C404.873 445.043 404.777 449.375 404.698 452.919L404.697 452.922L404.686 453.415H409.709C409.776 449.652 409.866 445.276 409.914 444.678C409.976 443.904 410.11 443.098 410.41 442.391C410.789 441.496 411.698 441.149 412.658 441.315C413.476 441.456 413.948 441.94 414.116 442.96C414.227 443.633 414.253 444.327 414.26 445.011C414.269 445.957 414.202 449.701 414.134 453.415H419.096C419.178 448.476 419.257 443.185 419.2 441.281C419.152 439.702 418.247 438.511 416.749 437.859C414.122 436.716 411.215 437.452 409.45 439.707C409.422 439.743 409.377 439.766 409.325 439.793C409.299 439.807 409.271 439.821 409.242 439.839C408.308 438.265 406.888 437.527 405.124 437.394C403.36 437.26 401.853 437.884 400.53 439.166C400.5 438.568 400.477 438.128 400.452 437.628C400.015 437.628 399.583 437.629 399.155 437.63C398.075 437.632 397.021 437.635 395.967 437.622C395.453 437.616 395.453 437.929 395.454 438.284L395.454 438.302C395.457 439.861 395.338 449.666 395.212 453.415Z" fill="white"/>
<path d="M336.55 453.41V438.938C339.515 438.091 340.692 435.622 341.395 433.645V453.41H336.55Z" fill="white"/>
<path d="M318.531 440.326C317.469 436.772 317.999 433.373 322.508 432.087C323.651 431.76 325.394 431.525 326.578 431.506C330.896 431.439 339.84 431.492 340.044 431.508C340.157 431.517 339.724 433.224 338.967 434.352C337.728 436.198 335.963 437.064 333.734 437.177C330.988 437.316 328.235 437.341 325.485 437.343C322.763 437.344 320.427 438.161 318.632 440.291C318.619 440.307 318.592 440.313 318.565 440.318C318.553 440.32 318.541 440.323 318.531 440.326Z" fill="white"/>
<path d="M324.828 439.478L332.111 439.491V444.38H324.828V453.296C321.052 453.263 318 450.183 318 446.387C318 442.591 321.052 439.511 324.828 439.478Z" fill="white"/>
<circle opacity="0.5" cx="229.281" cy="274.513" r="6.47436" transform="rotate(-45 229.281 274.513)" fill="white"/>
<circle cx="252.172" cy="251.623" r="6.47436" transform="rotate(-45 252.172 251.623)" fill="white"/>
<circle opacity="0.5" cx="275.063" cy="228.732" r="6.47436" transform="rotate(-45 275.063 228.732)" fill="white"/>
<circle opacity="0.4" cx="45.319" cy="459.679" r="82.6667" stroke="white" stroke-width="3"/>
<circle opacity="0.4" cx="459.678" cy="45.3205" r="82.6667" stroke="white" stroke-width="3"/>
<circle opacity="0.6" cx="45.3205" cy="459.679" r="102.09" stroke="white" stroke-width="3"/>
<circle opacity="0.6" cx="459.679" cy="45.3205" r="102.09" stroke="white" stroke-width="3"/>
<circle opacity="0.8" cx="45.3206" cy="459.679" r="121.513" stroke="white" stroke-width="3"/>
<circle opacity="0.8" cx="459.681" cy="45.3204" r="121.513" stroke="white" stroke-width="3"/>
<circle cx="45.3187" cy="459.679" r="140.936" stroke="white" stroke-width="3"/>
<circle cx="459.678" cy="45.3207" r="140.936" stroke="white" stroke-width="3"/>
<circle opacity="0.2" cx="45.3217" cy="459.679" r="63.2436" stroke="white" stroke-width="3"/>
<circle opacity="0.2" cx="459.681" cy="45.3207" r="63.2436" stroke="white" stroke-width="3"/>
<path d="M478.026 206.151L477.745 203.667L477.727 203.669L477.708 203.671L478.026 206.151ZM298.828 27.1572L301.307 27.4752L301.31 27.4549L301.312 27.4346L298.828 27.1572ZM27.1309 298.831L27.4087 301.316L27.4288 301.313L27.4489 301.311L27.1309 298.831ZM206.147 478.054L203.668 477.737L203.665 477.755L203.663 477.773L206.147 478.054ZM478.306 208.635C560.31 199.384 624.038 129.796 624.038 45.3204H619.038C619.038 127.223 557.249 194.697 477.745 203.667L478.306 208.635ZM624.038 45.3204C624.038 -45.4526 550.452 -119.039 459.679 -119.039V-114.039C547.69 -114.039 619.038 -42.6911 619.038 45.3204H624.038ZM459.679 -119.039C375.139 -119.039 305.51 -55.214 296.343 26.8797L301.312 27.4346C310.2 -52.1565 377.715 -114.039 459.679 -114.039V-119.039ZM296.348 26.8391C284.185 121.663 263.81 182.772 223.284 223.295C182.757 263.818 121.643 284.189 26.8129 296.351L27.4489 301.311C122.5 289.121 185.056 268.589 226.819 226.831C268.582 185.072 289.116 122.52 301.307 27.4752L296.348 26.8391ZM26.853 296.346C-55.2281 305.526 -119.039 375.149 -119.039 459.679H-114.039C-114.039 377.724 -52.1702 310.215 27.4087 301.316L26.853 296.346ZM-119.039 459.679C-119.039 550.452 -45.453 624.038 45.3199 624.038V619.038C-42.6916 619.038 -114.039 547.691 -114.039 459.679H-119.039ZM45.3199 624.038C129.786 624.038 199.367 560.325 208.632 478.335L203.663 477.773C194.681 557.264 127.213 619.038 45.3199 619.038V624.038ZM208.627 478.372C220.786 383.438 241.158 322.272 281.707 281.719C322.255 241.166 383.416 220.792 478.343 208.631L477.708 203.671C382.561 215.86 319.956 236.394 278.171 278.183C236.386 319.973 215.855 382.583 203.668 477.737L208.627 478.372Z" fill="white"/>
</g>
</svg>
