<svg width="40" height="40" viewBox="0 0 40 40" fill="none" xmlns="http://www.w3.org/2000/svg">
<path fill-rule="evenodd" clip-rule="evenodd" d="M8.07861 1.12962C-0.120522 3.49758 -1.08496 9.75472 0.845804 16.2963C0.865166 16.2903 0.886672 16.286 0.908222 16.2817C0.956902 16.272 1.00581 16.2622 1.03074 16.232C4.29396 12.3108 8.54189 10.8073 13.4928 10.8047C18.4933 10.8024 23.4999 10.7549 28.4925 10.4993C32.547 10.292 35.7562 8.6976 38.0089 5.30004C39.3861 3.22274 40.1722 0.081538 39.968 0.0649583C39.5963 0.0351752 23.3328 -0.0628467 15.479 0.0611806C13.3274 0.095118 10.1579 0.52905 8.07861 1.12962ZM12.545 14.8148L25.9259 14.8391V23.7503H12.545V40C5.60636 39.94 1.02903e-07 34.3256 1.02903e-07 27.4074C1.02903e-07 20.4891 5.60636 14.875 12.545 14.8148Z" fill="#22194D"/>
</svg>
