<svg width="60" height="50" viewBox="0 0 60 50" fill="none" xmlns="http://www.w3.org/2000/svg">
<path d="M25.4135 37.5C25.4135 41.7157 24.1103 44.8529 21.5038 46.9118C18.9975 48.9706 16.1404 50 12.9323 50C9.72431 50 6.76692 48.8726 4.06015 46.6177C1.35338 44.2647 0 40.7843 0 36.1765C0 31.7647 1.50376 26.5686 4.51128 20.5882C7.61905 14.5098 12.9323 7.64706 20.4511 0L28.7218 5.29412C25.614 10.5882 23.4586 14.6078 22.2556 17.3529C21.1529 20 20.6015 22.0098 20.6015 23.3823C20.6015 24.7549 21.0025 26.0784 21.8045 27.3529C22.6065 28.6275 23.4085 30.049 24.2105 31.6177C25.0125 33.1863 25.4135 35.1471 25.4135 37.5ZM56.5414 37.5C56.5414 41.7157 55.2882 44.8529 52.782 46.9118C50.2757 48.9706 47.4185 50 44.2105 50C41.0025 50 37.995 48.8726 35.188 46.6177C32.4812 44.2647 31.1278 40.7843 31.1278 36.1765C31.1278 31.7647 32.6316 26.5686 35.6391 20.5882C38.7469 14.5098 44.1103 7.64706 51.7293 0L60 5.29412C56.792 10.5882 54.6366 14.6078 53.5338 17.3529C52.4311 20 51.8797 22.0098 51.8797 23.3823C51.8797 24.7549 52.2807 26.0784 53.0827 27.3529C53.8847 28.6275 54.6366 30.049 55.3383 31.6177C56.1404 33.1863 56.5414 35.1471 56.5414 37.5Z" fill="#22194D"/>
</svg>
