<svg width="60" height="60" viewBox="0 0 60 60" fill="none" xmlns="http://www.w3.org/2000/svg">
<circle cx="30" cy="30" r="30" fill="#F7D56E"/>
<g opacity="0.25">
<path d="M42.9174 26.5418L34.3535 25.2975L30.5251 17.5374C30.4715 17.4464 30.3951 17.3708 30.3034 17.3184C30.2117 17.2659 30.1078 17.2383 30.0021 17.2383C29.8965 17.2383 29.7926 17.2659 29.7009 17.3184C29.6092 17.3708 29.5327 17.4464 29.4792 17.5374L25.649 25.2958L17.0828 26.5418C16.975 26.5573 16.8738 26.6027 16.7905 26.6728C16.7073 26.7428 16.6452 26.8348 16.6115 26.9383C16.5778 27.0417 16.5736 27.1526 16.5996 27.2583C16.6256 27.364 16.6806 27.4603 16.7584 27.5364L22.9569 33.5774L21.4939 42.1069C21.4756 42.2141 21.4877 42.3242 21.5287 42.425C21.5697 42.5257 21.638 42.6129 21.726 42.6769C21.8139 42.7408 21.918 42.7789 22.0265 42.7868C22.1349 42.7947 22.2434 42.7722 22.3398 42.7217L30.0001 38.6949L37.6604 42.7199C37.7567 42.7704 37.8653 42.793 37.9737 42.7851C38.0822 42.7772 38.1863 42.7391 38.2742 42.6751C38.3622 42.6112 38.4305 42.5239 38.4715 42.4232C38.5125 42.3225 38.5246 42.2123 38.5063 42.1051L37.0433 33.5774L43.2418 27.5364C43.3196 27.4603 43.3746 27.3641 43.4006 27.2584C43.4266 27.1528 43.4225 27.042 43.3889 26.9385C43.3552 26.835 43.2932 26.7431 43.21 26.673C43.1268 26.6029 43.0257 26.5574 42.918 26.5418H42.9174Z" fill="#1E0D26"/>
</g>
</svg>