<svg width="810" height="530" viewBox="0 0 810 530" fill="none" xmlns="http://www.w3.org/2000/svg">
<g filter="url(#filter0_dd)">
<rect x="30" y="20" width="710" height="470" rx="10" fill="white"/>
</g>
<rect x="590" y="449" width="120" height="12" rx="6" fill="#E6E4E7"/>
<rect x="510" y="449" width="60" height="12" rx="6" fill="#E6E4E7"/>
<rect x="90" y="20" width="180" height="470" fill="#F6F3EE"/>
<circle cx="121" cy="455" r="11" fill="#DFD8CC"/>
<rect x="142" y="451" width="88" height="8" rx="4" fill="#DFD8CC"/>
<rect x="110" y="47" width="110" height="16" rx="8" fill="#DFD8CC"/>
<path d="M30 30C30 24.4772 34.4772 20 40 20H90V490H40C34.4772 490 30 485.523 30 480V30Z" fill="#22194D"/>
<g opacity="0.5">
<path d="M60 90V106" stroke="white" stroke-width="2"/>
<path d="M68 98L52 98" stroke="white" stroke-width="2"/>
</g>
<rect x="42" y="126" width="36" height="36" rx="4" fill="#7B51FB"/>
<path d="M58.9453 150L55.2188 139.269H55.1484C55.248 140.862 55.2979 142.356 55.2979 143.751V150H53.3906V137.15H56.3525L59.9209 147.372H59.9736L63.6475 137.15H66.6182V150H64.5967V143.646C64.5967 143.007 64.6113 142.175 64.6406 141.149C64.6758 140.124 64.7051 139.503 64.7285 139.286H64.6582L60.7998 150H58.9453Z" fill="white"/>
<path fill-rule="evenodd" clip-rule="evenodd" d="M51.059 37.8472C44.9096 39.6232 44.1863 44.316 45.6344 49.2222C45.6489 49.2177 45.665 49.2145 45.6812 49.2113C45.7177 49.204 45.7544 49.1967 45.7731 49.174C48.2205 46.2331 51.4064 45.1055 55.1196 45.1035C58.87 45.1018 62.625 45.0661 66.3694 44.8745C69.4102 44.719 71.8171 43.5232 73.5067 40.975C74.5396 39.4171 75.1292 37.0612 74.976 37.0487C74.6972 37.0264 62.4996 36.9529 56.6093 37.0459C54.9956 37.0713 52.6184 37.3968 51.059 37.8472ZM54.4088 48.1111L64.4445 48.1293V54.8128H54.4088V67C49.2048 66.955 45 62.7442 45 57.5556C45 52.3668 49.2048 48.1562 54.4088 48.1111Z" fill="white"/>
<circle cx="380" cy="55" r="10" fill="#0AC2A3"/>
<rect x="400" y="51" width="50" height="8" rx="4" fill="#E6E4E7"/>
<circle cx="490" cy="55" r="10" fill="#0AC2A3"/>
<rect x="510" y="51" width="50" height="8" rx="4" fill="#E6E4E7"/>
<rect x="590" y="40" width="120" height="30" rx="4" fill="#E6E4E7"/>
<path d="M684 52L690 58L696 52" stroke="#C0BCC2" stroke-width="2"/>
<rect x="605" y="51" width="60" height="8" rx="4" fill="white"/>
<g filter="url(#filter1_dd)">
<rect x="130" y="90" width="650" height="330" rx="8" fill="white"/>
</g>
<line x1="160" y1="238.5" x2="750" y2="238.5" stroke="#F2F2F2"/>
<path d="M169.018 193H161.617V180.15H169.018V182.383H164.342V185.204H168.692V187.437H164.342V190.75H169.018V193ZM173.509 187.981L170.345 183.174H173.386L175.293 186.303L177.218 183.174H180.259L177.06 187.981L180.408 193H177.358L175.293 189.634L173.219 193H170.178L173.509 187.981ZM187.299 193.176C186.145 193.176 185.239 192.757 184.583 191.919H184.442C184.536 192.739 184.583 193.214 184.583 193.343V197.324H181.902V183.174H184.082L184.46 184.448H184.583C185.21 183.476 186.139 182.989 187.369 182.989C188.529 182.989 189.438 183.438 190.094 184.334C190.75 185.23 191.078 186.476 191.078 188.069C191.078 189.118 190.923 190.029 190.612 190.803C190.308 191.576 189.871 192.165 189.303 192.569C188.734 192.974 188.066 193.176 187.299 193.176ZM186.508 185.134C185.846 185.134 185.362 185.339 185.058 185.749C184.753 186.153 184.595 186.824 184.583 187.762V188.052C184.583 189.106 184.738 189.862 185.049 190.319C185.365 190.776 185.863 191.005 186.543 191.005C187.744 191.005 188.345 190.015 188.345 188.034C188.345 187.067 188.195 186.344 187.896 185.863C187.604 185.377 187.141 185.134 186.508 185.134ZM197.362 184.896C196.794 184.896 196.349 185.078 196.026 185.441C195.704 185.799 195.52 186.309 195.473 186.971H199.234C199.223 186.309 199.05 185.799 198.716 185.441C198.382 185.078 197.931 184.896 197.362 184.896ZM197.74 193.176C196.158 193.176 194.922 192.739 194.031 191.866C193.141 190.993 192.695 189.757 192.695 188.157C192.695 186.511 193.105 185.239 193.926 184.343C194.752 183.44 195.892 182.989 197.345 182.989C198.733 182.989 199.814 183.385 200.588 184.176C201.361 184.967 201.748 186.06 201.748 187.454V188.755H195.411C195.44 189.517 195.666 190.111 196.088 190.539C196.51 190.967 197.102 191.181 197.863 191.181C198.455 191.181 199.015 191.119 199.542 190.996C200.069 190.873 200.62 190.677 201.194 190.407V192.481C200.726 192.716 200.225 192.889 199.691 193C199.158 193.117 198.508 193.176 197.74 193.176ZM209.412 182.989C209.775 182.989 210.077 183.016 210.317 183.068L210.115 185.582C209.898 185.523 209.635 185.494 209.324 185.494C208.469 185.494 207.801 185.714 207.32 186.153C206.846 186.593 206.608 187.208 206.608 187.999V193H203.928V183.174H205.958L206.354 184.826H206.485C206.79 184.275 207.2 183.833 207.716 183.499C208.237 183.159 208.803 182.989 209.412 182.989ZM211.987 180.634C211.987 179.761 212.474 179.324 213.446 179.324C214.419 179.324 214.905 179.761 214.905 180.634C214.905 181.05 214.782 181.375 214.536 181.609C214.296 181.838 213.933 181.952 213.446 181.952C212.474 181.952 211.987 181.513 211.987 180.634ZM214.782 193H212.102V183.174H214.782V193ZM226.401 193H223.721V187.261C223.721 186.552 223.601 186.021 223.36 185.67C223.126 185.312 222.754 185.134 222.244 185.134C221.559 185.134 221.061 185.386 220.75 185.89C220.439 186.394 220.284 187.223 220.284 188.377V193H217.604V183.174H219.651L220.012 184.431H220.161C220.425 183.979 220.806 183.628 221.304 183.376C221.802 183.118 222.373 182.989 223.018 182.989C224.488 182.989 225.484 183.47 226.006 184.431H226.243C226.507 183.974 226.894 183.619 227.403 183.367C227.919 183.115 228.499 182.989 229.144 182.989C230.257 182.989 231.098 183.276 231.666 183.851C232.24 184.419 232.527 185.333 232.527 186.593V193H229.838V187.261C229.838 186.552 229.718 186.021 229.478 185.67C229.243 185.312 228.871 185.134 228.361 185.134C227.705 185.134 227.213 185.368 226.885 185.837C226.562 186.306 226.401 187.05 226.401 188.069V193ZM239.356 184.896C238.788 184.896 238.343 185.078 238.021 185.441C237.698 185.799 237.514 186.309 237.467 186.971H241.229C241.217 186.309 241.044 185.799 240.71 185.441C240.376 185.078 239.925 184.896 239.356 184.896ZM239.734 193.176C238.152 193.176 236.916 192.739 236.025 191.866C235.135 190.993 234.689 189.757 234.689 188.157C234.689 186.511 235.1 185.239 235.92 184.343C236.746 183.44 237.886 182.989 239.339 182.989C240.728 182.989 241.809 183.385 242.582 184.176C243.355 184.967 243.742 186.06 243.742 187.454V188.755H237.405C237.435 189.517 237.66 190.111 238.082 190.539C238.504 190.967 239.096 191.181 239.857 191.181C240.449 191.181 241.009 191.119 241.536 190.996C242.063 190.873 242.614 190.677 243.188 190.407V192.481C242.72 192.716 242.219 192.889 241.686 193C241.152 193.117 240.502 193.176 239.734 193.176ZM254.992 193H252.312V187.261C252.312 186.552 252.186 186.021 251.934 185.67C251.682 185.312 251.28 185.134 250.729 185.134C249.979 185.134 249.438 185.386 249.104 185.89C248.77 186.388 248.603 187.217 248.603 188.377V193H245.922V183.174H247.97L248.33 184.431H248.479C248.778 183.956 249.188 183.599 249.71 183.358C250.237 183.112 250.835 182.989 251.503 182.989C252.646 182.989 253.513 183.3 254.104 183.921C254.696 184.536 254.992 185.427 254.992 186.593V193ZM261.892 191.04C262.36 191.04 262.923 190.938 263.579 190.732V192.728C262.911 193.026 262.091 193.176 261.118 193.176C260.046 193.176 259.264 192.906 258.771 192.367C258.285 191.822 258.042 191.008 258.042 189.924V185.187H256.759V184.053L258.235 183.156L259.009 181.082H260.723V183.174H263.474V185.187H260.723V189.924C260.723 190.305 260.828 190.586 261.039 190.768C261.256 190.949 261.54 191.04 261.892 191.04ZM271.814 193L271.296 191.664H271.226C270.774 192.232 270.309 192.628 269.828 192.851C269.354 193.067 268.732 193.176 267.965 193.176C267.021 193.176 266.277 192.906 265.732 192.367C265.193 191.828 264.924 191.061 264.924 190.064C264.924 189.021 265.287 188.254 266.014 187.762C266.746 187.264 267.848 186.988 269.318 186.936L271.023 186.883V186.452C271.023 185.456 270.514 184.958 269.494 184.958C268.709 184.958 267.786 185.195 266.726 185.67L265.838 183.859C266.969 183.268 268.223 182.972 269.6 182.972C270.918 182.972 271.929 183.259 272.632 183.833C273.335 184.407 273.687 185.28 273.687 186.452V193H271.814ZM271.023 188.447L269.986 188.482C269.207 188.506 268.627 188.646 268.246 188.904C267.865 189.162 267.675 189.555 267.675 190.082C267.675 190.838 268.108 191.216 268.976 191.216C269.597 191.216 270.092 191.037 270.461 190.68C270.836 190.322 271.023 189.848 271.023 189.256V188.447ZM279.136 193H276.455V179.324H279.136V193ZM297.303 180.15V188.465C297.303 189.414 297.089 190.246 296.661 190.961C296.239 191.676 295.627 192.224 294.824 192.604C294.021 192.985 293.072 193.176 291.977 193.176C290.324 193.176 289.041 192.754 288.127 191.91C287.213 191.061 286.756 189.9 286.756 188.43V180.15H289.472V188.017C289.472 189.007 289.671 189.733 290.069 190.196C290.468 190.659 291.127 190.891 292.047 190.891C292.938 190.891 293.582 190.659 293.98 190.196C294.385 189.728 294.587 188.995 294.587 187.999V180.15H297.303ZM300.449 193V180.15H303.174V193H300.449Z" fill="#1E0D26"/>
<path d="M165.653 209.901C164.555 209.901 163.687 210.268 163.049 211.002C162.415 211.731 162.099 212.731 162.099 214.003C162.099 215.311 162.404 216.323 163.015 217.038C163.63 217.749 164.505 218.104 165.64 218.104C166.337 218.104 167.132 217.979 168.025 217.729V218.747C167.333 219.007 166.478 219.137 165.462 219.137C163.99 219.137 162.853 218.69 162.051 217.797C161.253 216.904 160.854 215.634 160.854 213.989C160.854 212.959 161.046 212.057 161.429 211.282C161.816 210.507 162.372 209.91 163.097 209.491C163.826 209.072 164.683 208.862 165.667 208.862C166.715 208.862 167.631 209.054 168.415 209.437L167.923 210.435C167.166 210.079 166.41 209.901 165.653 209.901ZM173.453 211.371C173.786 211.371 174.084 211.398 174.349 211.453L174.191 212.506C173.882 212.438 173.608 212.403 173.371 212.403C172.765 212.403 172.245 212.649 171.812 213.142C171.384 213.634 171.17 214.247 171.17 214.98V219H170.035V211.508H170.972L171.102 212.896H171.156C171.434 212.408 171.769 212.032 172.161 211.768C172.553 211.503 172.984 211.371 173.453 211.371ZM178.915 219.137C177.808 219.137 176.933 218.799 176.29 218.125C175.652 217.451 175.333 216.514 175.333 215.315C175.333 214.108 175.629 213.148 176.222 212.438C176.819 211.727 177.618 211.371 178.621 211.371C179.56 211.371 180.303 211.681 180.85 212.301C181.396 212.916 181.67 213.729 181.67 214.741V215.459H176.509C176.532 216.339 176.753 217.006 177.172 217.462C177.596 217.918 178.19 218.146 178.956 218.146C179.763 218.146 180.56 217.977 181.349 217.64V218.651C180.948 218.825 180.567 218.948 180.207 219.021C179.852 219.098 179.421 219.137 178.915 219.137ZM178.607 212.321C178.006 212.321 177.525 212.517 177.165 212.909C176.81 213.301 176.6 213.843 176.536 214.536H180.453C180.453 213.821 180.294 213.274 179.975 212.896C179.656 212.513 179.2 212.321 178.607 212.321ZM188.219 219L187.993 217.934H187.938C187.565 218.403 187.191 218.722 186.817 218.891C186.448 219.055 185.986 219.137 185.43 219.137C184.687 219.137 184.104 218.945 183.68 218.562C183.26 218.18 183.051 217.635 183.051 216.929C183.051 215.416 184.261 214.623 186.681 214.55L187.952 214.509V214.044C187.952 213.456 187.825 213.023 187.569 212.745C187.319 212.463 186.915 212.321 186.359 212.321C185.735 212.321 185.029 212.513 184.24 212.896L183.892 212.027C184.261 211.827 184.664 211.67 185.102 211.556C185.544 211.442 185.986 211.385 186.428 211.385C187.321 211.385 187.982 211.583 188.41 211.979C188.843 212.376 189.06 213.012 189.06 213.887V219H188.219ZM185.655 218.2C186.362 218.2 186.915 218.007 187.316 217.619C187.722 217.232 187.925 216.689 187.925 215.992V215.315L186.79 215.363C185.888 215.395 185.236 215.536 184.835 215.787C184.438 216.033 184.24 216.418 184.24 216.942C184.24 217.353 184.363 217.665 184.609 217.879C184.86 218.093 185.209 218.2 185.655 218.2ZM193.824 218.2C194.025 218.2 194.218 218.187 194.405 218.159C194.592 218.127 194.74 218.095 194.85 218.063V218.932C194.727 218.991 194.544 219.039 194.303 219.075C194.066 219.116 193.852 219.137 193.66 219.137C192.211 219.137 191.486 218.373 191.486 216.847V212.39H190.413V211.843L191.486 211.371L191.965 209.771H192.621V211.508H194.795V212.39H192.621V216.799C192.621 217.25 192.728 217.596 192.942 217.838C193.157 218.079 193.451 218.2 193.824 218.2ZM199.519 219.137C198.411 219.137 197.536 218.799 196.894 218.125C196.256 217.451 195.937 216.514 195.937 215.315C195.937 214.108 196.233 213.148 196.825 212.438C197.422 211.727 198.222 211.371 199.225 211.371C200.163 211.371 200.906 211.681 201.453 212.301C202 212.916 202.273 213.729 202.273 214.741V215.459H197.112C197.135 216.339 197.356 217.006 197.775 217.462C198.199 217.918 198.794 218.146 199.56 218.146C200.366 218.146 201.164 217.977 201.952 217.64V218.651C201.551 218.825 201.171 218.948 200.811 219.021C200.455 219.098 200.024 219.137 199.519 219.137ZM199.211 212.321C198.609 212.321 198.129 212.517 197.769 212.909C197.413 213.301 197.203 213.843 197.14 214.536H201.057C201.057 213.821 200.897 213.274 200.578 212.896C200.259 212.513 199.803 212.321 199.211 212.321ZM209.314 217.995H209.253C208.729 218.756 207.945 219.137 206.901 219.137C205.922 219.137 205.158 218.802 204.611 218.132C204.069 217.462 203.798 216.509 203.798 215.274C203.798 214.039 204.071 213.08 204.618 212.396C205.165 211.713 205.926 211.371 206.901 211.371C207.918 211.371 208.697 211.74 209.239 212.479H209.328L209.28 211.938L209.253 211.412V208.363H210.388V219H209.465L209.314 217.995ZM207.045 218.187C207.82 218.187 208.38 217.977 208.727 217.558C209.077 217.134 209.253 216.452 209.253 215.514V215.274C209.253 214.213 209.075 213.456 208.72 213.005C208.369 212.549 207.806 212.321 207.031 212.321C206.366 212.321 205.855 212.581 205.5 213.101C205.149 213.616 204.974 214.345 204.974 215.288C204.974 216.245 205.149 216.967 205.5 217.455C205.851 217.943 206.366 218.187 207.045 218.187ZM222.959 216.703H221.476V219H220.389V216.703H215.528V215.712L220.272 208.951H221.476V215.671H222.959V216.703ZM220.389 215.671V212.349C220.389 211.697 220.411 210.961 220.457 210.141H220.402C220.184 210.578 219.979 210.94 219.787 211.228L216.663 215.671H220.389ZM226.869 218.2C227.07 218.2 227.263 218.187 227.45 218.159C227.637 218.127 227.785 218.095 227.895 218.063V218.932C227.771 218.991 227.589 219.039 227.348 219.075C227.111 219.116 226.896 219.137 226.705 219.137C225.256 219.137 224.531 218.373 224.531 216.847V212.39H223.458V211.843L224.531 211.371L225.01 209.771H225.666V211.508H227.84V212.39H225.666V216.799C225.666 217.25 225.773 217.596 225.987 217.838C226.201 218.079 226.495 218.2 226.869 218.2ZM234.525 219V214.153C234.525 213.543 234.386 213.087 234.108 212.786C233.83 212.485 233.395 212.335 232.803 212.335C232.014 212.335 231.438 212.549 231.073 212.978C230.713 213.406 230.533 214.108 230.533 215.083V219H229.398V208.363H230.533V211.583C230.533 211.97 230.515 212.292 230.479 212.547H230.547C230.77 212.187 231.087 211.904 231.497 211.699C231.912 211.49 232.383 211.385 232.912 211.385C233.828 211.385 234.514 211.604 234.97 212.041C235.43 212.474 235.66 213.164 235.66 214.112V219H234.525ZM242.968 219H241.806V209.006H247.377V210.038H242.968V213.695H247.11V214.728H242.968V219ZM252.032 219.137C250.925 219.137 250.05 218.799 249.407 218.125C248.769 217.451 248.45 216.514 248.45 215.315C248.45 214.108 248.746 213.148 249.339 212.438C249.936 211.727 250.736 211.371 251.738 211.371C252.677 211.371 253.42 211.681 253.967 212.301C254.514 212.916 254.787 213.729 254.787 214.741V215.459H249.626C249.649 216.339 249.87 217.006 250.289 217.462C250.713 217.918 251.308 218.146 252.073 218.146C252.88 218.146 253.677 217.977 254.466 217.64V218.651C254.065 218.825 253.684 218.948 253.324 219.021C252.969 219.098 252.538 219.137 252.032 219.137ZM251.725 212.321C251.123 212.321 250.642 212.517 250.282 212.909C249.927 213.301 249.717 213.843 249.653 214.536H253.57C253.57 213.821 253.411 213.274 253.092 212.896C252.773 212.513 252.317 212.321 251.725 212.321ZM260.215 211.385C261.199 211.385 261.963 211.722 262.505 212.396C263.052 213.066 263.325 214.017 263.325 215.247C263.325 216.478 263.049 217.435 262.498 218.118C261.951 218.797 261.19 219.137 260.215 219.137C259.727 219.137 259.281 219.048 258.875 218.87C258.474 218.688 258.137 218.41 257.863 218.036H257.781L257.542 219H256.729V208.363H257.863V210.947C257.863 211.526 257.845 212.046 257.809 212.506H257.863C258.392 211.758 259.176 211.385 260.215 211.385ZM260.051 212.335C259.276 212.335 258.718 212.558 258.376 213.005C258.034 213.447 257.863 214.194 257.863 215.247C257.863 216.3 258.039 217.054 258.39 217.51C258.741 217.961 259.303 218.187 260.078 218.187C260.775 218.187 261.295 217.934 261.637 217.428C261.979 216.917 262.149 216.186 262.149 215.233C262.149 214.258 261.979 213.531 261.637 213.053C261.295 212.574 260.766 212.335 260.051 212.335ZM275.001 219H268.432V218.022L271.063 215.377C271.866 214.566 272.394 213.987 272.649 213.641C272.905 213.294 273.096 212.957 273.224 212.629C273.351 212.301 273.415 211.948 273.415 211.569C273.415 211.036 273.253 210.615 272.93 210.305C272.606 209.99 272.157 209.833 271.583 209.833C271.168 209.833 270.774 209.901 270.4 210.038C270.031 210.175 269.619 210.423 269.163 210.783L268.562 210.011C269.482 209.245 270.485 208.862 271.569 208.862C272.508 208.862 273.244 209.104 273.777 209.587C274.311 210.065 274.577 210.71 274.577 211.521C274.577 212.155 274.399 212.782 274.044 213.401C273.688 214.021 273.023 214.805 272.048 215.753L269.86 217.893V217.947H275.001V219ZM283.067 213.989C283.067 215.716 282.794 217.006 282.247 217.858C281.705 218.711 280.873 219.137 279.752 219.137C278.676 219.137 277.858 218.701 277.298 217.831C276.737 216.956 276.457 215.675 276.457 213.989C276.457 212.248 276.728 210.956 277.271 210.113C277.813 209.27 278.64 208.849 279.752 208.849C280.837 208.849 281.659 209.288 282.22 210.168C282.785 211.048 283.067 212.321 283.067 213.989ZM277.605 213.989C277.605 215.443 277.776 216.503 278.118 217.168C278.46 217.829 279.005 218.159 279.752 218.159C280.508 218.159 281.055 217.824 281.393 217.154C281.734 216.48 281.905 215.425 281.905 213.989C281.905 212.554 281.734 211.503 281.393 210.838C281.055 210.168 280.508 209.833 279.752 209.833C279.005 209.833 278.46 210.163 278.118 210.824C277.776 211.48 277.605 212.535 277.605 213.989ZM291.024 219H284.455V218.022L287.087 215.377C287.889 214.566 288.418 213.987 288.673 213.641C288.928 213.294 289.119 212.957 289.247 212.629C289.375 212.301 289.438 211.948 289.438 211.569C289.438 211.036 289.277 210.615 288.953 210.305C288.63 209.99 288.181 209.833 287.606 209.833C287.192 209.833 286.798 209.901 286.424 210.038C286.055 210.175 285.642 210.423 285.187 210.783L284.585 210.011C285.506 209.245 286.508 208.862 287.593 208.862C288.532 208.862 289.268 209.104 289.801 209.587C290.334 210.065 290.601 210.71 290.601 211.521C290.601 212.155 290.423 212.782 290.067 213.401C289.712 214.021 289.047 214.805 288.071 215.753L285.884 217.893V217.947H291.024V219ZM296.671 219H295.563V211.877C295.563 211.285 295.582 210.724 295.618 210.195C295.522 210.291 295.415 210.391 295.297 210.496C295.178 210.601 294.636 211.045 293.67 211.829L293.068 211.05L295.714 209.006H296.671V219ZM308.319 219H307.212V211.877C307.212 211.285 307.23 210.724 307.267 210.195C307.171 210.291 307.064 210.391 306.945 210.496C306.827 210.601 306.285 211.045 305.318 211.829L304.717 211.05L307.362 209.006H308.319V219ZM316.331 219H315.224V211.877C315.224 211.285 315.242 210.724 315.278 210.195C315.183 210.291 315.076 210.391 314.957 210.496C314.839 210.601 314.296 211.045 313.33 211.829L312.729 211.05L315.374 209.006H316.331V219ZM320.494 218.275C320.494 217.97 320.562 217.74 320.699 217.585C320.84 217.425 321.041 217.346 321.301 217.346C321.565 217.346 321.77 217.425 321.916 217.585C322.066 217.74 322.142 217.97 322.142 218.275C322.142 218.572 322.066 218.799 321.916 218.959C321.766 219.118 321.561 219.198 321.301 219.198C321.068 219.198 320.875 219.128 320.72 218.986C320.569 218.84 320.494 218.604 320.494 218.275ZM320.494 212.239C320.494 211.624 320.763 211.316 321.301 211.316C321.861 211.316 322.142 211.624 322.142 212.239C322.142 212.535 322.066 212.763 321.916 212.923C321.766 213.082 321.561 213.162 321.301 213.162C321.068 213.162 320.875 213.091 320.72 212.95C320.569 212.804 320.494 212.567 320.494 212.239ZM330.912 216.703H329.429V219H328.342V216.703H323.481V215.712L328.226 208.951H329.429V215.671H330.912V216.703ZM328.342 215.671V212.349C328.342 211.697 328.365 210.961 328.41 210.141H328.355C328.137 210.578 327.932 210.94 327.74 211.228L324.616 215.671H328.342ZM335.007 212.896C336.06 212.896 336.887 213.158 337.488 213.682C338.094 214.201 338.397 214.914 338.397 215.821C338.397 216.856 338.067 217.667 337.406 218.255C336.75 218.843 335.843 219.137 334.686 219.137C333.56 219.137 332.701 218.957 332.108 218.597V217.503C332.427 217.708 332.824 217.87 333.298 217.988C333.772 218.102 334.239 218.159 334.699 218.159C335.501 218.159 336.123 217.97 336.565 217.592C337.012 217.214 337.235 216.667 337.235 215.951C337.235 214.557 336.381 213.859 334.672 213.859C334.239 213.859 333.66 213.925 332.936 214.058L332.348 213.682L332.724 209.006H337.693V210.052H333.694L333.441 213.053C333.965 212.948 334.487 212.896 335.007 212.896ZM345.021 219L344.796 217.934H344.741C344.368 218.403 343.994 218.722 343.62 218.891C343.251 219.055 342.788 219.137 342.232 219.137C341.49 219.137 340.906 218.945 340.482 218.562C340.063 218.18 339.854 217.635 339.854 216.929C339.854 215.416 341.063 214.623 343.483 214.55L344.755 214.509V214.044C344.755 213.456 344.627 213.023 344.372 212.745C344.121 212.463 343.718 212.321 343.162 212.321C342.538 212.321 341.831 212.513 341.043 212.896L340.694 212.027C341.063 211.827 341.467 211.67 341.904 211.556C342.346 211.442 342.788 211.385 343.23 211.385C344.124 211.385 344.785 211.583 345.213 211.979C345.646 212.376 345.862 213.012 345.862 213.887V219H345.021ZM342.458 218.2C343.164 218.2 343.718 218.007 344.119 217.619C344.525 217.232 344.728 216.689 344.728 215.992V215.315L343.593 215.363C342.69 215.395 342.039 215.536 341.638 215.787C341.241 216.033 341.043 216.418 341.043 216.942C341.043 217.353 341.166 217.665 341.412 217.879C341.663 218.093 342.011 218.2 342.458 218.2ZM357.757 219V214.126C357.757 213.529 357.629 213.082 357.374 212.786C357.119 212.485 356.722 212.335 356.185 212.335C355.478 212.335 354.956 212.538 354.619 212.943C354.282 213.349 354.113 213.973 354.113 214.816V219H352.979V214.126C352.979 213.529 352.851 213.082 352.596 212.786C352.34 212.485 351.942 212.335 351.399 212.335C350.688 212.335 350.167 212.549 349.834 212.978C349.506 213.401 349.342 214.099 349.342 215.069V219H348.207V211.508H349.13L349.314 212.533H349.369C349.583 212.169 349.884 211.884 350.271 211.679C350.663 211.474 351.101 211.371 351.584 211.371C352.755 211.371 353.521 211.795 353.881 212.643H353.936C354.159 212.251 354.482 211.941 354.906 211.713C355.33 211.485 355.813 211.371 356.355 211.371C357.203 211.371 357.837 211.59 358.256 212.027C358.68 212.46 358.892 213.155 358.892 214.112V219H357.757Z" fill="#999999"/>
<g clip-path="url(#clip0)">
<path d="M689 193V199H695" stroke="#C0BCC2" stroke-width="2" stroke-miterlimit="10" stroke-linecap="square"/>
<path d="M679.965 209.87L679.236 204.073L684.928 205.659" stroke="#C0BCC2" stroke-width="2" stroke-miterlimit="10" stroke-linecap="square"/>
<path d="M679.237 204.073C680.476 206.46 682.547 208.311 685.058 209.274C687.569 210.238 690.346 210.249 692.865 209.304C695.383 208.359 697.468 206.524 698.725 204.146C699.982 201.768 700.324 199.012 699.687 196.399C699.05 193.786 697.477 191.497 695.267 189.965C693.056 188.432 690.361 187.763 687.69 188.083C685.02 188.404 682.559 189.691 680.773 191.703C678.988 193.714 678.001 196.31 678 199" stroke="#C0BCC2" stroke-width="2" stroke-miterlimit="10"/>
</g>
<path d="M746 196V208C746 208.53 745.789 209.039 745.414 209.414C745.039 209.789 744.53 210 744 210H732C731.47 210 730.961 209.789 730.586 209.414C730.211 209.039 730 208.53 730 208V196" stroke="#F67055" stroke-width="2" stroke-miterlimit="10" stroke-linecap="square"/>
<path d="M727 192H749" stroke="#F67055" stroke-width="2" stroke-miterlimit="10" stroke-linecap="square"/>
<path d="M738 199V205" stroke="#F67055" stroke-width="2" stroke-miterlimit="10" stroke-linecap="square"/>
<path d="M734 199V205" stroke="#F67055" stroke-width="2" stroke-miterlimit="10" stroke-linecap="square"/>
<path d="M742 199V205" stroke="#F67055" stroke-width="2" stroke-miterlimit="10" stroke-linecap="square"/>
<path d="M734 192V188H742V192" stroke="#F67055" stroke-width="2" stroke-miterlimit="10"/>
<rect x="592" y="184" width="55" height="30" rx="15" fill="#7B51FB"/>
<circle cx="632" cy="199" r="10" fill="white"/>
<path d="M167.058 273L163.964 262.919H163.885C163.996 264.97 164.052 266.338 164.052 267.023V273H161.617V260.15H165.326L168.367 269.977H168.42L171.646 260.15H175.354V273H172.814V266.918C172.814 266.631 172.817 266.3 172.823 265.925C172.835 265.55 172.876 264.554 172.946 262.937H172.867L169.554 273H167.058ZM184.627 273L184.108 271.664H184.038C183.587 272.232 183.121 272.628 182.641 272.851C182.166 273.067 181.545 273.176 180.777 273.176C179.834 273.176 179.09 272.906 178.545 272.367C178.006 271.828 177.736 271.061 177.736 270.064C177.736 269.021 178.1 268.254 178.826 267.762C179.559 267.264 180.66 266.988 182.131 266.936L183.836 266.883V266.452C183.836 265.456 183.326 264.958 182.307 264.958C181.521 264.958 180.599 265.195 179.538 265.67L178.65 263.859C179.781 263.268 181.035 262.972 182.412 262.972C183.73 262.972 184.741 263.259 185.444 263.833C186.147 264.407 186.499 265.28 186.499 266.452V273H184.627ZM183.836 268.447L182.799 268.482C182.02 268.506 181.439 268.646 181.059 268.904C180.678 269.162 180.487 269.555 180.487 270.082C180.487 270.838 180.921 271.216 181.788 271.216C182.409 271.216 182.904 271.037 183.273 270.68C183.648 270.322 183.836 269.848 183.836 269.256V268.447ZM189.153 260.634C189.153 259.761 189.64 259.324 190.612 259.324C191.585 259.324 192.071 259.761 192.071 260.634C192.071 261.05 191.948 261.375 191.702 261.609C191.462 261.838 191.099 261.952 190.612 261.952C189.64 261.952 189.153 261.513 189.153 260.634ZM191.948 273H189.268V263.174H191.948V273ZM198.909 271.04C199.378 271.04 199.94 270.938 200.597 270.732V272.728C199.929 273.026 199.108 273.176 198.136 273.176C197.063 273.176 196.281 272.906 195.789 272.367C195.303 271.822 195.06 271.008 195.06 269.924V265.187H193.776V264.053L195.253 263.156L196.026 261.082H197.74V263.174H200.491V265.187H197.74V269.924C197.74 270.305 197.846 270.586 198.057 270.768C198.273 270.949 198.558 271.04 198.909 271.04ZM206.661 264.896C206.093 264.896 205.647 265.078 205.325 265.441C205.003 265.799 204.818 266.309 204.771 266.971H208.533C208.521 266.309 208.349 265.799 208.015 265.441C207.681 265.078 207.229 264.896 206.661 264.896ZM207.039 273.176C205.457 273.176 204.221 272.739 203.33 271.866C202.439 270.993 201.994 269.757 201.994 268.157C201.994 266.511 202.404 265.239 203.225 264.343C204.051 263.44 205.19 262.989 206.644 262.989C208.032 262.989 209.113 263.385 209.887 264.176C210.66 264.967 211.047 266.06 211.047 267.454V268.755H204.71C204.739 269.517 204.965 270.111 205.387 270.539C205.809 270.967 206.4 271.181 207.162 271.181C207.754 271.181 208.313 271.119 208.841 270.996C209.368 270.873 209.919 270.677 210.493 270.407V272.481C210.024 272.716 209.523 272.889 208.99 273C208.457 273.117 207.807 273.176 207.039 273.176ZM222.297 273H219.616V267.261C219.616 266.552 219.49 266.021 219.238 265.67C218.986 265.312 218.585 265.134 218.034 265.134C217.284 265.134 216.742 265.386 216.408 265.89C216.074 266.388 215.907 267.217 215.907 268.377V273H213.227V263.174H215.274L215.635 264.431H215.784C216.083 263.956 216.493 263.599 217.015 263.358C217.542 263.112 218.14 262.989 218.808 262.989C219.95 262.989 220.817 263.3 221.409 263.921C222.001 264.536 222.297 265.427 222.297 266.593V273ZM231.297 273L230.778 271.664H230.708C230.257 272.232 229.791 272.628 229.311 272.851C228.836 273.067 228.215 273.176 227.447 273.176C226.504 273.176 225.76 272.906 225.215 272.367C224.676 271.828 224.406 271.061 224.406 270.064C224.406 269.021 224.77 268.254 225.496 267.762C226.229 267.264 227.33 266.988 228.801 266.936L230.506 266.883V266.452C230.506 265.456 229.996 264.958 228.977 264.958C228.191 264.958 227.269 265.195 226.208 265.67L225.32 263.859C226.451 263.268 227.705 262.972 229.082 262.972C230.4 262.972 231.411 263.259 232.114 263.833C232.817 264.407 233.169 265.28 233.169 266.452V273H231.297ZM230.506 268.447L229.469 268.482C228.689 268.506 228.109 268.646 227.729 268.904C227.348 269.162 227.157 269.555 227.157 270.082C227.157 270.838 227.591 271.216 228.458 271.216C229.079 271.216 229.574 271.037 229.943 270.68C230.318 270.322 230.506 269.848 230.506 269.256V268.447ZM245.008 273H242.327V267.261C242.327 266.552 242.201 266.021 241.949 265.67C241.697 265.312 241.296 265.134 240.745 265.134C239.995 265.134 239.453 265.386 239.119 265.89C238.785 266.388 238.618 267.217 238.618 268.377V273H235.938V263.174H237.985L238.346 264.431H238.495C238.794 263.956 239.204 263.599 239.726 263.358C240.253 263.112 240.851 262.989 241.519 262.989C242.661 262.989 243.528 263.3 244.12 263.921C244.712 264.536 245.008 265.427 245.008 266.593V273ZM251.758 273.176C248.699 273.176 247.17 271.497 247.17 268.14C247.17 266.47 247.586 265.195 248.418 264.316C249.25 263.432 250.442 262.989 251.995 262.989C253.132 262.989 254.151 263.212 255.054 263.657L254.263 265.731C253.841 265.562 253.448 265.424 253.085 265.318C252.722 265.207 252.358 265.151 251.995 265.151C250.601 265.151 249.903 266.142 249.903 268.122C249.903 270.044 250.601 271.005 251.995 271.005C252.511 271.005 252.988 270.938 253.428 270.803C253.867 270.662 254.307 270.445 254.746 270.152V272.446C254.312 272.722 253.873 272.912 253.428 273.018C252.988 273.123 252.432 273.176 251.758 273.176ZM261.101 264.896C260.532 264.896 260.087 265.078 259.765 265.441C259.442 265.799 259.258 266.309 259.211 266.971H262.973C262.961 266.309 262.788 265.799 262.454 265.441C262.12 265.078 261.669 264.896 261.101 264.896ZM261.479 273.176C259.896 273.176 258.66 272.739 257.77 271.866C256.879 270.993 256.434 269.757 256.434 268.157C256.434 266.511 256.844 265.239 257.664 264.343C258.49 263.44 259.63 262.989 261.083 262.989C262.472 262.989 263.553 263.385 264.326 264.176C265.1 264.967 265.486 266.06 265.486 267.454V268.755H259.149C259.179 269.517 259.404 270.111 259.826 270.539C260.248 270.967 260.84 271.181 261.602 271.181C262.193 271.181 262.753 271.119 263.28 270.996C263.808 270.873 264.358 270.677 264.933 270.407V272.481C264.464 272.716 263.963 272.889 263.43 273C262.896 273.117 262.246 273.176 261.479 273.176ZM277.993 273L274.899 262.919H274.82C274.932 264.97 274.987 266.338 274.987 267.023V273H272.553V260.15H276.262L279.303 269.977H279.355L282.581 260.15H286.29V273H283.75V266.918C283.75 266.631 283.753 266.3 283.759 265.925C283.771 265.55 283.812 264.554 283.882 262.937H283.803L280.489 273H277.993ZM291.458 268.069C291.458 269.042 291.616 269.777 291.933 270.275C292.255 270.773 292.776 271.022 293.497 271.022C294.212 271.022 294.725 270.776 295.035 270.284C295.352 269.786 295.51 269.048 295.51 268.069C295.51 267.097 295.352 266.367 295.035 265.881C294.719 265.395 294.2 265.151 293.479 265.151C292.765 265.151 292.249 265.395 291.933 265.881C291.616 266.361 291.458 267.091 291.458 268.069ZM298.252 268.069C298.252 269.669 297.83 270.92 296.986 271.822C296.143 272.725 294.968 273.176 293.462 273.176C292.519 273.176 291.687 272.971 290.966 272.561C290.245 272.145 289.691 271.55 289.305 270.776C288.918 270.003 288.725 269.101 288.725 268.069C288.725 266.464 289.144 265.216 289.981 264.325C290.819 263.435 291.997 262.989 293.515 262.989C294.458 262.989 295.29 263.194 296.011 263.604C296.731 264.015 297.285 264.604 297.672 265.371C298.059 266.139 298.252 267.038 298.252 268.069ZM303.578 273.176C302.424 273.176 301.516 272.728 300.854 271.831C300.197 270.935 299.869 269.692 299.869 268.104C299.869 266.493 300.203 265.239 300.871 264.343C301.545 263.44 302.471 262.989 303.648 262.989C304.885 262.989 305.828 263.47 306.479 264.431H306.566C306.432 263.698 306.364 263.045 306.364 262.471V259.324H309.054V273H306.997L306.479 271.726H306.364C305.755 272.692 304.826 273.176 303.578 273.176ZM304.519 271.04C305.204 271.04 305.705 270.841 306.021 270.442C306.344 270.044 306.52 269.367 306.549 268.412V268.122C306.549 267.067 306.385 266.312 306.057 265.854C305.734 265.397 305.207 265.169 304.475 265.169C303.877 265.169 303.411 265.424 303.077 265.934C302.749 266.438 302.585 267.173 302.585 268.14C302.585 269.106 302.752 269.833 303.086 270.319C303.42 270.8 303.897 271.04 304.519 271.04ZM315.927 264.896C315.358 264.896 314.913 265.078 314.591 265.441C314.269 265.799 314.084 266.309 314.037 266.971H317.799C317.787 266.309 317.614 265.799 317.28 265.441C316.946 265.078 316.495 264.896 315.927 264.896ZM316.305 273.176C314.723 273.176 313.486 272.739 312.596 271.866C311.705 270.993 311.26 269.757 311.26 268.157C311.26 266.511 311.67 265.239 312.49 264.343C313.316 263.44 314.456 262.989 315.909 262.989C317.298 262.989 318.379 263.385 319.152 264.176C319.926 264.967 320.312 266.06 320.312 267.454V268.755H313.976C314.005 269.517 314.23 270.111 314.652 270.539C315.074 270.967 315.666 271.181 316.428 271.181C317.02 271.181 317.579 271.119 318.106 270.996C318.634 270.873 319.185 270.677 319.759 270.407V272.481C319.29 272.716 318.789 272.889 318.256 273C317.723 273.117 317.072 273.176 316.305 273.176Z" fill="#1E0D26"/>
<path d="M165.653 289.901C164.555 289.901 163.687 290.268 163.049 291.002C162.415 291.731 162.099 292.731 162.099 294.003C162.099 295.311 162.404 296.323 163.015 297.038C163.63 297.749 164.505 298.104 165.64 298.104C166.337 298.104 167.132 297.979 168.025 297.729V298.747C167.333 299.007 166.478 299.137 165.462 299.137C163.99 299.137 162.853 298.69 162.051 297.797C161.253 296.904 160.854 295.634 160.854 293.989C160.854 292.959 161.046 292.057 161.429 291.282C161.816 290.507 162.372 289.91 163.097 289.491C163.826 289.072 164.683 288.862 165.667 288.862C166.715 288.862 167.631 289.054 168.415 289.437L167.923 290.435C167.166 290.079 166.41 289.901 165.653 289.901ZM173.453 291.371C173.786 291.371 174.084 291.398 174.349 291.453L174.191 292.506C173.882 292.438 173.608 292.403 173.371 292.403C172.765 292.403 172.245 292.649 171.812 293.142C171.384 293.634 171.17 294.247 171.17 294.98V299H170.035V291.508H170.972L171.102 292.896H171.156C171.434 292.408 171.769 292.032 172.161 291.768C172.553 291.503 172.984 291.371 173.453 291.371ZM178.915 299.137C177.808 299.137 176.933 298.799 176.29 298.125C175.652 297.451 175.333 296.514 175.333 295.315C175.333 294.108 175.629 293.148 176.222 292.438C176.819 291.727 177.618 291.371 178.621 291.371C179.56 291.371 180.303 291.681 180.85 292.301C181.396 292.916 181.67 293.729 181.67 294.741V295.459H176.509C176.532 296.339 176.753 297.006 177.172 297.462C177.596 297.918 178.19 298.146 178.956 298.146C179.763 298.146 180.56 297.977 181.349 297.64V298.651C180.948 298.825 180.567 298.948 180.207 299.021C179.852 299.098 179.421 299.137 178.915 299.137ZM178.607 292.321C178.006 292.321 177.525 292.517 177.165 292.909C176.81 293.301 176.6 293.843 176.536 294.536H180.453C180.453 293.821 180.294 293.274 179.975 292.896C179.656 292.513 179.2 292.321 178.607 292.321ZM188.219 299L187.993 297.934H187.938C187.565 298.403 187.191 298.722 186.817 298.891C186.448 299.055 185.986 299.137 185.43 299.137C184.687 299.137 184.104 298.945 183.68 298.562C183.26 298.18 183.051 297.635 183.051 296.929C183.051 295.416 184.261 294.623 186.681 294.55L187.952 294.509V294.044C187.952 293.456 187.825 293.023 187.569 292.745C187.319 292.463 186.915 292.321 186.359 292.321C185.735 292.321 185.029 292.513 184.24 292.896L183.892 292.027C184.261 291.827 184.664 291.67 185.102 291.556C185.544 291.442 185.986 291.385 186.428 291.385C187.321 291.385 187.982 291.583 188.41 291.979C188.843 292.376 189.06 293.012 189.06 293.887V299H188.219ZM185.655 298.2C186.362 298.2 186.915 298.007 187.316 297.619C187.722 297.232 187.925 296.689 187.925 295.992V295.315L186.79 295.363C185.888 295.395 185.236 295.536 184.835 295.787C184.438 296.033 184.24 296.418 184.24 296.942C184.24 297.353 184.363 297.665 184.609 297.879C184.86 298.093 185.209 298.2 185.655 298.2ZM193.824 298.2C194.025 298.2 194.218 298.187 194.405 298.159C194.592 298.127 194.74 298.095 194.85 298.063V298.932C194.727 298.991 194.544 299.039 194.303 299.075C194.066 299.116 193.852 299.137 193.66 299.137C192.211 299.137 191.486 298.373 191.486 296.847V292.39H190.413V291.843L191.486 291.371L191.965 289.771H192.621V291.508H194.795V292.39H192.621V296.799C192.621 297.25 192.728 297.596 192.942 297.838C193.157 298.079 193.451 298.2 193.824 298.2ZM199.519 299.137C198.411 299.137 197.536 298.799 196.894 298.125C196.256 297.451 195.937 296.514 195.937 295.315C195.937 294.108 196.233 293.148 196.825 292.438C197.422 291.727 198.222 291.371 199.225 291.371C200.163 291.371 200.906 291.681 201.453 292.301C202 292.916 202.273 293.729 202.273 294.741V295.459H197.112C197.135 296.339 197.356 297.006 197.775 297.462C198.199 297.918 198.794 298.146 199.56 298.146C200.366 298.146 201.164 297.977 201.952 297.64V298.651C201.551 298.825 201.171 298.948 200.811 299.021C200.455 299.098 200.024 299.137 199.519 299.137ZM199.211 292.321C198.609 292.321 198.129 292.517 197.769 292.909C197.413 293.301 197.203 293.843 197.14 294.536H201.057C201.057 293.821 200.897 293.274 200.578 292.896C200.259 292.513 199.803 292.321 199.211 292.321ZM209.314 297.995H209.253C208.729 298.756 207.945 299.137 206.901 299.137C205.922 299.137 205.158 298.802 204.611 298.132C204.069 297.462 203.798 296.509 203.798 295.274C203.798 294.039 204.071 293.08 204.618 292.396C205.165 291.713 205.926 291.371 206.901 291.371C207.918 291.371 208.697 291.74 209.239 292.479H209.328L209.28 291.938L209.253 291.412V288.363H210.388V299H209.465L209.314 297.995ZM207.045 298.187C207.82 298.187 208.38 297.977 208.727 297.558C209.077 297.134 209.253 296.452 209.253 295.514V295.274C209.253 294.213 209.075 293.456 208.72 293.005C208.369 292.549 207.806 292.321 207.031 292.321C206.366 292.321 205.855 292.581 205.5 293.101C205.149 293.616 204.974 294.345 204.974 295.288C204.974 296.245 205.149 296.967 205.5 297.455C205.851 297.943 206.366 298.187 207.045 298.187ZM222.959 296.703H221.476V299H220.389V296.703H215.528V295.712L220.272 288.951H221.476V295.671H222.959V296.703ZM220.389 295.671V292.349C220.389 291.697 220.411 290.961 220.457 290.141H220.402C220.184 290.578 219.979 290.94 219.787 291.228L216.663 295.671H220.389ZM226.869 298.2C227.07 298.2 227.263 298.187 227.45 298.159C227.637 298.127 227.785 298.095 227.895 298.063V298.932C227.771 298.991 227.589 299.039 227.348 299.075C227.111 299.116 226.896 299.137 226.705 299.137C225.256 299.137 224.531 298.373 224.531 296.847V292.39H223.458V291.843L224.531 291.371L225.01 289.771H225.666V291.508H227.84V292.39H225.666V296.799C225.666 297.25 225.773 297.596 225.987 297.838C226.201 298.079 226.495 298.2 226.869 298.2ZM234.525 299V294.153C234.525 293.543 234.386 293.087 234.108 292.786C233.83 292.485 233.395 292.335 232.803 292.335C232.014 292.335 231.438 292.549 231.073 292.978C230.713 293.406 230.533 294.108 230.533 295.083V299H229.398V288.363H230.533V291.583C230.533 291.97 230.515 292.292 230.479 292.547H230.547C230.77 292.187 231.087 291.904 231.497 291.699C231.912 291.49 232.383 291.385 232.912 291.385C233.828 291.385 234.514 291.604 234.97 292.041C235.43 292.474 235.66 293.164 235.66 294.112V299H234.525ZM242.968 299H241.806V289.006H247.377V290.038H242.968V293.695H247.11V294.728H242.968V299ZM252.032 299.137C250.925 299.137 250.05 298.799 249.407 298.125C248.769 297.451 248.45 296.514 248.45 295.315C248.45 294.108 248.746 293.148 249.339 292.438C249.936 291.727 250.736 291.371 251.738 291.371C252.677 291.371 253.42 291.681 253.967 292.301C254.514 292.916 254.787 293.729 254.787 294.741V295.459H249.626C249.649 296.339 249.87 297.006 250.289 297.462C250.713 297.918 251.308 298.146 252.073 298.146C252.88 298.146 253.677 297.977 254.466 297.64V298.651C254.065 298.825 253.684 298.948 253.324 299.021C252.969 299.098 252.538 299.137 252.032 299.137ZM251.725 292.321C251.123 292.321 250.642 292.517 250.282 292.909C249.927 293.301 249.717 293.843 249.653 294.536H253.57C253.57 293.821 253.411 293.274 253.092 292.896C252.773 292.513 252.317 292.321 251.725 292.321ZM260.215 291.385C261.199 291.385 261.963 291.722 262.505 292.396C263.052 293.066 263.325 294.017 263.325 295.247C263.325 296.478 263.049 297.435 262.498 298.118C261.951 298.797 261.19 299.137 260.215 299.137C259.727 299.137 259.281 299.048 258.875 298.87C258.474 298.688 258.137 298.41 257.863 298.036H257.781L257.542 299H256.729V288.363H257.863V290.947C257.863 291.526 257.845 292.046 257.809 292.506H257.863C258.392 291.758 259.176 291.385 260.215 291.385ZM260.051 292.335C259.276 292.335 258.718 292.558 258.376 293.005C258.034 293.447 257.863 294.194 257.863 295.247C257.863 296.3 258.039 297.054 258.39 297.51C258.741 297.961 259.303 298.187 260.078 298.187C260.775 298.187 261.295 297.934 261.637 297.428C261.979 296.917 262.149 296.186 262.149 295.233C262.149 294.258 261.979 293.531 261.637 293.053C261.295 292.574 260.766 292.335 260.051 292.335ZM275.001 299H268.432V298.022L271.063 295.377C271.866 294.566 272.394 293.987 272.649 293.641C272.905 293.294 273.096 292.957 273.224 292.629C273.351 292.301 273.415 291.948 273.415 291.569C273.415 291.036 273.253 290.615 272.93 290.305C272.606 289.99 272.157 289.833 271.583 289.833C271.168 289.833 270.774 289.901 270.4 290.038C270.031 290.175 269.619 290.423 269.163 290.783L268.562 290.011C269.482 289.245 270.485 288.862 271.569 288.862C272.508 288.862 273.244 289.104 273.777 289.587C274.311 290.065 274.577 290.71 274.577 291.521C274.577 292.155 274.399 292.782 274.044 293.401C273.688 294.021 273.023 294.805 272.048 295.753L269.86 297.893V297.947H275.001V299ZM283.067 293.989C283.067 295.716 282.794 297.006 282.247 297.858C281.705 298.711 280.873 299.137 279.752 299.137C278.676 299.137 277.858 298.701 277.298 297.831C276.737 296.956 276.457 295.675 276.457 293.989C276.457 292.248 276.728 290.956 277.271 290.113C277.813 289.27 278.64 288.849 279.752 288.849C280.837 288.849 281.659 289.288 282.22 290.168C282.785 291.048 283.067 292.321 283.067 293.989ZM277.605 293.989C277.605 295.443 277.776 296.503 278.118 297.168C278.46 297.829 279.005 298.159 279.752 298.159C280.508 298.159 281.055 297.824 281.393 297.154C281.734 296.48 281.905 295.425 281.905 293.989C281.905 292.554 281.734 291.503 281.393 290.838C281.055 290.168 280.508 289.833 279.752 289.833C279.005 289.833 278.46 290.163 278.118 290.824C277.776 291.48 277.605 292.535 277.605 293.989ZM291.024 299H284.455V298.022L287.087 295.377C287.889 294.566 288.418 293.987 288.673 293.641C288.928 293.294 289.119 292.957 289.247 292.629C289.375 292.301 289.438 291.948 289.438 291.569C289.438 291.036 289.277 290.615 288.953 290.305C288.63 289.99 288.181 289.833 287.606 289.833C287.192 289.833 286.798 289.901 286.424 290.038C286.055 290.175 285.642 290.423 285.187 290.783L284.585 290.011C285.506 289.245 286.508 288.862 287.593 288.862C288.532 288.862 289.268 289.104 289.801 289.587C290.334 290.065 290.601 290.71 290.601 291.521C290.601 292.155 290.423 292.782 290.067 293.401C289.712 294.021 289.047 294.805 288.071 295.753L285.884 297.893V297.947H291.024V299ZM296.671 299H295.563V291.877C295.563 291.285 295.582 290.724 295.618 290.195C295.522 290.291 295.415 290.391 295.297 290.496C295.178 290.601 294.636 291.045 293.67 291.829L293.068 291.05L295.714 289.006H296.671V299ZM308.319 299H307.212V291.877C307.212 291.285 307.23 290.724 307.267 290.195C307.171 290.291 307.064 290.391 306.945 290.496C306.827 290.601 306.285 291.045 305.318 291.829L304.717 291.05L307.362 289.006H308.319V299ZM316.331 299H315.224V291.877C315.224 291.285 315.242 290.724 315.278 290.195C315.183 290.291 315.076 290.391 314.957 290.496C314.839 290.601 314.296 291.045 313.33 291.829L312.729 291.05L315.374 289.006H316.331V299ZM320.494 298.275C320.494 297.97 320.562 297.74 320.699 297.585C320.84 297.425 321.041 297.346 321.301 297.346C321.565 297.346 321.77 297.425 321.916 297.585C322.066 297.74 322.142 297.97 322.142 298.275C322.142 298.572 322.066 298.799 321.916 298.959C321.766 299.118 321.561 299.198 321.301 299.198C321.068 299.198 320.875 299.128 320.72 298.986C320.569 298.84 320.494 298.604 320.494 298.275ZM320.494 292.239C320.494 291.624 320.763 291.316 321.301 291.316C321.861 291.316 322.142 291.624 322.142 292.239C322.142 292.535 322.066 292.763 321.916 292.923C321.766 293.082 321.561 293.162 321.301 293.162C321.068 293.162 320.875 293.091 320.72 292.95C320.569 292.804 320.494 292.567 320.494 292.239ZM330.912 296.703H329.429V299H328.342V296.703H323.481V295.712L328.226 288.951H329.429V295.671H330.912V296.703ZM328.342 295.671V292.349C328.342 291.697 328.365 290.961 328.41 290.141H328.355C328.137 290.578 327.932 290.94 327.74 291.228L324.616 295.671H328.342ZM335.007 292.896C336.06 292.896 336.887 293.158 337.488 293.682C338.094 294.201 338.397 294.914 338.397 295.821C338.397 296.856 338.067 297.667 337.406 298.255C336.75 298.843 335.843 299.137 334.686 299.137C333.56 299.137 332.701 298.957 332.108 298.597V297.503C332.427 297.708 332.824 297.87 333.298 297.988C333.772 298.102 334.239 298.159 334.699 298.159C335.501 298.159 336.123 297.97 336.565 297.592C337.012 297.214 337.235 296.667 337.235 295.951C337.235 294.557 336.381 293.859 334.672 293.859C334.239 293.859 333.66 293.925 332.936 294.058L332.348 293.682L332.724 289.006H337.693V290.052H333.694L333.441 293.053C333.965 292.948 334.487 292.896 335.007 292.896ZM345.021 299L344.796 297.934H344.741C344.368 298.403 343.994 298.722 343.62 298.891C343.251 299.055 342.788 299.137 342.232 299.137C341.49 299.137 340.906 298.945 340.482 298.562C340.063 298.18 339.854 297.635 339.854 296.929C339.854 295.416 341.063 294.623 343.483 294.55L344.755 294.509V294.044C344.755 293.456 344.627 293.023 344.372 292.745C344.121 292.463 343.718 292.321 343.162 292.321C342.538 292.321 341.831 292.513 341.043 292.896L340.694 292.027C341.063 291.827 341.467 291.67 341.904 291.556C342.346 291.442 342.788 291.385 343.23 291.385C344.124 291.385 344.785 291.583 345.213 291.979C345.646 292.376 345.862 293.012 345.862 293.887V299H345.021ZM342.458 298.2C343.164 298.2 343.718 298.007 344.119 297.619C344.525 297.232 344.728 296.689 344.728 295.992V295.315L343.593 295.363C342.69 295.395 342.039 295.536 341.638 295.787C341.241 296.033 341.043 296.418 341.043 296.942C341.043 297.353 341.166 297.665 341.412 297.879C341.663 298.093 342.011 298.2 342.458 298.2ZM357.757 299V294.126C357.757 293.529 357.629 293.082 357.374 292.786C357.119 292.485 356.722 292.335 356.185 292.335C355.478 292.335 354.956 292.538 354.619 292.943C354.282 293.349 354.113 293.973 354.113 294.816V299H352.979V294.126C352.979 293.529 352.851 293.082 352.596 292.786C352.34 292.485 351.942 292.335 351.399 292.335C350.688 292.335 350.167 292.549 349.834 292.978C349.506 293.401 349.342 294.099 349.342 295.069V299H348.207V291.508H349.13L349.314 292.533H349.369C349.583 292.169 349.884 291.884 350.271 291.679C350.663 291.474 351.101 291.371 351.584 291.371C352.755 291.371 353.521 291.795 353.881 292.643H353.936C354.159 292.251 354.482 291.941 354.906 291.713C355.33 291.485 355.813 291.371 356.355 291.371C357.203 291.371 357.837 291.59 358.256 292.027C358.68 292.46 358.892 293.155 358.892 294.112V299H357.757Z" fill="#999999"/>
<g clip-path="url(#clip1)">
<path d="M689 273V279H695" stroke="#C0BCC2" stroke-width="2" stroke-miterlimit="10" stroke-linecap="square"/>
<path d="M679.965 289.87L679.236 284.073L684.928 285.659" stroke="#C0BCC2" stroke-width="2" stroke-miterlimit="10" stroke-linecap="square"/>
<path d="M679.237 284.073C680.476 286.46 682.547 288.311 685.058 289.274C687.569 290.238 690.346 290.249 692.865 289.304C695.383 288.359 697.468 286.524 698.725 284.146C699.982 281.768 700.324 279.012 699.687 276.399C699.05 273.786 697.477 271.497 695.267 269.965C693.056 268.432 690.361 267.763 687.69 268.083C685.02 268.404 682.559 269.691 680.773 271.703C678.988 273.714 678.001 276.31 678 279" stroke="#C0BCC2" stroke-width="2" stroke-miterlimit="10"/>
</g>
<path d="M746 276V288C746 288.53 745.789 289.039 745.414 289.414C745.039 289.789 744.53 290 744 290H732C731.47 290 730.961 289.789 730.586 289.414C730.211 289.039 730 288.53 730 288V276" stroke="#F67055" stroke-width="2" stroke-miterlimit="10" stroke-linecap="square"/>
<path d="M727 272H749" stroke="#F67055" stroke-width="2" stroke-miterlimit="10" stroke-linecap="square"/>
<path d="M738 279V285" stroke="#F67055" stroke-width="2" stroke-miterlimit="10" stroke-linecap="square"/>
<path d="M734 279V285" stroke="#F67055" stroke-width="2" stroke-miterlimit="10" stroke-linecap="square"/>
<path d="M742 279V285" stroke="#F67055" stroke-width="2" stroke-miterlimit="10" stroke-linecap="square"/>
<path d="M734 272V268H742V272" stroke="#F67055" stroke-width="2" stroke-miterlimit="10"/>
<rect x="592" y="264" width="55" height="30" rx="15" fill="#22194D"/>
<circle cx="607" cy="279" r="10" fill="white"/>
<line x1="160" y1="319.5" x2="750" y2="319.5" stroke="#F2F2F2"/>
<path d="M172.278 347.452C172.278 349.567 171.675 351.188 170.468 352.312C169.267 353.438 167.529 354 165.256 354H161.617V341.15H165.651C167.749 341.15 169.378 341.704 170.538 342.812C171.698 343.919 172.278 345.466 172.278 347.452ZM169.448 347.522C169.448 344.763 168.229 343.383 165.792 343.383H164.342V351.75H165.511C168.136 351.75 169.448 350.341 169.448 347.522ZM180.971 354L180.452 352.664H180.382C179.931 353.232 179.465 353.628 178.984 353.851C178.51 354.067 177.889 354.176 177.121 354.176C176.178 354.176 175.434 353.906 174.889 353.367C174.35 352.828 174.08 352.061 174.08 351.064C174.08 350.021 174.443 349.254 175.17 348.762C175.902 348.264 177.004 347.988 178.475 347.936L180.18 347.883V347.452C180.18 346.456 179.67 345.958 178.65 345.958C177.865 345.958 176.942 346.195 175.882 346.67L174.994 344.859C176.125 344.268 177.379 343.972 178.756 343.972C180.074 343.972 181.085 344.259 181.788 344.833C182.491 345.407 182.843 346.28 182.843 347.452V354H180.971ZM180.18 349.447L179.143 349.482C178.363 349.506 177.783 349.646 177.402 349.904C177.021 350.162 176.831 350.555 176.831 351.082C176.831 351.838 177.265 352.216 178.132 352.216C178.753 352.216 179.248 352.037 179.617 351.68C179.992 351.322 180.18 350.848 180.18 350.256V349.447ZM191.096 343.989C191.459 343.989 191.761 344.016 192.001 344.068L191.799 346.582C191.582 346.523 191.318 346.494 191.008 346.494C190.152 346.494 189.484 346.714 189.004 347.153C188.529 347.593 188.292 348.208 188.292 348.999V354H185.611V344.174H187.642L188.037 345.826H188.169C188.474 345.275 188.884 344.833 189.399 344.499C189.921 344.159 190.486 343.989 191.096 343.989ZM196.36 348.656L197.529 347.162L200.28 344.174H203.304L199.401 348.437L203.541 354H200.447L197.617 350.019L196.466 350.941V354H193.785V340.324H196.466V346.424L196.325 348.656H196.36ZM218.421 354H215.74V348.261C215.74 347.552 215.62 347.021 215.38 346.67C215.146 346.312 214.773 346.134 214.264 346.134C213.578 346.134 213.08 346.386 212.77 346.89C212.459 347.394 212.304 348.223 212.304 349.377V354H209.623V344.174H211.671L212.031 345.431H212.181C212.444 344.979 212.825 344.628 213.323 344.376C213.821 344.118 214.393 343.989 215.037 343.989C216.508 343.989 217.504 344.47 218.025 345.431H218.263C218.526 344.974 218.913 344.619 219.423 344.367C219.938 344.115 220.519 343.989 221.163 343.989C222.276 343.989 223.117 344.276 223.686 344.851C224.26 345.419 224.547 346.333 224.547 347.593V354H221.857V348.261C221.857 347.552 221.737 347.021 221.497 346.67C221.263 346.312 220.891 346.134 220.381 346.134C219.725 346.134 219.232 346.368 218.904 346.837C218.582 347.306 218.421 348.05 218.421 349.069V354ZM229.442 349.069C229.442 350.042 229.601 350.777 229.917 351.275C230.239 351.773 230.761 352.022 231.481 352.022C232.196 352.022 232.709 351.776 233.02 351.284C233.336 350.786 233.494 350.048 233.494 349.069C233.494 348.097 233.336 347.367 233.02 346.881C232.703 346.395 232.185 346.151 231.464 346.151C230.749 346.151 230.233 346.395 229.917 346.881C229.601 347.361 229.442 348.091 229.442 349.069ZM236.236 349.069C236.236 350.669 235.814 351.92 234.971 352.822C234.127 353.725 232.952 354.176 231.446 354.176C230.503 354.176 229.671 353.971 228.95 353.561C228.229 353.145 227.676 352.55 227.289 351.776C226.902 351.003 226.709 350.101 226.709 349.069C226.709 347.464 227.128 346.216 227.966 345.325C228.804 344.435 229.981 343.989 231.499 343.989C232.442 343.989 233.274 344.194 233.995 344.604C234.716 345.015 235.27 345.604 235.656 346.371C236.043 347.139 236.236 348.038 236.236 349.069ZM241.562 354.176C240.408 354.176 239.5 353.728 238.838 352.831C238.182 351.935 237.854 350.692 237.854 349.104C237.854 347.493 238.188 346.239 238.855 345.343C239.529 344.44 240.455 343.989 241.633 343.989C242.869 343.989 243.812 344.47 244.463 345.431H244.551C244.416 344.698 244.349 344.045 244.349 343.471V340.324H247.038V354H244.981L244.463 352.726H244.349C243.739 353.692 242.811 354.176 241.562 354.176ZM242.503 352.04C243.188 352.04 243.689 351.841 244.006 351.442C244.328 351.044 244.504 350.367 244.533 349.412V349.122C244.533 348.067 244.369 347.312 244.041 346.854C243.719 346.397 243.191 346.169 242.459 346.169C241.861 346.169 241.396 346.424 241.062 346.934C240.733 347.438 240.569 348.173 240.569 349.14C240.569 350.106 240.736 350.833 241.07 351.319C241.404 351.8 241.882 352.04 242.503 352.04ZM253.911 345.896C253.343 345.896 252.897 346.078 252.575 346.441C252.253 346.799 252.068 347.309 252.021 347.971H255.783C255.771 347.309 255.599 346.799 255.265 346.441C254.931 346.078 254.479 345.896 253.911 345.896ZM254.289 354.176C252.707 354.176 251.471 353.739 250.58 352.866C249.689 351.993 249.244 350.757 249.244 349.157C249.244 347.511 249.654 346.239 250.475 345.343C251.301 344.44 252.44 343.989 253.894 343.989C255.282 343.989 256.363 344.385 257.137 345.176C257.91 345.967 258.297 347.06 258.297 348.454V349.755H251.96C251.989 350.517 252.215 351.111 252.637 351.539C253.059 351.967 253.65 352.181 254.412 352.181C255.004 352.181 255.563 352.119 256.091 351.996C256.618 351.873 257.169 351.677 257.743 351.407V353.481C257.274 353.716 256.773 353.889 256.24 354C255.707 354.117 255.057 354.176 254.289 354.176Z" fill="#1E0D26"/>
<path d="M165.653 370.901C164.555 370.901 163.687 371.268 163.049 372.002C162.415 372.731 162.099 373.731 162.099 375.003C162.099 376.311 162.404 377.323 163.015 378.038C163.63 378.749 164.505 379.104 165.64 379.104C166.337 379.104 167.132 378.979 168.025 378.729V379.747C167.333 380.007 166.478 380.137 165.462 380.137C163.99 380.137 162.853 379.69 162.051 378.797C161.253 377.904 160.854 376.634 160.854 374.989C160.854 373.959 161.046 373.057 161.429 372.282C161.816 371.507 162.372 370.91 163.097 370.491C163.826 370.072 164.683 369.862 165.667 369.862C166.715 369.862 167.631 370.054 168.415 370.437L167.923 371.435C167.166 371.079 166.41 370.901 165.653 370.901ZM173.453 372.371C173.786 372.371 174.084 372.398 174.349 372.453L174.191 373.506C173.882 373.438 173.608 373.403 173.371 373.403C172.765 373.403 172.245 373.649 171.812 374.142C171.384 374.634 171.17 375.247 171.17 375.98V380H170.035V372.508H170.972L171.102 373.896H171.156C171.434 373.408 171.769 373.032 172.161 372.768C172.553 372.503 172.984 372.371 173.453 372.371ZM178.915 380.137C177.808 380.137 176.933 379.799 176.29 379.125C175.652 378.451 175.333 377.514 175.333 376.315C175.333 375.108 175.629 374.148 176.222 373.438C176.819 372.727 177.618 372.371 178.621 372.371C179.56 372.371 180.303 372.681 180.85 373.301C181.396 373.916 181.67 374.729 181.67 375.741V376.459H176.509C176.532 377.339 176.753 378.006 177.172 378.462C177.596 378.918 178.19 379.146 178.956 379.146C179.763 379.146 180.56 378.977 181.349 378.64V379.651C180.948 379.825 180.567 379.948 180.207 380.021C179.852 380.098 179.421 380.137 178.915 380.137ZM178.607 373.321C178.006 373.321 177.525 373.517 177.165 373.909C176.81 374.301 176.6 374.843 176.536 375.536H180.453C180.453 374.821 180.294 374.274 179.975 373.896C179.656 373.513 179.2 373.321 178.607 373.321ZM188.219 380L187.993 378.934H187.938C187.565 379.403 187.191 379.722 186.817 379.891C186.448 380.055 185.986 380.137 185.43 380.137C184.687 380.137 184.104 379.945 183.68 379.562C183.26 379.18 183.051 378.635 183.051 377.929C183.051 376.416 184.261 375.623 186.681 375.55L187.952 375.509V375.044C187.952 374.456 187.825 374.023 187.569 373.745C187.319 373.463 186.915 373.321 186.359 373.321C185.735 373.321 185.029 373.513 184.24 373.896L183.892 373.027C184.261 372.827 184.664 372.67 185.102 372.556C185.544 372.442 185.986 372.385 186.428 372.385C187.321 372.385 187.982 372.583 188.41 372.979C188.843 373.376 189.06 374.012 189.06 374.887V380H188.219ZM185.655 379.2C186.362 379.2 186.915 379.007 187.316 378.619C187.722 378.232 187.925 377.689 187.925 376.992V376.315L186.79 376.363C185.888 376.395 185.236 376.536 184.835 376.787C184.438 377.033 184.24 377.418 184.24 377.942C184.24 378.353 184.363 378.665 184.609 378.879C184.86 379.093 185.209 379.2 185.655 379.2ZM193.824 379.2C194.025 379.2 194.218 379.187 194.405 379.159C194.592 379.127 194.74 379.095 194.85 379.063V379.932C194.727 379.991 194.544 380.039 194.303 380.075C194.066 380.116 193.852 380.137 193.66 380.137C192.211 380.137 191.486 379.373 191.486 377.847V373.39H190.413V372.843L191.486 372.371L191.965 370.771H192.621V372.508H194.795V373.39H192.621V377.799C192.621 378.25 192.728 378.596 192.942 378.838C193.157 379.079 193.451 379.2 193.824 379.2ZM199.519 380.137C198.411 380.137 197.536 379.799 196.894 379.125C196.256 378.451 195.937 377.514 195.937 376.315C195.937 375.108 196.233 374.148 196.825 373.438C197.422 372.727 198.222 372.371 199.225 372.371C200.163 372.371 200.906 372.681 201.453 373.301C202 373.916 202.273 374.729 202.273 375.741V376.459H197.112C197.135 377.339 197.356 378.006 197.775 378.462C198.199 378.918 198.794 379.146 199.56 379.146C200.366 379.146 201.164 378.977 201.952 378.64V379.651C201.551 379.825 201.171 379.948 200.811 380.021C200.455 380.098 200.024 380.137 199.519 380.137ZM199.211 373.321C198.609 373.321 198.129 373.517 197.769 373.909C197.413 374.301 197.203 374.843 197.14 375.536H201.057C201.057 374.821 200.897 374.274 200.578 373.896C200.259 373.513 199.803 373.321 199.211 373.321ZM209.314 378.995H209.253C208.729 379.756 207.945 380.137 206.901 380.137C205.922 380.137 205.158 379.802 204.611 379.132C204.069 378.462 203.798 377.509 203.798 376.274C203.798 375.039 204.071 374.08 204.618 373.396C205.165 372.713 205.926 372.371 206.901 372.371C207.918 372.371 208.697 372.74 209.239 373.479H209.328L209.28 372.938L209.253 372.412V369.363H210.388V380H209.465L209.314 378.995ZM207.045 379.187C207.82 379.187 208.38 378.977 208.727 378.558C209.077 378.134 209.253 377.452 209.253 376.514V376.274C209.253 375.213 209.075 374.456 208.72 374.005C208.369 373.549 207.806 373.321 207.031 373.321C206.366 373.321 205.855 373.581 205.5 374.101C205.149 374.616 204.974 375.345 204.974 376.288C204.974 377.245 205.149 377.967 205.5 378.455C205.851 378.943 206.366 379.187 207.045 379.187ZM222.959 377.703H221.476V380H220.389V377.703H215.528V376.712L220.272 369.951H221.476V376.671H222.959V377.703ZM220.389 376.671V373.349C220.389 372.697 220.411 371.961 220.457 371.141H220.402C220.184 371.578 219.979 371.94 219.787 372.228L216.663 376.671H220.389ZM226.869 379.2C227.07 379.2 227.263 379.187 227.45 379.159C227.637 379.127 227.785 379.095 227.895 379.063V379.932C227.771 379.991 227.589 380.039 227.348 380.075C227.111 380.116 226.896 380.137 226.705 380.137C225.256 380.137 224.531 379.373 224.531 377.847V373.39H223.458V372.843L224.531 372.371L225.01 370.771H225.666V372.508H227.84V373.39H225.666V377.799C225.666 378.25 225.773 378.596 225.987 378.838C226.201 379.079 226.495 379.2 226.869 379.2ZM234.525 380V375.153C234.525 374.543 234.386 374.087 234.108 373.786C233.83 373.485 233.395 373.335 232.803 373.335C232.014 373.335 231.438 373.549 231.073 373.978C230.713 374.406 230.533 375.108 230.533 376.083V380H229.398V369.363H230.533V372.583C230.533 372.97 230.515 373.292 230.479 373.547H230.547C230.77 373.187 231.087 372.904 231.497 372.699C231.912 372.49 232.383 372.385 232.912 372.385C233.828 372.385 234.514 372.604 234.97 373.041C235.43 373.474 235.66 374.164 235.66 375.112V380H234.525ZM242.968 380H241.806V370.006H247.377V371.038H242.968V374.695H247.11V375.728H242.968V380ZM252.032 380.137C250.925 380.137 250.05 379.799 249.407 379.125C248.769 378.451 248.45 377.514 248.45 376.315C248.45 375.108 248.746 374.148 249.339 373.438C249.936 372.727 250.736 372.371 251.738 372.371C252.677 372.371 253.42 372.681 253.967 373.301C254.514 373.916 254.787 374.729 254.787 375.741V376.459H249.626C249.649 377.339 249.87 378.006 250.289 378.462C250.713 378.918 251.308 379.146 252.073 379.146C252.88 379.146 253.677 378.977 254.466 378.64V379.651C254.065 379.825 253.684 379.948 253.324 380.021C252.969 380.098 252.538 380.137 252.032 380.137ZM251.725 373.321C251.123 373.321 250.642 373.517 250.282 373.909C249.927 374.301 249.717 374.843 249.653 375.536H253.57C253.57 374.821 253.411 374.274 253.092 373.896C252.773 373.513 252.317 373.321 251.725 373.321ZM260.215 372.385C261.199 372.385 261.963 372.722 262.505 373.396C263.052 374.066 263.325 375.017 263.325 376.247C263.325 377.478 263.049 378.435 262.498 379.118C261.951 379.797 261.19 380.137 260.215 380.137C259.727 380.137 259.281 380.048 258.875 379.87C258.474 379.688 258.137 379.41 257.863 379.036H257.781L257.542 380H256.729V369.363H257.863V371.947C257.863 372.526 257.845 373.046 257.809 373.506H257.863C258.392 372.758 259.176 372.385 260.215 372.385ZM260.051 373.335C259.276 373.335 258.718 373.558 258.376 374.005C258.034 374.447 257.863 375.194 257.863 376.247C257.863 377.3 258.039 378.054 258.39 378.51C258.741 378.961 259.303 379.187 260.078 379.187C260.775 379.187 261.295 378.934 261.637 378.428C261.979 377.917 262.149 377.186 262.149 376.233C262.149 375.258 261.979 374.531 261.637 374.053C261.295 373.574 260.766 373.335 260.051 373.335ZM275.001 380H268.432V379.022L271.063 376.377C271.866 375.566 272.394 374.987 272.649 374.641C272.905 374.294 273.096 373.957 273.224 373.629C273.351 373.301 273.415 372.948 273.415 372.569C273.415 372.036 273.253 371.615 272.93 371.305C272.606 370.99 272.157 370.833 271.583 370.833C271.168 370.833 270.774 370.901 270.4 371.038C270.031 371.175 269.619 371.423 269.163 371.783L268.562 371.011C269.482 370.245 270.485 369.862 271.569 369.862C272.508 369.862 273.244 370.104 273.777 370.587C274.311 371.065 274.577 371.71 274.577 372.521C274.577 373.155 274.399 373.782 274.044 374.401C273.688 375.021 273.023 375.805 272.048 376.753L269.86 378.893V378.947H275.001V380ZM283.067 374.989C283.067 376.716 282.794 378.006 282.247 378.858C281.705 379.711 280.873 380.137 279.752 380.137C278.676 380.137 277.858 379.701 277.298 378.831C276.737 377.956 276.457 376.675 276.457 374.989C276.457 373.248 276.728 371.956 277.271 371.113C277.813 370.27 278.64 369.849 279.752 369.849C280.837 369.849 281.659 370.288 282.22 371.168C282.785 372.048 283.067 373.321 283.067 374.989ZM277.605 374.989C277.605 376.443 277.776 377.503 278.118 378.168C278.46 378.829 279.005 379.159 279.752 379.159C280.508 379.159 281.055 378.824 281.393 378.154C281.734 377.48 281.905 376.425 281.905 374.989C281.905 373.554 281.734 372.503 281.393 371.838C281.055 371.168 280.508 370.833 279.752 370.833C279.005 370.833 278.46 371.163 278.118 371.824C277.776 372.48 277.605 373.535 277.605 374.989ZM291.024 380H284.455V379.022L287.087 376.377C287.889 375.566 288.418 374.987 288.673 374.641C288.928 374.294 289.119 373.957 289.247 373.629C289.375 373.301 289.438 372.948 289.438 372.569C289.438 372.036 289.277 371.615 288.953 371.305C288.63 370.99 288.181 370.833 287.606 370.833C287.192 370.833 286.798 370.901 286.424 371.038C286.055 371.175 285.642 371.423 285.187 371.783L284.585 371.011C285.506 370.245 286.508 369.862 287.593 369.862C288.532 369.862 289.268 370.104 289.801 370.587C290.334 371.065 290.601 371.71 290.601 372.521C290.601 373.155 290.423 373.782 290.067 374.401C289.712 375.021 289.047 375.805 288.071 376.753L285.884 378.893V378.947H291.024V380ZM296.671 380H295.563V372.877C295.563 372.285 295.582 371.724 295.618 371.195C295.522 371.291 295.415 371.391 295.297 371.496C295.178 371.601 294.636 372.045 293.67 372.829L293.068 372.05L295.714 370.006H296.671V380ZM308.319 380H307.212V372.877C307.212 372.285 307.23 371.724 307.267 371.195C307.171 371.291 307.064 371.391 306.945 371.496C306.827 371.601 306.285 372.045 305.318 372.829L304.717 372.05L307.362 370.006H308.319V380ZM316.331 380H315.224V372.877C315.224 372.285 315.242 371.724 315.278 371.195C315.183 371.291 315.076 371.391 314.957 371.496C314.839 371.601 314.296 372.045 313.33 372.829L312.729 372.05L315.374 370.006H316.331V380ZM320.494 379.275C320.494 378.97 320.562 378.74 320.699 378.585C320.84 378.425 321.041 378.346 321.301 378.346C321.565 378.346 321.77 378.425 321.916 378.585C322.066 378.74 322.142 378.97 322.142 379.275C322.142 379.572 322.066 379.799 321.916 379.959C321.766 380.118 321.561 380.198 321.301 380.198C321.068 380.198 320.875 380.128 320.72 379.986C320.569 379.84 320.494 379.604 320.494 379.275ZM320.494 373.239C320.494 372.624 320.763 372.316 321.301 372.316C321.861 372.316 322.142 372.624 322.142 373.239C322.142 373.535 322.066 373.763 321.916 373.923C321.766 374.082 321.561 374.162 321.301 374.162C321.068 374.162 320.875 374.091 320.72 373.95C320.569 373.804 320.494 373.567 320.494 373.239ZM330.912 377.703H329.429V380H328.342V377.703H323.481V376.712L328.226 369.951H329.429V376.671H330.912V377.703ZM328.342 376.671V373.349C328.342 372.697 328.365 371.961 328.41 371.141H328.355C328.137 371.578 327.932 371.94 327.74 372.228L324.616 376.671H328.342ZM335.007 373.896C336.06 373.896 336.887 374.158 337.488 374.682C338.094 375.201 338.397 375.914 338.397 376.821C338.397 377.856 338.067 378.667 337.406 379.255C336.75 379.843 335.843 380.137 334.686 380.137C333.56 380.137 332.701 379.957 332.108 379.597V378.503C332.427 378.708 332.824 378.87 333.298 378.988C333.772 379.102 334.239 379.159 334.699 379.159C335.501 379.159 336.123 378.97 336.565 378.592C337.012 378.214 337.235 377.667 337.235 376.951C337.235 375.557 336.381 374.859 334.672 374.859C334.239 374.859 333.66 374.925 332.936 375.058L332.348 374.682L332.724 370.006H337.693V371.052H333.694L333.441 374.053C333.965 373.948 334.487 373.896 335.007 373.896ZM345.021 380L344.796 378.934H344.741C344.368 379.403 343.994 379.722 343.62 379.891C343.251 380.055 342.788 380.137 342.232 380.137C341.49 380.137 340.906 379.945 340.482 379.562C340.063 379.18 339.854 378.635 339.854 377.929C339.854 376.416 341.063 375.623 343.483 375.55L344.755 375.509V375.044C344.755 374.456 344.627 374.023 344.372 373.745C344.121 373.463 343.718 373.321 343.162 373.321C342.538 373.321 341.831 373.513 341.043 373.896L340.694 373.027C341.063 372.827 341.467 372.67 341.904 372.556C342.346 372.442 342.788 372.385 343.23 372.385C344.124 372.385 344.785 372.583 345.213 372.979C345.646 373.376 345.862 374.012 345.862 374.887V380H345.021ZM342.458 379.2C343.164 379.2 343.718 379.007 344.119 378.619C344.525 378.232 344.728 377.689 344.728 376.992V376.315L343.593 376.363C342.69 376.395 342.039 376.536 341.638 376.787C341.241 377.033 341.043 377.418 341.043 377.942C341.043 378.353 341.166 378.665 341.412 378.879C341.663 379.093 342.011 379.2 342.458 379.2ZM357.757 380V375.126C357.757 374.529 357.629 374.082 357.374 373.786C357.119 373.485 356.722 373.335 356.185 373.335C355.478 373.335 354.956 373.538 354.619 373.943C354.282 374.349 354.113 374.973 354.113 375.816V380H352.979V375.126C352.979 374.529 352.851 374.082 352.596 373.786C352.34 373.485 351.942 373.335 351.399 373.335C350.688 373.335 350.167 373.549 349.834 373.978C349.506 374.401 349.342 375.099 349.342 376.069V380H348.207V372.508H349.13L349.314 373.533H349.369C349.583 373.169 349.884 372.884 350.271 372.679C350.663 372.474 351.101 372.371 351.584 372.371C352.755 372.371 353.521 372.795 353.881 373.643H353.936C354.159 373.251 354.482 372.941 354.906 372.713C355.33 372.485 355.813 372.371 356.355 372.371C357.203 372.371 357.837 372.59 358.256 373.027C358.68 373.46 358.892 374.155 358.892 375.112V380H357.757Z" fill="#999999"/>
<g clip-path="url(#clip2)">
<path d="M689 354V360H695" stroke="#C0BCC2" stroke-width="2" stroke-miterlimit="10" stroke-linecap="square"/>
<path d="M679.965 370.87L679.236 365.073L684.928 366.659" stroke="#C0BCC2" stroke-width="2" stroke-miterlimit="10" stroke-linecap="square"/>
<path d="M679.237 365.073C680.476 367.46 682.547 369.311 685.058 370.274C687.569 371.238 690.346 371.249 692.865 370.304C695.383 369.359 697.468 367.524 698.725 365.146C699.982 362.768 700.324 360.012 699.687 357.399C699.05 354.786 697.477 352.497 695.267 350.965C693.056 349.432 690.361 348.763 687.69 349.083C685.02 349.404 682.559 350.691 680.773 352.703C678.988 354.714 678.001 357.31 678 360" stroke="#C0BCC2" stroke-width="2" stroke-miterlimit="10"/>
</g>
<path d="M746 357V369C746 369.53 745.789 370.039 745.414 370.414C745.039 370.789 744.53 371 744 371H732C731.47 371 730.961 370.789 730.586 370.414C730.211 370.039 730 369.53 730 369V357" stroke="#F67055" stroke-width="2" stroke-miterlimit="10" stroke-linecap="square"/>
<path d="M727 353H749" stroke="#F67055" stroke-width="2" stroke-miterlimit="10" stroke-linecap="square"/>
<path d="M738 360V366" stroke="#F67055" stroke-width="2" stroke-miterlimit="10" stroke-linecap="square"/>
<path d="M734 360V366" stroke="#F67055" stroke-width="2" stroke-miterlimit="10" stroke-linecap="square"/>
<path d="M742 360V366" stroke="#F67055" stroke-width="2" stroke-miterlimit="10" stroke-linecap="square"/>
<path d="M734 353V349H742V353" stroke="#F67055" stroke-width="2" stroke-miterlimit="10"/>
<rect x="592" y="345" width="55" height="30" rx="15" fill="#22194D"/>
<circle cx="607" cy="360" r="10" fill="white"/>
<path d="M130 98C130 93.5817 133.582 90 138 90H772C776.418 90 780 93.5817 780 98V144H130V98Z" fill="#1E0D26"/>
<rect x="560" y="103" width="200" height="28" rx="14" fill="white"/>
<g clip-path="url(#clip3)">
<circle cx="580.844" cy="115.107" r="6.5" transform="rotate(45 580.844 115.107)" stroke="#1E0D26" stroke-width="2"/>
<path d="M576.719 119.231L570.052 125.898" stroke="#1E0D26" stroke-width="2"/>
</g>
<circle cx="167" cy="117" r="17" fill="white"/>
<path fill-rule="evenodd" clip-rule="evenodd" d="M177.797 106.207C177.729 106.138 177.648 106.084 177.557 106.049C177.467 106.013 177.371 105.997 177.274 106.001C164.497 106.669 159.781 118.044 159.734 118.159C159.684 118.284 159.671 118.421 159.698 118.553C159.725 118.685 159.791 118.806 159.886 118.901L165.098 124.113C165.194 124.209 165.316 124.274 165.449 124.301C165.582 124.328 165.719 124.315 165.845 124.263C165.959 124.218 177.275 119.446 177.998 106.728C178.003 106.632 177.988 106.536 177.953 106.446C177.918 106.356 177.865 106.275 177.797 106.207ZM168.718 117C168.378 117 168.045 116.899 167.763 116.71C167.48 116.521 167.26 116.253 167.13 115.939C167 115.625 166.966 115.279 167.032 114.946C167.098 114.612 167.262 114.306 167.502 114.066C167.743 113.825 168.049 113.662 168.382 113.595C168.716 113.529 169.061 113.563 169.375 113.693C169.689 113.823 169.958 114.044 170.147 114.326C170.335 114.609 170.436 114.941 170.436 115.281C170.436 115.737 170.255 116.174 169.933 116.496C169.611 116.819 169.173 117 168.718 117ZM161.422 109.198C162.855 108.504 164.461 108.252 166.038 108.475C163.596 110.243 161.513 112.46 159.899 115.006L158.1 113.208C157.993 113.101 157.924 112.96 157.905 112.809C157.885 112.658 157.917 112.504 157.995 112.373C158.796 110.998 159.989 109.893 161.422 109.198ZM170.79 125.897L168.987 124.093C171.533 122.466 173.748 120.373 175.516 117.923C175.698 119.162 175.586 120.427 175.19 121.615C174.794 122.804 174.125 123.883 173.236 124.765C172.753 125.243 172.212 125.659 171.626 126.002C171.495 126.08 171.341 126.112 171.19 126.093C171.039 126.073 170.898 126.005 170.79 125.897ZM162.186 124.562C162.186 123.832 161.897 123.133 161.381 122.617C160.866 122.102 160.166 121.812 159.437 121.812C158.708 121.812 158.009 122.102 157.493 122.617C156.419 123.691 156 127.999 156 127.999C156 127.999 160.308 127.58 161.381 126.506C161.897 125.99 162.186 125.291 162.186 124.562Z" fill="#1E0D26"/>
<path d="M197.82 123H195.438V111.578H201.984V113.562H197.82V116.508H201.695V118.484H197.82V123ZM207.648 115.797C207.143 115.797 206.747 115.958 206.461 116.281C206.174 116.599 206.01 117.052 205.969 117.641H209.312C209.302 117.052 209.148 116.599 208.852 116.281C208.555 115.958 208.154 115.797 207.648 115.797ZM207.984 123.156C206.578 123.156 205.479 122.768 204.688 121.992C203.896 121.216 203.5 120.117 203.5 118.695C203.5 117.232 203.865 116.102 204.594 115.305C205.328 114.503 206.341 114.102 207.633 114.102C208.867 114.102 209.828 114.453 210.516 115.156C211.203 115.859 211.547 116.831 211.547 118.07V119.227H205.914C205.94 119.904 206.141 120.432 206.516 120.812C206.891 121.193 207.417 121.383 208.094 121.383C208.62 121.383 209.117 121.328 209.586 121.219C210.055 121.109 210.544 120.935 211.055 120.695V122.539C210.638 122.747 210.193 122.901 209.719 123C209.245 123.104 208.667 123.156 207.984 123.156ZM219.031 123L218.57 121.812H218.508C218.107 122.318 217.693 122.669 217.266 122.867C216.844 123.06 216.292 123.156 215.609 123.156C214.771 123.156 214.109 122.917 213.625 122.438C213.146 121.958 212.906 121.276 212.906 120.391C212.906 119.464 213.229 118.781 213.875 118.344C214.526 117.901 215.505 117.656 216.812 117.609L218.328 117.562V117.18C218.328 116.294 217.875 115.852 216.969 115.852C216.271 115.852 215.451 116.062 214.508 116.484L213.719 114.875C214.724 114.349 215.839 114.086 217.062 114.086C218.234 114.086 219.133 114.341 219.758 114.852C220.383 115.362 220.695 116.138 220.695 117.18V123H219.031ZM218.328 118.953L217.406 118.984C216.714 119.005 216.198 119.13 215.859 119.359C215.521 119.589 215.352 119.938 215.352 120.406C215.352 121.078 215.737 121.414 216.508 121.414C217.06 121.414 217.5 121.255 217.828 120.938C218.161 120.62 218.328 120.198 218.328 119.672V118.953ZM229.344 123L229.023 121.883H228.898C228.643 122.289 228.281 122.604 227.812 122.828C227.344 123.047 226.81 123.156 226.211 123.156C225.185 123.156 224.411 122.883 223.891 122.336C223.37 121.784 223.109 120.992 223.109 119.961V114.266H225.492V119.367C225.492 119.997 225.604 120.471 225.828 120.789C226.052 121.102 226.409 121.258 226.898 121.258C227.565 121.258 228.047 121.036 228.344 120.594C228.641 120.146 228.789 119.406 228.789 118.375V114.266H231.172V123H229.344ZM237.352 121.258C237.768 121.258 238.268 121.167 238.852 120.984V122.758C238.258 123.023 237.529 123.156 236.664 123.156C235.711 123.156 235.016 122.917 234.578 122.438C234.146 121.953 233.93 121.229 233.93 120.266V116.055H232.789V115.047L234.102 114.25L234.789 112.406H236.312V114.266H238.758V116.055H236.312V120.266C236.312 120.604 236.406 120.854 236.594 121.016C236.786 121.177 237.039 121.258 237.352 121.258ZM246.812 123L246.492 121.883H246.367C246.112 122.289 245.75 122.604 245.281 122.828C244.812 123.047 244.279 123.156 243.68 123.156C242.654 123.156 241.88 122.883 241.359 122.336C240.839 121.784 240.578 120.992 240.578 119.961V114.266H242.961V119.367C242.961 119.997 243.073 120.471 243.297 120.789C243.521 121.102 243.878 121.258 244.367 121.258C245.034 121.258 245.516 121.036 245.812 120.594C246.109 120.146 246.258 119.406 246.258 118.375V114.266H248.641V123H246.812ZM256.016 114.102C256.339 114.102 256.607 114.125 256.82 114.172L256.641 116.406C256.448 116.354 256.214 116.328 255.938 116.328C255.177 116.328 254.583 116.523 254.156 116.914C253.734 117.305 253.523 117.852 253.523 118.555V123H251.141V114.266H252.945L253.297 115.734H253.414C253.685 115.245 254.049 114.852 254.508 114.555C254.971 114.253 255.474 114.102 256.016 114.102ZM262.023 115.797C261.518 115.797 261.122 115.958 260.836 116.281C260.549 116.599 260.385 117.052 260.344 117.641H263.688C263.677 117.052 263.523 116.599 263.227 116.281C262.93 115.958 262.529 115.797 262.023 115.797ZM262.359 123.156C260.953 123.156 259.854 122.768 259.062 121.992C258.271 121.216 257.875 120.117 257.875 118.695C257.875 117.232 258.24 116.102 258.969 115.305C259.703 114.503 260.716 114.102 262.008 114.102C263.242 114.102 264.203 114.453 264.891 115.156C265.578 115.859 265.922 116.831 265.922 118.07V119.227H260.289C260.315 119.904 260.516 120.432 260.891 120.812C261.266 121.193 261.792 121.383 262.469 121.383C262.995 121.383 263.492 121.328 263.961 121.219C264.43 121.109 264.919 120.935 265.43 120.695V122.539C265.013 122.747 264.568 122.901 264.094 123C263.62 123.104 263.042 123.156 262.359 123.156ZM273.953 120.406C273.953 121.302 273.641 121.984 273.016 122.453C272.396 122.922 271.466 123.156 270.227 123.156C269.591 123.156 269.049 123.112 268.602 123.023C268.154 122.94 267.734 122.815 267.344 122.648V120.68C267.786 120.888 268.284 121.062 268.836 121.203C269.393 121.344 269.883 121.414 270.305 121.414C271.169 121.414 271.602 121.164 271.602 120.664C271.602 120.477 271.544 120.326 271.43 120.211C271.315 120.091 271.117 119.958 270.836 119.812C270.555 119.661 270.18 119.487 269.711 119.289C269.039 119.008 268.544 118.747 268.227 118.508C267.914 118.268 267.685 117.995 267.539 117.688C267.398 117.375 267.328 116.992 267.328 116.539C267.328 115.763 267.628 115.164 268.227 114.742C268.831 114.315 269.685 114.102 270.789 114.102C271.841 114.102 272.865 114.331 273.859 114.789L273.141 116.508C272.703 116.32 272.294 116.167 271.914 116.047C271.534 115.927 271.146 115.867 270.75 115.867C270.047 115.867 269.695 116.057 269.695 116.438C269.695 116.651 269.807 116.836 270.031 116.992C270.26 117.148 270.758 117.38 271.523 117.688C272.206 117.964 272.706 118.221 273.023 118.461C273.341 118.701 273.576 118.977 273.727 119.289C273.878 119.602 273.953 119.974 273.953 120.406Z" fill="white"/>
<defs>
<filter id="filter0_dd" x="0" y="0" width="770" height="530" filterUnits="userSpaceOnUse" color-interpolation-filters="sRGB">
<feFlood flood-opacity="0" result="BackgroundImageFix"/>
<feColorMatrix in="SourceAlpha" type="matrix" values="0 0 0 0 0 0 0 0 0 0 0 0 0 0 0 0 0 0 127 0"/>
<feOffset dy="5"/>
<feGaussianBlur stdDeviation="5"/>
<feColorMatrix type="matrix" values="0 0 0 0 0.117647 0 0 0 0 0.0509804 0 0 0 0 0.14902 0 0 0 0.1 0"/>
<feBlend mode="normal" in2="BackgroundImageFix" result="effect1_dropShadow"/>
<feColorMatrix in="SourceAlpha" type="matrix" values="0 0 0 0 0 0 0 0 0 0 0 0 0 0 0 0 0 0 127 0"/>
<feOffset dy="10"/>
<feGaussianBlur stdDeviation="15"/>
<feColorMatrix type="matrix" values="0 0 0 0 0.117647 0 0 0 0 0.0509804 0 0 0 0 0.14902 0 0 0 0.1 0"/>
<feBlend mode="normal" in2="effect1_dropShadow" result="effect2_dropShadow"/>
<feBlend mode="normal" in="SourceGraphic" in2="effect2_dropShadow" result="shape"/>
</filter>
<filter id="filter1_dd" x="100" y="70" width="710" height="390" filterUnits="userSpaceOnUse" color-interpolation-filters="sRGB">
<feFlood flood-opacity="0" result="BackgroundImageFix"/>
<feColorMatrix in="SourceAlpha" type="matrix" values="0 0 0 0 0 0 0 0 0 0 0 0 0 0 0 0 0 0 127 0"/>
<feOffset dy="5"/>
<feGaussianBlur stdDeviation="5"/>
<feColorMatrix type="matrix" values="0 0 0 0 0.117647 0 0 0 0 0.0509804 0 0 0 0 0.14902 0 0 0 0.1 0"/>
<feBlend mode="normal" in2="BackgroundImageFix" result="effect1_dropShadow"/>
<feColorMatrix in="SourceAlpha" type="matrix" values="0 0 0 0 0 0 0 0 0 0 0 0 0 0 0 0 0 0 127 0"/>
<feOffset dy="10"/>
<feGaussianBlur stdDeviation="15"/>
<feColorMatrix type="matrix" values="0 0 0 0 0.117647 0 0 0 0 0.0509804 0 0 0 0 0.14902 0 0 0 0.1 0"/>
<feBlend mode="normal" in2="effect1_dropShadow" result="effect2_dropShadow"/>
<feBlend mode="normal" in="SourceGraphic" in2="effect2_dropShadow" result="shape"/>
</filter>
<clipPath id="clip0">
<rect width="24" height="24" fill="white" transform="translate(677 187)"/>
</clipPath>
<clipPath id="clip1">
<rect width="24" height="24" fill="white" transform="translate(677 267)"/>
</clipPath>
<clipPath id="clip2">
<rect width="24" height="24" fill="white" transform="translate(677 348)"/>
</clipPath>
<clipPath id="clip3">
<rect width="20" height="20" fill="white" transform="translate(569 107)"/>
</clipPath>
</defs>
</svg>
