<svg width="590" height="50" viewBox="0 0 590 50" fill="none" xmlns="http://www.w3.org/2000/svg">
<path d="M12.2783 12.4521C12.2783 14.5674 11.6748 16.1875 10.4678 17.3125C9.2666 18.4375 7.5293 19 5.25586 19H1.61719L1.61719 6.15039H5.65137C7.74902 6.15039 9.37793 6.7041 10.5381 7.81152C11.6982 8.91895 12.2783 10.4658 12.2783 12.4521ZM9.44824 12.5225C9.44824 9.7627 8.22949 8.38281 5.79199 8.38281H4.3418V16.75H5.51074C8.13574 16.75 9.44824 15.3408 9.44824 12.5225ZM20.9707 19L20.4521 17.6641H20.3818C19.9307 18.2324 19.4648 18.6279 18.9844 18.8506C18.5098 19.0674 17.8887 19.1758 17.1211 19.1758C16.1777 19.1758 15.4336 18.9062 14.8887 18.3672C14.3496 17.8281 14.0801 17.0605 14.0801 16.0645C14.0801 15.0215 14.4434 14.2539 15.1699 13.7617C15.9023 13.2637 17.0039 12.9883 18.4746 12.9355L20.1797 12.8828V12.4521C20.1797 11.4561 19.6699 10.958 18.6504 10.958C17.8652 10.958 16.9424 11.1953 15.8818 11.6699L14.9941 9.85938C16.125 9.26758 17.3789 8.97168 18.7559 8.97168C20.0742 8.97168 21.085 9.25879 21.7881 9.83301C22.4912 10.4072 22.8428 11.2803 22.8428 12.4521V19H20.9707ZM20.1797 14.4473L19.1426 14.4824C18.3633 14.5059 17.7832 14.6465 17.4023 14.9043C17.0215 15.1621 16.8311 15.5547 16.8311 16.082C16.8311 16.8379 17.2646 17.2158 18.1318 17.2158C18.7529 17.2158 19.248 17.0371 19.6172 16.6797C19.9922 16.3223 20.1797 15.8477 20.1797 15.2559V14.4473ZM31.0957 8.98926C31.459 8.98926 31.7607 9.01562 32.001 9.06836L31.7988 11.582C31.582 11.5234 31.3184 11.4941 31.0078 11.4941C30.1523 11.4941 29.4844 11.7139 29.0039 12.1533C28.5293 12.5928 28.292 13.208 28.292 13.999V19H25.6113V9.17383H27.6416L28.0371 10.8262H28.1689C28.4736 10.2754 28.8838 9.83301 29.3994 9.49902C29.9209 9.15918 30.4863 8.98926 31.0957 8.98926ZM36.3604 13.6562L37.5293 12.1621L40.2803 9.17383H43.3037L39.4014 13.4365L43.541 19H40.4473L37.6172 15.0186L36.4658 15.9414V19H33.7852V5.32422H36.4658V11.4238L36.3252 13.6562H36.3604ZM58.4209 19H55.7402V13.2607C55.7402 12.5518 55.6201 12.0215 55.3799 11.6699C55.1455 11.3125 54.7734 11.1338 54.2637 11.1338C53.5781 11.1338 53.0801 11.3857 52.7695 11.8896C52.459 12.3936 52.3037 13.2227 52.3037 14.377V19H49.623V9.17383H51.6709L52.0312 10.4307H52.1807C52.4443 9.97949 52.8252 9.62793 53.3232 9.37598C53.8213 9.11816 54.3926 8.98926 55.0371 8.98926C56.5078 8.98926 57.5039 9.46973 58.0254 10.4307H58.2627C58.5264 9.97363 58.9131 9.61914 59.4229 9.36719C59.9385 9.11523 60.5186 8.98926 61.1631 8.98926C62.2764 8.98926 63.1172 9.27637 63.6855 9.85059C64.2598 10.4189 64.5469 11.333 64.5469 12.5928V19H61.8574V13.2607C61.8574 12.5518 61.7373 12.0215 61.4971 11.6699C61.2627 11.3125 60.8906 11.1338 60.3809 11.1338C59.7246 11.1338 59.2324 11.3682 58.9043 11.8369C58.582 12.3057 58.4209 13.0498 58.4209 14.0693V19ZM69.4424 14.0693C69.4424 15.042 69.6006 15.7773 69.917 16.2754C70.2393 16.7734 70.7607 17.0225 71.4814 17.0225C72.1963 17.0225 72.709 16.7764 73.0195 16.2842C73.3359 15.7861 73.4941 15.0479 73.4941 14.0693C73.4941 13.0967 73.3359 12.3672 73.0195 11.8809C72.7031 11.3945 72.1846 11.1514 71.4639 11.1514C70.749 11.1514 70.2334 11.3945 69.917 11.8809C69.6006 12.3613 69.4424 13.0908 69.4424 14.0693ZM76.2363 14.0693C76.2363 15.6689 75.8145 16.9199 74.9707 17.8223C74.127 18.7246 72.9521 19.1758 71.4463 19.1758C70.5029 19.1758 69.6709 18.9707 68.9502 18.5605C68.2295 18.1445 67.6758 17.5498 67.2891 16.7764C66.9023 16.0029 66.709 15.1006 66.709 14.0693C66.709 12.4639 67.1279 11.2158 67.9658 10.3252C68.8037 9.43457 69.9814 8.98926 71.499 8.98926C72.4424 8.98926 73.2744 9.19434 73.9951 9.60449C74.7158 10.0146 75.2695 10.6035 75.6562 11.3711C76.043 12.1387 76.2363 13.0381 76.2363 14.0693ZM81.5625 19.1758C80.4082 19.1758 79.5 18.7275 78.8379 17.8311C78.1816 16.9346 77.8535 15.6924 77.8535 14.1045C77.8535 12.4932 78.1875 11.2393 78.8555 10.3428C79.5293 9.44043 80.4551 8.98926 81.6328 8.98926C82.8691 8.98926 83.8125 9.46973 84.4629 10.4307H84.5508C84.416 9.69824 84.3486 9.04492 84.3486 8.4707V5.32422H87.0381V19H84.9814L84.4629 17.7256H84.3486C83.7393 18.6924 82.8105 19.1758 81.5625 19.1758ZM82.5029 17.04C83.1885 17.04 83.6895 16.8408 84.0059 16.4424C84.3281 16.0439 84.5039 15.3672 84.5332 14.4121V14.1221C84.5332 13.0674 84.3691 12.3115 84.041 11.8545C83.7188 11.3975 83.1914 11.1689 82.459 11.1689C81.8613 11.1689 81.3955 11.4238 81.0615 11.9336C80.7334 12.4375 80.5693 13.1729 80.5693 14.1396C80.5693 15.1064 80.7363 15.833 81.0703 16.3193C81.4043 16.7998 81.8818 17.04 82.5029 17.04ZM93.9111 10.8965C93.3428 10.8965 92.8975 11.0781 92.5752 11.4414C92.2529 11.7988 92.0684 12.3086 92.0215 12.9707H95.7832C95.7715 12.3086 95.5986 11.7988 95.2646 11.4414C94.9307 11.0781 94.4795 10.8965 93.9111 10.8965ZM94.2891 19.1758C92.707 19.1758 91.4707 18.7393 90.5801 17.8662C89.6895 16.9932 89.2441 15.7568 89.2441 14.1572C89.2441 12.5107 89.6543 11.2393 90.4746 10.3428C91.3008 9.44043 92.4404 8.98926 93.8936 8.98926C95.2822 8.98926 96.3633 9.38477 97.1367 10.1758C97.9102 10.9668 98.2969 12.0596 98.2969 13.4541V14.7549H91.96C91.9893 15.5166 92.2148 16.1113 92.6367 16.5391C93.0586 16.9668 93.6504 17.1807 94.4121 17.1807C95.0039 17.1807 95.5635 17.1191 96.0908 16.9961C96.6182 16.873 97.1689 16.6768 97.7432 16.4072V18.4814C97.2744 18.7158 96.7734 18.8887 96.2402 19C95.707 19.1172 95.0566 19.1758 94.2891 19.1758Z" fill="#1E0D26"/>
<path d="M5.65332 35.9014C4.55501 35.9014 3.68685 36.2682 3.04883 37.002C2.41536 37.7311 2.09863 38.7314 2.09863 40.0029C2.09863 41.3109 2.40397 42.3226 3.01465 43.0381C3.62988 43.749 4.50488 44.1045 5.63965 44.1045C6.33691 44.1045 7.13216 43.9792 8.02539 43.7285V44.7471C7.33268 45.0068 6.47819 45.1367 5.46191 45.1367C3.98991 45.1367 2.85286 44.6901 2.05078 43.7969C1.25326 42.9036 0.854492 41.6344 0.854492 39.9893C0.854492 38.9593 1.0459 38.057 1.42871 37.2822C1.81608 36.5075 2.37207 35.9105 3.09668 35.4912C3.82585 35.0719 4.68262 34.8623 5.66699 34.8623C6.71517 34.8623 7.63118 35.0537 8.41504 35.4365L7.92285 36.4346C7.16634 36.0791 6.40983 35.9014 5.65332 35.9014ZM13.4531 37.3711C13.7858 37.3711 14.0843 37.3984 14.3486 37.4531L14.1914 38.5059C13.8815 38.4375 13.6081 38.4033 13.3711 38.4033C12.765 38.4033 12.2454 38.6494 11.8125 39.1416C11.3841 39.6338 11.1699 40.2467 11.1699 40.9805V45H10.0352V37.5078H10.9717L11.1016 38.8955H11.1562C11.4342 38.4079 11.7692 38.0319 12.1611 37.7676C12.5531 37.5033 12.9837 37.3711 13.4531 37.3711ZM18.915 45.1367C17.8076 45.1367 16.9326 44.7995 16.29 44.125C15.652 43.4505 15.333 42.514 15.333 41.3154C15.333 40.1077 15.6292 39.1484 16.2217 38.4375C16.8187 37.7266 17.6185 37.3711 18.6211 37.3711C19.5599 37.3711 20.3027 37.681 20.8496 38.3008C21.3965 38.916 21.6699 39.7295 21.6699 40.7412V41.459H16.5088C16.5316 42.3385 16.7526 43.0062 17.1719 43.4619C17.5957 43.9176 18.1904 44.1455 18.9561 44.1455C19.7627 44.1455 20.5602 43.9769 21.3486 43.6396V44.6514C20.9476 44.8245 20.5671 44.9476 20.207 45.0205C19.8516 45.098 19.4209 45.1367 18.915 45.1367ZM18.6074 38.3213C18.0059 38.3213 17.5251 38.5173 17.165 38.9092C16.8096 39.3011 16.5999 39.8434 16.5361 40.5361H20.4531C20.4531 39.8206 20.2936 39.2738 19.9746 38.8955C19.6556 38.5127 19.1999 38.3213 18.6074 38.3213ZM28.2188 45L27.9932 43.9336H27.9385C27.5648 44.403 27.1911 44.722 26.8174 44.8906C26.4482 45.0547 25.9857 45.1367 25.4297 45.1367C24.6868 45.1367 24.1035 44.9453 23.6797 44.5625C23.2604 44.1797 23.0508 43.6351 23.0508 42.9287C23.0508 41.4157 24.2607 40.6227 26.6807 40.5498L27.9521 40.5088V40.0439C27.9521 39.4561 27.8245 39.0231 27.5693 38.7451C27.3187 38.4626 26.9154 38.3213 26.3594 38.3213C25.735 38.3213 25.0286 38.5127 24.2402 38.8955L23.8916 38.0273C24.2607 37.8268 24.6641 37.6696 25.1016 37.5557C25.5436 37.4417 25.9857 37.3848 26.4277 37.3848C27.321 37.3848 27.9818 37.583 28.4102 37.9795C28.8431 38.376 29.0596 39.0117 29.0596 39.8867V45H28.2188ZM25.6553 44.2002C26.3617 44.2002 26.9154 44.0065 27.3164 43.6191C27.722 43.2318 27.9248 42.6895 27.9248 41.9922V41.3154L26.79 41.3633C25.8877 41.3952 25.236 41.5365 24.835 41.7871C24.4385 42.0332 24.2402 42.4183 24.2402 42.9424C24.2402 43.3525 24.3633 43.6647 24.6094 43.8789C24.86 44.0931 25.2087 44.2002 25.6553 44.2002ZM33.8242 44.2002C34.0247 44.2002 34.2184 44.1865 34.4053 44.1592C34.5921 44.1273 34.7402 44.0954 34.8496 44.0635V44.9316C34.7266 44.9909 34.5443 45.0387 34.3027 45.0752C34.0658 45.1162 33.8516 45.1367 33.6602 45.1367C32.2109 45.1367 31.4863 44.3734 31.4863 42.8467V38.3896H30.4131V37.8428L31.4863 37.3711L31.9648 35.7715H32.6211V37.5078H34.7949V38.3896H32.6211V42.7988C32.6211 43.25 32.7282 43.5964 32.9424 43.8379C33.1566 44.0794 33.4505 44.2002 33.8242 44.2002ZM39.5186 45.1367C38.4111 45.1367 37.5361 44.7995 36.8936 44.125C36.2555 43.4505 35.9365 42.514 35.9365 41.3154C35.9365 40.1077 36.2327 39.1484 36.8252 38.4375C37.4222 37.7266 38.222 37.3711 39.2246 37.3711C40.1634 37.3711 40.9062 37.681 41.4531 38.3008C42 38.916 42.2734 39.7295 42.2734 40.7412V41.459H37.1123C37.1351 42.3385 37.3561 43.0062 37.7754 43.4619C38.1992 43.9176 38.7939 44.1455 39.5596 44.1455C40.3662 44.1455 41.1637 43.9769 41.9521 43.6396V44.6514C41.5511 44.8245 41.1706 44.9476 40.8105 45.0205C40.4551 45.098 40.0244 45.1367 39.5186 45.1367ZM39.2109 38.3213C38.6094 38.3213 38.1286 38.5173 37.7686 38.9092C37.4131 39.3011 37.2035 39.8434 37.1396 40.5361H41.0566C41.0566 39.8206 40.8971 39.2738 40.5781 38.8955C40.2591 38.5127 39.8034 38.3213 39.2109 38.3213ZM49.3145 43.9951H49.2529C48.7288 44.7562 47.945 45.1367 46.9014 45.1367C45.9215 45.1367 45.1582 44.8018 44.6113 44.1318C44.069 43.4619 43.7979 42.5094 43.7979 41.2744C43.7979 40.0394 44.0713 39.0801 44.6182 38.3965C45.165 37.7129 45.9261 37.3711 46.9014 37.3711C47.9176 37.3711 48.6969 37.7402 49.2393 38.4785H49.3281L49.2803 37.9385L49.2529 37.4121V34.3633H50.3877V45H49.4648L49.3145 43.9951ZM47.0449 44.1865C47.8197 44.1865 48.3802 43.9769 48.7266 43.5576C49.0775 43.1338 49.2529 42.4525 49.2529 41.5137V41.2744C49.2529 40.2126 49.0752 39.4561 48.7197 39.0049C48.3688 38.5492 47.806 38.3213 47.0312 38.3213C46.3659 38.3213 45.8555 38.5811 45.5 39.1006C45.1491 39.6156 44.9736 40.3447 44.9736 41.2881C44.9736 42.2451 45.1491 42.9674 45.5 43.4551C45.8509 43.9427 46.3659 44.1865 47.0449 44.1865ZM62.959 42.7031H61.4756V45H60.3887V42.7031H55.5283V41.7119L60.2725 34.9512H61.4756V41.6709H62.959V42.7031ZM60.3887 41.6709V38.3486C60.3887 37.6969 60.4115 36.9609 60.457 36.1406H60.4023C60.1836 36.5781 59.9785 36.9404 59.7871 37.2275L56.6631 41.6709H60.3887ZM66.8691 44.2002C67.0697 44.2002 67.2633 44.1865 67.4502 44.1592C67.637 44.1273 67.7852 44.0954 67.8945 44.0635V44.9316C67.7715 44.9909 67.5892 45.0387 67.3477 45.0752C67.1107 45.1162 66.8965 45.1367 66.7051 45.1367C65.2559 45.1367 64.5312 44.3734 64.5312 42.8467V38.3896H63.458V37.8428L64.5312 37.3711L65.0098 35.7715H65.666V37.5078H67.8398V38.3896H65.666V42.7988C65.666 43.25 65.7731 43.5964 65.9873 43.8379C66.2015 44.0794 66.4954 44.2002 66.8691 44.2002ZM74.5254 45V40.1533C74.5254 39.5426 74.3864 39.0869 74.1084 38.7861C73.8304 38.4854 73.3952 38.335 72.8027 38.335C72.0143 38.335 71.4378 38.5492 71.0732 38.9775C70.7132 39.4059 70.5332 40.1077 70.5332 41.083V45H69.3984V34.3633H70.5332V37.583C70.5332 37.9704 70.515 38.2917 70.4785 38.5469H70.5469C70.7702 38.1868 71.0869 37.9043 71.4971 37.6992C71.9118 37.4896 72.3835 37.3848 72.9121 37.3848C73.8281 37.3848 74.514 37.6035 74.9697 38.041C75.43 38.474 75.6602 39.1644 75.6602 40.1123V45H74.5254ZM82.9678 45H81.8057V35.0059H87.377V36.0381H82.9678V39.6953H87.1104V40.7275H82.9678V45ZM92.0322 45.1367C90.9248 45.1367 90.0498 44.7995 89.4072 44.125C88.7692 43.4505 88.4502 42.514 88.4502 41.3154C88.4502 40.1077 88.7464 39.1484 89.3389 38.4375C89.9359 37.7266 90.7357 37.3711 91.7383 37.3711C92.6771 37.3711 93.4199 37.681 93.9668 38.3008C94.5137 38.916 94.7871 39.7295 94.7871 40.7412V41.459H89.626C89.6488 42.3385 89.8698 43.0062 90.2891 43.4619C90.7129 43.9176 91.3076 44.1455 92.0732 44.1455C92.8799 44.1455 93.6774 43.9769 94.4658 43.6396V44.6514C94.0648 44.8245 93.6842 44.9476 93.3242 45.0205C92.9688 45.098 92.5381 45.1367 92.0322 45.1367ZM91.7246 38.3213C91.123 38.3213 90.6423 38.5173 90.2822 38.9092C89.9268 39.3011 89.7171 39.8434 89.6533 40.5361H93.5703C93.5703 39.8206 93.4108 39.2738 93.0918 38.8955C92.7728 38.5127 92.3171 38.3213 91.7246 38.3213ZM100.215 37.3848C101.199 37.3848 101.963 37.722 102.505 38.3965C103.052 39.0664 103.325 40.0166 103.325 41.2471C103.325 42.4775 103.049 43.4346 102.498 44.1182C101.951 44.7972 101.19 45.1367 100.215 45.1367C99.7272 45.1367 99.2806 45.0479 98.875 44.8701C98.474 44.6878 98.1367 44.4098 97.8633 44.0361H97.7812L97.542 45H96.7285V34.3633H97.8633V36.9473C97.8633 37.526 97.8451 38.0456 97.8086 38.5059H97.8633C98.3919 37.7585 99.1758 37.3848 100.215 37.3848ZM100.051 38.335C99.276 38.335 98.7178 38.5583 98.376 39.0049C98.0342 39.4469 97.8633 40.1943 97.8633 41.2471C97.8633 42.2998 98.0387 43.054 98.3896 43.5098C98.7406 43.9609 99.3034 44.1865 100.078 44.1865C100.775 44.1865 101.295 43.9336 101.637 43.4277C101.979 42.9173 102.149 42.1859 102.149 41.2334C102.149 40.2581 101.979 39.5312 101.637 39.0527C101.295 38.5742 100.766 38.335 100.051 38.335ZM115.001 45H108.432V44.0225L111.063 41.377C111.866 40.5658 112.394 39.987 112.649 39.6406C112.905 39.2943 113.096 38.957 113.224 38.6289C113.351 38.3008 113.415 37.9476 113.415 37.5693C113.415 37.0361 113.253 36.6146 112.93 36.3047C112.606 35.9902 112.157 35.833 111.583 35.833C111.168 35.833 110.774 35.9014 110.4 36.0381C110.031 36.1748 109.619 36.4232 109.163 36.7832L108.562 36.0107C109.482 35.2451 110.485 34.8623 111.569 34.8623C112.508 34.8623 113.244 35.1038 113.777 35.5869C114.311 36.0654 114.577 36.7103 114.577 37.5215C114.577 38.1549 114.399 38.7816 114.044 39.4014C113.688 40.0212 113.023 40.805 112.048 41.7529L109.86 43.8926V43.9473H115.001V45ZM123.067 39.9893C123.067 41.7165 122.794 43.0062 122.247 43.8584C121.705 44.7106 120.873 45.1367 119.752 45.1367C118.676 45.1367 117.858 44.7015 117.298 43.8311C116.737 42.9561 116.457 41.6755 116.457 39.9893C116.457 38.2484 116.728 36.9564 117.271 36.1133C117.813 35.2702 118.64 34.8486 119.752 34.8486C120.837 34.8486 121.659 35.2884 122.22 36.168C122.785 37.0475 123.067 38.3213 123.067 39.9893ZM117.605 39.9893C117.605 41.443 117.776 42.5026 118.118 43.168C118.46 43.8288 119.005 44.1592 119.752 44.1592C120.508 44.1592 121.055 43.8242 121.393 43.1543C121.734 42.4798 121.905 41.4248 121.905 39.9893C121.905 38.5537 121.734 37.5033 121.393 36.8379C121.055 36.168 120.508 35.833 119.752 35.833C119.005 35.833 118.46 36.1634 118.118 36.8242C117.776 37.4805 117.605 38.5355 117.605 39.9893ZM131.024 45H124.455V44.0225L127.087 41.377C127.889 40.5658 128.418 39.987 128.673 39.6406C128.928 39.2943 129.119 38.957 129.247 38.6289C129.375 38.3008 129.438 37.9476 129.438 37.5693C129.438 37.0361 129.277 36.6146 128.953 36.3047C128.63 35.9902 128.181 35.833 127.606 35.833C127.192 35.833 126.798 35.9014 126.424 36.0381C126.055 36.1748 125.642 36.4232 125.187 36.7832L124.585 36.0107C125.506 35.2451 126.508 34.8623 127.593 34.8623C128.532 34.8623 129.268 35.1038 129.801 35.5869C130.334 36.0654 130.601 36.7103 130.601 37.5215C130.601 38.1549 130.423 38.7816 130.067 39.4014C129.712 40.0212 129.047 40.805 128.071 41.7529L125.884 43.8926V43.9473H131.024V45ZM136.671 45H135.563V37.877C135.563 37.2845 135.582 36.724 135.618 36.1953C135.522 36.291 135.415 36.3913 135.297 36.4961C135.178 36.6009 134.636 37.0452 133.67 37.8291L133.068 37.0498L135.714 35.0059H136.671V45ZM148.319 45H147.212V37.877C147.212 37.2845 147.23 36.724 147.267 36.1953C147.171 36.291 147.064 36.3913 146.945 36.4961C146.827 36.6009 146.285 37.0452 145.318 37.8291L144.717 37.0498L147.362 35.0059H148.319V45ZM156.331 45H155.224V37.877C155.224 37.2845 155.242 36.724 155.278 36.1953C155.183 36.291 155.076 36.3913 154.957 36.4961C154.839 36.6009 154.296 37.0452 153.33 37.8291L152.729 37.0498L155.374 35.0059H156.331V45ZM160.494 44.2754C160.494 43.9701 160.562 43.7399 160.699 43.585C160.84 43.4255 161.041 43.3457 161.301 43.3457C161.565 43.3457 161.77 43.4255 161.916 43.585C162.066 43.7399 162.142 43.9701 162.142 44.2754C162.142 44.5716 162.066 44.7995 161.916 44.959C161.766 45.1185 161.561 45.1982 161.301 45.1982C161.068 45.1982 160.875 45.1276 160.72 44.9863C160.569 44.8405 160.494 44.6035 160.494 44.2754ZM160.494 38.2393C160.494 37.624 160.763 37.3164 161.301 37.3164C161.861 37.3164 162.142 37.624 162.142 38.2393C162.142 38.5355 162.066 38.7633 161.916 38.9229C161.766 39.0824 161.561 39.1621 161.301 39.1621C161.068 39.1621 160.875 39.0915 160.72 38.9502C160.569 38.8044 160.494 38.5674 160.494 38.2393ZM170.912 42.7031H169.429V45H168.342V42.7031H163.481V41.7119L168.226 34.9512H169.429V41.6709H170.912V42.7031ZM168.342 41.6709V38.3486C168.342 37.6969 168.365 36.9609 168.41 36.1406H168.355C168.137 36.5781 167.932 36.9404 167.74 37.2275L164.616 41.6709H168.342ZM175.007 38.8955C176.06 38.8955 176.887 39.1576 177.488 39.6816C178.094 40.2012 178.397 40.9144 178.397 41.8213C178.397 42.8558 178.067 43.667 177.406 44.2549C176.75 44.8428 175.843 45.1367 174.686 45.1367C173.56 45.1367 172.701 44.9567 172.108 44.5967V43.5029C172.427 43.708 172.824 43.8698 173.298 43.9883C173.772 44.1022 174.239 44.1592 174.699 44.1592C175.501 44.1592 176.123 43.9701 176.565 43.5918C177.012 43.2135 177.235 42.6667 177.235 41.9512C177.235 40.5566 176.381 39.8594 174.672 39.8594C174.239 39.8594 173.66 39.9255 172.936 40.0576L172.348 39.6816L172.724 35.0059H177.693V36.0518H173.694L173.441 39.0527C173.965 38.9479 174.487 38.8955 175.007 38.8955ZM185.021 45L184.796 43.9336H184.741C184.368 44.403 183.994 44.722 183.62 44.8906C183.251 45.0547 182.788 45.1367 182.232 45.1367C181.49 45.1367 180.906 44.9453 180.482 44.5625C180.063 44.1797 179.854 43.6351 179.854 42.9287C179.854 41.4157 181.063 40.6227 183.483 40.5498L184.755 40.5088V40.0439C184.755 39.4561 184.627 39.0231 184.372 38.7451C184.121 38.4626 183.718 38.3213 183.162 38.3213C182.538 38.3213 181.831 38.5127 181.043 38.8955L180.694 38.0273C181.063 37.8268 181.467 37.6696 181.904 37.5557C182.346 37.4417 182.788 37.3848 183.23 37.3848C184.124 37.3848 184.785 37.583 185.213 37.9795C185.646 38.376 185.862 39.0117 185.862 39.8867V45H185.021ZM182.458 44.2002C183.164 44.2002 183.718 44.0065 184.119 43.6191C184.525 43.2318 184.728 42.6895 184.728 41.9922V41.3154L183.593 41.3633C182.69 41.3952 182.039 41.5365 181.638 41.7871C181.241 42.0332 181.043 42.4183 181.043 42.9424C181.043 43.3525 181.166 43.6647 181.412 43.8789C181.663 44.0931 182.011 44.2002 182.458 44.2002ZM197.757 45V40.126C197.757 39.529 197.629 39.0824 197.374 38.7861C197.119 38.4854 196.722 38.335 196.185 38.335C195.478 38.335 194.956 38.5378 194.619 38.9434C194.282 39.349 194.113 39.9733 194.113 40.8164V45H192.979V40.126C192.979 39.529 192.851 39.0824 192.596 38.7861C192.34 38.4854 191.942 38.335 191.399 38.335C190.688 38.335 190.167 38.5492 189.834 38.9775C189.506 39.4014 189.342 40.0986 189.342 41.0693V45H188.207V37.5078H189.13L189.314 38.5332H189.369C189.583 38.1686 189.884 37.8838 190.271 37.6787C190.663 37.4736 191.101 37.3711 191.584 37.3711C192.755 37.3711 193.521 37.7949 193.881 38.6426H193.936C194.159 38.2507 194.482 37.9408 194.906 37.7129C195.33 37.485 195.813 37.3711 196.355 37.3711C197.203 37.3711 197.837 37.5898 198.256 38.0273C198.68 38.4603 198.892 39.1553 198.892 40.1123V45H197.757Z" fill="#999999"/>
<path d="M535.836 15.1429C533.425 13.4713 530.484 12.7411 527.571 13.0905C524.658 13.4399 521.973 14.8446 520.026 17.039C518.078 19.2334 517.001 22.0654 517 24.9996L519 25.0005C519.001 22.5554 519.898 20.1954 521.521 18.3667C523.145 16.538 525.382 15.3675 527.809 15.0763C530.237 14.7851 532.687 15.3936 534.697 16.7866C536.707 18.1796 538.136 20.2606 538.715 22.6362C539.295 25.0117 538.983 27.5172 537.841 29.6789C536.698 31.8406 534.803 33.5086 532.513 34.3677C530.224 35.2267 527.699 35.2173 525.416 34.341C523.969 33.7854 522.682 32.9056 521.647 31.7828L525.624 32.8908L526.161 30.9642L518.057 28.7063L519.099 36.9871L521.083 36.7375L520.697 33.669C521.84 34.7642 523.198 35.6316 524.7 36.2082C527.439 37.2597 530.469 37.2711 533.216 36.2402C535.963 35.2093 538.237 33.2076 539.609 30.6136C540.98 28.0196 541.354 25.013 540.658 22.1624C539.963 19.3117 538.248 16.8145 535.836 15.1429Z" fill="#C0BCC2"/>
<path d="M530 18V24H536V26H528V18H530Z" fill="#C0BCC2"/>
<path fill-rule="evenodd" clip-rule="evenodd" d="M583 13H573V17H566V19H590V17H583V13ZM581 17V15H575V17H581Z" fill="#F67055"/>
<path d="M571 34V21H569V34C569 34.7957 569.316 35.5587 569.879 36.1213C570.441 36.6839 571.204 37 572 37H584C584.796 37 585.559 36.6839 586.121 36.1213C586.684 35.5587 587 34.7957 587 34V21H585V34C585 34.2652 584.895 34.5196 584.707 34.7071C584.52 34.8946 584.265 35 584 35H572C571.735 35 571.48 34.8946 571.293 34.7071C571.105 34.5196 571 34.2652 571 34Z" fill="#F67055"/>
<path d="M579 24V32H577V24H579Z" fill="#F67055"/>
<path d="M575 32V24H573V32H575Z" fill="#F67055"/>
<path d="M583 24V32H581V24H583Z" fill="#F67055"/>
<rect x="432" y="10" width="55" height="30" rx="15" fill="#22194D"/>
<circle cx="447" cy="25" r="10" fill="white"/>
</svg>
