<svg width="200" height="28" viewBox="0 0 200 28" fill="none" xmlns="http://www.w3.org/2000/svg">
<rect width="200" height="28" rx="14" fill="white"/>
<path fill-rule="evenodd" clip-rule="evenodd" d="M16.2945 18.0705C19.2349 20.3193 23.458 20.0991 26.1471 17.41C29.0761 14.4811 29.0761 9.73232 26.1471 6.80339C23.2182 3.87446 18.4695 3.87446 15.5405 6.80339C12.8513 9.49263 12.6312 13.716 14.8803 16.6563L9.3457 22.1909L10.7599 23.6051L16.2945 18.0705ZM24.7329 15.9958C22.585 18.1437 19.1026 18.1437 16.9547 15.9958C14.8068 13.8479 14.8068 10.3655 16.9547 8.2176C19.1026 6.06972 22.585 6.06972 24.7329 8.2176C26.8808 10.3655 26.8808 13.8479 24.7329 15.9958Z" fill="#1E0D26"/>
</svg>
